<svg id="Layer_1" data-name="Layer 1" xmlns="http://www.w3.org/2000/svg" viewBox="0 0 740 180" width="740" height="180"><defs><style>.cls-1{font-size:11px;font-family:GoogleSans-Regular, Google Sans;}.cls-1,.cls-3{fill:#616161;}.cls-2{fill:#d0d2d3;}.cls-3{font-size:13.2px;font-family:GoogleSans-Medium, Google Sans;font-weight:500;}.cls-4{fill:#fff;}.cls-5{fill:#afbdc4;}.cls-6{fill:#adbbc2;fill-rule:evenodd;}.cls-7{fill:#729cee;}.cls-8{fill:#5284eb;}.cls-9{fill:#b2caf5;}</style></defs><text class="cls-1" transform="translate(161.01 134.33) scale(1.07 1)">Processes uploaded <tspan x="36.15" y="13.2">image</tspan></text><rect class="cls-2" x="158.32" y="119.78" width="115.5" height="0.83"/><text class="cls-3" transform="translate(165.91 112.29)">Cloud Functions</text><text class="cls-1" transform="translate(121.39 40.84)">Function <tspan x="-0.46" y="13.2">triggered</tspan></text><text class="cls-3" transform="translate(633.51 110.18)">Storage</text><path class="cls-4" d="M684.14,64.26H650.48v13.1h37.4V64.26Zm-15,7.48H658V69.88h11.22Zm8.4,1.88a2.82,2.82,0,1,1,2.82-2.82v0A2.82,2.82,0,0,1,677.58,73.62Z"/><path class="cls-4" d="M686,47.44H650.48V60.53h37.4V47.44Zm-16.83,7.48H658V53h11.22Zm8.4,1.88A2.82,2.82,0,1,1,680.4,54v0a2.81,2.81,0,0,1-2.82,2.81h0Z"/><text class="cls-1" transform="translate(316.27 135.1) scale(1.07 1)">Detects offensive<tspan x="26.06" y="13.2">images</tspan></text><rect class="cls-2" x="311.07" y="119.45" width="104.5" height="0.82"/><text class="cls-3" transform="translate(312.91 111.96)">Cloud Vision API</text><text class="cls-1" transform="translate(460.32 134.33) scale(1.07 1)">Blurs images using<tspan x="12.6" y="13.2">ImageMagick</tspan><tspan x="44.78" y="26.4"> </tspan></text><rect class="cls-2" x="454.25" y="119.78" width="110.61" height="0.83"/><text class="cls-3" transform="translate(459.39 112.29)">Cloud Functions</text><rect class="cls-5" x="105.14" y="61.25" width="74.8" height="3.3"/><polygon class="cls-6" points="186.37 62.84 178.29 70.05 178.29 55.75 186.37 62.84"/><rect class="cls-5" x="245.85" y="61.25" width="74.8" height="3.3"/><polygon class="cls-6" points="327.08 62.84 319 70.05 319 55.75 327.08 62.84"/><rect class="cls-5" x="398.58" y="61.25" width="74.8" height="3.3"/><polygon class="cls-6" points="479.82 62.84 471.73 70.05 471.73 55.75 479.82 62.84"/><rect class="cls-5" x="539.8" y="61.25" width="74.8" height="3.3"/><polygon class="cls-6" points="621.03 62.84 612.95 70.05 612.95 55.75 621.03 62.84"/><g id="colored-32_functions" data-name="colored-32 functions"><g id="Shape"><polygon class="cls-7" points="192.97 69.48 199.9 75.1 199.9 47.38 192.97 52.99 192.97 69.48"/><polygon class="cls-8" points="192.97 56.62 199.9 52 199.9 47.38 192.97 56.62"/><polygon class="cls-8" points="199.9 75.1 199.9 70.48 192.97 65.86 199.9 75.1"/><polygon class="cls-9" points="206.83 79.72 192.97 65.86 192.97 75.1 202.21 84.34 206.83 79.72"/></g></g><polygon class="cls-9" points="202.18 38.17 192.97 47.38 192.99 56.62 206.8 42.8 202.18 38.17"/><g id="colored-32_functions-2" data-name="colored-32 functions-2"><g id="Shape-2"><polygon class="cls-7" points="239.17 53.04 232.24 47.41 232.24 75.14 239.17 69.53 239.17 53.04"/><polygon class="cls-8" points="239.17 65.89 232.24 70.52 232.24 75.14 239.17 65.89"/><polygon class="cls-8" points="232.24 47.41 232.24 52.03 239.17 56.66 232.24 47.41"/><polygon class="cls-9" points="225.31 42.8 239.17 56.66 239.17 47.41 229.93 38.17 225.31 42.8"/></g></g><polygon class="cls-9" points="229.96 84.34 239.17 75.14 239.16 65.89 225.34 79.72 229.96 84.34"/><circle id="Oval" class="cls-9" cx="206.83" cy="61.24" r="2.31"/><circle id="Oval-2" class="cls-9" cx="216.07" cy="61.24" r="2.31"/><circle id="Oval-3" class="cls-9" cx="225.3" cy="61.24" r="2.31"/><g id="colored-32_vision" data-name="colored-32 vision"><g id="art2"><polygon id="Shape-2-2" data-name="Shape" class="cls-7" points="343.58 62.55 362.56 78.32 362.56 87.85 330.93 62.55 343.58 62.55"/><polygon id="Shape-2-3" data-name="Shape-2" class="cls-7" points="362.56 78.32 381.53 62.55 394.18 62.55 362.56 87.85 362.56 78.32"/><polygon id="Shape-3" class="cls-9" points="330.93 62.55 362.56 37.25 362.56 46.78 343.58 62.55 330.93 62.55"/><polygon id="Shape-4" class="cls-9" points="362.56 46.78 381.53 62.55 394.18 62.55 362.56 37.25 362.56 46.78"/><circle id="Oval-2-2" data-name="Oval" class="cls-8" cx="362.56" cy="62.55" r="6.33"/></g></g><g id="colored-32_functions-2-2" data-name="colored-32 functions"><g id="Shape-3-2" data-name="Shape"><polygon class="cls-7" points="486.45 70.6 493.38 76.22 493.38 48.5 486.45 54.11 486.45 70.6"/><polygon class="cls-8" points="486.45 57.74 493.38 53.12 493.38 48.5 486.45 57.74"/><polygon class="cls-8" points="493.38 76.22 493.38 71.6 486.45 66.98 493.38 76.22"/><polygon class="cls-9" points="500.31 80.84 486.45 66.98 486.45 76.22 495.69 85.46 500.31 80.84"/></g></g><polygon class="cls-9" points="495.66 39.29 486.45 48.5 486.47 57.74 500.28 43.91 495.66 39.29"/><g id="colored-32_functions-2-3" data-name="colored-32 functions-2"><g id="Shape-2-4" data-name="Shape-2"><polygon class="cls-7" points="532.65 54.15 525.72 48.53 525.72 76.25 532.65 70.65 532.65 54.15"/><polygon class="cls-8" points="532.65 67.01 525.72 71.63 525.72 76.25 532.65 67.01"/><polygon class="cls-8" points="525.72 48.53 525.72 53.15 532.65 57.77 525.72 48.53"/><polygon class="cls-9" points="518.79 43.91 532.65 57.77 532.65 48.53 523.41 39.29 518.79 43.91"/></g></g><polygon class="cls-9" points="523.44 85.46 532.65 76.25 532.64 67.01 518.82 80.84 523.44 85.46"/><circle id="Oval-3-2" data-name="Oval" class="cls-9" cx="500.31" cy="62.36" r="2.31"/><circle id="Oval-2-3" data-name="Oval-2" class="cls-9" cx="509.55" cy="62.36" r="2.31"/><circle id="Oval-3-3" data-name="Oval-3" class="cls-9" cx="518.78" cy="62.36" r="2.31"/><rect class="cls-9" x="633.76" y="43.19" width="48.4" height="16.94"/><rect class="cls-7" x="677.32" y="43.19" width="4.84" height="16.94"/><polygon class="cls-8" points="682.16 43.19 677.32 43.19 677.32 60.13 682.16 43.19"/><rect class="cls-7" x="633.76" y="43.19" width="4.84" height="16.94"/><rect class="cls-4" x="643.44" y="50.45" width="14.52" height="2.42"/><rect class="cls-4" x="665.22" y="48.03" width="7.26" height="7.26" rx="2.42"/><rect class="cls-9" x="633.76" y="64.97" width="48.4" height="16.94"/><rect class="cls-7" x="677.32" y="64.97" width="4.84" height="16.94"/><polygon class="cls-8" points="682.16 64.97 677.32 64.97 677.32 81.91 682.16 64.97"/><rect class="cls-7" x="633.76" y="64.97" width="4.84" height="16.94"/><rect class="cls-4" x="643.44" y="72.23" width="14.52" height="2.42"/><rect class="cls-4" x="665.22" y="69.81" width="7.26" height="7.26" rx="2.42"/><text class="cls-3" transform="translate(50.97 110.18)">Storage</text><path class="cls-4" d="M101.59,64.26H67.93v13.1h37.4V64.26Zm-15,7.48H75.41V69.88H86.63ZM95,73.62a2.82,2.82,0,1,1,2.81-2.82v0A2.81,2.81,0,0,1,95,73.62Z"/><path class="cls-4" d="M103.46,47.44H67.93V60.53h37.4V47.44ZM86.63,54.92H75.41V53H86.63ZM95,56.8A2.82,2.82,0,1,1,97.85,54v0A2.81,2.81,0,0,1,95,56.81h0Z"/><rect class="cls-9" x="51.21" y="43.19" width="48.4" height="16.94"/><rect class="cls-7" x="94.77" y="43.19" width="4.84" height="16.94"/><polygon class="cls-8" points="99.61 43.19 94.77 43.19 94.77 60.13 99.61 43.19"/><rect class="cls-7" x="51.21" y="43.19" width="4.84" height="16.94"/><rect class="cls-4" x="60.89" y="50.45" width="14.52" height="2.42"/><rect class="cls-4" x="82.67" y="48.03" width="7.26" height="7.26" rx="2.42"/><rect class="cls-9" x="51.21" y="64.97" width="48.4" height="16.94"/><rect class="cls-7" x="94.77" y="64.97" width="4.84" height="16.94"/><polygon class="cls-8" points="99.61 64.97 94.77 64.97 94.77 81.91 99.61 64.97"/><rect class="cls-7" x="51.21" y="64.97" width="4.84" height="16.94"/><rect class="cls-4" x="60.89" y="72.23" width="14.52" height="2.42"/><rect class="cls-4" x="82.67" y="69.81" width="7.26" height="7.26" rx="2.42"/></svg>