<svg id="Layer_1" data-name="Layer 1" xmlns="http://www.w3.org/2000/svg" viewBox="0 0 700 164" width="700" height="164"><defs><style>.cls-1,.cls-2{fill:#afbdc4;}.cls-2{fill-rule:evenodd;}.cls-3{font-size:13.2px;fill:#616161;font-family:GoogleSans-Medium, Google Sans;font-weight:500;}.cls-4{fill:#fff;}.cls-5{fill:#b2caf5;}.cls-6{fill:#729cee;}.cls-7{fill:#5284eb;}.cls-8{fill:#e8f0fe;}</style></defs><rect class="cls-1" x="498.59" y="63.69" width="72.6" height="3.3"/><polygon class="cls-2" points="575.12 65.16 567.04 72.38 567.04 58.08 575.12 65.16"/><rect class="cls-1" x="367.83" y="63.69" width="74.25" height="3.3"/><polygon class="cls-2" points="444.91 65.16 436.83 72.38 436.83 58.08 444.91 65.16"/><polygon class="cls-2" points="445.19 65.13 437.11 72.34 437.11 58.04 445.19 65.13"/><rect class="cls-1" x="232.82" y="63.69" width="72.6" height="3.3"/><polygon class="cls-2" points="309.77 65.16 301.69 72.38 301.69 58.08 309.77 65.16"/><rect class="cls-1" x="121.5" y="63.69" width="54.2" height="3.3"/><polygon class="cls-2" points="180.73 65.16 172.65 72.38 172.65 58.08 180.73 65.16"/><text class="cls-3" transform="translate(176.6 113.84)">Database</text><text class="cls-3" transform="translate(288.67 113.84)">Cloud Functions</text><text class="cls-3" transform="translate(56.18 113.84)">New follower</text><text class="cls-3" transform="translate(424.85 113.84)">Firebase Cloud<tspan x="13.11" y="15.84">Messaging</tspan></text><text class="cls-3" transform="translate(555.91 113.84)">New message</text><g id="colored-32_functions" data-name="colored-32 functions"><g id="Shape"><polygon class="cls-4" points="319.04 72.08 324.98 76.91 324.98 53.15 319.04 57.97 319.04 72.08"/><polygon class="cls-4" points="319.04 61.07 324.98 57.11 324.98 53.15 319.04 61.07"/><polygon class="cls-4" points="324.98 76.91 324.98 72.95 319.04 68.99 324.98 76.91"/><polygon class="cls-4" points="330.92 80.87 319.04 68.99 319.04 76.91 326.96 84.83 330.92 80.87"/></g></g><polygon class="cls-4" points="326.94 45.25 319.04 53.15 319.06 61.07 330.9 49.21 326.94 45.25"/><g id="colored-32_functions-2" data-name="colored-32 functions-2"><g id="Shape-2"><polygon class="cls-4" points="358.64 58.01 352.7 53.17 352.7 76.93 358.64 72.14 358.64 58.01"/><polygon class="cls-4" points="358.64 69.01 352.7 72.97 352.7 76.93 358.64 69.01"/><polygon class="cls-4" points="352.7 53.17 352.7 57.13 358.64 61.09 352.7 53.17"/><polygon class="cls-4" points="346.76 49.21 358.64 61.09 358.64 53.17 350.72 45.25 346.76 49.21"/></g></g><polygon class="cls-4" points="350.74 84.83 358.64 76.93 358.62 69.01 346.78 80.87 350.74 84.83"/><circle id="Oval" class="cls-4" cx="330.92" cy="65.03" r="1.98"/><circle id="Oval-2" class="cls-4" cx="338.84" cy="65.03" r="1.98"/><circle id="Oval-3" class="cls-4" cx="346.74" cy="65.03" r="1.98"/><path class="cls-5" d="M224.49,63.05H186.76a.74.74,0,0,1-.74-.74V46a.74.74,0,0,1,.74-.74h37.73a.75.75,0,0,1,.75.74V62.31A.75.75,0,0,1,224.49,63.05ZM195.06,49.92a4.21,4.21,0,1,0,4.21,4.21A4.21,4.21,0,0,0,195.06,49.92Z"/><path class="cls-6" d="M224.49,84.81H186.76a.74.74,0,0,1-.74-.74V67.71a.74.74,0,0,1,.74-.74h37.73a.75.75,0,0,1,.75.74V84.07A.75.75,0,0,1,224.49,84.81ZM195.06,71.68a4.21,4.21,0,1,0,4.21,4.21A4.21,4.21,0,0,0,195.06,71.68Z"/><path class="cls-5" d="M490,69.75H473.82a2,2,0,0,0-2,2V89.94l4-4H490a2,2,0,0,0,2-2V71.77A2,2,0,0,0,490,69.75Zm-11.11,9.09h-2v-2h2Zm4,0h-2v-2h2Zm4,0h-2v-2h2Z"/><path class="cls-6" d="M464.92,85.82c3.14,1.69,4.46-.32,4.46-1.19V72a4.36,4.36,0,0,1,4.45-4.35h8.06s-2.25-15.54-2.65-17.17-1.28-.87-1.93-.33-5,5.33-5,5.33-3.91-6.74-4.45-7.83-1.42-.76-1.85,0-2.5,4-2.5,4-5.22-9.45-5.88-10.54-1.76-.79-1.84,0c-.32,3.48-5.43,36.41-5.43,36.41l13.26-24.78,4,7.28-17.28,17.5Z"/><path class="cls-6" d="M97.06,68.06c-7,0-20.9,3.48-20.9,10.45V86H118V78.51C118,71.54,104,68.06,97.06,68.06Zm0-6a9,9,0,1,0-9-9A9,9,0,0,0,97.06,62.09Z"/><g id="colored-32_functions-2-2" data-name="colored-32 functions"><g id="Shape-2-2" data-name="Shape"><polygon class="cls-6" points="315.74 75.03 322.67 80.65 322.67 52.93 315.74 58.53 315.74 75.03"/><polygon class="cls-7" points="315.74 62.17 322.67 57.55 322.67 52.93 315.74 62.17"/><polygon class="cls-7" points="322.67 80.65 322.67 76.03 315.74 71.41 322.67 80.65"/><polygon class="cls-5" points="329.6 85.27 315.74 71.41 315.74 80.65 324.98 89.89 329.6 85.27"/></g></g><polygon class="cls-5" points="324.95 43.72 315.74 52.93 315.75 62.17 329.57 48.34 324.95 43.72"/><g id="colored-32_functions-2-3" data-name="colored-32 functions-2"><g id="Shape-2-3" data-name="Shape-2"><polygon class="cls-6" points="361.94 58.58 355.01 52.96 355.01 80.68 361.94 75.07 361.94 58.58"/><polygon class="cls-7" points="361.94 71.44 355.01 76.06 355.01 80.68 361.94 71.44"/><polygon class="cls-7" points="355.01 52.96 355.01 57.58 361.94 62.2 355.01 52.96"/><polygon class="cls-5" points="348.08 48.34 361.94 62.2 361.94 52.96 352.7 43.72 348.08 48.34"/></g></g><polygon class="cls-5" points="352.73 89.89 361.94 80.68 361.92 71.44 348.11 85.27 352.73 89.89"/><circle id="Oval-2-2" data-name="Oval" class="cls-5" cx="329.6" cy="66.79" r="2.31"/><circle id="Oval-2-3" data-name="Oval-2" class="cls-5" cx="338.84" cy="66.79" r="2.31"/><circle id="Oval-3-2" data-name="Oval-3" class="cls-5" cx="348.06" cy="66.79" r="2.31"/><path class="cls-6" d="M611.91,36.22h-26a5.22,5.22,0,0,0-5.2,5.2v46.8a5.22,5.22,0,0,0,5.2,5.2h26a5.22,5.22,0,0,0,5.2-5.2V41.42A5.22,5.22,0,0,0,611.91,36.22Z"/><rect class="cls-8" x="584.05" y="42.3" width="29.71" height="45.05"/><path class="cls-6" d="M605.7,56.33H592.11a1.7,1.7,0,0,0-1.69,1.7V73.32l3.4-3.4H605.7a1.71,1.71,0,0,0,1.7-1.7V58A1.71,1.71,0,0,0,605.7,56.33ZM596.36,64h-1.7V62.28h1.7Zm3.4,0h-1.7V62.28h1.7Zm3.39,0h-1.7V62.28h1.7Z"/></svg>