<svg id="Layer_1" data-name="Layer 1" xmlns="http://www.w3.org/2000/svg" viewBox="0 0 700 330" width="700" height="330"><defs><style>.cls-1,.cls-10{fill:#adbbc2;}.cls-1,.cls-15,.cls-16,.cls-17{fill-rule:evenodd;}.cls-2{font-size:13.2px;font-family:GoogleSans-Medium, Google Sans;font-weight:500;}.cls-2,.cls-6{fill:#616161;}.cls-3{fill:#ededed;}.cls-4,.cls-6{font-size:11px;font-family:GoogleSans-Regular, Google Sans;}.cls-4{fill:#5e686b;}.cls-5{fill:#abbcc4;}.cls-7{fill:#cbcccd;}.cls-8{fill:#b3b9bc;}.cls-9{fill:#6eb4f3;}.cls-11,.cls-16{fill:#729cee;}.cls-12{fill:#e8f0fe;}.cls-13,.cls-17{fill:#5284eb;}.cls-14,.cls-15{fill:#b2caf5;}.cls-18{fill:#f2f6fc;}</style></defs><polygon class="cls-1" points="501.25 50.44 493.16 57.66 493.16 43.35 501.25 50.44"/><polygon class="cls-1" points="500.14 221.98 492.06 229.19 492.06 214.89 500.14 221.98"/><text class="cls-2" transform="translate(76.75 195.13)">Text Message</text><text class="cls-2" transform="translate(313.7 195.13)">Cloud Functions</text><path class="cls-3" d="M161.67,102.87H125.05l-5.8,8.8-5.69-8.8H76.84a9.93,9.93,0,0,1-9.9-9.9V56.61a9.93,9.93,0,0,1,9.9-9.9h84.83a9.93,9.93,0,0,1,9.9,9.9V93A9.93,9.93,0,0,1,161.67,102.87Z"/><text class="cls-4" transform="translate(80.49 66.02)">“Devoxx is such<tspan x="9.26" y="13.2">an amazing </tspan><tspan x="21.19" y="26.4">event!”</tspan></text><rect class="cls-5" x="142.99" y="141.91" width="57.2" height="3.3"/><polygon class="cls-1" points="202.84 143.49 194.75 150.71 194.75 136.41 202.84 143.49"/><path class="cls-5" d="M199.34,158.93h-4.4v-3.3h4.4Zm-6.6,0h-4.4v-3.3h4.4Zm-6.6,0h-4.4v-3.3h4.4Zm-6.6,0h-4.4v-3.3h4.4Zm-6.6,0h-4.4v-3.3h4.4Zm-6.6,0h-4.4v-3.3h4.4Zm-6.6,0h-4.4v-3.3h4.4Zm-6.6,0h-4.4v-3.3h4.4Z"/><polygon class="cls-1" points="142.79 157.22 150.87 164.43 150.87 150.13 142.79 157.22"/><polyline class="cls-1" points="401.82 140.23 393.74 147.31 401.82 154.53"/><text class="cls-2" transform="translate(467.02 95.33)">Natural Language API</text><text class="cls-6" transform="translate(481 121.76)">Sentiment extraction</text><rect class="cls-7" x="466.93" y="104.41" width="133.84" height="1.1"/><text class="cls-2" transform="translate(504.03 270.37)">BigQuery</text><text class="cls-6" transform="translate(498.05 295.69)">Trend analysis</text><rect class="cls-7" x="489.21" y="279.44" width="88" height="1.1"/><path class="cls-3" d="M590.83,67.45h-21.9A6.18,6.18,0,0,1,563,61V37.52a6.19,6.19,0,0,1,5.9-6.41h50.58a6.19,6.19,0,0,1,5.9,6.41V61a6.18,6.18,0,0,1-5.9,6.41H590.83Z"/><path class="cls-8" d="M607.82,38.61A10.67,10.67,0,1,0,618.5,49.28,10.67,10.67,0,0,0,607.82,38.61Zm-5.33,8a1.6,1.6,0,1,1,1.6,1.6A1.6,1.6,0,0,1,602.49,46.61Zm8.54,8h-6.4V52.48H611Zm.53-6.41a1.6,1.6,0,1,1,1.6-1.6A1.6,1.6,0,0,1,611.56,48.21Z"/><path class="cls-9" d="M580.6,38.61a10.67,10.67,0,1,0,10.69,10.67A10.67,10.67,0,0,0,580.6,38.61Zm3.75,6.4a1.6,1.6,0,1,1-1.6,1.6A1.6,1.6,0,0,1,584.35,45Zm-7.47,0a1.6,1.6,0,1,1-1.61,1.6A1.6,1.6,0,0,1,576.88,45Zm3.73,10.14a5.86,5.86,0,0,1-5.45-3.73h10.91A5.88,5.88,0,0,1,580.61,55.15Z"/><path class="cls-10" d="M425.32,148.69v-.15H398.75v-3.3h20.63c6.7,0,7.11,0,7.35,0l1-.08c.38,0,.73-.09,1.08-.15l1-.2c.4-.09.74-.19,1.08-.29l1-.33c.38-.14.72-.28,1.05-.43l.94-.45,1-.57.92-.58c.34-.24.65-.46.95-.69l.85-.68c.34-.3.63-.56.91-.83l.79-.78.85-.95.72-.9c.29-.37.53-.7.77-1l.65-1c.25-.41.47-.78.67-1.15l.57-1.07c.22-.44.4-.83.58-1.23l.48-1.16c.18-.44.33-.86.47-1.27l.38-1.21c.14-.49.25-.92.36-1.35l.28-1.25c.09-.5.17-.94.24-1.39l.17-1.26c.06-.52.1-1,.13-1.43l.06-1.29c0-.35,0-.64,0-.94V74.67c0-.49,0-.94.05-1.39l.11-1.31c0-.49.11-.94.17-1.38l.22-1.29c.09-.48.18-.92.28-1.35l.33-1.27c.13-.46.26-.88.4-1.31l.42-1.21c.17-.44.34-.85.51-1.25l.53-1.15c.21-.43.41-.81.61-1.19l.63-1.08c.24-.4.47-.76.71-1.11l.71-1c.28-.37.54-.7.8-1l.8-.9c.31-.34.6-.64.89-.92l.87-.8c.33-.3.65-.56,1-.81l.94-.69c.37-.25.7-.47,1-.68l1-.57c.38-.21.74-.38,1.09-.55l1-.44c.41-.16.78-.29,1.15-.4l1.06-.31c.42-.11.8-.19,1.18-.26l1.08-.16c.44,0,.82-.09,1.2-.11l27.54,0V52l-27.45,0c-.23,0-.54,0-.85.08l-1,.15c-.27.05-.57.11-.87.19l-1,.28-.85.3-.94.4c-.25.12-.54.26-.83.42l-.91.52-.8.52-.86.64c-.23.18-.5.4-.76.63l-.8.74c-.22.22-.47.47-.71.73l-.74.85c-.2.24-.43.53-.65.82l-.66.94c-.19.27-.39.58-.59.9l-.58,1c-.16.29-.34.63-.51,1l-.49,1.09c-.14.32-.29.67-.43,1l-.4,1.14c-.11.34-.23.72-.34,1.1l-.3,1.19c-.08.35-.17.75-.24,1.15l-.21,1.22c0,.36-.1.77-.14,1.17l-.1,1.25c0,.37,0,.77-.05,1.18v44.06H450l-.12,3.1h0l-.05.46,0,1h-.06l-.21,1.57h0l-.08.38-.14,1.06h-.07l-.34,1.56h0l-.07.27-.27,1.2-.08,0-.43,1.36h0L448,131l-.36,1.13-.08,0-.54,1.31h0l-.12.24-.5,1.2-.08,0-.61,1.16h0l-.13.2-.61,1.16-.08-.06-.7,1.06,0,0-.19.24-.75,1.14-.08-.07-.67.82,0,0-.23.24-.89,1.1-.08-.09-.66.67v0l-.3.25-1,1-.07-.1-.68.55v0l-.37.25-1.06.86-.06-.12-.68.44v0l-.4.2-1.12.71-.05-.11-.69.34v0l-.44.16-1.25.61,0-.14-.59.2v.07l-.63.14-1.08.37,0-.12-.68.14v.07l-.68.06-1.16.24,0-.12Z"/><path class="cls-10" d="M492.8,223.36l-25.25,0c-.47,0-.85-.06-1.24-.11l-1.08-.16c-.43-.08-.81-.16-1.18-.26l-1.07-.3c-.41-.13-.78-.26-1.14-.4l-1-.44c-.4-.18-.75-.36-1.1-.55l-1-.56c-.38-.24-.72-.45-1-.68l-.94-.69c-.35-.28-.67-.54-1-.8l-.87-.81c-.33-.31-.61-.61-.89-.91l-.8-.91c-.29-.35-.55-.68-.8-1l-.72-1c-.26-.38-.49-.74-.71-1.1l-.63-1.08c-.22-.42-.42-.8-.61-1.19l-.53-1.15c-.19-.44-.36-.85-.51-1.26l-.43-1.21c-.15-.45-.28-.88-.4-1.31l-.33-1.26c-.11-.47-.2-.9-.29-1.35l-.21-1.29c-.07-.48-.13-.93-.18-1.38l-.1-1.31c0-.49-.05-.94-.06-1.39V174.8c0-.29,0-.58,0-.87l-.06-1.3c0-.51-.07-1-.12-1.41l-.17-1.27c-.08-.52-.16-1-.24-1.4l-.27-1.24c-.13-.5-.24-.93-.36-1.36l-.38-1.2c-.16-.48-.31-.89-.47-1.3l-.48-1.15c-.2-.45-.38-.84-.57-1.22L443,160c-.23-.42-.45-.78-.67-1.14l-.65-1c-.27-.39-.51-.72-.76-1.05l-.73-.9c-.29-.35-.56-.65-.83-.94l-.79-.79c-.33-.32-.62-.58-.91-.83l-.86-.7c-.34-.26-.65-.48-1-.69l-.9-.58c-.37-.22-.69-.4-1-.57l-.92-.45c-.39-.18-.73-.31-1.07-.44l-1-.34c-.36-.11-.7-.2-1.05-.29l-1-.2c-.4-.07-.74-.12-1.1-.16l-1-.08-.82,0H398.75v-3.3h26.56v-.1l2.43.16v-.1l.9.17.95.07v.11l.68.13,0-.08.8.25.92.19,0,.1.62.21,0-.11.94.44.74.25v.09l.72.35,0-.09.82.51.69.33,0,.08.66.42,0-.1.85.67.65.41,0,.07.67.54.05-.08.76.74.55.45,0,.06.66.67.06-.07.68.8.45.47,0,0,.69.84.06-.06,1,1.34,0,.05.67,1,.06,0,.79,1.33,0,0,.63,1.18.06,0,.65,1.37,0,0,.56,1.33.06,0,.24.73.29.69-.05,0,.45,1.42.05,0,.39,1.42,0,0,.32,1.45h.05l.11.7.17.8-.05,0,.2,1.49h0l0,.62.12.87h-.06l.15,3H450v22.14c0,.38,0,.79.05,1.19l.1,1.25c0,.37.09.77.15,1.17l.2,1.22c.07.36.16.76.25,1.15l.3,1.18c.1.35.22.73.34,1.1l.4,1.15c.13.33.28.69.43,1l.5,1.09c.15.31.33.65.51,1l.58,1c.18.29.38.6.59.91l.67.93c.19.26.42.55.65.83l.74.84c.21.23.46.48.71.73l.8.74c.23.2.5.42.77.63l.86.64c.24.16.52.35.81.52l.9.52c.25.13.54.28.84.41l.94.4c.25.1.55.21.86.3l1,.28c.26.06.57.13.88.18l1,.15.88.08,25.17,0Z"/><path class="cls-11" d="M132.25,114.9h-26a5.22,5.22,0,0,0-5.2,5.2v46.8a5.22,5.22,0,0,0,5.2,5.2h26a5.22,5.22,0,0,0,5.2-5.2V120.1A5.22,5.22,0,0,0,132.25,114.9Z"/><rect class="cls-12" x="104.4" y="120.97" width="29.71" height="45.05"/><path class="cls-11" d="M126.05,135H112.46a1.69,1.69,0,0,0-1.69,1.69V152l3.4-3.4h11.89a1.7,1.7,0,0,0,1.7-1.69V136.7A1.7,1.7,0,0,0,126.05,135Zm-9.34,7.64H115V141h1.7Zm3.39,0h-1.69V141h1.69Zm3.4,0h-1.7V141h1.7Z"/><g id="colored-32_functions" data-name="colored-32 functions"><g id="Shape"><polygon class="cls-11" points="338.56 154.8 346.15 160.96 346.15 130.6 338.56 136.74 338.56 154.8"/><polygon class="cls-13" points="338.56 140.72 346.15 135.66 346.15 130.6 338.56 140.72"/><polygon class="cls-13" points="346.15 160.96 346.15 155.9 338.56 150.84 346.15 160.96"/><polygon class="cls-14" points="353.74 166.02 338.56 150.84 338.56 160.96 348.68 171.08 353.74 166.02"/></g></g><polygon class="cls-14" points="348.65 120.51 338.56 130.6 338.58 140.72 353.71 125.57 348.65 120.51"/><g id="colored-32_functions-2" data-name="colored-32 functions-2"><g id="Shape-2"><polygon class="cls-11" points="389.16 136.79 381.57 130.63 381.57 160.99 389.16 154.85 389.16 136.79"/><polygon class="cls-13" points="389.16 150.87 381.57 155.93 381.57 160.99 389.16 150.87"/><polygon class="cls-13" points="381.57 130.63 381.57 135.69 389.16 140.75 381.57 130.63"/><polygon class="cls-14" points="373.98 125.57 389.16 140.75 389.16 130.63 379.04 120.51 373.98 125.57"/></g></g><polygon class="cls-14" points="379.08 171.08 389.16 160.99 389.15 150.87 374.02 166.02 379.08 171.08"/><circle id="Oval" class="cls-14" cx="353.74" cy="145.78" r="2.53"/><circle id="Oval-2" class="cls-14" cx="363.86" cy="145.78" r="2.53"/><circle id="Oval-3" class="cls-14" cx="373.97" cy="145.78" r="2.53"/><polygon class="cls-11" points="551.6 30.7 544.01 30.7 544.01 35.76 551.6 35.76 551.6 66.12 544.01 66.12 544.01 71.18 551.6 71.18 556.66 71.18 556.66 66.12 556.66 35.76 556.66 30.7 551.6 30.7"/><g id="Shape-2-2" data-name="Shape"><polygon class="cls-13" points="551.6 38.29 556.66 35.76 551.6 35.76 551.6 38.29"/><polygon class="cls-13" points="556.66 63.59 551.6 66.12 556.66 66.12 556.66 63.59"/></g><polygon class="cls-11" points="511.12 71.18 518.71 71.18 518.71 66.12 511.12 66.12 511.12 35.76 518.71 35.76 518.71 30.7 511.12 30.7 506.06 30.7 506.06 35.76 506.06 66.12 506.06 71.18 511.12 71.18"/><g id="Shape-2-3" data-name="Shape-2"><polygon class="cls-13" points="506.06 63.59 511.12 66.12 506.06 66.12 506.06 63.59"/><polygon class="cls-13" points="511.12 38.29 506.06 35.76 511.12 35.76 511.12 38.29"/></g><rect id="Rectangle-7-Copy" class="cls-14" x="518.71" y="48.41" width="25.3" height="5.06"/><rect id="Rectangle-7-Copy-2" class="cls-14" x="518.71" y="56" width="25.3" height="5.06"/><rect id="Rectangle-7-Copy-3" class="cls-14" x="518.71" y="40.82" width="25.3" height="5.06"/><g id="Product_Icons" data-name="Product Icons"><g id="Shape-3" data-name="Shape"><path class="cls-15" d="M518,221.62v6.65a12.33,12.33,0,0,0,4.32,4.41V221.62Z"/><path class="cls-16" d="M526,215.5v19.05a18.84,18.84,0,0,0,2.81.15,21.36,21.36,0,0,0,2.53,0V215.5Z"/><path class="cls-15" d="M535.51,224.23v8.32a12.65,12.65,0,0,0,4.3-4.6v-3.72Z"/><path class="cls-17" d="M545.88,235.51l-3.59,3.59a1.06,1.06,0,0,0,0,1.5l0,0,9,9a1.09,1.09,0,0,0,1.5,0l3.61-3.62a1.06,1.06,0,0,0,0-1.49l-9-9a1.07,1.07,0,0,0-1.51,0v0"/><path class="cls-16" d="M528.83,199.28a22.77,22.77,0,1,0,22.77,22.77,22.77,22.77,0,0,0-22.77-22.77m0,39.7a16.9,16.9,0,1,1,16.92-16.93A16.91,16.91,0,0,1,528.83,239h0"/></g></g><rect class="cls-5" x="273.83" y="141.91" width="57.2" height="3.3"/><polygon class="cls-1" points="333.68 143.49 325.6 150.71 325.6 136.41 333.68 143.49"/><path class="cls-5" d="M330.18,158.93h-4.4v-3.3h4.4Zm-6.6,0h-4.4v-3.3h4.4Zm-6.6,0h-4.4v-3.3H317Zm-6.6,0H306v-3.3h4.4Zm-6.6,0h-4.4v-3.3h4.4Zm-6.6,0h-4.4v-3.3h4.4Zm-6.6,0h-4.4v-3.3h4.4Zm-6.6,0h-4.4v-3.3H284Z"/><polygon class="cls-1" points="273.63 157.22 281.71 164.43 281.71 150.13 273.63 157.22"/><rect class="cls-18" x="207.39" y="127.76" width="61.21" height="38.83" rx="9.9"/><text class="cls-2" transform="translate(220.12 151.11)">Twilio</text></svg>