<svg id="Layer_1" data-name="Layer 1" xmlns="http://www.w3.org/2000/svg" viewBox="0 0 725.72 346.88" width="725.72" height="346.88"><defs><style>.cls-1{font-size:12px;fill:#616161;font-family:GoogleSans-Medium, Google Sans;font-weight:500;}.cls-2{fill:#afbdc4;}.cls-3,.cls-4{fill:#adbbc2;}.cls-10,.cls-3,.cls-9{fill-rule:evenodd;}.cls-10,.cls-5{fill:#729cee;}.cls-6,.cls-9{fill:#5284eb;}.cls-7{fill:#b2caf5;}.cls-8{fill:#fff;}.cls-11{fill:#f2f6fc;}</style></defs><text class="cls-1" transform="translate(258.9 208.92)">Dialogflow</text><rect class="cls-2" x="177.11" y="163.43" width="68" height="3"/><rect class="cls-2" x="318.25" y="163.42" width="52" height="3"/><text class="cls-1" transform="translate(356.98 208.92)">Cloud Functions</text><polygon class="cls-3" points="511.42 76.67 504.07 83.22 504.07 70.22 511.42 76.67"/><polygon class="cls-3" points="510.72 251.87 503.38 258.43 503.38 245.43 510.72 251.87"/><text class="cls-1" transform="translate(512.37 288.32)">Datastore</text><text class="cls-1" transform="translate(515.19 120.72)">AI Platform</text><text class="cls-1" transform="translate(598.35 120.72)">Vision API</text><path class="cls-4" d="M455.92,165.54v-.13H430.75v-3H457.2l.89-.07c.38,0,.7-.09,1-.14l.9-.18c.36-.09.67-.17,1-.27l.89-.3c.34-.13.65-.25.95-.39l.86-.42c.33-.17.63-.33.92-.5l.81-.52.89-.64.77-.62c.31-.27.57-.51.83-.75l.72-.73c.28-.3.52-.57.76-.85l.66-.81c.26-.35.49-.65.7-1l.59-.9c.23-.37.43-.7.61-1l.52-1c.2-.4.36-.75.52-1.11l.43-1c.17-.44.31-.81.44-1.19l.34-1.1c.13-.44.24-.83.33-1.22l.25-1.12c.09-.47.16-.87.22-1.28l.16-1.15c.05-.48.09-.88.11-1.3l.06-1.18c0-.31,0-.58,0-.84V98.25c0-.44,0-.85.05-1.26l.1-1.2c0-.44.09-.85.15-1.25l.2-1.18c.08-.43.16-.83.26-1.22l.29-1.15c.12-.42.24-.81.36-1.19l.39-1.1c.16-.41.31-.78.46-1.14l.49-1c.18-.38.36-.73.55-1.08l.57-1c.22-.36.43-.69.65-1l.64-.91c.26-.33.49-.63.74-.92l.72-.83c.28-.3.54-.57.81-.83l.78-.73c.31-.27.6-.51.89-.73l.84-.63c.34-.23.64-.43,1-.62l.9-.51c.35-.2.67-.36,1-.51l.94-.39a11,11,0,0,1,1-.37l1-.28c.38-.1.72-.17,1.07-.24l1-.15c.39,0,.73-.08,1.08-.1l13,0v3l-12.95,0c-.21,0-.49,0-.77.08l-.9.13-.78.18-.89.25c-.23.07-.5.17-.78.28l-.85.36c-.23.1-.5.24-.76.38l-.82.47c-.22.14-.48.3-.73.48l-.78.58c-.21.16-.46.37-.69.57l-.73.67-.64.67-.67.77c-.19.22-.4.48-.6.75l-.6.85c-.17.25-.35.53-.53.82l-.53.92c-.15.27-.31.58-.46.89l-.46,1-.38,1-.37,1c-.1.31-.2.65-.3,1L479,92.85c-.08.33-.15.68-.22,1L478.6,95c0,.33-.09.69-.13,1.06l-.09,1.13c0,.34,0,.71,0,1.08v40.05h.06l-.11,2.8h0l-.05.41-.05.95h-.06l-.18,1.38h0l-.07.31-.12,1h-.07l-.31,1.4h0l-.08.26-.22,1-.07,0-.42,1.33,0,0-.11.27-.31,1-.07,0-.51,1.22h0l-.11.21-.47,1.13-.08,0-.55,1h0l-.08.14-.61,1.15-.08-.06-.59.89,0,0-.17.21-.69,1.05-.07-.07-.62.77h0l-.19.2-.81,1-.07-.08-.63.64v0l-.22.19-.93.94-.07-.1-.61.49v0l-.31.21-1,.78-.05-.11-.62.39,0,0-.38.19-1,.66,0-.11-.6.3v0l-.42.15-1.07.53-.05-.12-.58.2v.06l-.58.13-1,.35,0-.12-.61.13v0l-.55.06-1,.21,0-.11Z"/><path class="cls-4" d="M507.26,253.43l-13,0c-.43,0-.77-.05-1.12-.09l-1-.15c-.38-.07-.73-.15-1.07-.23l-1-.28c-.38-.12-.71-.24-1-.36l-.94-.4c-.37-.17-.69-.33-1-.5l-.89-.51c-.35-.21-.65-.41-.95-.62l-.85-.63c-.32-.25-.61-.48-.89-.73l-.79-.73-.81-.83-.72-.82c-.27-.32-.5-.62-.73-.93l-.65-.91c-.24-.35-.45-.67-.65-1l-.57-1c-.21-.37-.39-.72-.56-1.08l-.48-1c-.17-.4-.32-.77-.46-1.14l-.4-1.11c-.13-.41-.25-.79-.36-1.18l-.3-1.15c-.1-.43-.18-.83-.26-1.23l-.19-1.17c-.07-.44-.12-.85-.16-1.25l-.1-1.2c0-.44,0-.85-.05-1.26v-40.6c0-.27,0-.53,0-.8l-.05-1.17c0-.47-.07-.88-.11-1.29l-.16-1.15c-.07-.47-.14-.87-.22-1.27l-.25-1.14c-.1-.45-.21-.84-.32-1.22l-.34-1.1c-.15-.43-.29-.81-.43-1.18l-.43-1c-.19-.42-.35-.78-.52-1.12l-.5-1c-.24-.41-.43-.74-.63-1.06l-.59-.91-.69-.95-.65-.8c-.28-.34-.53-.61-.77-.87l-.72-.72c-.3-.29-.56-.53-.83-.76l-.78-.63c-.31-.24-.59-.44-.87-.63l-.84-.54c-.31-.18-.61-.35-.9-.5l-.85-.41c-.35-.16-.65-.29-1-.4l-.87-.3c-.36-.11-.68-.2-1-.27l-.87-.18c-.39-.07-.71-.11-1-.15l-.89-.07-.75,0H430.75v-3h25.16v-.1l2.26.15v-.08l.76.14.82.07V163l.61.12,0-.09.79.26.83.17,0,.09.58.2,0-.1.84.39.66.23v.07l.58.29,0-.09.84.52.6.29,0,.07.63.39,0-.08.74.58.55.35,0,.07.65.52,0-.07.69.67.47.38,0,0,.63.63.06-.06.61.74.43.43,0,.05.61.75,0-.06.51.76.38.46,0,0,.62.93.05,0,.73,1.23,0,0,.54,1,.06,0,.62,1.32,0,0,.49,1.16,0,0,.23.7.27.63,0,0,.4,1.24.05,0,.34,1.27,0,0,.32,1.45h0l.24,1.27-.05,0,.2,1.45h0l0,.48.1.76-.05,0,.14,2.84h-.08v40.09c0,.34,0,.71,0,1.07l.1,1.14c0,.33.08.7.13,1.06l.19,1.11c.06.33.13.69.22,1l.28,1.09c.09.31.19.65.3,1l.37,1c.12.3.25.63.39,1l.45,1c.14.28.3.59.47.89l.53.92c.16.26.34.55.53.83l.61.85c.17.23.38.49.59.75l.67.76.65.67.73.67.69.57.79.58c.21.15.47.32.73.48l.82.47c.23.12.49.25.76.37l.86.37.78.27.88.25c.23.06.51.12.79.17l.9.14c.23,0,.51,0,.8.06l12.87,0Z"/><path class="cls-4" d="M223,166.63l-2.26-.15v.08l-.78-.14-.8-.06v-.09l-.62-.12,0,.08-.78-.25-.83-.17v-.09l-.6-.21,0,.1-.82-.39-.67-.23v-.07l-.59-.29,0,.08-.82-.5-.61-.3,0-.07-.59-.37-.05.09-.77-.61-.55-.35,0-.07-.64-.51-.05.07-.69-.68L209,161l0,0-.63-.64-.06.06-.6-.73-.42-.42,0,0-.63-.76,0,.05-.52-.76-.37-.46,0,0-.59-.89-.06.05-.73-1.26,0,0-.55-1-.06,0-.6-1.28,0,0-.53-1.25-.05,0-.46-1.24,0,0-.42-1.33h0l-.34-1.24,0,0-.31-1.4h0l-.24-1.27.05,0-.19-1.38h0l0-.56-.11-.8h.06l-.14-2.74h.08V83.37c0-.34,0-.71,0-1.08l-.09-1.13c0-.34-.08-.7-.14-1.07L200.13,79c-.07-.33-.14-.68-.23-1l-.27-1.08c-.09-.31-.2-.66-.31-1l-.37-1c-.11-.3-.25-.62-.39-.95l-.45-1c-.14-.29-.3-.59-.46-.9l-.54-.92c-.15-.26-.34-.54-.53-.82l-.6-.85c-.18-.23-.38-.5-.6-.75l-.67-.77c-.19-.2-.42-.44-.65-.66l-.73-.67c-.2-.18-.45-.38-.69-.58l-.78-.57-.74-.48-.82-.47c-.22-.12-.49-.25-.76-.38l-.86-.36a7.8,7.8,0,0,0-.78-.27l-.88-.25c-.23-.06-.51-.12-.79-.17l-.89-.14-.81-.07-7.87,0v-3l8,0c.43,0,.78,0,1.12.09l1,.15c.39.07.73.14,1.07.23l1,.27c.38.13.71.24,1,.37l.94.4c.37.17.69.33,1,.5l.89.51c.35.21.65.41.95.62l.85.62c.33.26.61.49.89.74l.79.72c.29.29.55.56.81.84l.72.82c.27.32.5.62.74.92l.65.92c.23.34.44.67.65,1l.56,1c.21.38.39.73.56,1.08l.48,1.05c.18.4.32.76.47,1.14l.39,1.1c.13.41.25.8.36,1.19l.3,1.15c.1.42.18.82.26,1.23l.2,1.17c.06.44.11.84.15,1.25l.1,1.2c0,.44,0,.85.05,1.26v56.6c0,.27,0,.53,0,.79l.05,1.18c0,.47.07.88.12,1.28l.15,1.16c.07.47.14.87.22,1.27l.25,1.13c.11.45.21.85.32,1.23l.35,1.1c.14.43.28.81.42,1.17l.43,1c.19.42.35.77.53,1.12l.5,1c.23.41.42.74.62,1.06l.59.9c.25.36.47.66.69.95l.67.82c.27.32.51.59.76.86l.7.71c.31.3.58.53.84.76l.78.63c.31.24.59.44.87.64l.82.52c.33.2.63.36.93.52l.84.41c.35.16.66.28,1,.4l.86.3c.37.11.68.19,1,.27l.89.18c.36.07.68.11,1,.15l.89.07h29.51v3H223Z"/><path class="cls-4" d="M176.67,278.29v-3l8,0,.78-.07.89-.14.79-.17.88-.25.78-.28.85-.37c.23-.1.5-.23.76-.37l.82-.48c.22-.13.48-.3.73-.48l.78-.57c.21-.17.46-.37.69-.58l.73-.67c.2-.2.43-.43.64-.67l.68-.76.59-.75.6-.85c.17-.25.36-.54.53-.83l.53-.92c.15-.27.31-.58.46-.89l.46-1c.12-.29.26-.62.38-.95l.37-1c.1-.31.21-.65.31-1l.27-1.08c.08-.32.15-.68.22-1l.19-1.11c.05-.33.09-.7.13-1.07l.09-1.13c0-.33,0-.7,0-1.08V190.57h-.05l.1-2.75h0l0-.42.05-.88h0l.2-1.5h0l.05-.26.13-1h.06l.31-1.41h0l.08-.25.23-1.07.08,0,.4-1.28h0l.11-.27.33-1,.07,0,.49-1.17h0l.1-.21.47-1.13.08.05.53-1h0l.11-.18.6-1.14.08.07.58-.87,0,0,.19-.24.68-1.05.07.08.61-.75v0l.2-.21.81-1,.07.08.63-.63v0l.23-.19.89-.91.07.1.65-.53v0l.31-.2,1-.79.06.11.62-.4v0l.38-.2,1-.65.05.11.6-.3v0l.42-.16,1.05-.51,0,.12.6-.2v-.06l.59-.14,1-.34,0,.11.62-.12v-.06l.56-.06,1-.21,0,.11,2.26-.18v.13h28.15v3H222.41l-.68,0-.93.07c-.35,0-.67.08-1,.13L219,167c-.39.09-.71.18-1,.27l-.89.3-1,.39-.86.42c-.33.17-.63.34-.91.51l-.84.53c-.31.21-.59.42-.87.63l-.75.61c-.32.27-.59.51-.84.75l-.72.72c-.29.31-.53.58-.77.86l-.66.82c-.26.34-.48.64-.7,1l-.59.9c-.23.37-.42.7-.61,1l-.52,1c-.2.4-.36.76-.52,1.11l-.43,1c-.17.44-.31.81-.44,1.19l-.34,1.1c-.13.44-.23.83-.33,1.23l-.25,1.12c-.09.47-.16.87-.22,1.27l-.16,1.16c-.05.47-.08.88-.11,1.29l-.06,1.18c0,.32,0,.58,0,.85v64.56c0,.45,0,.86-.05,1.27l-.09,1.19c-.05.44-.1.85-.16,1.25l-.2,1.18c-.08.43-.16.83-.26,1.23l-.29,1.14c-.12.43-.24.81-.36,1.19l-.39,1.1c-.16.41-.31.78-.46,1.14l-.49,1.05c-.18.39-.36.74-.55,1.08l-.57,1c-.22.37-.43.69-.64,1l-.65.91c-.25.34-.49.64-.74.93l-.71.82c-.28.3-.55.57-.82.83l-.78.73c-.31.27-.59.51-.88.74l-.85.62c-.34.23-.64.43-.95.62l-.89.52c-.36.19-.68.35-1,.5l-.93.4-1.05.37-1,.27c-.38.1-.72.18-1.07.24l-1,.15c-.4.05-.74.08-1.09.1Z"/><polygon class="cls-3" points="374.42 164.99 367.07 171.55 367.07 158.55 374.42 164.99"/><polygon class="cls-3" points="257.33 164.99 249.98 171.55 249.98 158.55 257.33 164.99"/><g id="colored-32_functions" data-name="colored-32 functions"><g id="Shape"><polygon class="cls-5" points="379.59 172.3 386.49 177.9 386.49 150.3 379.59 155.88 379.59 172.3"/><polygon class="cls-6" points="379.59 159.5 386.49 154.9 386.49 150.3 379.59 159.5"/><polygon class="cls-6" points="386.49 177.9 386.49 173.3 379.59 168.7 386.49 177.9"/><polygon class="cls-7" points="393.39 182.5 379.59 168.7 379.59 177.9 388.79 187.1 393.39 182.5"/></g></g><polygon class="cls-7" points="388.76 141.13 379.59 150.3 379.6 159.5 393.36 145.73 388.76 141.13"/><g id="colored-32_functions-2" data-name="colored-32 functions-2"><g id="Shape-2"><polygon class="cls-5" points="425.59 155.93 418.69 150.33 418.69 177.93 425.59 172.35 425.59 155.93"/><polygon class="cls-6" points="425.59 168.73 418.69 173.33 418.69 177.93 425.59 168.73"/><polygon class="cls-6" points="418.69 150.33 418.69 154.93 425.59 159.53 418.69 150.33"/><polygon class="cls-7" points="411.79 145.73 425.59 159.53 425.59 150.33 416.39 141.13 411.79 145.73"/></g></g><polygon class="cls-7" points="416.42 187.1 425.59 177.93 425.57 168.73 411.82 182.5 416.42 187.1"/><circle id="Oval" class="cls-7" cx="393.39" cy="164.1" r="2.3"/><circle id="Oval-2" class="cls-7" cx="402.59" cy="164.1" r="2.3"/><circle id="Oval-3" class="cls-7" cx="411.77" cy="164.1" r="2.3"/><g id="Product_Icons" data-name="Product Icons"><polygon class="cls-7" points="528.37 237.18 530.77 234.78 516.37 234.78 518.77 237.18 528.37 237.18"/><polygon class="cls-5" points="528.37 237.18 528.37 246.78 530.77 249.18 530.77 234.78 528.37 237.18"/><polygon class="cls-7" points="518.77 237.18 516.37 234.78 516.37 249.18 518.77 246.78 518.77 237.18"/><polygon class="cls-6" points="518.77 246.78 516.37 249.18 530.77 249.18 528.37 246.78 518.77 246.78"/><rect class="cls-7" x="518.77" y="237.18" width="9.6" height="9.6"/><polygon class="cls-6" points="545.17 237.18 547.57 234.78 533.17 234.78 535.57 237.18 545.17 237.18"/><polygon class="cls-7" points="545.17 237.18 545.17 246.78 547.57 249.18 547.57 234.78 545.17 237.18"/><polygon class="cls-6" points="535.57 237.18 533.17 234.78 533.17 249.18 535.57 246.78 535.57 237.18"/><polygon class="cls-7" points="535.57 246.78 533.17 249.18 547.57 249.18 545.17 246.78 535.57 246.78"/><rect class="cls-8" x="535.57" y="237.18" width="9.6" height="9.6"/><polygon class="cls-6" points="561.97 237.18 564.37 234.78 549.97 234.78 552.37 237.18 561.97 237.18"/><polygon class="cls-7" points="561.97 237.18 561.97 246.78 564.37 249.18 564.37 234.78 561.97 237.18"/><polygon class="cls-6" points="552.37 237.18 549.97 234.78 549.97 249.18 552.37 246.78 552.37 237.18"/><polygon class="cls-7" points="552.37 246.78 549.97 249.18 564.37 249.18 561.97 246.78 552.37 246.78"/><rect class="cls-8" x="552.37" y="237.18" width="9.6" height="9.6"/><polygon class="cls-6" points="528.37 256.38 530.77 253.98 516.37 253.98 518.77 256.38 528.37 256.38"/><polygon class="cls-7" points="528.37 256.38 528.37 265.98 530.77 268.38 530.77 253.98 528.37 256.38"/><polygon class="cls-6" points="518.77 256.38 516.37 253.98 516.37 268.38 518.77 265.98 518.77 256.38"/><polygon class="cls-7" points="518.77 265.98 516.37 268.38 530.77 268.38 528.37 265.98 518.77 265.98"/><rect class="cls-8" x="518.77" y="256.38" width="9.6" height="9.6"/><polygon class="cls-7" points="545.17 256.38 547.57 253.98 533.17 253.98 535.57 256.38 545.17 256.38"/><polygon class="cls-5" points="545.17 256.38 545.17 265.98 547.57 268.38 547.57 253.98 545.17 256.38"/><polygon class="cls-7" points="535.57 256.38 533.17 253.98 533.17 268.38 535.57 265.98 535.57 256.38"/><polygon class="cls-6" points="535.57 265.98 533.17 268.38 547.57 268.38 545.17 265.98 535.57 265.98"/><rect class="cls-7" x="535.57" y="256.38" width="9.6" height="9.6"/><polygon class="cls-7" points="561.97 256.38 564.37 253.98 549.97 253.98 552.37 256.38 561.97 256.38"/><polygon class="cls-5" points="561.97 256.38 561.97 265.98 564.37 268.38 564.37 253.98 561.97 256.38"/><polygon class="cls-7" points="552.37 256.38 549.97 253.98 549.97 268.38 552.37 265.98 552.37 256.38"/><polygon class="cls-6" points="552.37 265.98 549.97 268.38 564.37 268.38 561.97 265.98 552.37 265.98"/><rect class="cls-7" x="552.37" y="256.38" width="9.6" height="9.6"/></g><g id="Product_Icons-2" data-name="Product Icons"><g id="Shape-2-2" data-name="Shape"><polygon class="cls-9" points="557.51 82.68 559.28 79.68 567.76 79.68 570.37 75.17 565.14 66.17 557.77 66.17 555.23 61.7 552.37 61.7 552.37 58.68 557.03 58.68 559.57 63.17 563.39 63.17 558.13 54.17 547.88 54.17 547.88 66.17 552.04 66.17 553.79 69.17 547.88 69.17 547.88 75.17 553.31 75.17 555.83 70.68 562.57 70.68 564.3 73.68 557.58 73.68 555.06 78.17 547.88 78.17 547.88 88.68 556.04 88.68 554.32 91.68 547.88 91.68 547.88 96.17 558.13 96.17 566 82.68 560.99 82.68 559.24 85.68 552.37 85.68 552.37 82.68 557.51 82.68"/><polygon class="cls-10" points="535.24 82.68 533.46 79.68 524.99 79.68 522.37 75.17 527.61 66.17 534.97 66.17 537.52 61.7 540.37 61.7 540.37 58.68 535.72 58.68 533.17 63.17 529.36 63.17 534.61 54.17 544.88 54.17 544.88 66.17 540.71 66.17 538.96 69.17 544.88 69.17 544.88 75.17 539.44 75.17 536.92 70.68 530.17 70.68 528.45 73.68 535.16 73.68 537.68 78.17 544.88 78.17 544.88 88.68 536.7 88.68 538.43 91.68 544.88 91.68 544.88 96.17 534.61 96.17 526.74 82.68 531.76 82.68 533.51 85.68 540.37 85.68 540.37 82.68 535.24 82.68"/></g></g><g id="colored-32_vision" data-name="colored-32 vision"><g id="art2"><polygon id="Shape-3" data-name="Shape" class="cls-5" points="608.85 75.17 626.1 89.51 626.1 98.17 597.35 75.17 608.85 75.17"/><polygon id="Shape-2-3" data-name="Shape-2" class="cls-5" points="626.1 89.51 643.35 75.17 654.85 75.17 626.1 98.17 626.1 89.51"/><polygon id="Shape-3-2" data-name="Shape-3" class="cls-7" points="597.35 75.17 626.1 52.17 626.1 60.83 608.85 75.17 597.35 75.17"/><polygon id="Shape-4" class="cls-7" points="626.1 60.83 643.35 75.17 654.85 75.17 626.1 52.17 626.1 60.83"/><circle id="Oval-2-2" data-name="Oval" class="cls-6" cx="626.1" cy="75.17" r="5.75"/></g></g><rect class="cls-11" x="82.88" y="43.62" width="92" height="35.34" rx="9"/><text class="cls-1" transform="translate(114.2 64.86)">Slack</text><rect class="cls-11" x="82.88" y="147.83" width="92" height="35.3" rx="9"/><text class="cls-1" transform="translate(97.82 169.06)">Messenger</text><rect class="cls-11" x="82.88" y="259" width="92" height="35.34" rx="9"/><text class="cls-1" transform="translate(90.05 280.24)">Google Home</text><g id="colored-32_dialogflow-enterprise" data-name="colored-32 dialogflow-enterprise"><g id="_32px_Dialogflow-Favicon" data-name=" 32px Dialogflow-Favicon"><path id="Shape-4-2" data-name="Shape" class="cls-6" d="M286.85,166.54l-21-10.49v17.72a1.27,1.27,0,0,0,.5,1L278.54,182a.85.85,0,0,1,.45.76V192a.45.45,0,0,0,.46.44.44.44,0,0,0,.22-.07l27.55-17.54a1.32,1.32,0,0,0,.61-1.1V156.05Z"/></g></g><path class="cls-5" d="M286.85,161.29l21-10.48-20.66-10.33a.64.64,0,0,0-.63,0l-20.66,10.33Z"/></svg>