<svg id="Layer_1" data-name="Layer 1" xmlns="http://www.w3.org/2000/svg" viewBox="0 0 800 164" width="800" height="164"><defs><style>.cls-1,.cls-2{fill:#afbdc4;}.cls-10,.cls-11,.cls-12,.cls-2{fill-rule:evenodd;}.cls-3{font-size:13.2px;font-family:GoogleSans-Medium, Google Sans;font-weight:500;}.cls-3,.cls-5,.cls-6,.cls-8{fill:#616161;}.cls-12,.cls-4{fill:#729cee;}.cls-5,.cls-6{font-size:11px;font-family:GoogleSans-Regular, Google Sans;}.cls-6{letter-spacing:0em;}.cls-7{fill:#d0d2d3;}.cls-9{fill:none;stroke:#d0d2d3;stroke-linecap:square;stroke-miterlimit:10;stroke-dasharray:1 1;}.cls-10{fill:#fff;}.cls-11,.cls-13{fill:#5284eb;}.cls-14{fill:#b2caf5;}</style></defs><rect class="cls-1" x="115.65" y="50.62" width="55" height="3.3"/><polygon class="cls-2" points="176.78 52.1 168.69 59.31 168.69 45.01 176.78 52.1"/><rect class="cls-1" x="236.93" y="50.62" width="63" height="3.3"/><polygon class="cls-2" points="304.96 52.1 296.87 59.31 296.87 45.01 304.96 52.1"/><rect class="cls-1" x="363.36" y="50.62" width="63" height="3.3"/><polygon class="cls-2" points="431.39 52.1 423.31 59.31 423.31 45.01 431.39 52.1"/><rect class="cls-1" x="491.26" y="50.62" width="61.6" height="3.3"/><polygon class="cls-2" points="558.99 52.1 550.91 59.31 550.91 45.01 558.99 52.1"/><rect class="cls-1" x="619.27" y="50.62" width="63" height="3.3"/><polygon class="cls-2" points="687.3 52.1 679.22 59.31 679.22 45.01 687.3 52.1"/><text class="cls-3" transform="translate(308.84 99.46)">Pub/Sub</text><text class="cls-3" transform="translate(160.25 99.46)">Cloud IoT Core</text><text class="cls-3" transform="translate(542.97 99.46)">Cloud IoT Core</text><path class="cls-4" d="M87,50.05h8.8v13.2H87Zm-13.2-8.8h11v11h-11Zm13.2,0h8.8v6.6H87Zm-13.2,13.2h11v8.8h-11Zm26.4,13.2H69.42V36.85h30.8Zm8.8-22v-4.4h-4.4v-4.4a4.41,4.41,0,0,0-4.4-4.4H69.42a4.41,4.41,0,0,0-4.4,4.4v30.8a4.41,4.41,0,0,0,4.4,4.4h30.8a4.41,4.41,0,0,0,4.4-4.4v-4.4H109v-4.4h-4.4v-4.4H109v-4.4h-4.4v-4.4Z"/><text class="cls-3" transform="translate(65.73 99.46)">Sensor</text><text class="cls-5" transform="translate(54.52 125.03)">Temperature<tspan x="-0.78" y="13.2">reached 80</tspan></text><text class="cls-6" transform="translate(110.63 134.56) scale(0.58)">o</text><text class="cls-5" transform="translate(114.45 138.23)">F</text><path class="cls-7" d="M125.33,109.39H123.5v-1.1h1.83Zm-1.83,0h-2.2v-1.1h2.2Zm-2.2,0h-2.2v-1.1h2.2Zm-2.2,0h-2.2v-1.1h2.2Zm-2.2,0h-2.2v-1.1h2.2Zm-2.2,0h-2.2v-1.1h2.2Zm-2.2,0h-2.2v-1.1h2.2Zm-2.2,0h-2.2v-1.1h2.2Zm-2.2,0h-2.2v-1.1h2.2Zm-2.2,0h-2.2v-1.1h2.2Zm-2.2,0h-2.2v-1.1h2.2Zm-2.2,0H99.3v-1.1h2.2Zm-2.2,0H97.1v-1.1h2.2Zm-2.2,0H94.9v-1.1h2.2Zm-2.2,0H92.7v-1.1h2.2Zm-2.2,0H90.5v-1.1h2.2Zm-2.2,0H88.3v-1.1h2.2Zm-2.2,0H86.1v-1.1h2.2Zm-2.2,0H83.9v-1.1h2.2Zm-2.2,0H81.7v-1.1h2.2Zm-2.2,0H79.5v-1.1h2.2Zm-2.2,0H77.3v-1.1h2.2Zm-2.2,0H75.1v-1.1h2.2Zm-2.2,0H72.9v-1.1h2.2Zm-2.2,0H70.7v-1.1h2.2Zm-2.2,0H68.5v-1.1h2.2Zm-2.2,0H66.3v-1.1h2.2Zm-2.2,0H64.1v-1.1h2.2Zm-2.2,0H61.9v-1.1h2.2Zm-2.2,0H59.7v-1.1h2.2Zm-2.2,0H57.5v-1.1h2.2Zm-2.2,0H55.3v-1.1h2.2Zm-2.2,0H53.1v-1.1h2.2Zm-2.2,0H50.9v-1.1h2.2Zm-2.2,0H48.7v-1.1h2.2Z"/><path class="cls-8" d="M413.72,99a4.75,4.75,0,0,1-1.78-1.78,5.24,5.24,0,0,1,0-5,4.83,4.83,0,0,1,1.78-1.78,5,5,0,0,1,2.5-.64,4.47,4.47,0,0,1,3.5,1.54l-1,1a3.18,3.18,0,0,0-1.09-.87,3,3,0,0,0-1.37-.29,3.59,3.59,0,0,0-1.76.44,3.2,3.2,0,0,0-1.25,1.25,3.74,3.74,0,0,0-.47,1.87,3.68,3.68,0,0,0,.47,1.87,3.13,3.13,0,0,0,1.25,1.25,3.49,3.49,0,0,0,1.76.45,3.37,3.37,0,0,0,2.7-1.34l1,1a4.75,4.75,0,0,1-1.65,1.25,4.9,4.9,0,0,1-2.11.45A5,5,0,0,1,413.72,99Z"/><path class="cls-8" d="M421.37,90h1.42v9.45h-1.42Z"/><path class="cls-8" d="M425.82,99.2a3.26,3.26,0,0,1-1.26-1.29,3.91,3.91,0,0,1,0-3.64A3.32,3.32,0,0,1,425.82,93a3.54,3.54,0,0,1,1.82-.46,3.39,3.39,0,0,1,3.06,1.76,3.89,3.89,0,0,1,0,3.63,3.23,3.23,0,0,1-1.25,1.29,3.51,3.51,0,0,1-1.81.47A3.55,3.55,0,0,1,425.82,99.2Zm2.86-1.11a2.12,2.12,0,0,0,.77-.8,2.63,2.63,0,0,0,0-2.4,2.09,2.09,0,0,0-.77-.79,2,2,0,0,0-1-.28,2.06,2.06,0,0,0-1.82,1.07,2.63,2.63,0,0,0,0,2.4,2,2,0,0,0,.77.8,2.11,2.11,0,0,0,1.05.27A2,2,0,0,0,428.68,98.09Z"/><path class="cls-8" d="M433,98.94a3,3,0,0,1-.64-2V92.73h1.43v4a1.82,1.82,0,0,0,.38,1.24,1.33,1.33,0,0,0,1,.42,1.67,1.67,0,0,0,.94-.27,2,2,0,0,0,.63-.74,2.44,2.44,0,0,0,.21-1V92.73h1.42v6.73H437.1v-.91H437a2.19,2.19,0,0,1-.87.8,2.55,2.55,0,0,1-1.25.32A2.37,2.37,0,0,1,433,98.94Z"/><path class="cls-8" d="M441.34,99.21a3.11,3.11,0,0,1-1.16-1.27,4,4,0,0,1-.42-1.85,4,4,0,0,1,.42-1.84A3.17,3.17,0,0,1,441.34,93a3,3,0,0,1,1.65-.46,2.57,2.57,0,0,1,1.31.32,2.3,2.3,0,0,1,.86.8h.07l-.07-.94V90h1.41v9.45h-1.34v-.9h-.07a2.45,2.45,0,0,1-.86.79,2.67,2.67,0,0,1-1.31.32A3,3,0,0,1,441.34,99.21Zm2.86-1.13a2.14,2.14,0,0,0,.75-.8,2.41,2.41,0,0,0,.28-1.19A2.43,2.43,0,0,0,445,94.9a2,2,0,0,0-.75-.79,1.9,1.9,0,0,0-1-.29,1.87,1.87,0,0,0-1,.29,2,2,0,0,0-.76.79,2.43,2.43,0,0,0-.28,1.19,2.41,2.41,0,0,0,.28,1.19,2.09,2.09,0,0,0,.76.8,1.86,1.86,0,0,0,1,.28A1.89,1.89,0,0,0,444.2,98.08Z"/><path class="cls-8" d="M451.56,90h5.73v1.37H453v2.77h3.85v1.37H453v3.94h-1.45Z"/><path class="cls-8" d="M459.19,98.94a3,3,0,0,1-.64-2V92.73H460v4a1.82,1.82,0,0,0,.38,1.24,1.33,1.33,0,0,0,1,.42,1.69,1.69,0,0,0,.94-.27,2,2,0,0,0,.63-.74,2.44,2.44,0,0,0,.21-1V92.73h1.42v6.73h-1.34v-.91h-.08a2.19,2.19,0,0,1-.87.8,2.58,2.58,0,0,1-1.25.32A2.37,2.37,0,0,1,459.19,98.94Z"/><path class="cls-8" d="M466.26,92.73h1.35v.92h.08a2.16,2.16,0,0,1,.87-.82,2.57,2.57,0,0,1,1.25-.31,2.33,2.33,0,0,1,1.85.71,2.9,2.9,0,0,1,.63,2v4.25h-1.41V95.39a1.6,1.6,0,0,0-.39-1.18,1.5,1.5,0,0,0-1.09-.39,1.47,1.47,0,0,0-.89.28,1.76,1.76,0,0,0-.6.74,2.25,2.25,0,0,0-.22,1v3.62h-1.43Z"/><path class="cls-8" d="M475.24,99.21A3.32,3.32,0,0,1,474,97.93a4.07,4.07,0,0,1,0-3.68A3.22,3.22,0,0,1,475.24,93a3.46,3.46,0,0,1,1.79-.46,3.4,3.4,0,0,1,1.88.49A2.76,2.76,0,0,1,480,94.38l-1.29.52A1.74,1.74,0,0,0,477,93.82a2,2,0,0,0-1,.29,2,2,0,0,0-.74.79,2.54,2.54,0,0,0-.27,1.19,2.52,2.52,0,0,0,.27,1.19,2,2,0,0,0,.74.8,2,2,0,0,0,1,.28,2,2,0,0,0,1.09-.28,1.92,1.92,0,0,0,.7-.83l1.28.56a3.16,3.16,0,0,1-1.17,1.36,3.45,3.45,0,0,1-1.88.5A3.56,3.56,0,0,1,475.24,99.21Z"/><path class="cls-8" d="M483.22,99.53a1.71,1.71,0,0,1-.64-.4,2.08,2.08,0,0,1-.57-1.56V94h-1.18V92.73H482v-1.9h1.43v1.9h1.65V94h-1.65v3.31a1.13,1.13,0,0,0,.21.8.85.85,0,0,0,.68.26,1.22,1.22,0,0,0,.41-.06,2.24,2.24,0,0,0,.38-.19v1.38a2.62,2.62,0,0,1-1.07.2A2.54,2.54,0,0,1,483.22,99.53Z"/><path class="cls-8" d="M486.61,91.45a.91.91,0,0,1-.28-.68.89.89,0,0,1,.28-.67,1,1,0,0,1,1.36,0,.89.89,0,0,1,.28.67.91.91,0,0,1-.28.68.94.94,0,0,1-1.36,0Zm0,1.28H488v6.73h-1.42Z"/><path class="cls-8" d="M491.12,99.2a3.26,3.26,0,0,1-1.26-1.29,3.91,3.91,0,0,1,0-3.64A3.32,3.32,0,0,1,491.12,93a3.54,3.54,0,0,1,1.82-.46A3.39,3.39,0,0,1,496,94.28a3.89,3.89,0,0,1,0,3.63,3.23,3.23,0,0,1-1.25,1.29,3.51,3.51,0,0,1-1.81.47A3.55,3.55,0,0,1,491.12,99.2ZM494,98.09a2.12,2.12,0,0,0,.77-.8,2.63,2.63,0,0,0,0-2.4,2.09,2.09,0,0,0-.77-.79,2,2,0,0,0-1-.28,2.06,2.06,0,0,0-1.82,1.07,2.63,2.63,0,0,0,0,2.4,2,2,0,0,0,.77.8,2.11,2.11,0,0,0,1.05.27A2.07,2.07,0,0,0,494,98.09Z"/><path class="cls-8" d="M497.76,92.73h1.34v.92h.08a2.3,2.3,0,0,1,.87-.82,2.61,2.61,0,0,1,1.26-.31,2.34,2.34,0,0,1,1.85.71,2.9,2.9,0,0,1,.63,2v4.25h-1.41V95.39a1.6,1.6,0,0,0-.4-1.18,1.63,1.63,0,0,0-2-.11,1.86,1.86,0,0,0-.61.74,2.4,2.4,0,0,0-.22,1v3.62h-1.42Z"/><path class="cls-8" d="M506,99.17a2.8,2.8,0,0,1-1.05-1.31l1.28-.55a1.85,1.85,0,0,0,.68.82,1.76,1.76,0,0,0,1,.28,2,2,0,0,0,.95-.2.67.67,0,0,0,.38-.61.68.68,0,0,0-.32-.59,3.14,3.14,0,0,0-1-.38l-.81-.18a2.93,2.93,0,0,1-1.33-.7,1.7,1.7,0,0,1-.53-1.27,1.64,1.64,0,0,1,.35-1,2.22,2.22,0,0,1,.94-.69,3.37,3.37,0,0,1,1.29-.24,3.58,3.58,0,0,1,1.65.36,2.21,2.21,0,0,1,1,1.09l-1.22.55a1.47,1.47,0,0,0-1.44-.8,1.56,1.56,0,0,0-.84.21.62.62,0,0,0-.34.53c0,.39.35.68,1,.85l1,.24a3.3,3.3,0,0,1,1.5.75,1.68,1.68,0,0,1,.51,1.24,1.76,1.76,0,0,1-.37,1.12,2.37,2.37,0,0,1-1,.75,3.75,3.75,0,0,1-1.4.26A3.38,3.38,0,0,1,506,99.17Z"/><text class="cls-5" transform="translate(408 125.03)">Trigger configuration<tspan x="34.38" y="13.2">change</tspan></text><line class="cls-9" x1="407.6" y1="108.84" x2="514.14" y2="108.84"/><text class="cls-3" transform="translate(682.28 99.46)">Ceiling fan</text><text class="cls-5" transform="translate(696.45 125.03)">Turn on</text><path class="cls-7" d="M752.17,109.39H750v-1.1h2.2Zm-2.2,0h-2.2v-1.1H750Zm-2.2,0h-2.2v-1.1h2.2Zm-2.2,0h-2.2v-1.1h2.2Zm-2.2,0h-2.2v-1.1h2.2Zm-2.2,0H739v-1.1h2.2Zm-2.2,0h-2.2v-1.1H739Zm-2.2,0h-2.2v-1.1h2.2Zm-2.2,0h-2.2v-1.1h2.2Zm-2.2,0h-2.2v-1.1h2.2Zm-2.2,0H728v-1.1h2.2Zm-2.2,0h-2.2v-1.1H728Zm-2.2,0h-2.2v-1.1h2.2Zm-2.2,0h-2.2v-1.1h2.2Zm-2.2,0h-2.2v-1.1h2.2Zm-2.2,0H717v-1.1h2.2Zm-2.2,0h-2.2v-1.1H717Zm-2.2,0h-2.2v-1.1h2.2Zm-2.2,0h-2.2v-1.1h2.2Zm-2.2,0h-2.2v-1.1h2.2Zm-2.2,0H706v-1.1h2.2Zm-2.2,0h-2.2v-1.1H706Zm-2.2,0h-2.2v-1.1h2.2Zm-2.2,0h-2.2v-1.1h2.2Zm-2.2,0h-2.2v-1.1h2.2Zm-2.2,0H695v-1.1h2.2Zm-2.2,0h-2.2v-1.1H695Zm-2.2,0h-2.2v-1.1h2.2Zm-2.2,0h-2.2v-1.1h2.2Zm-2.2,0h-2.2v-1.1h2.2Zm-2.2,0H684v-1.1h2.2Zm-2.2,0h-2.2v-1.1H684Zm-2.2,0h-2.2v-1.1h2.2Zm-2.2,0h-2.2v-1.1h2.2Z"/><g id="Group"><path id="Combined-Shape" class="cls-10" d="M212,53V44.21h0a2.26,2.26,0,1,0-3-1,2.23,2.23,0,0,0,1,1V53h-8.46V47.38a2.26,2.26,0,1,0-3.3-2,2.29,2.29,0,0,0,1.21,2V53h-.43a7.57,7.57,0,0,1,.06-15.14,7.38,7.38,0,0,1,2.71.52,10.35,10.35,0,0,1,18.71-.1,7.73,7.73,0,0,1,2.43-.4h0a7.59,7.59,0,1,1,0,15.18h-.49V47.38a2.26,2.26,0,1,0-3.05-1,2.18,2.18,0,0,0,1,1V53Z"/><path class="cls-10" d="M201.57,58.85a4,4,0,0,1,3.05,4,4.11,4.11,0,1,1-5.14-4V53h2Zm-1.06,5.95a2,2,0,1,0-2-2A2,2,0,0,0,200.51,64.8Zm22-5.95a4.11,4.11,0,1,1-2.1,0V53h2.1Zm-1.05,5.95a2,2,0,1,0-.57-.12A1.94,1.94,0,0,0,221.42,64.8ZM212,63.94h0a4.08,4.08,0,1,1-2,0V53.05h2.1Zm-1.07,6a2,2,0,1,0,0-4,2,2,0,0,0-2,2,2.11,2.11,0,0,0,.14.74,2,2,0,0,0,1.85,1.19Z"/></g><path class="cls-4" d="M734.09,50.19h-6.62l5.31-5.31a2.09,2.09,0,0,0,0-3h0a2.1,2.1,0,0,0-3,0l-8.26,8.26h-4.18V46l8.26-8.26a2.12,2.12,0,0,0,0-3h0a2.09,2.09,0,0,0-3,0l-5.31,5.31V33.47a2.1,2.1,0,0,0-2.09-2.09h0a2.1,2.1,0,0,0-2.09,2.09v6.62l-5.31-5.31a2.08,2.08,0,0,0-2.94,0h0a2.1,2.1,0,0,0,0,3L713.19,46v4.18H709l-8.25-8.26a2.1,2.1,0,0,0-3,0h0a2.08,2.08,0,0,0,0,3l5.31,5.31h-6.63a2.1,2.1,0,0,0-2.09,2.09h0a2.1,2.1,0,0,0,2.09,2.09h6.63l-5.31,5.3a2.08,2.08,0,0,0,0,2.95h0a2.1,2.1,0,0,0,3,0L709,54.37h4.18v4.18l-8.25,8.25a2.1,2.1,0,0,0,0,3h0a2.08,2.08,0,0,0,2.94,0l5.31-5.31v6.63a2.1,2.1,0,0,0,2.09,2.09h0a2.1,2.1,0,0,0,2.09-2.09V64.46l5.31,5.31a2.09,2.09,0,0,0,3,0h0a2.12,2.12,0,0,0,0-3l-8.26-8.25V54.37h4.18l8.26,8.25a2.1,2.1,0,0,0,3,0h0a2.09,2.09,0,0,0,0-2.95l-5.31-5.3h6.62a2.1,2.1,0,0,0,2.09-2.09h0A2.1,2.1,0,0,0,734.09,50.19Z"/><path class="cls-4" d="M734.09,50.19h-6.62l5.31-5.31a2.09,2.09,0,0,0,0-3h0a2.1,2.1,0,0,0-3,0l-8.26,8.26h-4.18V46l8.26-8.26a2.12,2.12,0,0,0,0-3h0a2.09,2.09,0,0,0-3,0l-5.31,5.31V33.47a2.1,2.1,0,0,0-2.09-2.09h0a2.1,2.1,0,0,0-2.09,2.09v6.62l-5.31-5.31a2.08,2.08,0,0,0-2.94,0h0a2.1,2.1,0,0,0,0,3L713.19,46v4.18H709l-8.25-8.26a2.1,2.1,0,0,0-3,0h0a2.08,2.08,0,0,0,0,3l5.31,5.31h-6.63a2.1,2.1,0,0,0-2.09,2.09h0a2.1,2.1,0,0,0,2.09,2.09h6.63l-5.31,5.3a2.08,2.08,0,0,0,0,2.95h0a2.1,2.1,0,0,0,3,0L709,54.37h4.18v4.18l-8.25,8.25a2.1,2.1,0,0,0,0,3h0a2.08,2.08,0,0,0,2.94,0l5.31-5.31v6.63a2.1,2.1,0,0,0,2.09,2.09h0a2.1,2.1,0,0,0,2.09-2.09V64.46l5.31,5.31a2.09,2.09,0,0,0,3,0h0a2.12,2.12,0,0,0,0-3l-8.26-8.25V54.37h4.18l8.26,8.25a2.1,2.1,0,0,0,3,0h0a2.09,2.09,0,0,0,0-2.95l-5.31-5.3h6.62a2.1,2.1,0,0,0,2.09-2.09h0A2.1,2.1,0,0,0,734.09,50.19Z"/><g id="Group-2" data-name="Group"><path id="Combined-Shape-2" data-name="Combined-Shape" class="cls-11" d="M207.74,54.94V44.06h0a2.8,2.8,0,1,0-2.46,0V54.92H194.79V48a2.79,2.79,0,1,0-2.58,0v6.95h-.54a9.38,9.38,0,1,1,3.44-18.13,12.83,12.83,0,0,1,23.19-.12,9.65,9.65,0,0,1,3-.49h0a9.41,9.41,0,1,1,0,18.81h-.61V48a2.8,2.8,0,1,0-3.78-1.18A2.72,2.72,0,0,0,218.1,48v6.95Z"/><path class="cls-12" d="M194.79,62.21a4.92,4.92,0,0,1,3.79,4.91,5.09,5.09,0,1,1-6.37-4.91V54.94h2.46Zm-1.3,7.37A2.46,2.46,0,1,0,191,67.12,2.46,2.46,0,0,0,193.49,69.58Zm27.22-7.37a5.09,5.09,0,1,1-2.61,0V55h2.61Zm-1.31,7.37a2.46,2.46,0,1,0-.69-.14A2.35,2.35,0,0,0,219.4,69.58Zm-11.66-1.06h0a5.06,5.06,0,1,1-2.46,0V55h2.6Zm-1.33,7.37a2.47,2.47,0,1,0-2.28-1.52,2.44,2.44,0,0,0,2.28,1.52Z"/></g><g id="Group-3" data-name="Group"><path id="Combined-Shape-3" data-name="Combined-Shape" class="cls-11" d="M590.45,54.94V44.06h0a2.8,2.8,0,1,0-2.45,0V54.92H577.51V48a2.79,2.79,0,1,0-2.58,0v6.95h-.54a9.38,9.38,0,1,1,3.44-18.13A12.83,12.83,0,0,1,601,36.69a9.65,9.65,0,0,1,3-.49h0A9.41,9.41,0,0,1,604,55h-.62V48a2.8,2.8,0,1,0-2.6,0v6.95Z"/><path class="cls-12" d="M577.51,62.21a4.93,4.93,0,0,1,3.78,4.91,5.09,5.09,0,1,1-6.36-4.91V54.94h2.46Zm-1.3,7.37a2.46,2.46,0,1,0-2.46-2.46A2.46,2.46,0,0,0,576.21,69.58Zm27.21-7.37a5.08,5.08,0,1,1-2.6,0V55h2.6Zm-1.3,7.37a2.45,2.45,0,1,0-.7-.14A2.42,2.42,0,0,0,602.12,69.58Zm-11.67-1.06h0a5.06,5.06,0,1,1-2.45,0V55h2.6Zm-1.32,7.37a2.44,2.44,0,1,0-2.29-1.52,2.45,2.45,0,0,0,2.29,1.52Z"/></g><circle class="cls-4" cx="351.18" cy="42.88" r="4.14"/><circle class="cls-4" cx="317.7" cy="42.88" r="4.14"/><circle class="cls-4" cx="334.44" cy="71.85" r="4.14"/><rect class="cls-13" x="340.91" y="47.7" width="3.82" height="19.33" transform="translate(121.73 325.57) rotate(-60)"/><rect class="cls-13" x="316.41" y="55.45" width="19.33" height="3.82" transform="translate(15.01 170.72) rotate(-30)"/><rect class="cls-13" x="332.53" y="33.2" width="3.82" height="19.33"/><circle class="cls-14" cx="334.44" cy="52.54" r="6.68"/><circle class="cls-14" cx="317.7" cy="62.19" r="5.26"/><circle class="cls-14" cx="351.18" cy="62.19" r="5.26"/><circle class="cls-14" cx="334.44" cy="33.2" r="5.26"/><g id="colored-32_functions" data-name="colored-32 functions"><g id="Shape"><polygon class="cls-4" points="437.77 61.27 444.7 66.89 444.7 39.17 437.77 44.78 437.77 61.27"/><polygon class="cls-13" points="437.77 48.41 444.7 43.79 444.7 39.17 437.77 48.41"/><polygon class="cls-13" points="444.7 66.89 444.7 62.27 437.77 57.65 444.7 66.89"/><polygon class="cls-14" points="451.63 71.51 437.77 57.65 437.77 66.89 447.01 76.13 451.63 71.51"/></g></g><polygon class="cls-14" points="446.98 29.96 437.77 39.17 437.79 48.41 451.6 34.58 446.98 29.96"/><g id="colored-32_functions-2" data-name="colored-32 functions-2"><g id="Shape-2"><polygon class="cls-4" points="483.97 44.82 477.04 39.2 477.04 66.92 483.97 61.32 483.97 44.82"/><polygon class="cls-13" points="483.97 57.68 477.04 62.3 477.04 66.92 483.97 57.68"/><polygon class="cls-13" points="477.04 39.2 477.04 43.82 483.97 48.44 477.04 39.2"/><polygon class="cls-14" points="470.11 34.58 483.97 48.44 483.97 39.2 474.73 29.96 470.11 34.58"/></g></g><polygon class="cls-14" points="474.76 76.13 483.97 66.92 483.95 57.68 470.14 71.51 474.76 76.13"/><circle id="Oval" class="cls-14" cx="451.63" cy="53.03" r="2.31"/><circle id="Oval-2" class="cls-14" cx="460.87" cy="53.03" r="2.31"/><circle id="Oval-3" class="cls-14" cx="470.09" cy="53.03" r="2.31"/></svg>