<svg id="Layer_1" data-name="Layer 1" xmlns="http://www.w3.org/2000/svg" viewBox="0 0 900 330" width="900" height="330"><defs><radialGradient id="radial-gradient" cx="6788.37" cy="8229.33" r="63.89" gradientTransform="matrix(.25 0 0 .25 -1598.34 -1927.34)" gradientUnits="userSpaceOnUse"><stop offset="0" stop-color="#262626" stop-opacity=".4"/><stop offset="1" stop-color="#262626" stop-opacity=".05"/></radialGradient><style>.cls-2,.cls-7{fill:#adbbc2}.cls-13,.cls-14,.cls-2{fill-rule:evenodd}.cls-5{font-size:13.2px;fill:#616161;font-family:GoogleSans-Medium,Google Sans;font-weight:500}.cls-13,.cls-8{fill:#b2caf5}.cls-14,.cls-9{fill:#729cee}.cls-10{fill:#5284eb}.cls-11,.cls-17{fill:#fff}.cls-17,.cls-18{fill-opacity:.2}.cls-18{fill:#3b2824}</style></defs><path fill="#abbcc4" d="M137.26 135.39h44v3.3h-44z"/><path class="cls-2" d="M187.21 136.98l-8.08 7.21v-14.3l8.08 7.09z"/><rect x="359.24" y="185.69" width="255.28" height="132.02" rx="13.69" stroke-width="2" stroke-dasharray="3 8" fill="none" stroke="#abbcc4" stroke-linecap="square" stroke-miterlimit="10"/><path stroke-width="3" stroke-dasharray="1 1" fill="none" stroke="#abbcc4" stroke-linecap="square" stroke-miterlimit="10" d="M512.67 233.65h-45.74"/><path class="cls-2" d="M520.27 233.59l-8.08 7.21v-14.3l8.08 7.09z"/><text class="cls-5" transform="translate(384.1 283.68)">Cloud Functions</text><text class="cls-5" transform="translate(527.65 283.68)">Video<tspan x="-18.04" y="15.84">Intelligence</tspan></text><path class="cls-2" d="M352.91 233.39l-8.09 7.22v-14.3l8.09 7.08zM454.5 40.56l-8.08 7.21V33.48l8.08 7.08z"/><text transform="translate(637.57 208.21)" font-family="GoogleSans-Regular,Google Sans" font-size="13.2" fill="#616161">Video<tspan x="-11.47" y="15.84">Metadata</tspan></text><path class="cls-2" d="M746.23 148.28l-8.08 7.22v-14.3l8.08 7.08zM531.76 40.56l8.09 7.21V33.48l-8.09 7.08z"/><text class="cls-5" transform="translate(439.9 90.84)">Frontend built on<tspan x="17.85" y="15.84">App Engine</tspan></text><text class="cls-5" transform="translate(174.73 182.21)">Cloud Storage<tspan x="-15.23" y="15.84">(Full-length videos)</tspan></text><text class="cls-5" transform="translate(731.82 182.21)">Cloud Storage<tspan x="-12.33" y="15.84">(Video annotation </tspan><tspan x="24.39" y="31.68">JSON)</tspan></text><path class="cls-7" d="M292.84 138.93v-.14h-42v-3.3h43.39l1-.08c.39 0 .74-.09 1.08-.15l1-.2c.42-.1.77-.19 1.11-.3l1-.33c.38-.14.71-.28 1-.43l.94-.45c.37-.19.7-.37 1-.56l.9-.58c.37-.24.67-.46 1-.69l.85-.69c.35-.29.63-.55.92-.82l.79-.81c.32-.32.58-.62.84-.93l.73-.89c.29-.38.53-.71.76-1l.65-1c.26-.41.47-.77.68-1.14l.57-1.07c.22-.45.4-.84.58-1.23l.47-1.15c.18-.46.33-.87.47-1.29l.38-1.21c.14-.48.26-.91.36-1.35l.28-1.25c.1-.49.18-.94.25-1.38l.16-1.27c.06-.52.1-1 .13-1.42l.06-1.3V64.91c0-.48 0-.93.06-1.38l.1-1.32c.05-.48.11-.93.18-1.38l.21-1.29c.09-.48.18-.92.29-1.35l.32-1.26c.13-.46.26-.89.4-1.31l.43-1.21c.17-.45.33-.85.51-1.26l.53-1.15c.2-.42.4-.81.61-1.18l.62-1.09c.24-.4.47-.75.71-1.1l.71-1c.29-.38.54-.71.81-1l.79-.91.89-.92.87-.8c.34-.3.65-.55 1-.8l.93-.69c.37-.26.7-.48 1-.69l1-.56c.39-.21.74-.39 1.1-.55l1-.44c.42-.16.78-.29 1.15-.41l1.07-.3c.42-.11.79-.19 1.17-.26l1.09-.17c.43 0 .81-.08 1.2-.11h113.34v3.3H335.03c-.23 0-.54 0-.85.08l-1 .15-.87.19-1 .28c-.26.08-.56.19-.86.31l-.94.39-.83.42-.9.52c-.25.15-.53.34-.81.53l-.85.63c-.24.19-.5.41-.76.64l-.8.74c-.23.21-.47.47-.71.73l-.74.84c-.21.25-.44.54-.66.83l-.66.93c-.18.27-.39.59-.58.91l-.59 1c-.16.3-.33.64-.5 1l-.5 1.09c-.14.32-.28.68-.42 1l-.41 1.15c-.11.34-.23.71-.33 1.1l-.22 1.22c-.08.35-.16.74-.24 1.14l-.2 1.22c-.06.37-.11.77-.15 1.17l-.1 1.25c0 .37 0 .77-.05 1.19v44.11h.05l-.11 3-.06.46v1h-.07l-.21 1.62-.06.32-.16 1.14h-.07l-.32 1.44-.09.32-.25 1.11h-.07l-.45 1.42-.13.31-.36 1.14h-.07l-.56 1.35-.1.19-.5 1.21h-.08l-.61 1.15-.12.2-.64 1.21-.09-.06-.65 1-.21.26-.75 1.15-.08-.08-.68.84-.21.21-.88 1.1-.08-.09-.67.67-.3.26-1 1-.08-.11-.67.55-.39.26-1.08.87-.06-.12-.66.42-.41.22-1.08.68-.05-.11-.72.35-.46.17-1.21.59v-.14l-.61.2v.24l-.64.15-1.07.36v-.12l-.68.14v.07l-.67.07-1.17.24v-.13z"/><path class="cls-7" d="M349.31 235.61h-14.25c-.47 0-.85-.06-1.23-.1l-1.08-.17c-.44-.08-.81-.16-1.18-.25l-1.07-.3-1.15-.41-1-.43c-.41-.19-.76-.37-1.11-.55l-1-.57c-.37-.23-.71-.45-1-.68l-.93-.69c-.36-.27-.67-.53-1-.8l-.86-.8c-.33-.32-.62-.62-.9-.92l-.79-.9c-.3-.35-.56-.68-.81-1l-.72-1c-.26-.39-.49-.74-.71-1.11l-.62-1.08c-.23-.41-.43-.8-.62-1.18l-.53-1.16c-.19-.43-.35-.84-.51-1.25l-.43-1.21c-.15-.46-.28-.88-.4-1.31l-.32-1.26c-.12-.47-.21-.91-.29-1.35l-.22-1.3c-.07-.48-.13-.92-.17-1.38l-.11-1.31c0-.48-.05-.94-.06-1.39V165v-.87l-.06-1.29c0-.52-.08-1-.13-1.42l-.16-1.27c-.08-.51-.16-1-.25-1.4l-.27-1.24c-.12-.5-.24-.93-.36-1.35l-.38-1.21c-.16-.48-.31-.89-.47-1.29l-.48-1.16c-.19-.44-.38-.83-.57-1.22l-.56-1.07c-.24-.43-.45-.79-.67-1.14l-.66-1c-.26-.39-.5-.72-.75-1l-.73-.91c-.3-.35-.56-.65-.84-.93l-.8-.81c-.32-.3-.6-.56-.9-.82l-.85-.69c-.35-.26-.65-.49-1-.7l-.9-.58c-.36-.22-.69-.4-1-.57l-.92-.44c-.4-.18-.73-.32-1.07-.45l-1-.33c-.36-.12-.71-.21-1.05-.29l-1-.21c-.4-.07-.75-.12-1.11-.15l-1-.08h-43.44v-3.3h42v-.11l2.44.16v-.09l.89.16.95.08v.1l.68.14v-.09l.8.26.93.19v.1l.61.2v-.1l.94.44.75.25v.08l.72.35v-.08l.82.5.69.34v.07l.68.44.05-.09.81.63.65.41v.08l.68.55.06-.08.74.72.56.46v.06l.67.67.06-.07.67.81.48.48v.05l.67.82.06-.06.56.84.44.53.65 1 .07-.05.8 1.37.61 1.15h.05l.67 1.41.55 1.31h.05l.24.74.29.69h-.05l.44 1.36h.05l.18.77.23.71h-.05l.33 1.51h.05l.26 1.38h-.05l.21 1.62v.53l.11.88h-.06l.15 3h-.08v44.15c0 .38 0 .78.05 1.19l.1 1.24c0 .37.09.77.15 1.17l.21 1.22c.07.37.15.76.24 1.15l.31 1.19c.09.35.21.73.33 1.1l.41 1.14c.13.33.27.69.42 1.05l.5 1.08.51 1 .59 1c.17.28.38.6.58.9l.67.94c.2.26.42.54.65.82l.74.84c.22.24.46.49.72.73l.8.75.77.63.85.63c.24.16.52.35.81.52l.9.52c.25.14.55.28.84.42l.94.39c.25.1.55.21.86.31l1 .27.87.19 1 .15.89.07h14.16zM705.82 129l-2.48-.16v.08l-.83-.15-.91-.07v-.1l-.67-.14v.1l-.86-.28-.92-.18v-.1l-.65-.22v.1l-.88-.41-.75-.26v-.08l-.66-.33v.1l-.89-.55-.67-.33v-.07l-.66-.42v.1L693 125l-.61-.39v-.07l-.71-.57-.05.08-.76-.73-.52-.42v-.06l-.69-.7-.06.07-.67-.81-.46-.46-.69-.84-.06.06-.56-.84-.43-.53-.63-1h-.06l-.83-1.41-.59-1.12h-.06l-.67-1.41-.55-1.31h-.06l-.52-1.43-.47-1.47-.37-1.38-.33-1.49h-.05l-.26-1.41h.05l-.22-1.64v-.53l-.12-.9h.06l-.15-3h.09V64.91v-1.18l-.1-1.25c0-.37-.09-.77-.15-1.17l-.2-1.22c-.07-.37-.15-.76-.24-1.15l-.31-1.19c-.1-.34-.21-.72-.34-1.1l-.4-1.14c-.13-.33-.27-.69-.43-1l-.5-1.09c-.15-.31-.33-.65-.51-1l-.58-1c-.18-.28-.38-.59-.59-.9l-.67-.94c-.19-.25-.41-.54-.65-.82l-.74-.84c-.21-.23-.46-.49-.71-.73l-.8-.75-.77-.63-.86-.63-.81-.53-.9-.51-.84-.42-.94-.39c-.25-.1-.55-.21-.86-.3l-1-.28-.88-.19-1-.15-.88-.07H538.07V39h125.35l1.23.1 1.09.17c.43.08.81.16 1.18.25l1.07.3c.42.14.78.27 1.14.41l1 .44c.4.18.75.36 1.1.54l1 .57c.38.23.71.45 1 .68l.94.69c.35.27.67.53 1 .8l.87.81c.32.31.61.61.9.91l.79.91c.29.34.55.67.8 1l.72 1c.26.38.49.74.71 1.11l.63 1.08c.23.41.42.8.61 1.19l.53 1.15c.19.43.36.84.51 1.25l.43 1.21c.15.46.28.88.4 1.31l.33 1.27c.11.46.2.9.29 1.35l.21 1.29c.07.48.13.92.18 1.37l.11 1.32c0 .49 0 .94.05 1.39v35.64l.06 1.29c0 .52.07 1 .12 1.42l.17 1.27c.08.52.16 1 .24 1.39l.28 1.25c.12.5.23.93.35 1.35l.38 1.21c.16.48.31.89.47 1.29l.47 1.14c.21.46.39.85.58 1.23l.56 1.06c.24.45.46.81.68 1.16l.65 1c.27.39.51.72.76 1.05l.73.9c.29.35.56.65.83.93l.79.8c.33.32.62.58.91.83l.86.69c.34.27.65.49 1 .7l.9.58c.37.22.69.4 1 .57l.93.45c.38.17.72.31 1.06.44l1 .33c.37.12.71.21 1.06.29l1 .21c.4.07.75.12 1.1.16l1 .07h42.32v3.3h-40.67zM674.54 235.07v-.14h-54.07v-3.3H675.96l1-.07c.42 0 .76-.09 1.11-.15l1-.2c.43-.1.77-.2 1.11-.3l1-.33c.38-.14.72-.28 1-.43l1-.46c.36-.18.68-.36 1-.56l.9-.57c.36-.24.67-.47 1-.7l.83-.67c.36-.3.65-.57.93-.83l.8-.81c.31-.33.58-.62.84-.93l.72-.9c.29-.37.53-.7.77-1l.65-1c.25-.41.47-.77.67-1.14l.57-1.08c.22-.44.4-.83.58-1.22l.47-1.13c.19-.48.34-.9.48-1.31l.38-1.21c.14-.48.25-.91.36-1.35l.27-1.23c.1-.52.18-1 .25-1.4l.17-1.27c.06-.52.1-1 .13-1.42l.06-1.3v-34.61c0-.49 0-.94.05-1.39l.11-1.31c0-.49.11-.93.17-1.38l.22-1.29c.09-.48.18-.92.28-1.35l.33-1.26c.13-.47.26-.89.4-1.31l.42-1.21c.17-.45.34-.86.51-1.26l.53-1.15c.21-.42.41-.81.61-1.19l.63-1.08c.24-.4.47-.76.71-1.11l.71-1c.28-.37.54-.7.81-1l.79-.9c.31-.34.59-.63.89-.92l.87-.8c.34-.3.65-.56 1-.81l.93-.69c.37-.25.7-.47 1-.68l1-.57c.39-.21.74-.38 1.1-.55l1-.43c.41-.16.77-.29 1.15-.41l1.06-.31c.42-.1.8-.19 1.18-.25l1.09-.17c.43-.05.81-.09 1.19-.11h23.14v3.3h-23.05c-.23 0-.54 0-.85.08l-1 .15-.87.19-1 .28c-.26.08-.56.19-.86.3l-.94.4-.83.42-.91.52-.8.53-.86.63-.76.63-.8.74-.71.74-.74.84c-.2.25-.43.53-.65.82l-.66.94c-.19.27-.39.58-.58.9l-.59 1c-.16.3-.34.63-.5 1l-.51 1.09c-.13.32-.28.68-.42 1.05l-.4 1.13c-.11.35-.23.73-.34 1.11l-.3 1.18c-.09.36-.17.75-.24 1.15l-.21 1.22c0 .37-.1.77-.14 1.18l-.11 1.24v34.31h.06l-.12 3v1.46h-.2l-.21 1.59-.07.34-.15 1.14h-.07l-.33 1.49-.08.28-.25 1.11h-.07l-.47 1.47-.11.29-.37 1.17h-.08l-.55 1.31-.1.19-.52 1.25-.09-.05-.59 1.12-.12.19-.66 1.26-.09-.07-.63 1-.21.27-.75 1.14-.08-.08-.69.84-.21.22-.89 1.1-.08-.09-.68.69-.26.23-1 1-.07-.11-.7.57-.34.22-1.09.89-.07-.12-.66.42-.41.21-1.13.72-.06-.12-.66.33v.05l-.46.17-1.16.56-.05-.13-.65.22v.07l-.65.15-1.12.38v-.13l-.67.14v.06l-.62.07-1.11.22v-.12z"/><path class="cls-8" d="M193.76 116.8h50.6v17.71h-50.6z"/><path class="cls-9" d="M239.3 116.8h5.06v17.71h-5.06z"/><path class="cls-10" d="M244.37 116.8h-5.06v17.71l5.06-17.71z"/><path class="cls-9" d="M193.76 116.8h5.06v17.71h-5.06z"/><path class="cls-11" d="M203.88 124.39h15.18v2.53h-15.18z"/><rect class="cls-11" x="226.65" y="121.86" width="7.59" height="7.59" rx="2.53"/><path class="cls-8" d="M193.76 139.57h50.6v17.71h-50.6z"/><path class="cls-9" d="M239.3 139.57h5.06v17.71h-5.06z"/><path class="cls-10" d="M244.37 139.57h-5.06v17.71l5.06-17.71z"/><path class="cls-9" d="M193.76 139.57h5.06v17.71h-5.06z"/><path class="cls-11" d="M203.88 147.16h15.18v2.53h-15.18z"/><rect class="cls-11" x="226.65" y="144.63" width="7.59" height="7.59" rx="2.53"/><path class="cls-8" d="M750.86 118.08h50.6v17.71h-50.6z"/><path class="cls-9" d="M796.4 118.08h5.06v17.71h-5.06z"/><path class="cls-10" d="M801.46 118.08h-5.06v17.71l5.06-17.71z"/><path class="cls-9" d="M750.86 118.08h5.06v17.71h-5.06z"/><path class="cls-11" d="M760.98 125.67h15.18v2.53h-15.18z"/><rect class="cls-11" x="783.75" y="123.14" width="7.59" height="7.59" rx="2.53"/><path class="cls-8" d="M750.86 140.85h50.6v17.71h-50.6z"/><path class="cls-9" d="M796.4 140.85h5.06v17.71h-5.06z"/><path class="cls-10" d="M801.46 140.85h-5.06v17.71l5.06-17.71z"/><path class="cls-9" d="M750.86 140.85h5.06v17.71h-5.06z"/><path class="cls-11" d="M760.98 148.44h15.18v2.53h-15.18z"/><rect class="cls-11" x="783.75" y="145.91" width="7.59" height="7.59" rx="2.53"/><g id="colored-32_functions" data-name="colored-32 functions"><g id="Shape"><path class="cls-9" d="M408.97 243.02l7.59 6.15v-30.36l-7.59 6.14v18.07z"/><path class="cls-10" d="M408.97 228.93l7.59-5.06v-5.06l-7.59 10.12zM416.56 249.17v-5.06l-7.59-5.06 7.59 10.12z"/><path class="cls-8" d="M424.15 254.23l-15.18-15.18v10.12l10.12 10.12 5.06-5.06z"/></g></g><path class="cls-8" d="M419.06 208.73l-10.09 10.08.02 10.12 15.13-15.14-5.06-5.06z"/><g id="colored-32_functions-2" data-name="colored-32 functions-2"><g id="Shape-2"><path class="cls-9" d="M459.57 225l-7.59-6.15v30.36l7.59-6.14V225z"/><path class="cls-10" d="M459.57 239.09l-7.59 5.06v5.06l7.59-10.12zM451.98 218.85v5.06l7.59 5.06-7.59-10.12z"/><path class="cls-8" d="M444.39 213.79l15.18 15.18v-10.12l-10.12-10.12-5.06 5.06z"/></g></g><path class="cls-8" d="M449.48 259.29l10.09-10.08-.02-10.12-15.13 15.14 5.06 5.06z"/><circle id="Oval" class="cls-8" cx="424.15" cy="233.99" r="2.53"/><circle id="Oval-2" class="cls-8" cx="434.27" cy="233.99" r="2.53"/><circle id="Oval-3" class="cls-8" cx="444.37" cy="233.99" r="2.53"/><g id="Cloud-Video-Intelligence-API"><path id="Shape-2-2" data-name="Shape" class="cls-9" d="M563.52 215.16h-14.58l3.88 6.16h5.41v3.51h-7.71l-6.15-9.67h-18.68v11.44h5.26l3.33-6.15h6.79l2.27 3.51h-6.79l-3.33 6.15h-7.53v6.85h7.53l3.33 6.36h6.79l-2.27 3.54h-6.79l-3.33-6.18h-5.26v11.46h18.68l6.15-9.69h7.71v3.51h-5.41l-3.88 6.18h14.58V235.4h-16.93l-2.2 3.54h-4.86l3.33-5.29-3.33-5.28h4.86l2.12 3.51h17.01v-16.72z"/><path class="cls-10" d="M578.49 218.07l-10.56 7.69v16.11l10.56 7.79v-31.59z"/></g><g id="Product_Icons" data-name="Product Icons"><g id="Shape-3" data-name="Shape"><path d="M500.44 38.1l-4 4a5.63 5.63 0 01-3.58 9.9 5.72 5.72 0 01-4.38-2.11l-4 4a11.3 11.3 0 1017.45-14.37 10.82 10.82 0 00-1.49-1.42z" fill="#5284eb" fill-rule="evenodd"/><path class="cls-13" d="M492.86 25.77a20.6 20.6 0 1020.6 20.6 20.61 20.61 0 00-20.6-20.6m0 35.4a14.67 14.67 0 1114.64-14.7v.07a14.64 14.64 0 01-14.64 14.63"/><path class="cls-14" d="M524.57 44.36l-8.44-2.67a23.19 23.19 0 01.56 5.05 25 25 0 01-.26 3.56h8.14a1.45 1.45 0 001.25-1.39v-3.29a1.45 1.45 0 00-1.25-1.39M492.86 23.34a24.23 24.23 0 014.95.49l-3-8.4c-.23-.73-.69-1.26-1.38-1.26h-1.25a1.49 1.49 0 00-1.39 1.26l-2.63 8.37a24.33 24.33 0 014.74-.46M469 46.74a23.83 23.83 0 01.56-5.05l-8.43 2.67a1.46 1.46 0 00-1.26 1.39V49a1.46 1.46 0 001.26 1.39h8.14a25 25 0 01-.27-3.56"/><path class="cls-13" d="M492.86 38.1a8.24 8.24 0 108.24 8.24 8.24 8.24 0 00-8.24-8.24zm0 12.36a4.12 4.12 0 114.14-4.12 4.12 4.12 0 01-4.12 4.12z"/></g></g><path class="cls-10" d="M130 126.89s-.52-3.63-2.1-5.23a7.58 7.58 0 00-5.27-2.23c-7.37-.53-18.43-.46-18.43-.46s-11.07-.07-18.44.46a7.58 7.58 0 00-5.27 2.23c-1.58 1.6-2.1 5.23-2.1 5.23s-.52 4.25-.62 8.52v4c.1 4.26.62 8.52.62 8.52s.52 3.63 2.1 5.22c2 2.1 4.63 2 5.81 2.25 4.14.4 17.43.49 17.89.5 0 0 11.08 0 18.45-.52a7.5 7.5 0 005.27-2.23c1.58-1.59 2.1-5.22 2.1-5.22s.52-4.27.56-8.52v-4a85.31 85.31 0 00-.57-8.52z"/><path d="M98.82 130v14.8l14.18-7.43z" fill="#f9f9f9"/><path d="M98.82 130l12.43 8.34 1.72-.91z" fill="url(#radial-gradient)"/><path class="cls-17" d="M130 126.89s-.52-3.63-2.1-5.23a7.58 7.58 0 00-5.27-2.23c-7.37-.53-18.43-.46-18.43-.46s-11.07-.07-18.44.46a7.58 7.58 0 00-5.27 2.23c-1.58 1.6-2.1 5.23-2.1 5.23s-.52 4.25-.62 8.52v.27c.1-4.26.62-8.52.62-8.52s.52-3.63 2.1-5.22a7.49 7.49 0 015.27-2.23c7.37-.53 18.44-.47 18.44-.47s11.06-.06 18.43.47a7.49 7.49 0 015.27 2.23c1.58 1.59 2.1 5.22 2.1 5.22a83.88 83.88 0 01.56 8.52v-.27a83.6 83.6 0 00-.56-8.52z"/><path class="cls-18" d="M130 148s-.52 3.63-2.1 5.22a7.49 7.49 0 01-5.27 2.23c-7.37.54-18.43.47-18.43.47s-11.07.07-18.44-.47a7.49 7.49 0 01-5.27-2.23c-1.58-1.59-2.1-5.22-2.1-5.22s-.52-4.26-.62-8.52v-.27c.1 4.26.62 8.52.62 8.52s.52 3.63 2.1 5.22a7.49 7.49 0 005.27 2.23c7.37.53 18.44.46 18.44.46s11.06.07 18.43-.46a7.49 7.49 0 005.27-2.23c1.58-1.59 2.1-5.22 2.1-5.22a84.17 84.17 0 00.56-8.52v.27A83.88 83.88 0 01130 148z"/><path class="cls-17" d="M98.82 144.8v.27l14.18-7.42v-.28z"/><path class="cls-18" d="M98.82 130v-.28L113 137.1v.27z"/></svg>