<svg id="Layer_1" data-name="Layer 1" xmlns="http://www.w3.org/2000/svg" viewBox="0 0 700 164" width="700" height="164"><defs><style>.cls-1{fill:#abbcc4;}.cls-2{fill:#adbbc2;fill-rule:evenodd;}.cls-3,.cls-5{font-size:14.4px;font-family:GoogleSans-Medium, Google Sans;font-weight:500;}.cls-3,.cls-6{fill:#616161;}.cls-4{fill:#ededed;}.cls-5{fill:#3b4043;}.cls-6{font-size:12px;font-family:GoogleSans-Regular, Google Sans;}.cls-7{fill:#729cee;}.cls-8{fill:#5284eb;}.cls-9{fill:#b2caf5;}.cls-10{fill:#f2f6fc;}</style></defs><rect class="cls-1" x="136.34" y="73.43" width="60" height="3.6"/><polygon class="cls-2" points="201.63 75.16 192.81 83.03 192.81 67.44 201.63 75.16"/><rect class="cls-1" x="286.88" y="73.43" width="98.16" height="3.6"/><polygon class="cls-2" points="392.34 75.16 383.52 83.03 383.52 67.44 392.34 75.16"/><rect class="cls-1" x="456.38" y="73.43" width="119.76" height="3.6"/><polygon class="cls-2" points="584.01 75.16 575.19 83.03 575.19 67.44 584.01 75.16"/><text class="cls-3" transform="translate(369.53 125.23)">Cloud Functions</text><rect class="cls-4" x="42.53" y="40.61" width="86.71" height="68.47" rx="10.8"/><text class="cls-5" transform="translate(69.72 70.56)">Push<tspan x="-13.22" y="17.28">commits</tspan></text><text class="cls-6" transform="translate(316.11 48.69)">GitHub<tspan x="-20.19" y="14.4">push webhook</tspan></text><text class="cls-6" transform="translate(500.33 48.69)">Slack<tspan x="-32.8" y="14.4">postMessage API</tspan></text><g id="colored-32_functions" data-name="colored-32 functions"><g id="Shape"><polygon class="cls-7" points="399.05 83.82 406.61 89.95 406.61 59.71 399.05 65.83 399.05 83.82"/><polygon class="cls-8" points="399.05 69.79 406.61 64.75 406.61 59.71 399.05 69.79"/><polygon class="cls-8" points="406.61 89.95 406.61 84.91 399.05 79.87 406.61 89.95"/><polygon class="cls-9" points="414.17 94.99 399.05 79.87 399.05 89.95 409.13 100.03 414.17 94.99"/></g></g><polygon class="cls-9" points="409.1 49.66 399.05 59.71 399.07 69.79 414.14 54.7 409.1 49.66"/><g id="colored-32_functions-2" data-name="colored-32 functions-2"><g id="Shape-2"><polygon class="cls-7" points="449.45 65.88 441.89 59.74 441.89 89.98 449.45 83.87 449.45 65.88"/><polygon class="cls-8" points="449.45 79.9 441.89 84.94 441.89 89.98 449.45 79.9"/><polygon class="cls-8" points="441.89 59.74 441.89 64.78 449.45 69.82 441.89 59.74"/><polygon class="cls-9" points="434.33 54.7 449.45 69.82 449.45 59.74 439.37 49.66 434.33 54.7"/></g></g><polygon class="cls-9" points="439.41 100.03 449.45 89.98 449.44 79.9 434.37 94.99 439.41 100.03"/><circle id="Oval" class="cls-9" cx="414.17" cy="74.83" r="2.52"/><circle id="Oval-2" class="cls-9" cx="424.25" cy="74.83" r="2.52"/><circle id="Oval-3" class="cls-9" cx="434.32" cy="74.83" r="2.52"/><rect class="cls-10" x="589.4" y="54.05" width="64.79" height="42.37" rx="10.8"/><text class="cls-3" transform="translate(604.17 79.52)">Slack</text><rect class="cls-10" x="206.58" y="54.05" width="74.25" height="42.37" rx="10.8"/><text class="cls-3" transform="translate(219.42 79.52)">GitHub</text></svg>