<svg id="Layer_1" data-name="Layer 1" xmlns="http://www.w3.org/2000/svg" viewBox="0 0 664.49 145.28" width="664.49" height="145.28"><defs><style>.cls-1{font-size:10px;font-family:GoogleSans-Regular, Google Sans;}.cls-1,.cls-3{fill:#616161;}.cls-2{fill:#d0d2d3;}.cls-3{font-size:12px;font-family:GoogleSans-Medium, Google Sans;font-weight:500;}.cls-4{fill:#afbdc4;}.cls-5{fill:#adbbc2;fill-rule:evenodd;}.cls-6{fill:#729cee;}.cls-7{fill:#5284eb;}.cls-8{fill:#b2caf5;}.cls-9{fill:#fff;}</style></defs><title>Diagram 5 copy</title><text class="cls-1" transform="translate(182.49 111.59) scale(1.07 1)">Processes uploaded <tspan x="32.86" y="12">image</tspan></text><rect class="cls-2" x="180.05" y="98.37" width="105" height="0.75"/><text class="cls-3" transform="translate(186.94 91.56)">Cloud Functions</text><text class="cls-1" transform="translate(146.48 26.6)">Function <tspan x="-0.42" y="12">triggered</tspan></text><text class="cls-3" transform="translate(612.04 89.64)">Storage</text><text class="cls-1" transform="translate(323.64 112.3) scale(1.07 1)">Detects offensive<tspan x="23.69" y="12">images</tspan></text><rect class="cls-2" x="318.91" y="98.07" width="95" height="0.75"/><text class="cls-3" transform="translate(320.59 91.26)">Cloud Vision API</text><text class="cls-1" transform="translate(454.6 111.59) scale(1.07 1)">Blurs images using<tspan x="11.45" y="12">ImageMagick</tspan><tspan x="40.71" y="24"> </tspan></text><rect class="cls-2" x="449.07" y="98.37" width="100.56" height="0.75"/><text class="cls-3" transform="translate(453.74 91.56)">Cloud Functions</text><rect class="cls-4" x="131.7" y="45.16" width="68" height="3"/><polygon class="cls-5" points="205.55 46.6 198.2 53.16 198.2 40.16 205.55 46.6"/><rect class="cls-4" x="259.62" y="45.16" width="68" height="3"/><polygon class="cls-5" points="333.47 46.6 326.12 53.16 326.12 40.16 333.47 46.6"/><rect class="cls-4" x="398.47" y="45.16" width="68" height="3"/><polygon class="cls-5" points="472.32 46.6 464.97 53.16 464.97 40.16 472.32 46.6"/><rect class="cls-4" x="526.85" y="45.16" width="68" height="3"/><polygon class="cls-5" points="600.7 46.6 593.35 53.16 593.35 40.16 600.7 46.6"/><g id="colored-32_functions" data-name="colored-32 functions"><g id="Shape"><polygon class="cls-6" points="211.55 52.64 217.85 57.75 217.85 32.55 211.55 37.65 211.55 52.64"/><polygon class="cls-7" points="211.55 40.95 217.85 36.75 217.85 32.55 211.55 40.95"/><polygon class="cls-7" points="217.85 57.75 217.85 53.55 211.55 49.35 217.85 57.75"/><polygon class="cls-8" points="224.15 61.95 211.55 49.35 211.55 57.75 219.95 66.15 224.15 61.95"/></g></g><polygon class="cls-8" points="219.92 24.18 211.55 32.55 211.56 40.95 224.12 28.38 219.92 24.18"/><g id="colored-32_functions-2" data-name="colored-32 functions-2"><g id="Shape-2"><polygon class="cls-6" points="253.55 37.69 247.25 32.58 247.25 57.78 253.55 52.69 253.55 37.69"/><polygon class="cls-7" points="253.55 49.38 247.25 53.58 247.25 57.78 253.55 49.38"/><polygon class="cls-7" points="247.25 32.58 247.25 36.78 253.55 40.98 247.25 32.58"/><polygon class="cls-8" points="240.95 28.38 253.55 40.98 253.55 32.58 245.15 24.18 240.95 28.38"/></g></g><polygon class="cls-8" points="245.18 66.15 253.55 57.78 253.53 49.38 240.98 61.95 245.18 66.15"/><circle id="Oval" class="cls-8" cx="224.15" cy="45.15" r="2.1"/><circle id="Oval-2" class="cls-8" cx="232.55" cy="45.15" r="2.1"/><circle id="Oval-3" class="cls-8" cx="240.93" cy="45.15" r="2.1"/><g id="colored-32_vision" data-name="colored-32 vision"><g id="art2"><polygon id="Shape-2-2" data-name="Shape" class="cls-6" points="348.47 46.34 365.72 60.67 365.72 69.34 336.97 46.34 348.47 46.34"/><polygon id="Shape-2-3" data-name="Shape-2" class="cls-6" points="365.72 60.67 382.97 46.34 394.47 46.34 365.72 69.34 365.72 60.67"/><polygon id="Shape-3" class="cls-8" points="336.97 46.34 365.72 23.34 365.72 32 348.47 46.34 336.97 46.34"/><polygon id="Shape-4" class="cls-8" points="365.72 32 382.97 46.34 394.47 46.34 365.72 23.34 365.72 32"/><circle id="Oval-2-2" data-name="Oval" class="cls-7" cx="365.72" cy="46.34" r="5.75"/></g></g><g id="colored-32_functions-2-2" data-name="colored-32 functions"><g id="Shape-3-2" data-name="Shape"><polygon class="cls-6" points="478.35 53.66 484.65 58.77 484.65 33.57 478.35 38.66 478.35 53.66"/><polygon class="cls-7" points="478.35 41.97 484.65 37.77 484.65 33.57 478.35 41.97"/><polygon class="cls-7" points="484.65 58.77 484.65 54.57 478.35 50.37 484.65 58.77"/><polygon class="cls-8" points="490.95 62.97 478.35 50.37 478.35 58.77 486.75 67.17 490.95 62.97"/></g></g><polygon class="cls-8" points="486.72 25.2 478.35 33.57 478.36 41.97 490.92 29.4 486.72 25.2"/><g id="colored-32_functions-2-3" data-name="colored-32 functions-2"><g id="Shape-2-4" data-name="Shape-2"><polygon class="cls-6" points="520.35 38.71 514.05 33.6 514.05 58.8 520.35 53.7 520.35 38.71"/><polygon class="cls-7" points="520.35 50.4 514.05 54.6 514.05 58.8 520.35 50.4"/><polygon class="cls-7" points="514.05 33.6 514.05 37.8 520.35 42 514.05 33.6"/><polygon class="cls-8" points="507.75 29.4 520.35 42 520.35 33.6 511.95 25.2 507.75 29.4"/></g></g><polygon class="cls-8" points="511.98 67.17 520.35 58.8 520.34 50.4 507.78 62.97 511.98 67.17"/><circle id="Oval-3-2" data-name="Oval" class="cls-8" cx="490.95" cy="46.17" r="2.1"/><circle id="Oval-2-3" data-name="Oval-2" class="cls-8" cx="499.35" cy="46.17" r="2.1"/><circle id="Oval-3-3" data-name="Oval-3" class="cls-8" cx="507.73" cy="46.17" r="2.1"/><rect class="cls-8" x="612.26" y="28.74" width="44" height="15.4"/><rect class="cls-6" x="651.86" y="28.74" width="4.4" height="15.4"/><polygon class="cls-7" points="656.26 28.74 651.86 28.74 651.86 44.14 656.26 28.74"/><rect class="cls-6" x="612.26" y="28.74" width="4.4" height="15.4"/><rect class="cls-9" x="621.06" y="35.34" width="13.2" height="2.2"/><rect class="cls-9" x="640.86" y="33.14" width="6.6" height="6.6" rx="2.2"/><rect class="cls-8" x="612.26" y="48.54" width="44" height="15.4"/><rect class="cls-6" x="651.86" y="48.54" width="4.4" height="15.4"/><polygon class="cls-7" points="656.26 48.54 651.86 48.54 651.86 63.94 656.26 48.54"/><rect class="cls-6" x="612.26" y="48.54" width="4.4" height="15.4"/><rect class="cls-9" x="621.06" y="55.14" width="13.2" height="2.2"/><rect class="cls-9" x="640.86" y="52.94" width="6.6" height="6.6" rx="2.2"/><text class="cls-3" transform="translate(76.82 91.56)">Pub/Sub</text><circle class="cls-6" cx="115.31" cy="38.9" r="3.77"/><circle class="cls-6" cx="84.88" cy="38.9" r="3.77"/><circle class="cls-6" cx="100.09" cy="65.24" r="3.77"/><rect class="cls-7" x="105.97" y="43.29" width="3.47" height="17.58" transform="translate(8.75 119.32) rotate(-60)"/><rect class="cls-7" x="83.7" y="50.33" width="17.58" height="3.47" transform="translate(-13.64 53.22) rotate(-30)"/><rect class="cls-7" x="98.36" y="30.11" width="3.47" height="17.58"/><circle class="cls-8" cx="100.09" cy="47.68" r="6.08"/><circle class="cls-8" cx="84.88" cy="56.46" r="4.78"/><circle class="cls-8" cx="115.31" cy="56.46" r="4.78"/><circle class="cls-8" cx="100.09" cy="30.11" r="4.78"/></svg>