<?xml version="1.0" encoding="utf-8"?>
<!-- Generator: Adobe Illustrator 17.0.0, SVG Export Plug-In . SVG Version: 6.00 Build 0)  -->
<!DOCTYPE svg PUBLIC "-//W3C//DTD SVG 1.1//EN" "http://www.w3.org/Graphics/SVG/1.1/DTD/svg11.dtd">
<svg version="1.1" id="图层_1" xmlns="http://www.w3.org/2000/svg" xmlns:xlink="http://www.w3.org/1999/xlink" x="0px" y="0px"
	 width="830px" height="442px" viewBox="0 0 830 442" style="enable-background:new 0 0 830 442;" xml:space="preserve">
<g>
	<g>
		<g style="opacity:0.6;">
			<rect x="10" y="187" style="fill:#BBBBBB;" width="117" height="50"/>
		</g>
		<g>
			<rect x="8.5" y="185.5" style="fill:#FFFFFF;" width="116" height="49"/>
			<path style="fill:#E5E5E5;" d="M124,186v48H9v-48H124 M125,185H8v50h117V185L125,185z"/>
		</g>
		<rect x="28" y="194" style="opacity:0;fill:#CB3333;" width="32" height="32"/>
		<g>
			<path style="fill:#444444;" d="M76.215,205.883c-0.233,0.363-0.448,0.672-0.644,0.924h5.166v0.812
				c-0.569,0.793-1.396,1.498-2.479,2.113c1.513,0.598,3.221,0.967,5.124,1.107l-0.224,0.908c-2.25-0.168-4.233-0.666-5.95-1.498
				c-1.634,0.748-3.72,1.34-6.258,1.779l-0.378-0.896c2.305-0.373,4.177-0.844,5.614-1.414c-0.71-0.42-1.368-0.896-1.975-1.428
				c-0.514,0.467-1.097,0.906-1.75,1.316l-0.644-0.785c1.381-0.793,2.52-1.842,3.416-3.148L76.215,205.883z M82.683,204.469v2.646
				h-1.021v-1.736h-9.324v1.736h-1.021v-2.646h5.124c-0.178-0.373-0.351-0.699-0.519-0.98l1.106-0.168
				c0.103,0.205,0.266,0.588,0.489,1.148H82.683z M81.116,211.916v4.383h-0.98v-0.602h-6.02v0.602h-0.98v-4.383H81.116z
				 M74.116,214.787h6.02v-1.961h-6.02V214.787z M79.534,207.66h-4.69l-0.042,0.043c0.719,0.598,1.526,1.119,2.422,1.568
				C78.175,208.805,78.946,208.268,79.534,207.66z"/>
			<path style="fill:#444444;" d="M87.192,209.846c-0.075,2.51-0.737,4.666-1.988,6.467l-0.742-0.672
				c1.129-1.559,1.708-3.598,1.736-6.117v-4.383h4.563c-0.261-0.615-0.531-1.162-0.812-1.637l1.078-0.17
				c0.252,0.533,0.504,1.135,0.756,1.807h4.424v4.705H87.192z M95.185,206.135h-7.993v2.73h7.993V206.135z"/>
		</g>
		<g>
			<g>
				<path style="fill:#878787;" d="M40,200c2.206,0,4,1.794,4,4s-1.794,4-4,4s-4-1.794-4-4S37.794,200,40,200 M40,198
					c-3.314,0-6,2.686-6,6s2.686,6,6,6s6-2.686,6-6S43.314,198,40,198L40,198z"/>
			</g>
			<g>
				<path style="fill:#878787;" d="M44.004,214c3.306,0,5.996,2.69,5.996,5.996V221H30v-1.004c0-3.306,2.69-5.996,5.996-5.996
					H44.004 M44.004,212h-8.007C31.58,212,28,215.58,28,219.996V223h24v-3.004C52,215.58,48.42,212,44.004,212L44.004,212z"/>
			</g>
			<path style="fill:#878787;" d="M52.998,212h-3.021c0.76,0.569,1.435,1.242,2.006,2h1.015c2.207,0,4.002,1.795,4.002,4.002V219
				h-3.05c0.033,0.328,0.05,0.66,0.05,0.996V221h5v-2.998C59,214.687,56.313,212,52.998,212z"/>
			<path style="fill:#878787;" d="M49,199c-0.845,0-1.628,0.229-2.326,0.599c0.365,0.552,0.659,1.153,0.88,1.789
				C47.984,201.148,48.473,201,49,201c1.654,0,3,1.346,3,3s-1.346,3-3,3c-0.527,0-1.016-0.148-1.447-0.388
				c-0.221,0.636-0.514,1.237-0.88,1.789C47.372,208.771,48.155,209,49,209c2.761,0,5-2.239,5-5S51.761,199,49,199z"/>
		</g>
	</g>
	<g>
		<rect x="160" y="40" style="fill:#CEE3FF;" width="481" height="98"/>
		<g>
			<g>
				<path style="fill:#00A4FF;" d="M193.925,59.822c-0.159,1.801-0.681,3.285-1.568,4.452l-0.77-0.687
					c0.896-1.25,1.358-2.832,1.386-4.746v-6.72h10.43v10.486c0,0.979-0.49,1.47-1.47,1.47h-1.61l-0.266-0.994
					c0.747,0.037,1.265,0.056,1.554,0.056c0.513,0,0.77-0.294,0.77-0.882v-2.436h-3.808v4.102h-1.036v-4.102H193.925z
					 M197.537,53.102h-3.556v2.408h3.556V53.102z M193.981,56.448v2.45h3.556v-2.45H193.981z M202.381,55.51v-2.408h-3.808v2.408
					H202.381z M202.381,58.898v-2.45h-3.808v2.45H202.381z"/>
				<path style="fill:#00A4FF;" d="M208.191,57.988c-0.075,2.511-0.737,4.667-1.988,6.468l-0.742-0.672
					c1.129-1.559,1.708-3.599,1.736-6.118v-4.382h4.564c-0.262-0.616-0.532-1.162-0.812-1.638l1.078-0.169
					c0.252,0.532,0.504,1.135,0.756,1.807h4.424v4.704H208.191z M216.185,54.278h-7.994v2.729h7.994V54.278z"/>
				<path style="fill:#00A4FF;" d="M220.035,64.246l-0.21-0.966c0.401,0.046,0.76,0.069,1.078,0.069c0.243,0,0.364-0.116,0.364-0.35
					v-3.528c-0.523,0.206-0.994,0.374-1.414,0.504l-0.238-0.993c0.513-0.131,1.064-0.304,1.652-0.519v-3.36h-1.554v-0.966h1.554
					v-2.562h0.994v2.562h1.302v0.966h-1.302v2.94c0.205-0.093,0.621-0.308,1.246-0.644v1.021c-0.383,0.205-0.798,0.416-1.246,0.63
					v4.187c0,0.672-0.336,1.008-1.008,1.008H220.035z M232.075,55.846v2.66h-0.812v0.588c-0.476,1.12-1.251,2.096-2.324,2.926
					c0.98,0.579,2.156,1.064,3.528,1.456l-0.588,0.896c-1.549-0.467-2.823-1.046-3.822-1.736c-1.111,0.682-2.516,1.251-4.214,1.708
					l-0.532-0.938c1.568-0.374,2.865-0.845,3.892-1.414c-0.952-0.812-1.633-1.76-2.044-2.842h-0.574v-0.645h-0.672v-2.66h5.446
					c0.504-0.812,0.943-1.708,1.316-2.688l0.938,0.35c-0.401,0.934-0.807,1.713-1.218,2.338H232.075z M231.991,52.472
					c-1.998,0.383-4.625,0.574-7.882,0.574l-0.294-0.91c3.089,0,5.656-0.168,7.7-0.504L231.991,52.472z M225.327,53.396
					c0.401,0.681,0.705,1.283,0.91,1.806l-0.84,0.308c-0.252-0.635-0.565-1.26-0.938-1.876L225.327,53.396z M224.879,58.226h6.216
					v-1.414h-6.216V58.226z M226.139,59.15c0.42,0.858,1.068,1.624,1.946,2.296c0.924-0.663,1.633-1.429,2.128-2.296H226.139z
					 M227.777,53.34c0.392,0.672,0.7,1.288,0.924,1.849l-0.84,0.308c-0.243-0.635-0.56-1.278-0.952-1.932L227.777,53.34z"/>
				<path style="fill:#00A4FF;" d="M237.017,64.344h-1.008v-7.266c-0.495,1.446-1.171,2.781-2.03,4.004l-0.462-1.134
					c1.157-1.382,1.979-2.94,2.464-4.676h-2.17v-0.967h2.198v-2.729h1.008v2.729h1.848v0.967h-1.848v0.798
					c0.681,0.653,1.391,1.414,2.128,2.281l-0.574,0.854c-0.597-0.868-1.115-1.568-1.554-2.1V64.344z M239.761,53.382h-0.56v-0.966
					h6.3v0.952c-0.401,2.613-1.195,4.862-2.38,6.748c0.915,1.288,2.044,2.432,3.388,3.43l-0.686,0.812
					c-1.326-1.046-2.422-2.175-3.29-3.389c-0.971,1.316-2.17,2.44-3.598,3.374l-0.644-0.812c1.484-0.989,2.697-2.143,3.64-3.458
					C240.68,58.049,239.957,55.818,239.761,53.382z M240.741,53.382c0.168,2.166,0.76,4.098,1.778,5.796
					c0.999-1.661,1.666-3.593,2.002-5.796H240.741z"/>
				<path style="fill:#00A4FF;" d="M249.141,53.48c0.737,0.522,1.376,1.045,1.918,1.567c0.635-0.606,1.152-1.283,1.554-2.03h-3.5
					v-0.924h4.648v0.756c-0.392,0.934-0.938,1.77-1.638,2.507h4.312c-0.971-0.971-1.727-2.054-2.268-3.248l0.826-0.462
					c0.243,0.569,0.56,1.129,0.952,1.68c0.607-0.438,1.129-0.942,1.568-1.512l0.714,0.63c-0.485,0.597-1.06,1.129-1.722,1.596
					c0.28,0.346,0.625,0.7,1.036,1.063c0.672-0.494,1.25-1.054,1.736-1.68l0.7,0.63c-0.485,0.626-1.055,1.177-1.708,1.652
					c0.747,0.569,1.521,1.05,2.324,1.442l-0.658,0.77c-1.213-0.662-2.264-1.404-3.15-2.226v0.588h-5.11v-0.477
					c-0.915,0.831-2.062,1.536-3.444,2.114l-0.602-0.784c1.017-0.41,1.927-0.91,2.73-1.498c-0.513-0.494-1.143-0.998-1.89-1.512
					L249.141,53.48z M251.381,61.166c0.485,0.522,0.919,1.144,1.302,1.862h2.772c0.438-0.616,0.816-1.261,1.134-1.933l0.952,0.322
					c-0.299,0.588-0.635,1.125-1.008,1.61h3.444v0.966h-11.984v-0.966h3.64c-0.354-0.561-0.756-1.064-1.204-1.513L251.381,61.166z
					 M250.135,57.456h7.784v3.402h-7.784V57.456z M256.911,59.962v-1.624h-5.768v1.624H256.911z"/>
				<path style="fill:#00A4FF;" d="M263.407,52.094h8.078v4.55h2.52v0.91h-5.586v1.597c0.345,0.41,0.705,0.779,1.078,1.105
					c0.999-0.56,1.862-1.357,2.59-2.394l0.77,0.644c-0.793,1.018-1.685,1.787-2.674,2.311c1.101,0.867,2.389,1.619,3.864,2.254
					l-0.504,0.896c-2.156-1.008-3.864-2.24-5.124-3.696v2.885c0,0.84-0.369,1.26-1.106,1.26h-1.61l-0.21-0.952
					c0.579,0.047,1.073,0.07,1.484,0.07c0.289,0,0.434-0.206,0.434-0.616v-2.562c-1.41,1.288-3.127,2.474-5.152,3.557l-0.406-0.938
					c2.156-1.026,4.009-2.249,5.558-3.668v-1.75h-5.404v-0.91h8.456v-1.357h-6.58v-0.882h6.58v-1.4h-7.056V52.094z M263.519,58.086
					c0.831,0.569,1.544,1.162,2.142,1.778l-0.644,0.658c-0.56-0.589-1.284-1.186-2.17-1.792L263.519,58.086z"/>
			</g>
		</g>
		<g>
			<path style="fill:#00A4FF;" d="M178.499,50c-0.828,0-1.5,0.672-1.5,1.5c0,0.652,0.419,1.202,1,1.408V55h1v-2.092
				c0.581-0.207,1-0.756,1-1.408C179.999,50.672,179.328,50,178.499,50z"/>
			<circle style="fill:#00A4FF;" cx="178.499" cy="63.5" r="1.5"/>
			<path style="fill:#00A4FF;" d="M174.25,53.201c-0.717-0.414-1.635-0.168-2.049,0.549c-0.414,0.717-0.168,1.635,0.549,2.049
				c0.081,0.047,0.165,0.082,0.25,0.112V58h1v-2.093c0.139-0.049,0.272-0.114,0.392-0.202l1.693,0.978l0.5-0.866l-1.638-0.946
				C175.11,54.236,174.846,53.545,174.25,53.201z"/>
			<circle style="fill:#00A4FF;" cx="183.5" cy="60.5" r="1.5"/>
			<path style="fill:#00A4FF;" d="M179.989,57.357c-0.003-0.034-0.009-0.068-0.015-0.102c-0.006-0.034-0.011-0.067-0.019-0.1
				c-0.007-0.028-0.014-0.055-0.022-0.083c-0.01-0.032-0.021-0.064-0.033-0.096c-0.012-0.033-0.024-0.065-0.039-0.097
				c-0.013-0.029-0.028-0.056-0.043-0.084c-0.008-0.015-0.012-0.03-0.02-0.045s-0.02-0.026-0.029-0.04
				c-0.017-0.027-0.033-0.053-0.052-0.079c-0.02-0.028-0.042-0.055-0.064-0.082c-0.022-0.026-0.043-0.052-0.066-0.077
				c-0.02-0.021-0.04-0.041-0.06-0.06c-0.025-0.023-0.051-0.045-0.077-0.067c-0.027-0.022-0.053-0.044-0.081-0.064
				c-0.026-0.018-0.052-0.035-0.079-0.052c-0.014-0.009-0.025-0.02-0.04-0.029c-0.015-0.008-0.03-0.012-0.045-0.02
				c-0.028-0.015-0.055-0.029-0.084-0.042c-0.031-0.014-0.064-0.026-0.096-0.038c-0.032-0.012-0.064-0.024-0.096-0.033
				c-0.027-0.008-0.055-0.016-0.083-0.022c-0.033-0.008-0.066-0.014-0.1-0.019c-0.034-0.006-0.068-0.011-0.102-0.015
				c-0.031-0.003-0.063-0.004-0.094-0.005c-0.017,0-0.032-0.005-0.049-0.005s-0.032,0.004-0.049,0.005
				c-0.032,0.001-0.063,0.002-0.094,0.005c-0.034,0.003-0.068,0.009-0.102,0.015c-0.034,0.006-0.067,0.011-0.1,0.019
				c-0.028,0.007-0.055,0.014-0.083,0.022c-0.033,0.01-0.064,0.021-0.096,0.033c-0.033,0.012-0.065,0.024-0.096,0.038
				c-0.029,0.013-0.056,0.028-0.084,0.042c-0.015,0.008-0.031,0.012-0.045,0.02c-0.015,0.008-0.026,0.02-0.04,0.029
				c-0.027,0.017-0.053,0.033-0.079,0.052c-0.028,0.02-0.054,0.042-0.081,0.064c-0.027,0.022-0.053,0.044-0.077,0.067
				c-0.021,0.02-0.041,0.04-0.06,0.06c-0.023,0.025-0.045,0.05-0.066,0.077c-0.022,0.027-0.044,0.053-0.064,0.082
				c-0.018,0.026-0.035,0.052-0.052,0.079c-0.009,0.014-0.02,0.025-0.029,0.04s-0.012,0.03-0.02,0.045
				c-0.015,0.028-0.03,0.056-0.043,0.084c-0.014,0.032-0.026,0.064-0.039,0.097c-0.012,0.032-0.024,0.063-0.033,0.096
				c-0.008,0.027-0.016,0.055-0.022,0.083c-0.008,0.033-0.014,0.066-0.019,0.1c-0.006,0.034-0.011,0.068-0.015,0.102
				c-0.003,0.031-0.004,0.063-0.005,0.094c-0.001,0.017-0.005,0.032-0.005,0.049s0.004,0.032,0.005,0.049
				c0.001,0.031,0.002,0.063,0.005,0.094c0.003,0.034,0.009,0.068,0.015,0.102c0.006,0.034,0.011,0.067,0.019,0.1
				c0.007,0.028,0.014,0.055,0.022,0.083c0.01,0.032,0.021,0.064,0.033,0.096c0.012,0.033,0.024,0.065,0.039,0.097
				c0.013,0.029,0.028,0.056,0.043,0.084c0.008,0.015,0.012,0.03,0.02,0.045c0.008,0.014,0.02,0.026,0.029,0.04
				c0.017,0.027,0.033,0.053,0.052,0.079c0.02,0.028,0.042,0.055,0.064,0.082c0.022,0.026,0.043,0.052,0.066,0.077
				c0.02,0.021,0.04,0.041,0.061,0.061c0.025,0.023,0.05,0.045,0.077,0.066c0.027,0.022,0.053,0.044,0.081,0.064
				c0.026,0.018,0.052,0.035,0.079,0.052c0.014,0.009,0.025,0.02,0.04,0.029c0.015,0.008,0.03,0.012,0.045,0.02
				c0.028,0.015,0.055,0.03,0.084,0.043c0.032,0.015,0.064,0.026,0.097,0.039c0.008,0.003,0.016,0.008,0.024,0.011V61h1v-2.088
				c0.008-0.003,0.016-0.008,0.024-0.011c0.033-0.012,0.065-0.024,0.097-0.039c0.029-0.013,0.056-0.028,0.084-0.043
				c0.015-0.008,0.03-0.012,0.045-0.02c0.014-0.008,0.026-0.02,0.04-0.029c0.027-0.017,0.054-0.033,0.079-0.052
				c0.028-0.02,0.055-0.042,0.081-0.064c0.026-0.022,0.052-0.043,0.077-0.066c0.021-0.02,0.041-0.04,0.061-0.061
				c0.023-0.025,0.045-0.05,0.066-0.077c0.022-0.027,0.044-0.053,0.064-0.082c0.018-0.026,0.035-0.052,0.052-0.079
				c0.009-0.014,0.02-0.025,0.029-0.04c0.008-0.015,0.012-0.03,0.02-0.045c0.015-0.028,0.03-0.055,0.043-0.084
				c0.014-0.031,0.026-0.064,0.039-0.097c0.012-0.032,0.024-0.063,0.033-0.096c0.008-0.028,0.016-0.055,0.022-0.083
				c0.008-0.033,0.014-0.066,0.019-0.1c0.006-0.034,0.011-0.068,0.015-0.102c0.003-0.031,0.004-0.063,0.005-0.094
				c0.001-0.017,0.005-0.032,0.005-0.049s-0.004-0.032-0.005-0.049C179.993,57.419,179.993,57.388,179.989,57.357z"/>
			<circle style="fill:#00A4FF;" cx="173.5" cy="60.5" r="1.5"/>
			<path style="fill:#00A4FF;" d="M182.999,55.907V58h1v-2.089c0.085-0.03,0.169-0.066,0.25-0.112
				c0.717-0.414,0.963-1.332,0.549-2.049c-0.414-0.718-1.332-0.963-2.049-0.549c-0.596,0.344-0.86,1.035-0.697,1.671l-1.638,0.946
				l0.5,0.866l1.694-0.978C182.728,55.793,182.861,55.858,182.999,55.907z"/>
		</g>
	</g>
	<g>
		<g style="opacity:0.6;">
			<rect x="173" y="78" style="fill:#BBBBBB;" width="133" height="50"/>
		</g>
		<g>
			<rect x="171.5" y="76.5" style="fill:#FFFFFF;" width="132" height="49"/>
			<path style="fill:#E5E5E5;" d="M303,77v48H172V77H303 M304,76H171v50h133V76L304,76z"/>
		</g>
		<rect x="191" y="85" style="opacity:0;fill:#CB3333;" width="32" height="32"/>
		<g>
			<path style="fill:#444444;" d="M236.933,95.861h1.33l3.935,9.996h-1.246l-1.064-2.801h-4.592l-1.063,2.801H233L236.933,95.861z
				 M235.66,102.092h3.864l-1.891-4.998h-0.056L235.66,102.092z"/>
			<path style="fill:#444444;" d="M243.206,95.861h4.088c2.296,0,3.444,0.98,3.444,2.939c0,1.979-1.153,2.969-3.458,2.969h-2.926
				v4.088h-1.148V95.861z M244.354,96.855v3.92h2.87c0.793,0,1.391-0.164,1.792-0.49c0.382-0.326,0.573-0.822,0.573-1.484
				c0-0.682-0.195-1.166-0.588-1.455c-0.383-0.328-0.976-0.49-1.777-0.49H244.354z"/>
			<path style="fill:#444444;" d="M252.277,95.861h1.134v9.996h-1.134V95.861z"/>
			<path style="fill:#444444;" d="M264.429,107.174l-0.266-0.98l1.344,0.041c0.393,0,0.588-0.191,0.588-0.574v-9.701h-9.184v11.27
				h-0.994V94.992h11.172v10.893c0,0.859-0.415,1.289-1.246,1.289H264.429z M261.097,104.078c-0.401-0.633-0.845-1.307-1.33-2.016
				c-0.494,1.363-1.105,2.539-1.834,3.529l-0.644-0.785c0.728-1.035,1.33-2.264,1.806-3.682c-0.644-0.859-1.302-1.676-1.974-2.449
				l0.63-0.604c0.56,0.588,1.115,1.252,1.666,1.988c0.271-1.008,0.49-2.062,0.658-3.164L261,97.064
				c-0.224,1.438-0.519,2.754-0.882,3.949c0.616,0.84,1.166,1.637,1.651,2.393L261.097,104.078z M265.2,104.723
				c-0.401-0.689-0.873-1.465-1.414-2.324c-0.561,1.373-1.218,2.549-1.975,3.529l-0.644-0.771c0.793-1.072,1.446-2.318,1.96-3.738
				c-0.69-1.016-1.33-1.885-1.918-2.604l0.63-0.602c0.569,0.645,1.12,1.35,1.652,2.113c0.289-0.971,0.536-2.1,0.742-3.387
				l0.951,0.168c-0.252,1.549-0.588,2.953-1.008,4.213c0.588,0.896,1.157,1.807,1.708,2.73L265.2,104.723z"/>
			<path style="fill:#444444;" d="M279.074,94.615c-0.336,1.018-0.756,1.922-1.261,2.715h2.885v0.98h-4.677v0.658
				c-0.027,0.775-0.093,1.424-0.195,1.945h5.684v0.98h-5.096c0.69,1.895,2.501,3.365,5.432,4.41l-0.588,0.938
				c-3.07-1.24-4.984-2.93-5.74-5.066c-0.271,0.811-0.625,1.512-1.063,2.1c-0.962,1.24-2.516,2.201-4.662,2.883l-0.546-0.881
				c2.146-0.691,3.64-1.596,4.479-2.717c0.346-0.514,0.611-1.068,0.798-1.666h-5.025v-0.98h5.278c0.13-0.615,0.2-1.264,0.21-1.945
				v-0.658h-4.69v-0.98h6.398c0.513-0.783,0.984-1.777,1.413-2.98L279.074,94.615z M272.843,94.475
				c0.579,0.756,1.11,1.549,1.596,2.381l-0.909,0.461c-0.514-0.914-1.051-1.713-1.61-2.393L272.843,94.475z"/>
		</g>
		<g id="图层_1_1_">
			<g>
				<path style="fill:#00A4FF;" d="M206.2,115c-7.2,0-13-5.8-13-13s5.8-13,13-13c6.5,0,11.9,4.8,12.8,11h2c-1-7.3-7.2-13-14.9-13
					c-8.3,0-15,6.7-15,15s6.7,15,15,15c7.6,0,13.9-5.7,14.9-13h-2C218.1,110.2,212.7,115,206.2,115z"/>
				<rect x="198.2" y="97" style="fill:#00A4FF;" width="16" height="2"/>
				<rect x="198.2" y="108" style="fill:#00A4FF;" width="16" height="2"/>
				<rect x="198.2" y="97" style="fill:#00A4FF;" width="2" height="3"/>
				<rect x="198.2" y="107" style="fill:#00A4FF;" width="2" height="3"/>
				<rect x="212.2" y="107" style="fill:#00A4FF;" width="2" height="3"/>
				<rect x="212.2" y="97" style="fill:#00A4FF;" width="2" height="3"/>
				<rect x="201.2" y="93" style="fill:#00A4FF;" width="2" height="4"/>
				<rect x="209.2" y="93" style="fill:#00A4FF;" width="2" height="4"/>
				<rect x="199.2" y="101" style="fill:#00A4FF;" width="2" height="5"/>
				<rect x="202.2" y="101" style="fill:#00A4FF;" width="2" height="5"/>
				<rect x="200.2" y="101" style="fill:#00A4FF;" width="3" height="1"/>
				<rect x="200.2" y="103" style="fill:#00A4FF;" width="3" height="1"/>
				<rect x="206.2" y="101" style="fill:#00A4FF;" width="4" height="1"/>
				<rect x="205.2" y="103" style="fill:#00A4FF;" width="4" height="1"/>
				<rect x="205.2" y="101" style="fill:#00A4FF;" width="2" height="5"/>
				<rect x="208.2" y="101" style="fill:#00A4FF;" width="2" height="3"/>
				<rect x="211.2" y="101" style="fill:#00A4FF;" width="2" height="5"/>
			</g>
		</g>
	</g>
	<g>
		<g style="opacity:0.6;">
			<rect x="335" y="78" style="fill:#BBBBBB;" width="133" height="50"/>
		</g>
		<g>
			<rect x="333.5" y="76.5" style="fill:#FFFFFF;" width="132" height="49"/>
			<path style="fill:#E5E5E5;" d="M465,77v48H334V77H465 M466,76H333v50h133V76L466,76z"/>
		</g>
		<rect x="353" y="85" style="opacity:0;fill:#CB3333;" width="32" height="32"/>
		<g>
			<path style="fill:#444444;" d="M395.742,99.137h12.558v1.008h-6.72c-1.27,2.613-2.395,4.453-3.374,5.516
				c2.511-0.139,5.021-0.377,7.532-0.713c-0.504-0.896-1.064-1.82-1.681-2.771l0.812-0.504c1.27,1.902,2.263,3.588,2.981,5.053
				l-0.896,0.631c-0.243-0.523-0.485-1.018-0.729-1.484c-2.697,0.346-5.796,0.635-9.296,0.867l-0.266-1.021
				c0.056-0.018,0.135-0.051,0.238-0.098c0.905-0.682,2.09-2.506,3.556-5.475h-4.718V99.137z M397.085,95.23h9.968v0.98h-9.968
				V95.23z"/>
			<path style="fill:#444444;" d="M420.662,97.498h0.966v9.787h-0.966V106.5h-9.324v0.771h-0.966v-9.787h0.966v8.092h9.324V97.498z
				 M411.603,103.168c1.429-0.83,2.81-1.879,4.145-3.148v-2.395c1.391-0.691,2.445-1.266,3.164-1.723h-7.154v-0.951h8.666v0.951
				c-1.083,0.748-2.329,1.508-3.738,2.283v2.141c1.232,0.859,2.465,1.816,3.696,2.871l-0.588,0.881
				c-1.194-1.156-2.23-2.07-3.108-2.744v2.354c0,0.82-0.383,1.23-1.147,1.23h-1.274l-0.252-0.938
				c0.467,0.02,0.854,0.029,1.162,0.029c0.383,0,0.574-0.225,0.574-0.672v-2.172c-1.204,1.141-2.469,2.133-3.794,2.982
				L411.603,103.168z M412.849,97.934c0.878,0.811,1.535,1.492,1.975,2.043l-0.771,0.533c-0.438-0.598-1.087-1.303-1.945-2.115
				L412.849,97.934z M420.032,98.227c-0.551,0.887-1.214,1.666-1.988,2.338l-0.728-0.518c0.736-0.625,1.372-1.363,1.903-2.213
				L420.032,98.227z"/>
			<path style="fill:#444444;" d="M427.255,101.027l-0.28,0.77h2.912v0.854c-0.308,0.916-0.816,1.709-1.525,2.381
				c0.662,0.279,1.292,0.588,1.89,0.924l-0.546,0.812c-0.645-0.383-1.354-0.748-2.128-1.092c-0.943,0.643-2.109,1.162-3.5,1.553
				l-0.49-0.867c1.167-0.309,2.146-0.691,2.94-1.148l-1.946-0.783c0.392-0.645,0.709-1.219,0.952-1.723h-1.638v-0.91h2.058
				c0.233-0.652,0.341-0.947,0.322-0.883L427.255,101.027z M423.938,97.107h2.729v-2.674h0.938v2.674h2.548v0.881h-2.548v0.154
				c0.765,0.383,1.54,0.812,2.323,1.289l-0.518,0.783c-0.7-0.561-1.302-1.008-1.806-1.344v1.82h-0.938v-2.66
				c-0.457,1.092-1.293,2.049-2.506,2.869l-0.49-0.811c1.083-0.635,1.834-1.336,2.254-2.102h-1.987V97.107z M425.001,94.727
				c0.364,0.57,0.663,1.145,0.896,1.723l-0.784,0.363c-0.29-0.662-0.607-1.264-0.952-1.805L425.001,94.727z M428.935,102.707h-2.365
				c-0.233,0.477-0.485,0.92-0.756,1.33c0.56,0.195,1.087,0.393,1.582,0.588C428.095,104.057,428.609,103.416,428.935,102.707z
				 M430.028,95.021c-0.29,0.635-0.649,1.24-1.078,1.82l-0.756-0.406c0.447-0.635,0.793-1.236,1.036-1.807L430.028,95.021z
				 M431.54,99.781c-0.243,0.615-0.518,1.189-0.826,1.723l-0.63-0.771c0.831-1.576,1.386-3.691,1.666-6.342l0.98,0.168
				c-0.065,0.58-0.169,1.246-0.309,2.002h3.696v0.967h-0.91c-0.056,2.332-0.472,4.33-1.246,5.992c0.737,1.23,1.601,2.18,2.59,2.842
				l-0.574,0.854c-0.961-0.672-1.796-1.592-2.506-2.758c-0.681,1.119-1.549,2.059-2.604,2.814l-0.532-0.855
				c1.092-0.756,1.955-1.73,2.59-2.926C432.375,102.391,431.913,101.152,431.54,99.781z M432.211,97.527
				c-0.094,0.336-0.159,0.582-0.196,0.742c0.346,1.586,0.803,2.98,1.372,4.186c0.541-1.418,0.84-3.061,0.896-4.928H432.211z"/>
		</g>
		<g>
			<g id="XMLID_50_">
				<g>
					<path style="fill:#00A4FF;" d="M368.07,115c-7.213,0-13.061-5.82-13.061-13s5.848-13,13.061-13c6.528,0,11.922,4.772,12.89,11
						h2.03c-0.985-7.336-7.281-13-14.921-13c-8.323,0-15.07,6.716-15.07,15s6.747,15,15.07,15c7.64,0,13.936-5.664,14.921-13h-2.03
						C379.992,110.228,374.598,115,368.07,115z"/>
				</g>
			</g>
			<g>
				<path id="XMLID_2190_" style="fill:#00A4FF;" d="M360.991,104l5,3v2l-5-3V104z"/>
				<path id="XMLID_2183_" style="fill:#00A4FF;" d="M360.991,100l5-3v-2l-5,3V100z"/>
				<path id="XMLID_2182_" style="fill:#00A4FF;" d="M360.991,98h2v8h-2V98z"/>
			</g>
			<g>
				<path id="XMLID_2191_" style="fill:#00A4FF;" d="M372.991,98h2v8h-2V98z"/>
				<path id="XMLID_2181_" style="fill:#00A4FF;" d="M374.991,106l-5,3v-2l5-3V106z"/>
				<path id="XMLID_2180_" style="fill:#00A4FF;" d="M374.991,98l-5-3v2l5,3V98z"/>
			</g>
			<polygon id="XMLID_2168_" style="fill:#00A4FF;" points="367.991,105 365.991,105 367.991,99 369.991,99 			"/>
		</g>
	</g>
	<g>
		<rect x="668" y="258" style="fill:#CEE3FF;" width="155" height="168"/>
		<g>
			<g>
				<path style="fill:#00A4FF;" d="M706.447,269.576c1.176,1.923,3.191,3.621,6.048,5.096l-0.603,0.91
					c-2.65-1.381-4.615-3.07-5.894-5.068c-1.559,2.212-3.523,3.92-5.895,5.124l-0.602-0.91c2.613-1.325,4.629-3.042,6.048-5.151
					H706.447z M705.48,273.706h1.036v8.68h-1.036V273.706z"/>
				<path style="fill:#00A4FF;" d="M714.833,272.32c-0.028,1.362-0.188,2.697-0.477,4.004l-0.825-0.238
					c0.298-1.204,0.466-2.478,0.504-3.822L714.833,272.32z M715.547,269.604h1.021v12.74h-1.021V269.604z M717.549,271.97
					c0.299,0.663,0.569,1.452,0.812,2.366c0.485-1.232,0.761-2.534,0.826-3.906l0.91,0.126c-0.028,0.588-0.084,1.148-0.168,1.681
					h2.002v-2.618h1.036v2.618h3.052v0.979h-3.052v3.374h2.842v0.994h-2.842V281h3.416v0.98h-8.456V281h4.004v-3.416h-3.206v-0.994
					h3.206v-3.374h-2.184c-0.252,1.027-0.621,1.97-1.106,2.828l-0.756-0.672c0.158-0.308,0.299-0.603,0.42-0.882l-0.7,0.182
					c-0.215-0.868-0.48-1.689-0.798-2.464L717.549,271.97z"/>
				<path style="fill:#00A4FF;" d="M732.767,269.94c-0.476,1.147-1.092,2.221-1.848,3.22v9.268h-1.008v-8.036
					c-0.598,0.653-1.279,1.298-2.044,1.933l-0.322-1.05c1.96-1.681,3.388-3.607,4.284-5.782L732.767,269.94z M735.665,282.176
					c-0.999,0-1.498-0.494-1.498-1.483v-4.271c-0.542,0.309-1.144,0.621-1.807,0.938l-0.447-0.952
					c0.877-0.411,1.628-0.798,2.254-1.162v-5.614h1.008v4.998c1.456-0.971,2.744-2.086,3.864-3.346l0.7,0.798
					c-1.298,1.391-2.819,2.637-4.564,3.738v4.731c0,0.439,0.242,0.658,0.728,0.658h2.24c0.364,0,0.635-0.117,0.812-0.35
					c0.148-0.215,0.252-1.022,0.308-2.422l0.938,0.308c-0.104,1.614-0.271,2.59-0.504,2.926c-0.253,0.336-0.715,0.504-1.387,0.504
					H735.665z"/>
				<path style="fill:#00A4FF;" d="M745.885,276.352c-0.42,0.206-0.854,0.401-1.302,0.589V281c0,0.784-0.416,1.176-1.246,1.176
					h-1.288l-0.21-0.979c0.438,0.046,0.821,0.069,1.147,0.069c0.383,0,0.574-0.173,0.574-0.518v-3.402
					c-0.719,0.243-1.302,0.43-1.75,0.561l-0.252-1.008c0.663-0.149,1.33-0.341,2.002-0.574v-3.221h-1.792v-0.979h1.792v-2.59h1.022
					v2.59h1.414v0.979h-1.414v2.828c0.522-0.232,0.956-0.434,1.302-0.602V276.352z M748.167,281.7v0.644h-0.994v-8.204
					c-0.308,0.485-0.677,0.99-1.106,1.513l-0.336-1.064c1.13-1.493,1.937-3.159,2.422-4.998l0.98,0.196
					c-0.196,0.709-0.457,1.441-0.784,2.198h2.534c-0.215-0.729-0.49-1.451-0.826-2.17l0.966-0.267
					c0.327,0.821,0.584,1.587,0.771,2.296l-0.378,0.141h2.674v0.979h-2.437v1.904h2.156v0.952h-2.156v1.89h2.156v0.938h-2.156v2.086
					h2.591v0.966H748.167z M750.659,272.964h-2.492v1.904h2.492V272.964z M748.167,275.82v1.89h2.492v-1.89H748.167z
					 M748.167,278.648v2.086h2.492v-2.086H748.167z"/>
				<path style="fill:#00A4FF;" d="M756.119,273.468h3.947c0.187-0.392,0.341-0.746,0.462-1.063l0.98,0.168
					c-0.037,0.111-0.094,0.261-0.168,0.447l-0.182,0.448h6.832v0.924h-7.294c-0.411,0.729-0.91,1.429-1.498,2.101v5.936h-0.967
					v-4.956c-0.551,0.495-1.194,0.994-1.932,1.498l-0.63-0.812c1.661-1.092,2.949-2.348,3.864-3.767h-3.416V273.468z
					 M755.937,270.584h3.179v-1.008h1.035v1.008h3.696v-1.008h1.036v1.008h3.178v0.924h-3.178v1.022h-1.036v-1.022h-3.696v1.008
					h-1.035v-1.008h-3.179V270.584z M764.043,277.528c0.392-0.243,0.975-0.621,1.75-1.135h-4.606v-0.924h6.034v0.729
					c-0.719,0.56-1.442,1.097-2.17,1.609v0.589h3.08v0.951h-3.08v1.891c0,0.756-0.373,1.134-1.12,1.134h-1.638l-0.294-0.98
					c0.719,0.047,1.227,0.07,1.525,0.07c0.346,0,0.519-0.168,0.519-0.504v-1.61h-3.864v-0.951h3.864V277.528z"/>
			</g>
		</g>
		<g>
			<path style="fill:#00A4FF;" d="M686.499,268c-0.828,0-1.5,0.672-1.5,1.5c0,0.652,0.419,1.202,1,1.408V273h1v-2.092
				c0.581-0.207,1-0.756,1-1.408C687.999,268.672,687.328,268,686.499,268z"/>
			<circle style="fill:#00A4FF;" cx="686.499" cy="281.5" r="1.5"/>
			<path style="fill:#00A4FF;" d="M682.25,271.201c-0.717-0.414-1.635-0.168-2.049,0.549c-0.414,0.717-0.168,1.635,0.549,2.049
				c0.081,0.047,0.165,0.082,0.25,0.112V276h1v-2.093c0.139-0.049,0.272-0.114,0.392-0.202l1.693,0.978l0.5-0.866l-1.638-0.946
				C683.109,272.236,682.846,271.545,682.25,271.201z"/>
			<circle style="fill:#00A4FF;" cx="691.5" cy="278.5" r="1.5"/>
			<path style="fill:#00A4FF;" d="M687.989,275.357c-0.003-0.034-0.009-0.068-0.015-0.102c-0.006-0.034-0.011-0.067-0.019-0.1
				c-0.007-0.028-0.014-0.055-0.022-0.083c-0.01-0.032-0.021-0.064-0.033-0.096c-0.012-0.033-0.024-0.065-0.039-0.097
				c-0.013-0.029-0.028-0.056-0.043-0.084c-0.008-0.015-0.012-0.03-0.02-0.045s-0.02-0.026-0.029-0.04
				c-0.017-0.027-0.033-0.053-0.052-0.079c-0.02-0.028-0.042-0.055-0.064-0.082c-0.022-0.026-0.043-0.052-0.066-0.077
				c-0.02-0.021-0.04-0.041-0.06-0.06c-0.025-0.023-0.051-0.045-0.077-0.067c-0.027-0.022-0.053-0.044-0.081-0.064
				c-0.026-0.018-0.052-0.035-0.079-0.052c-0.014-0.009-0.025-0.02-0.04-0.029c-0.015-0.008-0.03-0.012-0.045-0.02
				c-0.028-0.015-0.055-0.029-0.084-0.042c-0.031-0.014-0.064-0.026-0.096-0.038c-0.032-0.012-0.064-0.024-0.096-0.033
				c-0.027-0.008-0.055-0.016-0.083-0.022c-0.033-0.008-0.066-0.014-0.1-0.019c-0.034-0.006-0.068-0.011-0.102-0.015
				c-0.031-0.003-0.063-0.004-0.094-0.005c-0.017,0-0.032-0.005-0.049-0.005s-0.032,0.004-0.049,0.005
				c-0.032,0.001-0.063,0.002-0.094,0.005c-0.034,0.003-0.068,0.009-0.102,0.015c-0.034,0.006-0.067,0.011-0.1,0.019
				c-0.028,0.007-0.055,0.014-0.083,0.022c-0.033,0.01-0.064,0.021-0.096,0.033c-0.033,0.012-0.065,0.024-0.096,0.038
				c-0.029,0.013-0.056,0.028-0.084,0.042c-0.015,0.008-0.031,0.012-0.045,0.02c-0.015,0.008-0.026,0.02-0.04,0.029
				c-0.027,0.017-0.053,0.033-0.079,0.052c-0.028,0.02-0.054,0.042-0.081,0.064c-0.027,0.022-0.053,0.044-0.077,0.067
				c-0.021,0.02-0.041,0.04-0.06,0.06c-0.023,0.025-0.045,0.05-0.066,0.077c-0.022,0.027-0.044,0.053-0.064,0.082
				c-0.018,0.026-0.035,0.052-0.052,0.079c-0.009,0.014-0.02,0.025-0.029,0.04s-0.012,0.03-0.02,0.045
				c-0.015,0.028-0.03,0.056-0.043,0.084c-0.014,0.032-0.026,0.064-0.039,0.097c-0.012,0.032-0.024,0.063-0.033,0.096
				c-0.008,0.027-0.016,0.055-0.022,0.083c-0.008,0.033-0.014,0.066-0.019,0.1c-0.006,0.034-0.011,0.068-0.015,0.102
				c-0.003,0.031-0.004,0.063-0.005,0.094c-0.001,0.017-0.005,0.032-0.005,0.049s0.004,0.032,0.005,0.049
				c0.001,0.031,0.002,0.063,0.005,0.094c0.003,0.034,0.009,0.068,0.015,0.102c0.006,0.034,0.011,0.067,0.019,0.1
				c0.007,0.028,0.014,0.055,0.022,0.083c0.01,0.032,0.021,0.064,0.033,0.096c0.012,0.033,0.024,0.065,0.039,0.097
				c0.013,0.029,0.028,0.056,0.043,0.084c0.008,0.015,0.012,0.03,0.02,0.045c0.008,0.014,0.02,0.026,0.029,0.04
				c0.017,0.027,0.033,0.053,0.052,0.079c0.02,0.028,0.042,0.055,0.064,0.082c0.022,0.026,0.043,0.052,0.066,0.077
				c0.02,0.021,0.04,0.041,0.061,0.061c0.025,0.023,0.05,0.045,0.077,0.066c0.027,0.022,0.053,0.044,0.081,0.064
				c0.026,0.018,0.052,0.035,0.079,0.052c0.014,0.009,0.025,0.02,0.04,0.029c0.015,0.008,0.03,0.012,0.045,0.02
				c0.028,0.015,0.055,0.03,0.084,0.043c0.032,0.015,0.064,0.026,0.097,0.039c0.008,0.003,0.016,0.008,0.024,0.011V279h1v-2.088
				c0.008-0.003,0.016-0.008,0.024-0.011c0.033-0.012,0.065-0.024,0.097-0.039c0.029-0.013,0.056-0.028,0.084-0.043
				c0.015-0.008,0.03-0.012,0.045-0.02c0.014-0.008,0.026-0.02,0.04-0.029c0.027-0.017,0.054-0.033,0.079-0.052
				c0.028-0.02,0.055-0.042,0.081-0.064c0.026-0.022,0.052-0.043,0.077-0.066c0.021-0.02,0.041-0.04,0.061-0.061
				c0.023-0.025,0.045-0.05,0.066-0.077c0.022-0.027,0.044-0.053,0.064-0.082c0.018-0.026,0.035-0.052,0.052-0.079
				c0.009-0.014,0.02-0.025,0.029-0.04c0.008-0.015,0.012-0.03,0.02-0.045c0.015-0.028,0.03-0.055,0.043-0.084
				c0.014-0.031,0.026-0.064,0.039-0.097c0.012-0.032,0.024-0.063,0.033-0.096c0.008-0.028,0.016-0.055,0.022-0.083
				c0.008-0.033,0.014-0.066,0.019-0.1c0.006-0.034,0.011-0.068,0.015-0.102c0.003-0.031,0.004-0.063,0.005-0.094
				c0.001-0.017,0.005-0.032,0.005-0.049s-0.004-0.032-0.005-0.049C687.993,275.419,687.992,275.388,687.989,275.357z"/>
			<circle style="fill:#00A4FF;" cx="681.5" cy="278.5" r="1.5"/>
			<path style="fill:#00A4FF;" d="M690.999,273.907V276h1v-2.089c0.085-0.03,0.169-0.066,0.25-0.112
				c0.717-0.414,0.963-1.332,0.549-2.049c-0.414-0.718-1.332-0.963-2.049-0.549c-0.596,0.344-0.86,1.035-0.697,1.671l-1.638,0.946
				l0.5,0.866l1.694-0.978C690.728,273.793,690.861,273.858,690.999,273.907z"/>
		</g>
	</g>
	<g>
		<g style="opacity:0.6;">
			<rect x="680" y="297" style="fill:#BBBBBB;" width="133" height="50"/>
		</g>
		<g>
			<rect x="678.5" y="295.5" style="fill:#FFFFFF;" width="132" height="49"/>
			<path style="fill:#E5E5E5;" d="M810,296v48H679v-48H810 M811,295H678v50h133V295L811,295z"/>
		</g>
		<rect x="698" y="304" style="opacity:0;fill:#CB3333;" width="32" height="32"/>
		<g>
			<path style="fill:#444444;" d="M740.742,318.137H753.3v1.008h-6.72c-1.27,2.613-2.395,4.453-3.374,5.516
				c2.511-0.139,5.021-0.377,7.532-0.713c-0.504-0.896-1.064-1.82-1.681-2.771l0.812-0.504c1.27,1.902,2.263,3.588,2.981,5.053
				l-0.896,0.631c-0.243-0.523-0.485-1.018-0.729-1.484c-2.697,0.346-5.796,0.635-9.296,0.867l-0.266-1.021
				c0.056-0.018,0.135-0.051,0.238-0.098c0.905-0.682,2.09-2.506,3.556-5.475h-4.718V318.137z M742.086,314.23h9.968v0.98h-9.968
				V314.23z"/>
			<path style="fill:#444444;" d="M765.662,316.498h0.966v9.787h-0.966V325.5h-9.324v0.771h-0.966v-9.787h0.966v8.092h9.324V316.498
				z M756.604,322.168c1.429-0.83,2.81-1.879,4.145-3.148v-2.395c1.391-0.691,2.445-1.266,3.164-1.723h-7.154v-0.951h8.666v0.951
				c-1.083,0.748-2.329,1.508-3.738,2.283v2.141c1.232,0.859,2.465,1.816,3.696,2.871l-0.588,0.881
				c-1.194-1.156-2.23-2.07-3.108-2.744v2.354c0,0.82-0.383,1.23-1.147,1.23h-1.274l-0.252-0.938
				c0.467,0.02,0.854,0.029,1.162,0.029c0.383,0,0.574-0.225,0.574-0.672v-2.172c-1.204,1.141-2.469,2.133-3.794,2.982
				L756.604,322.168z M757.85,316.934c0.878,0.811,1.535,1.492,1.975,2.043l-0.771,0.533c-0.438-0.598-1.087-1.303-1.945-2.115
				L757.85,316.934z M765.032,317.227c-0.551,0.887-1.214,1.666-1.988,2.338l-0.728-0.518c0.736-0.625,1.372-1.363,1.903-2.213
				L765.032,317.227z"/>
			<path style="fill:#444444;" d="M772.256,320.027l-0.28,0.77h2.912v0.854c-0.308,0.916-0.816,1.709-1.525,2.381
				c0.662,0.279,1.292,0.588,1.89,0.924l-0.546,0.812c-0.645-0.383-1.354-0.748-2.128-1.092c-0.943,0.643-2.109,1.162-3.5,1.553
				l-0.49-0.867c1.167-0.309,2.146-0.691,2.94-1.148l-1.946-0.783c0.392-0.645,0.709-1.219,0.952-1.723h-1.638v-0.91h2.058
				c0.233-0.652,0.341-0.947,0.322-0.883L772.256,320.027z M768.938,316.107h2.729v-2.674h0.938v2.674h2.548v0.881h-2.548v0.154
				c0.765,0.383,1.54,0.812,2.323,1.289l-0.518,0.783c-0.7-0.561-1.302-1.008-1.806-1.344v1.82h-0.938v-2.66
				c-0.457,1.092-1.293,2.049-2.506,2.869l-0.49-0.811c1.083-0.635,1.834-1.336,2.254-2.102h-1.987V316.107z M770.002,313.727
				c0.364,0.57,0.663,1.145,0.896,1.723l-0.784,0.363c-0.29-0.662-0.607-1.264-0.952-1.805L770.002,313.727z M773.936,321.707
				h-2.365c-0.233,0.477-0.485,0.92-0.756,1.33c0.56,0.195,1.087,0.393,1.582,0.588
				C773.096,323.057,773.609,322.416,773.936,321.707z M775.028,314.021c-0.29,0.635-0.649,1.24-1.078,1.82l-0.756-0.406
				c0.447-0.635,0.793-1.236,1.036-1.807L775.028,314.021z M776.54,318.781c-0.243,0.615-0.518,1.189-0.826,1.723l-0.63-0.771
				c0.831-1.576,1.386-3.691,1.666-6.342l0.98,0.168c-0.065,0.58-0.169,1.246-0.309,2.002h3.696v0.967h-0.91
				c-0.056,2.332-0.472,4.33-1.246,5.992c0.737,1.23,1.601,2.18,2.59,2.842l-0.574,0.854c-0.961-0.672-1.796-1.592-2.506-2.758
				c-0.681,1.119-1.549,2.059-2.604,2.814l-0.532-0.855c1.092-0.756,1.955-1.73,2.59-2.926
				C777.375,321.391,776.913,320.152,776.54,318.781z M777.212,316.527c-0.094,0.336-0.159,0.582-0.196,0.742
				c0.346,1.586,0.803,2.98,1.372,4.186c0.541-1.418,0.84-3.061,0.896-4.928H777.212z"/>
		</g>
		<g>
			<g id="XMLID_128_">
				<g>
					<path style="fill:#00A4FF;" d="M713.07,334c-7.213,0-13.061-5.82-13.061-13s5.848-13,13.061-13c6.528,0,11.922,4.772,12.89,11
						h2.03c-0.985-7.336-7.281-13-14.921-13c-8.323,0-15.07,6.716-15.07,15s6.747,15,15.07,15c7.64,0,13.936-5.664,14.921-13h-2.03
						C724.992,329.228,719.598,334,713.07,334z"/>
				</g>
			</g>
			<g>
				<path id="XMLID_127_" style="fill:#00A4FF;" d="M705.991,323l5,3v2l-5-3V323z"/>
				<path id="XMLID_126_" style="fill:#00A4FF;" d="M705.991,319l5-3v-2l-5,3V319z"/>
				<path id="XMLID_125_" style="fill:#00A4FF;" d="M705.991,317h2v8h-2V317z"/>
			</g>
			<g>
				<path id="XMLID_124_" style="fill:#00A4FF;" d="M717.991,317h2v8h-2V317z"/>
				<path id="XMLID_123_" style="fill:#00A4FF;" d="M719.991,325l-5,3v-2l5-3V325z"/>
				<path id="XMLID_121_" style="fill:#00A4FF;" d="M719.991,317l-5-3v2l5,3V317z"/>
			</g>
			<polygon id="XMLID_53_" style="fill:#00A4FF;" points="712.991,324 710.991,324 712.991,318 714.991,318 			"/>
		</g>
	</g>
	<g>
		<g style="opacity:0.6;">
			<rect x="496" y="78" style="fill:#BBBBBB;" width="133" height="50"/>
		</g>
		<g>
			<rect x="494.5" y="76.5" style="fill:#FFFFFF;" width="132" height="49"/>
			<path style="fill:#E5E5E5;" d="M626,77v48H495V77H626 M627,76H494v50h133V76L627,76z"/>
		</g>
		<rect x="514" y="85" style="opacity:0;fill:#CB3333;" width="32" height="32"/>
		<g>
			<path style="fill:#444444;" d="M556.742,99.137H569.3v1.008h-6.72c-1.27,2.613-2.395,4.453-3.374,5.516
				c2.511-0.139,5.021-0.377,7.532-0.713c-0.504-0.896-1.064-1.82-1.681-2.771l0.812-0.504c1.27,1.902,2.263,3.588,2.981,5.053
				l-0.896,0.631c-0.243-0.523-0.485-1.018-0.729-1.484c-2.697,0.346-5.796,0.635-9.296,0.867l-0.266-1.021
				c0.056-0.018,0.135-0.051,0.238-0.098c0.905-0.682,2.09-2.506,3.556-5.475h-4.718V99.137z M558.086,95.23h9.968v0.98h-9.968
				V95.23z"/>
			<path style="fill:#444444;" d="M574.256,101.027l-0.28,0.77h2.912v0.854c-0.308,0.916-0.816,1.709-1.525,2.381
				c0.662,0.279,1.292,0.588,1.89,0.924l-0.546,0.812c-0.645-0.383-1.354-0.748-2.128-1.092c-0.943,0.643-2.109,1.162-3.5,1.553
				l-0.49-0.867c1.167-0.309,2.146-0.691,2.94-1.148l-1.946-0.783c0.392-0.645,0.709-1.219,0.952-1.723h-1.638v-0.91h2.058
				c0.233-0.652,0.341-0.947,0.322-0.883L574.256,101.027z M570.938,97.107h2.729v-2.674h0.938v2.674h2.548v0.881h-2.548v0.154
				c0.765,0.383,1.54,0.812,2.323,1.289l-0.518,0.783c-0.7-0.561-1.302-1.008-1.806-1.344v1.82h-0.938v-2.66
				c-0.457,1.092-1.293,2.049-2.506,2.869l-0.49-0.811c1.083-0.635,1.834-1.336,2.254-2.102h-1.987V97.107z M572.002,94.727
				c0.364,0.57,0.663,1.145,0.896,1.723l-0.784,0.363c-0.29-0.662-0.607-1.264-0.952-1.805L572.002,94.727z M575.936,102.707h-2.365
				c-0.233,0.477-0.485,0.92-0.756,1.33c0.56,0.195,1.087,0.393,1.582,0.588C575.096,104.057,575.609,103.416,575.936,102.707z
				 M577.028,95.021c-0.29,0.635-0.649,1.24-1.078,1.82l-0.756-0.406c0.447-0.635,0.793-1.236,1.036-1.807L577.028,95.021z
				 M578.54,99.781c-0.243,0.615-0.518,1.189-0.826,1.723l-0.63-0.771c0.831-1.576,1.386-3.691,1.666-6.342l0.98,0.168
				c-0.065,0.58-0.169,1.246-0.309,2.002h3.696v0.967h-0.91c-0.056,2.332-0.472,4.33-1.246,5.992c0.737,1.23,1.601,2.18,2.59,2.842
				l-0.574,0.854c-0.961-0.672-1.796-1.592-2.506-2.758c-0.681,1.119-1.549,2.059-2.604,2.814l-0.532-0.855
				c1.092-0.756,1.955-1.73,2.59-2.926C579.375,102.391,578.913,101.152,578.54,99.781z M579.212,97.527
				c-0.094,0.336-0.159,0.582-0.196,0.742c0.346,1.586,0.803,2.98,1.372,4.186c0.541-1.418,0.84-3.061,0.896-4.928H579.212z"/>
			<path style="fill:#444444;" d="M585.106,107.131l-0.21-0.951c0.4,0.045,0.756,0.068,1.063,0.068c0.354,0,0.532-0.205,0.532-0.615
				v-3.416c-0.653,0.242-1.204,0.434-1.652,0.574l-0.252-0.98c0.635-0.148,1.27-0.34,1.904-0.574v-3.164h-1.681v-0.965h1.681v-2.646
				h0.979v2.646h1.345v0.965h-1.345v2.758c0.448-0.195,0.882-0.404,1.303-0.629v0.994c-0.29,0.148-0.724,0.354-1.303,0.615v4.074
				c0,0.83-0.392,1.246-1.176,1.246H585.106z M590.482,100.943c-0.168,2.389-0.715,4.494-1.639,6.314l-0.784-0.701
				c0.989-1.848,1.493-4.246,1.513-7.195v-4.383h7.378v3.402h-2.632v1.652h2.996v0.91h-2.996v1.721h2.352v4.594h-0.938v-0.688
				h-3.794v0.688H591v-4.594h2.338v-1.721H590.482z M593.338,98.381h-2.786l-0.014,1.652h2.8V98.381z M595.97,95.916h-5.418v1.555
				h5.418V95.916z M591.938,105.676h3.794v-2.115h-3.794V105.676z"/>
			<path style="fill:#444444;" d="M605.476,94.307c0.262,0.42,0.5,0.873,0.715,1.357h5.04v0.98h-10.374v3.193
				c-0.057,3.117-0.528,5.59-1.414,7.42l-0.826-0.742c0.774-1.605,1.176-3.832,1.204-6.678v-4.174h5.264
				c-0.215-0.41-0.457-0.797-0.728-1.16L605.476,94.307z M605.532,97.262c-0.084,0.26-0.21,0.635-0.378,1.119h5.46v0.883h-5.811
				c-0.392,0.895-0.812,1.693-1.26,2.393h2.618v-1.693h1.008v1.693h3.122v0.91h-3.122v1.568h4.187v0.924h-4.187v2.213h-1.008v-2.213
				h-5.054v-0.924h5.054v-1.568h-3.668l-0.21-0.867c0.541-0.672,1.026-1.484,1.456-2.436h-2.114v-0.883h2.478
				c0.159-0.439,0.313-0.887,0.463-1.344L605.532,97.262z"/>
		</g>
		<g id="XMLID_1553_">
			<g>
				<path style="fill:#00A4FF;" d="M516,110h-2c0,2.51,4.444,4.582,10.231,4.94c-0.425-0.621-0.745-1.314-0.955-2.055
					C519.079,112.528,516,111.373,516,110z M526.6,103.991c-0.2,0.004-0.398,0.009-0.6,0.009c-5.523,0-10-1.343-10-3v-6.238
					C518.149,96.11,521.824,97,526,97c4.176,0,7.851-0.89,10-2.238v4.493c0.711,0.183,1.381,0.464,2,0.824V92c0-2.762-5.373-5-12-5
					c-6.627,0-12,2.239-12,5v18h2v-6.238c2.003,1.257,5.337,2.105,9.16,2.216c0.331-0.318,0.684-0.612,1.072-0.861
					C526.326,104.729,526.453,104.354,526.6,103.991z M526,89c5.523,0,10,1.343,10,3c0,1.657-4.477,3-10,3s-10-1.343-10-3
					C516,90.343,520.477,89,526,89z M538.986,107.137c0.001-0.047,0.014-0.09,0.014-0.137c0-2.762-2.239-5-5-5c-2.761,0-5,2.238-5,5
					c0,0.047,0.012,0.091,0.014,0.137C527.285,107.578,526,109.133,526,111c0,2.209,1.791,4,4,4h8c2.209,0,4-1.791,4-4
					C542,109.133,540.716,107.578,538.986,107.137z M538,113h-8c-1.103,0-2-0.897-2-2c0-0.907,0.62-1.698,1.508-1.925l1.549-0.395
					l-0.044-1.598c-0.002-0.059-0.006-0.116-0.012-0.174c0.049-1.612,1.375-2.907,2.999-2.907c1.623,0,2.949,1.295,2.999,2.907
					c-0.006,0.058-0.01,0.116-0.012,0.175l-0.044,1.598l1.549,0.395C539.38,109.302,540,110.093,540,111
					C540,112.103,539.103,113,538,113z"/>
			</g>
		</g>
	</g>
	<g>
		<g style="opacity:0.6;">
			<rect x="680" y="367" style="fill:#BBBBBB;" width="133" height="50"/>
		</g>
		<g>
			<rect x="678.5" y="365.5" style="fill:#FFFFFF;" width="132" height="49"/>
			<path style="fill:#E5E5E5;" d="M810,366v48H679v-48H810 M811,365H678v50h133V365L811,365z"/>
		</g>
		<rect x="698" y="374" style="opacity:0;fill:#CB3333;" width="32" height="32"/>
		<g>
			<path style="fill:#444444;" d="M740.742,388.137H753.3v1.008h-6.72c-1.27,2.613-2.395,4.453-3.374,5.516
				c2.511-0.139,5.021-0.377,7.532-0.713c-0.504-0.896-1.064-1.82-1.681-2.771l0.812-0.504c1.27,1.902,2.263,3.588,2.981,5.053
				l-0.896,0.631c-0.243-0.523-0.485-1.018-0.729-1.484c-2.697,0.346-5.796,0.635-9.296,0.867l-0.266-1.021
				c0.056-0.018,0.135-0.051,0.238-0.098c0.905-0.682,2.09-2.506,3.556-5.475h-4.718V388.137z M742.086,384.23h9.968v0.98h-9.968
				V384.23z"/>
			<path style="fill:#444444;" d="M758.256,390.027l-0.28,0.77h2.912v0.854c-0.308,0.916-0.816,1.709-1.525,2.381
				c0.662,0.279,1.292,0.588,1.89,0.924l-0.546,0.812c-0.645-0.383-1.354-0.748-2.128-1.092c-0.943,0.643-2.109,1.162-3.5,1.553
				l-0.49-0.867c1.167-0.309,2.146-0.691,2.94-1.148l-1.946-0.783c0.392-0.645,0.709-1.219,0.952-1.723h-1.638v-0.91h2.058
				c0.233-0.652,0.341-0.947,0.322-0.883L758.256,390.027z M754.938,386.107h2.729v-2.674h0.938v2.674h2.548v0.881h-2.548v0.154
				c0.765,0.383,1.54,0.812,2.323,1.289l-0.518,0.783c-0.7-0.561-1.302-1.008-1.806-1.344v1.82h-0.938v-2.66
				c-0.457,1.092-1.293,2.049-2.506,2.869l-0.49-0.811c1.083-0.635,1.834-1.336,2.254-2.102h-1.987V386.107z M756.002,383.727
				c0.364,0.57,0.663,1.145,0.896,1.723l-0.784,0.363c-0.29-0.662-0.607-1.264-0.952-1.805L756.002,383.727z M759.936,391.707
				h-2.365c-0.233,0.477-0.485,0.92-0.756,1.33c0.56,0.195,1.087,0.393,1.582,0.588
				C759.096,393.057,759.609,392.416,759.936,391.707z M761.028,384.021c-0.29,0.635-0.649,1.24-1.078,1.82l-0.756-0.406
				c0.447-0.635,0.793-1.236,1.036-1.807L761.028,384.021z M762.54,388.781c-0.243,0.615-0.518,1.189-0.826,1.723l-0.63-0.771
				c0.831-1.576,1.386-3.691,1.666-6.342l0.98,0.168c-0.065,0.58-0.169,1.246-0.309,2.002h3.696v0.967h-0.91
				c-0.056,2.332-0.472,4.33-1.246,5.992c0.737,1.23,1.601,2.18,2.59,2.842l-0.574,0.854c-0.961-0.672-1.796-1.592-2.506-2.758
				c-0.681,1.119-1.549,2.059-2.604,2.814l-0.532-0.855c1.092-0.756,1.955-1.73,2.59-2.926
				C763.375,391.391,762.913,390.152,762.54,388.781z M763.212,386.527c-0.094,0.336-0.159,0.582-0.196,0.742
				c0.346,1.586,0.803,2.98,1.372,4.186c0.541-1.418,0.84-3.061,0.896-4.928H763.212z"/>
			<path style="fill:#444444;" d="M769.106,396.131l-0.21-0.951c0.4,0.045,0.756,0.068,1.063,0.068c0.354,0,0.532-0.205,0.532-0.615
				v-3.416c-0.653,0.242-1.204,0.434-1.652,0.574l-0.252-0.98c0.635-0.148,1.27-0.34,1.904-0.574v-3.164h-1.681v-0.965h1.681v-2.646
				h0.979v2.646h1.345v0.965h-1.345v2.758c0.448-0.195,0.882-0.404,1.303-0.629v0.994c-0.29,0.148-0.724,0.354-1.303,0.615v4.074
				c0,0.83-0.392,1.246-1.176,1.246H769.106z M774.482,389.943c-0.168,2.389-0.715,4.494-1.639,6.314l-0.784-0.701
				c0.989-1.848,1.493-4.246,1.513-7.195v-4.383h7.378v3.402h-2.632v1.652h2.996v0.91h-2.996v1.721h2.352v4.594h-0.938v-0.688
				h-3.794v0.688H775v-4.594h2.338v-1.721H774.482z M777.338,387.381h-2.786l-0.014,1.652h2.8V387.381z M779.97,384.916h-5.418
				v1.555h5.418V384.916z M775.938,394.676h3.794v-2.115h-3.794V394.676z"/>
			<path style="fill:#444444;" d="M789.476,383.307c0.262,0.42,0.5,0.873,0.715,1.357h5.04v0.98h-10.374v3.193
				c-0.057,3.117-0.528,5.59-1.414,7.42l-0.826-0.742c0.774-1.605,1.176-3.832,1.204-6.678v-4.174h5.264
				c-0.215-0.41-0.457-0.797-0.728-1.16L789.476,383.307z M789.532,386.262c-0.084,0.26-0.21,0.635-0.378,1.119h5.46v0.883h-5.811
				c-0.392,0.895-0.812,1.693-1.26,2.393h2.618v-1.693h1.008v1.693h3.122v0.91h-3.122v1.568h4.187v0.924h-4.187v2.213h-1.008v-2.213
				h-5.054v-0.924h5.054v-1.568h-3.668l-0.21-0.867c0.541-0.672,1.026-1.484,1.456-2.436h-2.114v-0.883h2.478
				c0.159-0.439,0.313-0.887,0.463-1.344L789.532,386.262z"/>
		</g>
		<g id="XMLID_134_">
			<g>
				<path style="fill:#00A4FF;" d="M709.16,394.978c0.331-0.318,0.685-0.612,1.073-0.861c0.094-0.388,0.22-0.762,0.368-1.125
					c-0.2,0.003-0.398,0.009-0.6,0.009c-5.523,0-10-1.343-10-3v-6.238c2.149,1.349,5.824,2.238,10,2.238
					c4.176,0,7.851-0.89,10-2.238v4.493c0.711,0.183,1.381,0.464,2,0.824V381c0-2.761-5.373-5-12-5s-12,2.239-12,5v18
					c0,2.51,4.445,4.582,10.231,4.94c-0.425-0.621-0.745-1.314-0.955-2.055C703.079,401.528,700,400.373,700,399v-6.239
					C702.003,394.018,705.336,394.866,709.16,394.978z M710,378c5.523,0,10,1.343,10,3c0,1.657-4.477,3-10,3s-10-1.343-10-3
					C700,379.343,704.477,378,710,378z M722.986,396.137c0.001-0.047,0.014-0.09,0.014-0.137c0-2.762-2.238-5-5-5
					c-2.761,0-5,2.238-5,5c0,0.047,0.012,0.091,0.014,0.137C711.284,396.578,710,398.133,710,400c0,2.209,1.791,4,4,4h8
					c2.209,0,4-1.791,4-4C726,398.133,724.715,396.578,722.986,396.137z M722,402h-8c-1.103,0-2-0.897-2-2
					c0-0.907,0.62-1.698,1.508-1.925l1.549-0.395l-0.044-1.598c-0.002-0.059-0.006-0.116-0.012-0.174
					C715.05,394.295,716.377,393,718,393c1.623,0,2.949,1.295,2.999,2.907c-0.006,0.058-0.01,0.116-0.012,0.175l-0.044,1.598
					l1.549,0.395C723.38,398.302,724,399.093,724,400C724,401.103,723.103,402,722,402z"/>
			</g>
		</g>
	</g>
	<g>
		
			<line style="fill-rule:evenodd;clip-rule:evenodd;fill:none;stroke:#878787;stroke-miterlimit:10;" x1="325" y1="102.5" x2="306" y2="102.5"/>
		<polygon style="fill-rule:evenodd;clip-rule:evenodd;fill:#878787;" points="323,107 328,102.5 323,98 		"/>
	</g>
	<g>
		
			<line style="fill-rule:evenodd;clip-rule:evenodd;fill:none;stroke:#878787;stroke-miterlimit:10;" x1="486" y1="102.5" x2="468" y2="102.5"/>
		<polygon style="fill-rule:evenodd;clip-rule:evenodd;fill:#878787;" points="484,107 489,102.5 484,98 		"/>
	</g>
	<g>
		<rect x="160" y="149" style="fill:#CEE3FF;" width="481" height="98"/>
		<g>
			<g>
				<path style="fill:#00A4FF;" d="M191.629,164.846h3.024v6.272c0.607-0.477,1.19-0.971,1.75-1.484l0.266,1.064
					c-0.887,0.803-1.862,1.535-2.926,2.198L193.365,172c0.214-0.187,0.322-0.387,0.322-0.602v-5.587h-2.058V164.846z
					 M193.281,160.688c0.961,0.737,1.754,1.455,2.38,2.155l-0.686,0.7c-0.579-0.681-1.381-1.404-2.408-2.17L193.281,160.688z
					 M196.375,161.36h8.106v0.979h-2.94v9.646c0,0.877-0.439,1.315-1.316,1.315h-1.834l-0.21-0.979
					c0.653,0.046,1.218,0.069,1.694,0.069c0.42,0,0.63-0.219,0.63-0.657v-9.395h-4.13V161.36z"/>
				<path style="fill:#00A4FF;" d="M207.323,162.746h2.674c-0.43-0.69-0.868-1.293-1.316-1.806l0.882-0.421
					c0.438,0.532,0.882,1.162,1.33,1.891l-0.644,0.336h2.898c0.438-0.729,0.807-1.488,1.106-2.282l0.966,0.351
					c-0.317,0.728-0.667,1.371-1.05,1.932h2.52v5.824h-4.172v1.273h5.712v0.966h-5.712v2.633h-1.022v-2.633h-5.726v-0.966h5.726
					v-1.273h-4.172V162.746z M208.317,165.224h3.178v-1.554h-3.178V165.224z M211.495,167.674v-1.567h-3.178v1.567H211.495z
					 M212.517,163.67v1.554h3.164v-1.554H212.517z M215.681,167.674v-1.567h-3.164v1.567H215.681z"/>
				<path style="fill:#00A4FF;" d="M221.743,162.452c-0.355,0.579-0.728,1.083-1.12,1.512l-0.882-0.56
					c0.831-0.859,1.446-1.829,1.848-2.912l0.966,0.21l-0.35,0.868h3.752v0.882h-2.352c0.336,0.448,0.593,0.85,0.77,1.204
					l-0.924,0.35c-0.243-0.513-0.546-1.031-0.91-1.554H221.743z M231.935,164.398v2.533h-0.98v-1.666h-9.912v1.666h-0.98v-2.533
					h5.544c-0.14-0.337-0.285-0.64-0.434-0.91l0.98-0.168l-0.084-0.057c0.663-0.83,1.148-1.75,1.456-2.758l0.966,0.21
					c-0.112,0.336-0.215,0.621-0.308,0.854h4.046v0.882h-2.492c0.308,0.411,0.542,0.774,0.7,1.092l-0.896,0.336
					c-0.252-0.504-0.546-0.979-0.882-1.428h-0.882c-0.224,0.43-0.509,0.877-0.854,1.344l-0.756-0.462
					c0.177,0.373,0.327,0.728,0.448,1.064H231.935z M230.003,166.092v2.744h-6.986v0.966h7.63v3.599h-0.994v-0.589h-6.636v0.574
					h-1.008v-7.294H230.003z M223.017,168.024h6.006v-1.12h-6.006V168.024z M223.017,171.916h6.636v-1.302h-6.636V171.916z"/>
				<path style="fill:#00A4FF;" d="M233.909,165.742h1.498v-3.304h-1.694v-0.952h4.41v0.952h-1.68v3.304h1.526v0.979h-1.526v3.137
					c0.56-0.196,1.12-0.42,1.68-0.673v0.967c-1.279,0.56-2.726,1.045-4.34,1.456l-0.252-0.967c0.588-0.121,1.213-0.271,1.876-0.447
					v-3.473h-1.498V165.742z M238.949,161.108h6.734v6.481h-2.856v1.708h3.08v0.938h-3.08v1.777h3.528v0.967h-8.064v-0.967h3.528
					v-1.777h-3.108v-0.938h3.108v-1.708h-2.87V161.108z M239.915,163.922h1.904v-1.918h-1.904V163.922z M241.819,166.694v-1.904
					h-1.904v1.904H241.819z M242.827,162.004v1.918h1.89v-1.918H242.827z M244.717,166.694v-1.904h-1.89v1.904H244.717z"/>
			</g>
		</g>
		<g>
			<path style="fill:#00A4FF;" d="M178.499,159c-0.828,0-1.5,0.672-1.5,1.5c0,0.652,0.419,1.202,1,1.408V164h1v-2.092
				c0.581-0.207,1-0.756,1-1.408C179.999,159.672,179.328,159,178.499,159z"/>
			<circle style="fill:#00A4FF;" cx="178.499" cy="172.5" r="1.5"/>
			<path style="fill:#00A4FF;" d="M174.25,162.201c-0.717-0.414-1.635-0.168-2.049,0.549c-0.414,0.717-0.168,1.635,0.549,2.049
				c0.081,0.047,0.165,0.082,0.25,0.112V167h1v-2.093c0.139-0.049,0.272-0.114,0.392-0.202l1.693,0.978l0.5-0.866l-1.638-0.946
				C175.11,163.236,174.846,162.545,174.25,162.201z"/>
			<circle style="fill:#00A4FF;" cx="183.5" cy="169.5" r="1.5"/>
			<path style="fill:#00A4FF;" d="M179.989,166.357c-0.003-0.034-0.009-0.068-0.015-0.102c-0.006-0.034-0.011-0.067-0.019-0.1
				c-0.007-0.028-0.014-0.055-0.022-0.083c-0.01-0.032-0.021-0.064-0.033-0.096c-0.012-0.033-0.024-0.065-0.039-0.097
				c-0.013-0.029-0.028-0.056-0.043-0.084c-0.008-0.015-0.012-0.03-0.02-0.045s-0.02-0.026-0.029-0.04
				c-0.017-0.027-0.033-0.053-0.052-0.079c-0.02-0.028-0.042-0.055-0.064-0.082c-0.022-0.026-0.043-0.052-0.066-0.077
				c-0.02-0.021-0.04-0.041-0.06-0.06c-0.025-0.023-0.051-0.045-0.077-0.067c-0.027-0.022-0.053-0.044-0.081-0.064
				c-0.026-0.018-0.052-0.035-0.079-0.052c-0.014-0.009-0.025-0.02-0.04-0.029c-0.015-0.008-0.03-0.012-0.045-0.02
				c-0.028-0.015-0.055-0.029-0.084-0.042c-0.031-0.014-0.064-0.026-0.096-0.038c-0.032-0.012-0.064-0.024-0.096-0.033
				c-0.027-0.008-0.055-0.016-0.083-0.022c-0.033-0.008-0.066-0.014-0.1-0.019c-0.034-0.006-0.068-0.011-0.102-0.015
				c-0.031-0.003-0.063-0.004-0.094-0.005c-0.017,0-0.032-0.005-0.049-0.005s-0.032,0.004-0.049,0.005
				c-0.032,0.001-0.063,0.002-0.094,0.005c-0.034,0.003-0.068,0.009-0.102,0.015c-0.034,0.006-0.067,0.011-0.1,0.019
				c-0.028,0.007-0.055,0.014-0.083,0.022c-0.033,0.01-0.064,0.021-0.096,0.033c-0.033,0.012-0.065,0.024-0.096,0.038
				c-0.029,0.013-0.056,0.028-0.084,0.042c-0.015,0.008-0.031,0.012-0.045,0.02c-0.015,0.008-0.026,0.02-0.04,0.029
				c-0.027,0.017-0.053,0.033-0.079,0.052c-0.028,0.02-0.054,0.042-0.081,0.064c-0.027,0.022-0.053,0.044-0.077,0.067
				c-0.021,0.02-0.041,0.04-0.06,0.06c-0.023,0.025-0.045,0.05-0.066,0.077c-0.022,0.027-0.044,0.053-0.064,0.082
				c-0.018,0.026-0.035,0.052-0.052,0.079c-0.009,0.014-0.02,0.025-0.029,0.04s-0.012,0.03-0.02,0.045
				c-0.015,0.028-0.03,0.056-0.043,0.084c-0.014,0.032-0.026,0.064-0.039,0.097c-0.012,0.032-0.024,0.063-0.033,0.096
				c-0.008,0.027-0.016,0.055-0.022,0.083c-0.008,0.033-0.014,0.066-0.019,0.1c-0.006,0.034-0.011,0.068-0.015,0.102
				c-0.003,0.031-0.004,0.063-0.005,0.094c-0.001,0.017-0.005,0.032-0.005,0.049s0.004,0.032,0.005,0.049
				c0.001,0.031,0.002,0.063,0.005,0.094c0.003,0.034,0.009,0.068,0.015,0.102c0.006,0.034,0.011,0.067,0.019,0.1
				c0.007,0.028,0.014,0.055,0.022,0.083c0.01,0.032,0.021,0.064,0.033,0.096c0.012,0.033,0.024,0.065,0.039,0.097
				c0.013,0.029,0.028,0.056,0.043,0.084c0.008,0.015,0.012,0.03,0.02,0.045c0.008,0.014,0.02,0.026,0.029,0.04
				c0.017,0.027,0.033,0.053,0.052,0.079c0.02,0.028,0.042,0.055,0.064,0.082c0.022,0.026,0.043,0.052,0.066,0.077
				c0.02,0.021,0.04,0.041,0.061,0.061c0.025,0.023,0.05,0.045,0.077,0.066c0.027,0.022,0.053,0.044,0.081,0.064
				c0.026,0.018,0.052,0.035,0.079,0.052c0.014,0.009,0.025,0.02,0.04,0.029c0.015,0.008,0.03,0.012,0.045,0.02
				c0.028,0.015,0.055,0.03,0.084,0.043c0.032,0.015,0.064,0.026,0.097,0.039c0.008,0.003,0.016,0.008,0.024,0.011V170h1v-2.088
				c0.008-0.003,0.016-0.008,0.024-0.011c0.033-0.012,0.065-0.024,0.097-0.039c0.029-0.013,0.056-0.028,0.084-0.043
				c0.015-0.008,0.03-0.012,0.045-0.02c0.014-0.008,0.026-0.02,0.04-0.029c0.027-0.017,0.054-0.033,0.079-0.052
				c0.028-0.02,0.055-0.042,0.081-0.064c0.026-0.022,0.052-0.043,0.077-0.066c0.021-0.02,0.041-0.04,0.061-0.061
				c0.023-0.025,0.045-0.05,0.066-0.077c0.022-0.027,0.044-0.053,0.064-0.082c0.018-0.026,0.035-0.052,0.052-0.079
				c0.009-0.014,0.02-0.025,0.029-0.04c0.008-0.015,0.012-0.03,0.02-0.045c0.015-0.028,0.03-0.055,0.043-0.084
				c0.014-0.031,0.026-0.064,0.039-0.097c0.012-0.032,0.024-0.063,0.033-0.096c0.008-0.028,0.016-0.055,0.022-0.083
				c0.008-0.033,0.014-0.066,0.019-0.1c0.006-0.034,0.011-0.068,0.015-0.102c0.003-0.031,0.004-0.063,0.005-0.094
				c0.001-0.017,0.005-0.032,0.005-0.049s-0.004-0.032-0.005-0.049C179.993,166.419,179.993,166.388,179.989,166.357z"/>
			<circle style="fill:#00A4FF;" cx="173.5" cy="169.5" r="1.5"/>
			<path style="fill:#00A4FF;" d="M182.999,164.907V167h1v-2.089c0.085-0.03,0.169-0.066,0.25-0.112
				c0.717-0.414,0.963-1.332,0.549-2.049c-0.414-0.718-1.332-0.963-2.049-0.549c-0.596,0.344-0.86,1.035-0.697,1.671l-1.638,0.946
				l0.5,0.866l1.694-0.978C182.728,164.793,182.861,164.858,182.999,164.907z"/>
		</g>
	</g>
	<g>
		<g style="opacity:0.6;">
			<rect x="173" y="187" style="fill:#BBBBBB;" width="133" height="50"/>
		</g>
		<g>
			<rect x="171.5" y="185.5" style="fill:#FFFFFF;" width="132" height="49"/>
			<path style="fill:#E5E5E5;" d="M303,186v48H172v-48H303 M304,185H171v50h133V185L304,185z"/>
		</g>
		<rect x="191" y="194" style="opacity:0;fill:#CB3333;" width="32" height="32"/>
		<g>
			<path style="fill:#444444;" d="M236.933,204.861h1.33l3.935,9.996h-1.246l-1.064-2.801h-4.592l-1.063,2.801H233L236.933,204.861z
				 M235.66,211.092h3.864l-1.891-4.998h-0.056L235.66,211.092z"/>
			<path style="fill:#444444;" d="M243.206,204.861h4.088c2.296,0,3.444,0.98,3.444,2.939c0,1.979-1.153,2.969-3.458,2.969h-2.926
				v4.088h-1.148V204.861z M244.354,205.855v3.92h2.87c0.793,0,1.391-0.164,1.792-0.49c0.382-0.326,0.573-0.822,0.573-1.484
				c0-0.682-0.195-1.166-0.588-1.455c-0.383-0.328-0.976-0.49-1.777-0.49H244.354z"/>
			<path style="fill:#444444;" d="M252.277,204.861h1.134v9.996h-1.134V204.861z"/>
			<path style="fill:#444444;" d="M264.429,216.174l-0.266-0.98l1.344,0.041c0.393,0,0.588-0.191,0.588-0.574v-9.701h-9.184v11.27
				h-0.994v-12.236h11.172v10.893c0,0.859-0.415,1.289-1.246,1.289H264.429z M261.097,213.078c-0.401-0.633-0.845-1.307-1.33-2.016
				c-0.494,1.363-1.105,2.539-1.834,3.529l-0.644-0.785c0.728-1.035,1.33-2.264,1.806-3.682c-0.644-0.859-1.302-1.676-1.974-2.449
				l0.63-0.604c0.56,0.588,1.115,1.252,1.666,1.988c0.271-1.008,0.49-2.062,0.658-3.164l0.924,0.168
				c-0.224,1.438-0.519,2.754-0.882,3.949c0.616,0.84,1.166,1.637,1.651,2.393L261.097,213.078z M265.2,213.723
				c-0.401-0.689-0.873-1.465-1.414-2.324c-0.561,1.373-1.218,2.549-1.975,3.529l-0.644-0.771c0.793-1.072,1.446-2.318,1.96-3.738
				c-0.69-1.016-1.33-1.885-1.918-2.604l0.63-0.602c0.569,0.645,1.12,1.35,1.652,2.113c0.289-0.971,0.536-2.1,0.742-3.387
				l0.951,0.168c-0.252,1.549-0.588,2.953-1.008,4.213c0.588,0.896,1.157,1.807,1.708,2.73L265.2,213.723z"/>
			<path style="fill:#444444;" d="M279.074,203.615c-0.336,1.018-0.756,1.922-1.261,2.715h2.885v0.98h-4.677v0.658
				c-0.027,0.775-0.093,1.424-0.195,1.945h5.684v0.98h-5.096c0.69,1.895,2.501,3.365,5.432,4.41l-0.588,0.938
				c-3.07-1.24-4.984-2.93-5.74-5.066c-0.271,0.811-0.625,1.512-1.063,2.1c-0.962,1.24-2.516,2.201-4.662,2.883l-0.546-0.881
				c2.146-0.691,3.64-1.596,4.479-2.717c0.346-0.514,0.611-1.068,0.798-1.666h-5.025v-0.98h5.278c0.13-0.615,0.2-1.264,0.21-1.945
				v-0.658h-4.69v-0.98h6.398c0.513-0.783,0.984-1.777,1.413-2.98L279.074,203.615z M272.843,203.475
				c0.579,0.756,1.11,1.549,1.596,2.381l-0.909,0.461c-0.514-0.914-1.051-1.713-1.61-2.393L272.843,203.475z"/>
		</g>
		<g id="图层_1_2_">
			<g>
				<path style="fill:#00A4FF;" d="M206.2,224c-7.2,0-13-5.8-13-13s5.8-13,13-13c6.5,0,11.9,4.8,12.8,11h2c-1-7.3-7.2-13-14.9-13
					c-8.3,0-15,6.7-15,15s6.7,15,15,15c7.6,0,13.9-5.7,14.9-13h-2C218.1,219.2,212.7,224,206.2,224z"/>
				<rect x="198.2" y="206" style="fill:#00A4FF;" width="16" height="2"/>
				<rect x="198.2" y="217" style="fill:#00A4FF;" width="16" height="2"/>
				<rect x="198.2" y="206" style="fill:#00A4FF;" width="2" height="3"/>
				<rect x="198.2" y="216" style="fill:#00A4FF;" width="2" height="3"/>
				<rect x="212.2" y="216" style="fill:#00A4FF;" width="2" height="3"/>
				<rect x="212.2" y="206" style="fill:#00A4FF;" width="2" height="3"/>
				<rect x="201.2" y="202" style="fill:#00A4FF;" width="2" height="4"/>
				<rect x="209.2" y="202" style="fill:#00A4FF;" width="2" height="4"/>
				<rect x="199.2" y="210" style="fill:#00A4FF;" width="2" height="5"/>
				<rect x="202.2" y="210" style="fill:#00A4FF;" width="2" height="5"/>
				<rect x="200.2" y="210" style="fill:#00A4FF;" width="3" height="1"/>
				<rect x="200.2" y="212" style="fill:#00A4FF;" width="3" height="1"/>
				<rect x="206.2" y="210" style="fill:#00A4FF;" width="4" height="1"/>
				<rect x="205.2" y="212" style="fill:#00A4FF;" width="4" height="1"/>
				<rect x="205.2" y="210" style="fill:#00A4FF;" width="2" height="5"/>
				<rect x="208.2" y="210" style="fill:#00A4FF;" width="2" height="3"/>
				<rect x="211.2" y="210" style="fill:#00A4FF;" width="2" height="5"/>
			</g>
		</g>
	</g>
	<g>
		<g style="opacity:0.6;">
			<rect x="335" y="187" style="fill:#BBBBBB;" width="133" height="50"/>
		</g>
		<g>
			<rect x="333.5" y="185.5" style="fill:#FFFFFF;" width="132" height="49"/>
			<path style="fill:#E5E5E5;" d="M465,186v48H334v-48H465 M466,185H333v50h133V185L466,185z"/>
		</g>
		<rect x="353" y="194" style="opacity:0;fill:#CB3333;" width="32" height="32"/>
		<g>
			<path style="fill:#444444;" d="M395.742,208.137h12.558v1.008h-6.72c-1.27,2.613-2.395,4.453-3.374,5.516
				c2.511-0.139,5.021-0.377,7.532-0.713c-0.504-0.896-1.064-1.82-1.681-2.771l0.812-0.504c1.27,1.902,2.263,3.588,2.981,5.053
				l-0.896,0.631c-0.243-0.523-0.485-1.018-0.729-1.484c-2.697,0.346-5.796,0.635-9.296,0.867l-0.266-1.021
				c0.056-0.018,0.135-0.051,0.238-0.098c0.905-0.682,2.09-2.506,3.556-5.475h-4.718V208.137z M397.085,204.23h9.968v0.98h-9.968
				V204.23z"/>
			<path style="fill:#444444;" d="M420.662,206.498h0.966v9.787h-0.966V215.5h-9.324v0.771h-0.966v-9.787h0.966v8.092h9.324V206.498
				z M411.603,212.168c1.429-0.83,2.81-1.879,4.145-3.148v-2.395c1.391-0.691,2.445-1.266,3.164-1.723h-7.154v-0.951h8.666v0.951
				c-1.083,0.748-2.329,1.508-3.738,2.283v2.141c1.232,0.859,2.465,1.816,3.696,2.871l-0.588,0.881
				c-1.194-1.156-2.23-2.07-3.108-2.744v2.354c0,0.82-0.383,1.23-1.147,1.23h-1.274l-0.252-0.938
				c0.467,0.02,0.854,0.029,1.162,0.029c0.383,0,0.574-0.225,0.574-0.672v-2.172c-1.204,1.141-2.469,2.133-3.794,2.982
				L411.603,212.168z M412.849,206.934c0.878,0.811,1.535,1.492,1.975,2.043l-0.771,0.533c-0.438-0.598-1.087-1.303-1.945-2.115
				L412.849,206.934z M420.032,207.227c-0.551,0.887-1.214,1.666-1.988,2.338l-0.728-0.518c0.736-0.625,1.372-1.363,1.903-2.213
				L420.032,207.227z"/>
			<path style="fill:#444444;" d="M427.255,210.027l-0.28,0.77h2.912v0.854c-0.308,0.916-0.816,1.709-1.525,2.381
				c0.662,0.279,1.292,0.588,1.89,0.924l-0.546,0.812c-0.645-0.383-1.354-0.748-2.128-1.092c-0.943,0.643-2.109,1.162-3.5,1.553
				l-0.49-0.867c1.167-0.309,2.146-0.691,2.94-1.148l-1.946-0.783c0.392-0.645,0.709-1.219,0.952-1.723h-1.638v-0.91h2.058
				c0.233-0.652,0.341-0.947,0.322-0.883L427.255,210.027z M423.938,206.107h2.729v-2.674h0.938v2.674h2.548v0.881h-2.548v0.154
				c0.765,0.383,1.54,0.812,2.323,1.289l-0.518,0.783c-0.7-0.561-1.302-1.008-1.806-1.344v1.82h-0.938v-2.66
				c-0.457,1.092-1.293,2.049-2.506,2.869l-0.49-0.811c1.083-0.635,1.834-1.336,2.254-2.102h-1.987V206.107z M425.001,203.727
				c0.364,0.57,0.663,1.145,0.896,1.723l-0.784,0.363c-0.29-0.662-0.607-1.264-0.952-1.805L425.001,203.727z M428.935,211.707
				h-2.365c-0.233,0.477-0.485,0.92-0.756,1.33c0.56,0.195,1.087,0.393,1.582,0.588
				C428.095,213.057,428.609,212.416,428.935,211.707z M430.028,204.021c-0.29,0.635-0.649,1.24-1.078,1.82l-0.756-0.406
				c0.447-0.635,0.793-1.236,1.036-1.807L430.028,204.021z M431.54,208.781c-0.243,0.615-0.518,1.189-0.826,1.723l-0.63-0.771
				c0.831-1.576,1.386-3.691,1.666-6.342l0.98,0.168c-0.065,0.58-0.169,1.246-0.309,2.002h3.696v0.967h-0.91
				c-0.056,2.332-0.472,4.33-1.246,5.992c0.737,1.23,1.601,2.18,2.59,2.842l-0.574,0.854c-0.961-0.672-1.796-1.592-2.506-2.758
				c-0.681,1.119-1.549,2.059-2.604,2.814l-0.532-0.855c1.092-0.756,1.955-1.73,2.59-2.926
				C432.375,211.391,431.913,210.152,431.54,208.781z M432.211,206.527c-0.094,0.336-0.159,0.582-0.196,0.742
				c0.346,1.586,0.803,2.98,1.372,4.186c0.541-1.418,0.84-3.061,0.896-4.928H432.211z"/>
		</g>
		<g>
			<g id="XMLID_81_">
				<g>
					<path style="fill:#00A4FF;" d="M368.07,224c-7.213,0-13.061-5.82-13.061-13s5.848-13,13.061-13c6.528,0,11.922,4.772,12.89,11
						h2.03c-0.985-7.336-7.281-13-14.921-13c-8.323,0-15.07,6.716-15.07,15s6.747,15,15.07,15c7.64,0,13.936-5.664,14.921-13h-2.03
						C379.992,219.228,374.598,224,368.07,224z"/>
				</g>
			</g>
			<g>
				<path id="XMLID_80_" style="fill:#00A4FF;" d="M360.991,213l5,3v2l-5-3V213z"/>
				<path id="XMLID_79_" style="fill:#00A4FF;" d="M360.991,209l5-3v-2l-5,3V209z"/>
				<path id="XMLID_78_" style="fill:#00A4FF;" d="M360.991,207h2v8h-2V207z"/>
			</g>
			<g>
				<path id="XMLID_77_" style="fill:#00A4FF;" d="M372.991,207h2v8h-2V207z"/>
				<path id="XMLID_76_" style="fill:#00A4FF;" d="M374.991,215l-5,3v-2l5-3V215z"/>
				<path id="XMLID_75_" style="fill:#00A4FF;" d="M374.991,207l-5-3v2l5,3V207z"/>
			</g>
			<polygon id="XMLID_74_" style="fill:#00A4FF;" points="367.991,214 365.991,214 367.991,208 369.991,208 			"/>
		</g>
	</g>
	<g>
		<g style="opacity:0.6;">
			<rect x="496" y="187" style="fill:#BBBBBB;" width="133" height="50"/>
		</g>
		<g>
			<rect x="494.5" y="185.5" style="fill:#FFFFFF;" width="132" height="49"/>
			<path style="fill:#E5E5E5;" d="M626,186v48H495v-48H626 M627,185H494v50h133V185L627,185z"/>
		</g>
		<rect x="514" y="194" style="opacity:0;fill:#CB3333;" width="32" height="32"/>
		<g>
			<path style="fill:#444444;" d="M556.742,208.137H569.3v1.008h-6.72c-1.27,2.613-2.395,4.453-3.374,5.516
				c2.511-0.139,5.021-0.377,7.532-0.713c-0.504-0.896-1.064-1.82-1.681-2.771l0.812-0.504c1.27,1.902,2.263,3.588,2.981,5.053
				l-0.896,0.631c-0.243-0.523-0.485-1.018-0.729-1.484c-2.697,0.346-5.796,0.635-9.296,0.867l-0.266-1.021
				c0.056-0.018,0.135-0.051,0.238-0.098c0.905-0.682,2.09-2.506,3.556-5.475h-4.718V208.137z M558.086,204.23h9.968v0.98h-9.968
				V204.23z"/>
			<path style="fill:#444444;" d="M574.256,210.027l-0.28,0.77h2.912v0.854c-0.308,0.916-0.816,1.709-1.525,2.381
				c0.662,0.279,1.292,0.588,1.89,0.924l-0.546,0.812c-0.645-0.383-1.354-0.748-2.128-1.092c-0.943,0.643-2.109,1.162-3.5,1.553
				l-0.49-0.867c1.167-0.309,2.146-0.691,2.94-1.148l-1.946-0.783c0.392-0.645,0.709-1.219,0.952-1.723h-1.638v-0.91h2.058
				c0.233-0.652,0.341-0.947,0.322-0.883L574.256,210.027z M570.938,206.107h2.729v-2.674h0.938v2.674h2.548v0.881h-2.548v0.154
				c0.765,0.383,1.54,0.812,2.323,1.289l-0.518,0.783c-0.7-0.561-1.302-1.008-1.806-1.344v1.82h-0.938v-2.66
				c-0.457,1.092-1.293,2.049-2.506,2.869l-0.49-0.811c1.083-0.635,1.834-1.336,2.254-2.102h-1.987V206.107z M572.002,203.727
				c0.364,0.57,0.663,1.145,0.896,1.723l-0.784,0.363c-0.29-0.662-0.607-1.264-0.952-1.805L572.002,203.727z M575.936,211.707
				h-2.365c-0.233,0.477-0.485,0.92-0.756,1.33c0.56,0.195,1.087,0.393,1.582,0.588
				C575.096,213.057,575.609,212.416,575.936,211.707z M577.028,204.021c-0.29,0.635-0.649,1.24-1.078,1.82l-0.756-0.406
				c0.447-0.635,0.793-1.236,1.036-1.807L577.028,204.021z M578.54,208.781c-0.243,0.615-0.518,1.189-0.826,1.723l-0.63-0.771
				c0.831-1.576,1.386-3.691,1.666-6.342l0.98,0.168c-0.065,0.58-0.169,1.246-0.309,2.002h3.696v0.967h-0.91
				c-0.056,2.332-0.472,4.33-1.246,5.992c0.737,1.23,1.601,2.18,2.59,2.842l-0.574,0.854c-0.961-0.672-1.796-1.592-2.506-2.758
				c-0.681,1.119-1.549,2.059-2.604,2.814l-0.532-0.855c1.092-0.756,1.955-1.73,2.59-2.926
				C579.375,211.391,578.913,210.152,578.54,208.781z M579.212,206.527c-0.094,0.336-0.159,0.582-0.196,0.742
				c0.346,1.586,0.803,2.98,1.372,4.186c0.541-1.418,0.84-3.061,0.896-4.928H579.212z"/>
			<path style="fill:#444444;" d="M585.106,216.131l-0.21-0.951c0.4,0.045,0.756,0.068,1.063,0.068c0.354,0,0.532-0.205,0.532-0.615
				v-3.416c-0.653,0.242-1.204,0.434-1.652,0.574l-0.252-0.98c0.635-0.148,1.27-0.34,1.904-0.574v-3.164h-1.681v-0.965h1.681v-2.646
				h0.979v2.646h1.345v0.965h-1.345v2.758c0.448-0.195,0.882-0.404,1.303-0.629v0.994c-0.29,0.148-0.724,0.354-1.303,0.615v4.074
				c0,0.83-0.392,1.246-1.176,1.246H585.106z M590.482,209.943c-0.168,2.389-0.715,4.494-1.639,6.314l-0.784-0.701
				c0.989-1.848,1.493-4.246,1.513-7.195v-4.383h7.378v3.402h-2.632v1.652h2.996v0.91h-2.996v1.721h2.352v4.594h-0.938v-0.688
				h-3.794v0.688H591v-4.594h2.338v-1.721H590.482z M593.338,207.381h-2.786l-0.014,1.652h2.8V207.381z M595.97,204.916h-5.418
				v1.555h5.418V204.916z M591.938,214.676h3.794v-2.115h-3.794V214.676z"/>
			<path style="fill:#444444;" d="M605.476,203.307c0.262,0.42,0.5,0.873,0.715,1.357h5.04v0.98h-10.374v3.193
				c-0.057,3.117-0.528,5.59-1.414,7.42l-0.826-0.742c0.774-1.605,1.176-3.832,1.204-6.678v-4.174h5.264
				c-0.215-0.41-0.457-0.797-0.728-1.16L605.476,203.307z M605.532,206.262c-0.084,0.26-0.21,0.635-0.378,1.119h5.46v0.883h-5.811
				c-0.392,0.895-0.812,1.693-1.26,2.393h2.618v-1.693h1.008v1.693h3.122v0.91h-3.122v1.568h4.187v0.924h-4.187v2.213h-1.008v-2.213
				h-5.054v-0.924h5.054v-1.568h-3.668l-0.21-0.867c0.541-0.672,1.026-1.484,1.456-2.436h-2.114v-0.883h2.478
				c0.159-0.439,0.313-0.887,0.463-1.344L605.532,206.262z"/>
		</g>
		<g id="XMLID_51_">
			<g>
				<path style="fill:#00A4FF;" d="M526.6,212.991c-0.2,0.004-0.398,0.009-0.6,0.009c-5.523,0-10-1.343-10-3v-6.238
					c2.149,1.349,5.824,2.238,10,2.238c4.176,0,7.851-0.89,10-2.238v4.493c0.711,0.183,1.381,0.464,2,0.824V201
					c0-2.762-5.373-5-12-5c-6.627,0-12,2.239-12,5v18h2v-6.238c2.003,1.257,5.337,2.105,9.16,2.216
					c0.331-0.318,0.684-0.612,1.072-0.861C526.326,213.729,526.453,213.354,526.6,212.991z M526,198c5.523,0,10,1.343,10,3
					c0,1.657-4.477,3-10,3s-10-1.343-10-3C516,199.343,520.477,198,526,198z M516,219h-2c0,2.51,4.444,4.582,10.231,4.94
					c-0.425-0.621-0.745-1.314-0.955-2.055C519.079,221.528,516,220.373,516,219z M538.986,216.137
					c0.001-0.047,0.014-0.09,0.014-0.137c0-2.762-2.239-5-5-5c-2.761,0-5,2.238-5,5c0,0.047,0.012,0.091,0.014,0.137
					C527.285,216.578,526,218.133,526,220c0,2.209,1.791,4,4,4h8c2.209,0,4-1.791,4-4C542,218.133,540.716,216.578,538.986,216.137z
					 M538,222h-8c-1.103,0-2-0.897-2-2c0-0.907,0.62-1.698,1.508-1.925l1.549-0.395l-0.044-1.598
					c-0.002-0.059-0.006-0.116-0.012-0.174c0.049-1.612,1.375-2.907,2.999-2.907c1.623,0,2.949,1.295,2.999,2.907
					c-0.006,0.058-0.01,0.116-0.012,0.175l-0.044,1.598l1.549,0.395C539.38,218.302,540,219.093,540,220
					C540,221.103,539.103,222,538,222z"/>
			</g>
		</g>
	</g>
	<g>
		
			<line style="fill-rule:evenodd;clip-rule:evenodd;fill:none;stroke:#878787;stroke-miterlimit:10;" x1="325" y1="211.5" x2="306" y2="211.5"/>
		<polygon style="fill-rule:evenodd;clip-rule:evenodd;fill:#878787;" points="323,216 328,211.5 323,207 		"/>
	</g>
	<g>
		
			<line style="fill-rule:evenodd;clip-rule:evenodd;fill:none;stroke:#878787;stroke-miterlimit:10;" x1="153" y1="89" x2="140" y2="89"/>
		<polygon style="fill-rule:evenodd;clip-rule:evenodd;fill:#878787;" points="151,93.5 156,89 151,84.5 		"/>
	</g>
	<g>
		
			<line style="fill-rule:evenodd;clip-rule:evenodd;fill:none;stroke:#878787;stroke-miterlimit:10;" x1="153" y1="210.5" x2="127" y2="210.5"/>
		
			<line style="fill-rule:evenodd;clip-rule:evenodd;fill:none;stroke:#878787;stroke-miterlimit:10;" x1="140.002" y1="342" x2="140.002" y2="89"/>
		<polygon style="fill-rule:evenodd;clip-rule:evenodd;fill:#878787;" points="151,215 156,210.5 151,206 		"/>
	</g>
	<g>
		
			<line style="fill-rule:evenodd;clip-rule:evenodd;fill:none;stroke:#878787;stroke-miterlimit:10;" x1="153" y1="342" x2="140" y2="342"/>
		<polygon style="fill-rule:evenodd;clip-rule:evenodd;fill:#878787;" points="151,346.5 156,342 151,337.5 		"/>
	</g>
	<g>
		
			<line style="fill-rule:evenodd;clip-rule:evenodd;fill:none;stroke:#878787;stroke-miterlimit:10;" x1="486" y1="211.5" x2="468" y2="211.5"/>
		<polygon style="fill-rule:evenodd;clip-rule:evenodd;fill:#878787;" points="484,216 489,211.5 484,207 		"/>
	</g>
	<g>
		
			<line style="fill-rule:evenodd;clip-rule:evenodd;fill:none;stroke:#878787;stroke-miterlimit:10;" x1="665" y1="348.5" x2="643" y2="348.5"/>
		<polygon style="fill-rule:evenodd;clip-rule:evenodd;fill:#878787;" points="663,353 668,348.5 663,344 		"/>
		<polygon style="fill-rule:evenodd;clip-rule:evenodd;fill:#878787;" points="646,344 641,348.5 646,353 		"/>
	</g>
	<g>
		
			<line style="fill-rule:evenodd;clip-rule:evenodd;fill:none;stroke:#878787;stroke-miterlimit:10;" x1="745" y1="357" x2="745" y2="347"/>
		<polygon style="fill-rule:evenodd;clip-rule:evenodd;fill:#878787;" points="740.5,355 745,360 749.5,355 		"/>
	</g>
	<g>
		<rect x="160" y="258" style="fill:#CEE3FF;" width="481" height="168"/>
		<g>
			<g>
				<path style="fill:#00A4FF;" d="M198.083,269.422c0.196,0.467,0.359,0.896,0.49,1.288h5.628v0.98h-3.024
					c-0.224,0.551-0.495,1.115-0.812,1.693h3.108v7.477c0,0.979-0.411,1.47-1.232,1.47h-1.428l-0.252-0.924l1.358,0.042
					c0.392,0,0.588-0.271,0.588-0.812v-6.355h-9.044v8.021h-0.966v-8.918h2.954c-0.196-0.56-0.443-1.124-0.742-1.693h-2.912v-0.98
					h5.698c-0.178-0.42-0.35-0.788-0.518-1.106L198.083,269.422z M197.257,275.162c-0.793,0.961-1.783,1.802-2.968,2.52l-0.644-0.84
					c1.148-0.644,2.114-1.414,2.898-2.31L197.257,275.162z M195.395,277.248h5.194v3.444h-5.194V277.248z M199.273,273.384
					c0.299-0.578,0.564-1.143,0.798-1.693h-4.242c0.224,0.476,0.448,1.04,0.672,1.693H199.273z M199.623,279.796v-1.638h-3.262
					v1.638H199.623z M199.357,274.518c1.167,0.822,2.133,1.624,2.898,2.408l-0.756,0.742c-0.709-0.803-1.652-1.638-2.828-2.506
					L199.357,274.518z"/>
				<path style="fill:#00A4FF;" d="M211.201,276.114v6.076h-0.98v-0.715h-2.954v0.715h-0.994v-6.076H211.201z M207.267,280.524
					h2.954v-3.444h-2.954V280.524z M208.135,270.15h7.714v4.577h-7.714V270.15z M214.841,273.776v-2.675h-5.698v2.675H214.841z
					 M217.711,276.114v6.076h-1.008v-0.715h-3.066v0.715h-0.994v-6.076H217.711z M213.637,280.524h3.066v-3.444h-3.066V280.524z"/>
				<path style="fill:#00A4FF;" d="M221.743,271.452c-0.355,0.579-0.728,1.083-1.12,1.512l-0.882-0.56
					c0.831-0.859,1.446-1.829,1.848-2.912l0.966,0.21l-0.35,0.868h3.752v0.882h-2.352c0.336,0.448,0.593,0.85,0.77,1.204
					l-0.924,0.35c-0.243-0.513-0.546-1.031-0.91-1.554H221.743z M231.935,273.398v2.533h-0.98v-1.666h-9.912v1.666h-0.98v-2.533
					h5.544c-0.14-0.337-0.285-0.64-0.434-0.91l0.98-0.168l-0.084-0.057c0.663-0.83,1.148-1.75,1.456-2.758l0.966,0.21
					c-0.112,0.336-0.215,0.621-0.308,0.854h4.046v0.882h-2.492c0.308,0.411,0.542,0.774,0.7,1.092l-0.896,0.336
					c-0.252-0.504-0.546-0.979-0.882-1.428h-0.882c-0.224,0.43-0.509,0.877-0.854,1.344l-0.756-0.462
					c0.177,0.373,0.327,0.728,0.448,1.064H231.935z M230.003,275.092v2.744h-6.986v0.966h7.63v3.599h-0.994v-0.589h-6.636v0.574
					h-1.008v-7.294H230.003z M223.017,277.024h6.006v-1.12h-6.006V277.024z M223.017,280.916h6.636v-1.302h-6.636V280.916z"/>
				<path style="fill:#00A4FF;" d="M233.909,274.742h1.498v-3.304h-1.694v-0.952h4.41v0.952h-1.68v3.304h1.526v0.979h-1.526v3.137
					c0.56-0.196,1.12-0.42,1.68-0.673v0.967c-1.279,0.56-2.726,1.045-4.34,1.456l-0.252-0.967c0.588-0.121,1.213-0.271,1.876-0.447
					v-3.473h-1.498V274.742z M238.949,270.108h6.734v6.481h-2.856v1.708h3.08v0.938h-3.08v1.777h3.528v0.967h-8.064v-0.967h3.528
					v-1.777h-3.108v-0.938h3.108v-1.708h-2.87V270.108z M239.915,272.922h1.904v-1.918h-1.904V272.922z M241.819,275.694v-1.904
					h-1.904v1.904H241.819z M242.827,271.004v1.918h1.89v-1.918H242.827z M244.717,275.694v-1.904h-1.89v1.904H244.717z"/>
			</g>
		</g>
		<g>
			<path style="fill:#00A4FF;" d="M178.499,268c-0.828,0-1.5,0.672-1.5,1.5c0,0.652,0.419,1.202,1,1.408V273h1v-2.092
				c0.581-0.207,1-0.756,1-1.408C179.999,268.672,179.328,268,178.499,268z"/>
			<circle style="fill:#00A4FF;" cx="178.499" cy="281.5" r="1.5"/>
			<path style="fill:#00A4FF;" d="M174.25,271.201c-0.717-0.414-1.635-0.168-2.049,0.549c-0.414,0.717-0.168,1.635,0.549,2.049
				c0.081,0.047,0.165,0.082,0.25,0.112V276h1v-2.093c0.139-0.049,0.272-0.114,0.392-0.202l1.693,0.978l0.5-0.866l-1.638-0.946
				C175.11,272.236,174.846,271.545,174.25,271.201z"/>
			<circle style="fill:#00A4FF;" cx="183.5" cy="278.5" r="1.5"/>
			<path style="fill:#00A4FF;" d="M179.989,275.357c-0.003-0.034-0.009-0.068-0.015-0.102c-0.006-0.034-0.011-0.067-0.019-0.1
				c-0.007-0.028-0.014-0.055-0.022-0.083c-0.01-0.032-0.021-0.064-0.033-0.096c-0.012-0.033-0.024-0.065-0.039-0.097
				c-0.013-0.029-0.028-0.056-0.043-0.084c-0.008-0.015-0.012-0.03-0.02-0.045s-0.02-0.026-0.029-0.04
				c-0.017-0.027-0.033-0.053-0.052-0.079c-0.02-0.028-0.042-0.055-0.064-0.082c-0.022-0.026-0.043-0.052-0.066-0.077
				c-0.02-0.021-0.04-0.041-0.06-0.06c-0.025-0.023-0.051-0.045-0.077-0.067c-0.027-0.022-0.053-0.044-0.081-0.064
				c-0.026-0.018-0.052-0.035-0.079-0.052c-0.014-0.009-0.025-0.02-0.04-0.029c-0.015-0.008-0.03-0.012-0.045-0.02
				c-0.028-0.015-0.055-0.029-0.084-0.042c-0.031-0.014-0.064-0.026-0.096-0.038c-0.032-0.012-0.064-0.024-0.096-0.033
				c-0.027-0.008-0.055-0.016-0.083-0.022c-0.033-0.008-0.066-0.014-0.1-0.019c-0.034-0.006-0.068-0.011-0.102-0.015
				c-0.031-0.003-0.063-0.004-0.094-0.005c-0.017,0-0.032-0.005-0.049-0.005s-0.032,0.004-0.049,0.005
				c-0.032,0.001-0.063,0.002-0.094,0.005c-0.034,0.003-0.068,0.009-0.102,0.015c-0.034,0.006-0.067,0.011-0.1,0.019
				c-0.028,0.007-0.055,0.014-0.083,0.022c-0.033,0.01-0.064,0.021-0.096,0.033c-0.033,0.012-0.065,0.024-0.096,0.038
				c-0.029,0.013-0.056,0.028-0.084,0.042c-0.015,0.008-0.031,0.012-0.045,0.02c-0.015,0.008-0.026,0.02-0.04,0.029
				c-0.027,0.017-0.053,0.033-0.079,0.052c-0.028,0.02-0.054,0.042-0.081,0.064c-0.027,0.022-0.053,0.044-0.077,0.067
				c-0.021,0.02-0.041,0.04-0.06,0.06c-0.023,0.025-0.045,0.05-0.066,0.077c-0.022,0.027-0.044,0.053-0.064,0.082
				c-0.018,0.026-0.035,0.052-0.052,0.079c-0.009,0.014-0.02,0.025-0.029,0.04s-0.012,0.03-0.02,0.045
				c-0.015,0.028-0.03,0.056-0.043,0.084c-0.014,0.032-0.026,0.064-0.039,0.097c-0.012,0.032-0.024,0.063-0.033,0.096
				c-0.008,0.027-0.016,0.055-0.022,0.083c-0.008,0.033-0.014,0.066-0.019,0.1c-0.006,0.034-0.011,0.068-0.015,0.102
				c-0.003,0.031-0.004,0.063-0.005,0.094c-0.001,0.017-0.005,0.032-0.005,0.049s0.004,0.032,0.005,0.049
				c0.001,0.031,0.002,0.063,0.005,0.094c0.003,0.034,0.009,0.068,0.015,0.102c0.006,0.034,0.011,0.067,0.019,0.1
				c0.007,0.028,0.014,0.055,0.022,0.083c0.01,0.032,0.021,0.064,0.033,0.096c0.012,0.033,0.024,0.065,0.039,0.097
				c0.013,0.029,0.028,0.056,0.043,0.084c0.008,0.015,0.012,0.03,0.02,0.045c0.008,0.014,0.02,0.026,0.029,0.04
				c0.017,0.027,0.033,0.053,0.052,0.079c0.02,0.028,0.042,0.055,0.064,0.082c0.022,0.026,0.043,0.052,0.066,0.077
				c0.02,0.021,0.04,0.041,0.061,0.061c0.025,0.023,0.05,0.045,0.077,0.066c0.027,0.022,0.053,0.044,0.081,0.064
				c0.026,0.018,0.052,0.035,0.079,0.052c0.014,0.009,0.025,0.02,0.04,0.029c0.015,0.008,0.03,0.012,0.045,0.02
				c0.028,0.015,0.055,0.03,0.084,0.043c0.032,0.015,0.064,0.026,0.097,0.039c0.008,0.003,0.016,0.008,0.024,0.011V279h1v-2.088
				c0.008-0.003,0.016-0.008,0.024-0.011c0.033-0.012,0.065-0.024,0.097-0.039c0.029-0.013,0.056-0.028,0.084-0.043
				c0.015-0.008,0.03-0.012,0.045-0.02c0.014-0.008,0.026-0.02,0.04-0.029c0.027-0.017,0.054-0.033,0.079-0.052
				c0.028-0.02,0.055-0.042,0.081-0.064c0.026-0.022,0.052-0.043,0.077-0.066c0.021-0.02,0.041-0.04,0.061-0.061
				c0.023-0.025,0.045-0.05,0.066-0.077c0.022-0.027,0.044-0.053,0.064-0.082c0.018-0.026,0.035-0.052,0.052-0.079
				c0.009-0.014,0.02-0.025,0.029-0.04c0.008-0.015,0.012-0.03,0.02-0.045c0.015-0.028,0.03-0.055,0.043-0.084
				c0.014-0.031,0.026-0.064,0.039-0.097c0.012-0.032,0.024-0.063,0.033-0.096c0.008-0.028,0.016-0.055,0.022-0.083
				c0.008-0.033,0.014-0.066,0.019-0.1c0.006-0.034,0.011-0.068,0.015-0.102c0.003-0.031,0.004-0.063,0.005-0.094
				c0.001-0.017,0.005-0.032,0.005-0.049s-0.004-0.032-0.005-0.049C179.993,275.419,179.993,275.388,179.989,275.357z"/>
			<circle style="fill:#00A4FF;" cx="173.5" cy="278.5" r="1.5"/>
			<path style="fill:#00A4FF;" d="M182.999,273.907V276h1v-2.089c0.085-0.03,0.169-0.066,0.25-0.112
				c0.717-0.414,0.963-1.332,0.549-2.049c-0.414-0.718-1.332-0.963-2.049-0.549c-0.596,0.344-0.86,1.035-0.697,1.671l-1.638,0.946
				l0.5,0.866l1.694-0.978C182.728,273.793,182.861,273.858,182.999,273.907z"/>
		</g>
	</g>
	<g>
		<g style="opacity:0.6;">
			<rect x="173" y="326" style="fill:#BBBBBB;" width="133" height="50"/>
		</g>
		<g>
			<rect x="171.5" y="324.5" style="fill:#FFFFFF;" width="132" height="49"/>
			<path style="fill:#E5E5E5;" d="M303,325v48H172v-48H303 M304,324H171v50h133V324L304,324z"/>
		</g>
		<rect x="191" y="333" style="opacity:0;fill:#CB3333;" width="32" height="32"/>
		<g>
			<path style="fill:#444444;" d="M236.933,343.861h1.33l3.935,9.996h-1.246l-1.064-2.801h-4.592l-1.063,2.801H233L236.933,343.861z
				 M235.66,350.092h3.864l-1.891-4.998h-0.056L235.66,350.092z"/>
			<path style="fill:#444444;" d="M243.206,343.861h4.088c2.296,0,3.444,0.98,3.444,2.939c0,1.979-1.153,2.969-3.458,2.969h-2.926
				v4.088h-1.148V343.861z M244.354,344.855v3.92h2.87c0.793,0,1.391-0.164,1.792-0.49c0.382-0.326,0.573-0.822,0.573-1.484
				c0-0.682-0.195-1.166-0.588-1.455c-0.383-0.328-0.976-0.49-1.777-0.49H244.354z"/>
			<path style="fill:#444444;" d="M252.277,343.861h1.134v9.996h-1.134V343.861z"/>
			<path style="fill:#444444;" d="M264.429,355.174l-0.266-0.98l1.344,0.041c0.393,0,0.588-0.191,0.588-0.574v-9.701h-9.184v11.27
				h-0.994v-12.236h11.172v10.893c0,0.859-0.415,1.289-1.246,1.289H264.429z M261.097,352.078c-0.401-0.633-0.845-1.307-1.33-2.016
				c-0.494,1.363-1.105,2.539-1.834,3.529l-0.644-0.785c0.728-1.035,1.33-2.264,1.806-3.682c-0.644-0.859-1.302-1.676-1.974-2.449
				l0.63-0.604c0.56,0.588,1.115,1.252,1.666,1.988c0.271-1.008,0.49-2.062,0.658-3.164l0.924,0.168
				c-0.224,1.438-0.519,2.754-0.882,3.949c0.616,0.84,1.166,1.637,1.651,2.393L261.097,352.078z M265.2,352.723
				c-0.401-0.689-0.873-1.465-1.414-2.324c-0.561,1.373-1.218,2.549-1.975,3.529l-0.644-0.771c0.793-1.072,1.446-2.318,1.96-3.738
				c-0.69-1.016-1.33-1.885-1.918-2.604l0.63-0.602c0.569,0.645,1.12,1.35,1.652,2.113c0.289-0.971,0.536-2.1,0.742-3.387
				l0.951,0.168c-0.252,1.549-0.588,2.953-1.008,4.213c0.588,0.896,1.157,1.807,1.708,2.73L265.2,352.723z"/>
			<path style="fill:#444444;" d="M279.074,342.615c-0.336,1.018-0.756,1.922-1.261,2.715h2.885v0.98h-4.677v0.658
				c-0.027,0.775-0.093,1.424-0.195,1.945h5.684v0.98h-5.096c0.69,1.895,2.501,3.365,5.432,4.41l-0.588,0.938
				c-3.07-1.24-4.984-2.93-5.74-5.066c-0.271,0.811-0.625,1.512-1.063,2.1c-0.962,1.24-2.516,2.201-4.662,2.883l-0.546-0.881
				c2.146-0.691,3.64-1.596,4.479-2.717c0.346-0.514,0.611-1.068,0.798-1.666h-5.025v-0.98h5.278c0.13-0.615,0.2-1.264,0.21-1.945
				v-0.658h-4.69v-0.98h6.398c0.513-0.783,0.984-1.777,1.413-2.98L279.074,342.615z M272.843,342.475
				c0.579,0.756,1.11,1.549,1.596,2.381l-0.909,0.461c-0.514-0.914-1.051-1.713-1.61-2.393L272.843,342.475z"/>
		</g>
		<g id="图层_1_3_">
			<g>
				<path style="fill:#00A4FF;" d="M206.2,363c-7.2,0-13-5.8-13-13s5.8-13,13-13c6.5,0,11.9,4.8,12.8,11h2c-1-7.3-7.2-13-14.9-13
					c-8.3,0-15,6.7-15,15s6.7,15,15,15c7.6,0,13.9-5.7,14.9-13h-2C218.1,358.2,212.7,363,206.2,363z"/>
				<rect x="198.2" y="345" style="fill:#00A4FF;" width="16" height="2"/>
				<rect x="198.2" y="356" style="fill:#00A4FF;" width="16" height="2"/>
				<rect x="198.2" y="345" style="fill:#00A4FF;" width="2" height="3"/>
				<rect x="198.2" y="355" style="fill:#00A4FF;" width="2" height="3"/>
				<rect x="212.2" y="355" style="fill:#00A4FF;" width="2" height="3"/>
				<rect x="212.2" y="345" style="fill:#00A4FF;" width="2" height="3"/>
				<rect x="201.2" y="341" style="fill:#00A4FF;" width="2" height="4"/>
				<rect x="209.2" y="341" style="fill:#00A4FF;" width="2" height="4"/>
				<rect x="199.2" y="349" style="fill:#00A4FF;" width="2" height="5"/>
				<rect x="202.2" y="349" style="fill:#00A4FF;" width="2" height="5"/>
				<rect x="200.2" y="349" style="fill:#00A4FF;" width="3" height="1"/>
				<rect x="200.2" y="351" style="fill:#00A4FF;" width="3" height="1"/>
				<rect x="206.2" y="349" style="fill:#00A4FF;" width="4" height="1"/>
				<rect x="205.2" y="351" style="fill:#00A4FF;" width="4" height="1"/>
				<rect x="205.2" y="349" style="fill:#00A4FF;" width="2" height="5"/>
				<rect x="208.2" y="349" style="fill:#00A4FF;" width="2" height="3"/>
				<rect x="211.2" y="349" style="fill:#00A4FF;" width="2" height="5"/>
			</g>
		</g>
	</g>
	<g>
		<g style="opacity:0.6;">
			<rect x="335" y="326" style="fill:#BBBBBB;" width="133" height="50"/>
		</g>
		<g>
			<rect x="333.5" y="324.5" style="fill:#FFFFFF;" width="132" height="49"/>
			<path style="fill:#E5E5E5;" d="M465,325v48H334v-48H465 M466,324H333v50h133V324L466,324z"/>
		</g>
		<rect x="353" y="333" style="opacity:0;fill:#CB3333;" width="32" height="32"/>
		<g>
			<path style="fill:#444444;" d="M395.742,347.137h12.558v1.008h-6.72c-1.27,2.613-2.395,4.453-3.374,5.516
				c2.511-0.139,5.021-0.377,7.532-0.713c-0.504-0.896-1.064-1.82-1.681-2.771l0.812-0.504c1.27,1.902,2.263,3.588,2.981,5.053
				l-0.896,0.631c-0.243-0.523-0.485-1.018-0.729-1.484c-2.697,0.346-5.796,0.635-9.296,0.867l-0.266-1.021
				c0.056-0.018,0.135-0.051,0.238-0.098c0.905-0.682,2.09-2.506,3.556-5.475h-4.718V347.137z M397.085,343.23h9.968v0.98h-9.968
				V343.23z"/>
			<path style="fill:#444444;" d="M420.662,345.498h0.966v9.787h-0.966V354.5h-9.324v0.771h-0.966v-9.787h0.966v8.092h9.324V345.498
				z M411.603,351.168c1.429-0.83,2.81-1.879,4.145-3.148v-2.395c1.391-0.691,2.445-1.266,3.164-1.723h-7.154v-0.951h8.666v0.951
				c-1.083,0.748-2.329,1.508-3.738,2.283v2.141c1.232,0.859,2.465,1.816,3.696,2.871l-0.588,0.881
				c-1.194-1.156-2.23-2.07-3.108-2.744v2.354c0,0.82-0.383,1.23-1.147,1.23h-1.274l-0.252-0.938
				c0.467,0.02,0.854,0.029,1.162,0.029c0.383,0,0.574-0.225,0.574-0.672v-2.172c-1.204,1.141-2.469,2.133-3.794,2.982
				L411.603,351.168z M412.849,345.934c0.878,0.811,1.535,1.492,1.975,2.043l-0.771,0.533c-0.438-0.598-1.087-1.303-1.945-2.115
				L412.849,345.934z M420.032,346.227c-0.551,0.887-1.214,1.666-1.988,2.338l-0.728-0.518c0.736-0.625,1.372-1.363,1.903-2.213
				L420.032,346.227z"/>
			<path style="fill:#444444;" d="M427.255,349.027l-0.28,0.77h2.912v0.854c-0.308,0.916-0.816,1.709-1.525,2.381
				c0.662,0.279,1.292,0.588,1.89,0.924l-0.546,0.812c-0.645-0.383-1.354-0.748-2.128-1.092c-0.943,0.643-2.109,1.162-3.5,1.553
				l-0.49-0.867c1.167-0.309,2.146-0.691,2.94-1.148l-1.946-0.783c0.392-0.645,0.709-1.219,0.952-1.723h-1.638v-0.91h2.058
				c0.233-0.652,0.341-0.947,0.322-0.883L427.255,349.027z M423.938,345.107h2.729v-2.674h0.938v2.674h2.548v0.881h-2.548v0.154
				c0.765,0.383,1.54,0.812,2.323,1.289l-0.518,0.783c-0.7-0.561-1.302-1.008-1.806-1.344v1.82h-0.938v-2.66
				c-0.457,1.092-1.293,2.049-2.506,2.869l-0.49-0.811c1.083-0.635,1.834-1.336,2.254-2.102h-1.987V345.107z M425.001,342.727
				c0.364,0.57,0.663,1.145,0.896,1.723l-0.784,0.363c-0.29-0.662-0.607-1.264-0.952-1.805L425.001,342.727z M428.935,350.707
				h-2.365c-0.233,0.477-0.485,0.92-0.756,1.33c0.56,0.195,1.087,0.393,1.582,0.588
				C428.095,352.057,428.609,351.416,428.935,350.707z M430.028,343.021c-0.29,0.635-0.649,1.24-1.078,1.82l-0.756-0.406
				c0.447-0.635,0.793-1.236,1.036-1.807L430.028,343.021z M431.54,347.781c-0.243,0.615-0.518,1.189-0.826,1.723l-0.63-0.771
				c0.831-1.576,1.386-3.691,1.666-6.342l0.98,0.168c-0.065,0.58-0.169,1.246-0.309,2.002h3.696v0.967h-0.91
				c-0.056,2.332-0.472,4.33-1.246,5.992c0.737,1.23,1.601,2.18,2.59,2.842l-0.574,0.854c-0.961-0.672-1.796-1.592-2.506-2.758
				c-0.681,1.119-1.549,2.059-2.604,2.814l-0.532-0.855c1.092-0.756,1.955-1.73,2.59-2.926
				C432.375,350.391,431.913,349.152,431.54,347.781z M432.211,345.527c-0.094,0.336-0.159,0.582-0.196,0.742
				c0.346,1.586,0.803,2.98,1.372,4.186c0.541-1.418,0.84-3.061,0.896-4.928H432.211z"/>
		</g>
		<g>
			<g id="XMLID_115_">
				<g>
					<path style="fill:#00A4FF;" d="M368.07,363c-7.213,0-13.061-5.82-13.061-13s5.848-13,13.061-13c6.528,0,11.922,4.772,12.89,11
						h2.03c-0.985-7.336-7.281-13-14.921-13c-8.323,0-15.07,6.716-15.07,15s6.747,15,15.07,15c7.64,0,13.936-5.664,14.921-13h-2.03
						C379.992,358.228,374.598,363,368.07,363z"/>
				</g>
			</g>
			<g>
				<path id="XMLID_114_" style="fill:#00A4FF;" d="M360.991,352l5,3v2l-5-3V352z"/>
				<path id="XMLID_113_" style="fill:#00A4FF;" d="M360.991,348l5-3v-2l-5,3V348z"/>
				<path id="XMLID_112_" style="fill:#00A4FF;" d="M360.991,346h2v8h-2V346z"/>
			</g>
			<g>
				<path id="XMLID_111_" style="fill:#00A4FF;" d="M372.991,346h2v8h-2V346z"/>
				<path id="XMLID_110_" style="fill:#00A4FF;" d="M374.991,354l-5,3v-2l5-3V354z"/>
				<path id="XMLID_109_" style="fill:#00A4FF;" d="M374.991,346l-5-3v2l5,3V346z"/>
			</g>
			<polygon id="XMLID_108_" style="fill:#00A4FF;" points="367.991,353 365.991,353 367.991,347 369.991,347 			"/>
		</g>
	</g>
	<g>
		<g style="opacity:0.6;">
			<rect x="496" y="296" style="fill:#BBBBBB;" width="133" height="50"/>
		</g>
		<g>
			<rect x="494.5" y="294.5" style="fill:#FFFFFF;" width="132" height="49"/>
			<path style="fill:#E5E5E5;" d="M626,295v48H495v-48H626 M627,294H494v50h133V294L627,294z"/>
		</g>
		<rect x="514" y="303" style="opacity:0;fill:#CB3333;" width="32" height="32"/>
		<g>
			<path style="fill:#444444;" d="M556.742,317.137H569.3v1.008h-6.72c-1.27,2.613-2.395,4.453-3.374,5.516
				c2.511-0.139,5.021-0.377,7.532-0.713c-0.504-0.896-1.064-1.82-1.681-2.771l0.812-0.504c1.27,1.902,2.263,3.588,2.981,5.053
				l-0.896,0.631c-0.243-0.523-0.485-1.018-0.729-1.484c-2.697,0.346-5.796,0.635-9.296,0.867l-0.266-1.021
				c0.056-0.018,0.135-0.051,0.238-0.098c0.905-0.682,2.09-2.506,3.556-5.475h-4.718V317.137z M558.086,313.23h9.968v0.98h-9.968
				V313.23z"/>
			<path style="fill:#444444;" d="M574.256,319.027l-0.28,0.77h2.912v0.854c-0.308,0.916-0.816,1.709-1.525,2.381
				c0.662,0.279,1.292,0.588,1.89,0.924l-0.546,0.812c-0.645-0.383-1.354-0.748-2.128-1.092c-0.943,0.643-2.109,1.162-3.5,1.553
				l-0.49-0.867c1.167-0.309,2.146-0.691,2.94-1.148l-1.946-0.783c0.392-0.645,0.709-1.219,0.952-1.723h-1.638v-0.91h2.058
				c0.233-0.652,0.341-0.947,0.322-0.883L574.256,319.027z M570.938,315.107h2.729v-2.674h0.938v2.674h2.548v0.881h-2.548v0.154
				c0.765,0.383,1.54,0.812,2.323,1.289l-0.518,0.783c-0.7-0.561-1.302-1.008-1.806-1.344v1.82h-0.938v-2.66
				c-0.457,1.092-1.293,2.049-2.506,2.869l-0.49-0.811c1.083-0.635,1.834-1.336,2.254-2.102h-1.987V315.107z M572.002,312.727
				c0.364,0.57,0.663,1.145,0.896,1.723l-0.784,0.363c-0.29-0.662-0.607-1.264-0.952-1.805L572.002,312.727z M575.936,320.707
				h-2.365c-0.233,0.477-0.485,0.92-0.756,1.33c0.56,0.195,1.087,0.393,1.582,0.588
				C575.096,322.057,575.609,321.416,575.936,320.707z M577.028,313.021c-0.29,0.635-0.649,1.24-1.078,1.82l-0.756-0.406
				c0.447-0.635,0.793-1.236,1.036-1.807L577.028,313.021z M578.54,317.781c-0.243,0.615-0.518,1.189-0.826,1.723l-0.63-0.771
				c0.831-1.576,1.386-3.691,1.666-6.342l0.98,0.168c-0.065,0.58-0.169,1.246-0.309,2.002h3.696v0.967h-0.91
				c-0.056,2.332-0.472,4.33-1.246,5.992c0.737,1.23,1.601,2.18,2.59,2.842l-0.574,0.854c-0.961-0.672-1.796-1.592-2.506-2.758
				c-0.681,1.119-1.549,2.059-2.604,2.814l-0.532-0.855c1.092-0.756,1.955-1.73,2.59-2.926
				C579.375,320.391,578.913,319.152,578.54,317.781z M579.212,315.527c-0.094,0.336-0.159,0.582-0.196,0.742
				c0.346,1.586,0.803,2.98,1.372,4.186c0.541-1.418,0.84-3.061,0.896-4.928H579.212z"/>
			<path style="fill:#444444;" d="M585.106,325.131l-0.21-0.951c0.4,0.045,0.756,0.068,1.063,0.068c0.354,0,0.532-0.205,0.532-0.615
				v-3.416c-0.653,0.242-1.204,0.434-1.652,0.574l-0.252-0.98c0.635-0.148,1.27-0.34,1.904-0.574v-3.164h-1.681v-0.965h1.681v-2.646
				h0.979v2.646h1.345v0.965h-1.345v2.758c0.448-0.195,0.882-0.404,1.303-0.629v0.994c-0.29,0.148-0.724,0.354-1.303,0.615v4.074
				c0,0.83-0.392,1.246-1.176,1.246H585.106z M590.482,318.943c-0.168,2.389-0.715,4.494-1.639,6.314l-0.784-0.701
				c0.989-1.848,1.493-4.246,1.513-7.195v-4.383h7.378v3.402h-2.632v1.652h2.996v0.91h-2.996v1.721h2.352v4.594h-0.938v-0.688
				h-3.794v0.688H591v-4.594h2.338v-1.721H590.482z M593.338,316.381h-2.786l-0.014,1.652h2.8V316.381z M595.97,313.916h-5.418
				v1.555h5.418V313.916z M591.938,323.676h3.794v-2.115h-3.794V323.676z"/>
			<path style="fill:#444444;" d="M605.476,312.307c0.262,0.42,0.5,0.873,0.715,1.357h5.04v0.98h-10.374v3.193
				c-0.057,3.117-0.528,5.59-1.414,7.42l-0.826-0.742c0.774-1.605,1.176-3.832,1.204-6.678v-4.174h5.264
				c-0.215-0.41-0.457-0.797-0.728-1.16L605.476,312.307z M605.532,315.262c-0.084,0.26-0.21,0.635-0.378,1.119h5.46v0.883h-5.811
				c-0.392,0.895-0.812,1.693-1.26,2.393h2.618v-1.693h1.008v1.693h3.122v0.91h-3.122v1.568h4.187v0.924h-4.187v2.213h-1.008v-2.213
				h-5.054v-0.924h5.054v-1.568h-3.668l-0.21-0.867c0.541-0.672,1.026-1.484,1.456-2.436h-2.114v-0.883h2.478
				c0.159-0.439,0.313-0.887,0.463-1.344L605.532,315.262z"/>
		</g>
		<g id="XMLID_87_">
			<g>
				<path style="fill:#00A4FF;" d="M525.16,323.978c0.331-0.318,0.684-0.612,1.072-0.861c0.094-0.388,0.22-0.762,0.368-1.125
					c-0.2,0.003-0.398,0.009-0.6,0.009c-5.523,0-10-1.343-10-3v-6.238c2.149,1.348,5.824,2.238,10,2.238
					c4.176,0,7.851-0.89,10-2.238v4.493c0.711,0.183,1.381,0.464,2,0.824V310c0-2.761-5.373-5-12-5c-6.627,0-12,2.239-12,5v18
					c0,2.51,4.444,4.582,10.231,4.94c-0.425-0.621-0.745-1.314-0.955-2.055C519.079,330.528,516,329.373,516,328v-6.238
					C518.003,323.018,521.337,323.866,525.16,323.978z M526,307c5.523,0,10,1.343,10,3c0,1.657-4.477,3-10,3s-10-1.343-10-3
					C516,308.343,520.477,307,526,307z M538.986,325.137c0.001-0.047,0.014-0.09,0.014-0.137c0-2.762-2.239-5-5-5
					c-2.761,0-5,2.238-5,5c0,0.047,0.012,0.091,0.014,0.137C527.285,325.578,526,327.133,526,329c0,2.209,1.791,4,4,4h8
					c2.209,0,4-1.791,4-4C542,327.133,540.716,325.578,538.986,325.137z M538,331h-8c-1.103,0-2-0.897-2-2
					c0-0.907,0.62-1.698,1.508-1.925l1.549-0.395l-0.044-1.598c-0.002-0.059-0.006-0.116-0.012-0.174
					c0.049-1.612,1.375-2.907,2.999-2.907c1.623,0,2.949,1.295,2.999,2.907c-0.006,0.058-0.01,0.116-0.012,0.175l-0.044,1.598
					l1.549,0.395C539.38,327.302,540,328.093,540,329C540,330.103,539.103,331,538,331z"/>
			</g>
		</g>
	</g>
	<g>
		<g style="opacity:0.6;">
			<rect x="496" y="357" style="fill:#BBBBBB;" width="133" height="50"/>
		</g>
		<g>
			<rect x="494.5" y="355.5" style="fill:#FFFFFF;" width="132" height="49"/>
			<path style="fill:#E5E5E5;" d="M626,356v48H495v-48H626 M627,355H494v50h133V355L627,355z"/>
		</g>
		<rect x="514" y="364" style="opacity:0;fill:#CB3333;" width="32" height="32"/>
		<g>
			<path style="fill:#444444;" d="M557.666,377.045c0.793,0.859,1.61,1.814,2.45,2.869c0.522-1.26,0.83-2.631,0.924-4.115h-3.836
				v-0.98h4.746v0.742c-0.075,1.924-0.472,3.654-1.19,5.195c0.579,0.773,1.12,1.562,1.624,2.365l-0.728,0.729
				c-0.401-0.672-0.863-1.377-1.387-2.115c-0.765,1.336-1.796,2.539-3.094,3.613l-0.588-0.883c1.316-1.008,2.338-2.197,3.066-3.57
				c-0.756-1.018-1.644-2.09-2.66-3.219L557.666,377.045z M563.434,378.754c0.952,1.166,1.676,2.188,2.17,3.064l-0.798,0.561
				c-0.56-0.971-1.273-1.992-2.142-3.066L563.434,378.754z M562.678,376.135h4.061v-2.744h1.008v2.744h1.554v0.967h-1.554v7.699
				c0,0.943-0.48,1.414-1.442,1.414h-2.197l-0.21-0.994c0.812,0.047,1.497,0.07,2.058,0.07c0.522,0,0.784-0.248,0.784-0.742v-7.447
				h-4.061V376.135z"/>
			<path style="fill:#444444;" d="M572.31,376.666c-0.289,0.16-0.606,0.314-0.951,0.463l-0.631-0.77
				c1.876-0.775,3.402-1.783,4.578-3.025l1.051,0.238c-0.317,0.336-0.561,0.588-0.729,0.756h4.452V375
				c-0.43,0.449-0.878,0.846-1.344,1.191h3.653v3.121h-5.613c0.783,0.645,1.367,1.32,1.75,2.031
				c1.391-0.439,2.543-0.986,3.458-1.639l0.657,0.756c-0.672,0.447-1.414,0.84-2.226,1.176c0.588,1.205,1.614,2.268,3.08,3.191
				l-0.672,0.84c-1.54-1.129-2.628-2.365-3.263-3.709l-0.657,0.209c0.158,0.449,0.252,0.949,0.279,1.498
				c0,0.953-0.191,1.619-0.573,2.002c-0.364,0.318-0.98,0.52-1.849,0.604c-0.308,0.027-0.639,0.041-0.994,0.041l-0.308-0.924
				l1.19-0.014c0.447-0.027,0.816-0.15,1.105-0.363c0.271-0.225,0.406-0.672,0.406-1.346c0-0.213-0.023-0.438-0.07-0.672
				c-1.605,1.186-3.757,2.146-6.454,2.885l-0.504-0.867c2.912-0.756,5.147-1.727,6.706-2.912c-0.112-0.281-0.266-0.57-0.462-0.869
				c-1.372,1.008-3.243,1.834-5.614,2.479l-0.489-0.854c2.436-0.588,4.312-1.336,5.628-2.24c-0.252-0.281-0.519-0.533-0.799-0.756
				c-1.092,0.82-2.59,1.395-4.493,1.721l-0.393-0.84c1.736-0.279,3.094-0.756,4.074-1.428h-2.982V376.666z M577.448,376.191
				c0.401-0.262,0.854-0.617,1.357-1.064h-4.102c-0.43,0.346-0.943,0.699-1.54,1.064H577.448z M576.23,378.473
				c0.363-0.447,0.63-0.928,0.798-1.441h-3.725v1.441H576.23z M581.396,378.473v-1.441h-3.36c-0.159,0.551-0.369,1.031-0.63,1.441
				H581.396z"/>
			<path style="fill:#444444;" d="M585.078,374.848h3.808c0.205-0.551,0.369-1.047,0.49-1.484l1.022,0.125
				c-0.159,0.543-0.304,0.994-0.435,1.359h7.168v0.979h-7.546c-0.514,1.186-1.152,2.293-1.918,3.318v7.127h-0.979v-5.922
				c-0.495,0.541-0.994,1.035-1.498,1.482l-0.631-0.797c1.699-1.494,3.006-3.229,3.921-5.209h-3.402V374.848z M588.76,381.357h4.061
				v-1.303c0.821-0.457,1.582-0.984,2.281-1.582h-5.264v-0.938h6.552v0.938c-0.774,0.719-1.629,1.387-2.562,2.002v0.883h3.5v0.965
				h-3.5v2.646c0,0.83-0.416,1.246-1.246,1.246h-1.75l-0.266-0.951c0.672,0.018,1.208,0.027,1.609,0.027
				c0.43,0,0.645-0.215,0.645-0.645v-2.324h-4.061V381.357z"/>
			<path style="fill:#444444;" d="M599.876,378.459c-0.317,0.531-0.667,1.051-1.05,1.555l-0.336-1.078
				c1.11-1.615,1.908-3.453,2.394-5.518l0.91,0.422c-0.243,0.904-0.556,1.811-0.938,2.715v9.717h-0.98V378.459z M601.416,377.773
				h2.534v5.936c0.308-0.326,0.69-0.76,1.147-1.303l0.238,0.994c-0.663,0.84-1.409,1.629-2.24,2.367l-0.405-0.924
				c0.195-0.168,0.294-0.352,0.294-0.547v-5.586h-1.568V377.773z M602.746,373.979c0.84,0.719,1.526,1.414,2.058,2.086l-0.742,0.742
				c-0.504-0.689-1.171-1.408-2.002-2.156L602.746,373.979z M605.518,375.057h1.681v-1.609h0.91v1.609h1.582v0.826
				c0.279-0.561,0.546-1.135,0.798-1.723l0.84,0.436c-0.458,1.139-1.008,2.188-1.652,3.148h1.61v0.924h-2.296
				c-0.411,0.496-0.826,0.934-1.246,1.316h2.855v6.244h-0.951v-0.588h-2.618v0.588h-0.938v-5.012
				c-0.224,0.131-0.56,0.309-1.008,0.531l-0.504-0.797c1.204-0.551,2.263-1.311,3.178-2.283h-2.548v-0.924h1.988v-1.805h-1.681
				V375.057z M609.648,382.379v-1.512h-2.618v1.512H609.648z M607.03,383.219v1.541h2.618v-1.541H607.03z M608.528,377.744
				c0.41-0.559,0.788-1.162,1.134-1.805h-1.554v1.805H608.528z"/>
		</g>
		<g id="XMLID_643_">
			<g>
				<path style="fill:#00A4FF;" d="M523,377v8l7,4l7-4v-8l-7-4L523,377z M529,386.125l-4-2.286v-3.697l4,2.286V386.125z
					 M535,383.839l-4,2.286v-3.696l4-2.286V383.839z M530,380.697L525.281,378l4.719-2.697l4.719,2.697L530,380.697z M542,387.839
					l-12,6.857l-12-6.857v-13.679l12-6.857l12,6.857v-0.018l2-1.142l-14-8l-14,8v16l14,8l14-8v-12l-2,1.142V387.839z"/>
			</g>
		</g>
	</g>
	<g>
		
			<line style="fill-rule:evenodd;clip-rule:evenodd;fill:none;stroke:#878787;stroke-miterlimit:10;" x1="325" y1="350.5" x2="306" y2="350.5"/>
		<polygon style="fill-rule:evenodd;clip-rule:evenodd;fill:#878787;" points="323,355 328,350.5 323,346 		"/>
	</g>
	<g>
		
			<line style="fill-rule:evenodd;clip-rule:evenodd;fill:none;stroke:#878787;stroke-miterlimit:10;" x1="486" y1="320.5" x2="478" y2="320.5"/>
		<polygon style="fill-rule:evenodd;clip-rule:evenodd;fill:#878787;" points="484,325 489,320.5 484,316 		"/>
	</g>
	<g>
		
			<line style="fill-rule:evenodd;clip-rule:evenodd;fill:none;stroke:#878787;stroke-miterlimit:10;" x1="486" y1="380.5" x2="478" y2="380.5"/>
		
			<line style="fill-rule:evenodd;clip-rule:evenodd;fill:none;stroke:#878787;stroke-miterlimit:10;" x1="478" y1="350" x2="468" y2="350"/>
		
			<line style="fill-rule:evenodd;clip-rule:evenodd;fill:none;stroke:#878787;stroke-miterlimit:10;" x1="478" y1="381.001" x2="478" y2="320"/>
		<polygon style="fill-rule:evenodd;clip-rule:evenodd;fill:#878787;" points="484,385 489,380.5 484,376 		"/>
	</g>
</g>
</svg>
