<?xml version="1.0" encoding="utf-8"?>
<!-- Generator: Adobe Illustrator 17.0.0, SVG Export Plug-In . SVG Version: 6.00 Build 0)  -->
<!DOCTYPE svg PUBLIC "-//W3C//DTD SVG 1.1//EN" "http://www.w3.org/Graphics/SVG/1.1/DTD/svg11.dtd">
<svg version="1.1" id="图层_1" xmlns="http://www.w3.org/2000/svg" xmlns:xlink="http://www.w3.org/1999/xlink" x="0px" y="0px"
	 width="830px" height="164px" viewBox="0 0 830 164" style="enable-background:new 0 0 830 164;" xml:space="preserve">
<g>
	<g>
		<g style="opacity:0.6;">
			<rect x="254" y="48" style="fill:#BBBBBB;" width="133" height="50"/>
		</g>
		<g>
			<rect x="252.5" y="46.5" style="fill:#FFFFFF;" width="132" height="49"/>
			<path style="fill:#E5E5E5;" d="M384,47v48H253V47H384 M385,46H252v50h133V46L385,46z"/>
		</g>
		<rect x="272" y="55" style="opacity:0;fill:#CB3333;" width="32" height="32"/>
		<g>
			<path style="fill:#444444;" d="M314.742,69.137h12.558v1.008h-6.72c-1.27,2.613-2.395,4.453-3.374,5.516
				c2.511-0.139,5.021-0.377,7.532-0.713c-0.504-0.896-1.064-1.82-1.681-2.771l0.812-0.504c1.27,1.902,2.263,3.588,2.981,5.053
				l-0.896,0.631c-0.243-0.523-0.485-1.018-0.729-1.484c-2.697,0.346-5.796,0.635-9.296,0.867l-0.266-1.021
				c0.056-0.018,0.135-0.051,0.238-0.098c0.905-0.682,2.09-2.506,3.556-5.475h-4.718V69.137z M316.085,65.23h9.968v0.98h-9.968
				V65.23z"/>
			<path style="fill:#444444;" d="M339.662,67.498h0.966v9.787h-0.966V76.5h-9.324v0.771h-0.966v-9.787h0.966v8.092h9.324V67.498z
				 M330.603,73.168c1.429-0.83,2.81-1.879,4.145-3.148v-2.395c1.391-0.691,2.445-1.266,3.164-1.723h-7.154v-0.951h8.666v0.951
				c-1.083,0.748-2.329,1.508-3.738,2.283v2.141c1.232,0.859,2.465,1.816,3.696,2.871l-0.588,0.881
				c-1.194-1.156-2.23-2.07-3.108-2.744v2.354c0,0.82-0.383,1.23-1.147,1.23h-1.274l-0.252-0.938
				c0.467,0.02,0.854,0.029,1.162,0.029c0.383,0,0.574-0.225,0.574-0.672v-2.172c-1.204,1.141-2.469,2.133-3.794,2.982
				L330.603,73.168z M331.849,67.934c0.878,0.811,1.535,1.492,1.975,2.043l-0.771,0.533c-0.438-0.598-1.087-1.303-1.945-2.115
				L331.849,67.934z M339.032,68.227c-0.551,0.887-1.214,1.666-1.988,2.338l-0.728-0.518c0.736-0.625,1.372-1.363,1.903-2.213
				L339.032,68.227z"/>
			<path style="fill:#444444;" d="M346.255,71.027l-0.28,0.77h2.912v0.854c-0.308,0.916-0.816,1.709-1.525,2.381
				c0.662,0.279,1.292,0.588,1.89,0.924l-0.546,0.812c-0.645-0.383-1.354-0.748-2.128-1.092c-0.943,0.643-2.109,1.162-3.5,1.553
				l-0.49-0.867c1.167-0.309,2.146-0.691,2.94-1.148l-1.946-0.783c0.392-0.645,0.709-1.219,0.952-1.723h-1.638v-0.91h2.058
				c0.233-0.652,0.341-0.947,0.322-0.883L346.255,71.027z M342.938,67.107h2.729v-2.674h0.938v2.674h2.548v0.881h-2.548v0.154
				c0.765,0.383,1.54,0.812,2.323,1.289l-0.518,0.783c-0.7-0.561-1.302-1.008-1.806-1.344v1.82h-0.938v-2.66
				c-0.457,1.092-1.293,2.049-2.506,2.869l-0.49-0.811c1.083-0.635,1.834-1.336,2.254-2.102h-1.987V67.107z M344.001,64.727
				c0.364,0.57,0.663,1.145,0.896,1.723l-0.784,0.363c-0.29-0.662-0.607-1.264-0.952-1.805L344.001,64.727z M347.935,72.707h-2.365
				c-0.233,0.477-0.485,0.92-0.756,1.33c0.56,0.195,1.087,0.393,1.582,0.588C347.095,74.057,347.609,73.416,347.935,72.707z
				 M349.028,65.021c-0.29,0.635-0.649,1.24-1.078,1.82l-0.756-0.406c0.447-0.635,0.793-1.236,1.036-1.807L349.028,65.021z
				 M350.54,69.781c-0.243,0.615-0.518,1.189-0.826,1.723l-0.63-0.771c0.831-1.576,1.386-3.691,1.666-6.342l0.98,0.168
				c-0.065,0.58-0.169,1.246-0.309,2.002h3.696v0.967h-0.91c-0.056,2.332-0.472,4.33-1.246,5.992c0.737,1.23,1.601,2.18,2.59,2.842
				l-0.574,0.854c-0.961-0.672-1.796-1.592-2.506-2.758c-0.681,1.119-1.549,2.059-2.604,2.814l-0.532-0.855
				c1.092-0.756,1.955-1.73,2.59-2.926C351.375,72.391,350.913,71.152,350.54,69.781z M351.211,67.527
				c-0.094,0.336-0.159,0.582-0.196,0.742c0.346,1.586,0.803,2.98,1.372,4.186c0.541-1.418,0.84-3.061,0.896-4.928H351.211z"/>
		</g>
		<g>
			<g id="XMLID_21_">
				<g>
					<path style="fill:#00A4FF;" d="M287.07,85c-7.213,0-13.061-5.82-13.061-13s5.848-13,13.061-13c6.528,0,11.922,4.772,12.89,11
						h2.03c-0.985-7.336-7.281-13-14.921-13C278.747,57,272,63.716,272,72s6.747,15,15.07,15c7.64,0,13.936-5.664,14.921-13h-2.03
						C298.992,80.228,293.598,85,287.07,85z"/>
				</g>
			</g>
			<g>
				<path id="XMLID_20_" style="fill:#00A4FF;" d="M279.991,74l5,3v2l-5-3V74z"/>
				<path id="XMLID_19_" style="fill:#00A4FF;" d="M279.991,70l5-3v-2l-5,3V70z"/>
				<path id="XMLID_18_" style="fill:#00A4FF;" d="M279.991,68h2v8h-2V68z"/>
			</g>
			<g>
				<path id="XMLID_17_" style="fill:#00A4FF;" d="M291.991,68h2v8h-2V68z"/>
				<path id="XMLID_16_" style="fill:#00A4FF;" d="M293.991,76l-5,3v-2l5-3V76z"/>
				<path id="XMLID_15_" style="fill:#00A4FF;" d="M293.991,68l-5-3v2l5,3V68z"/>
			</g>
			<polygon id="XMLID_14_" style="fill:#00A4FF;" points="286.991,75 284.991,75 286.991,69 288.991,69 			"/>
		</g>
	</g>
	<g>
		<g>
			<g style="opacity:0.6;">
				<rect x="449" y="52" style="fill:#BBBBBB;" width="133" height="50"/>
			</g>
			<g>
				<rect x="447.5" y="50.5" style="fill:#FFFFFF;" width="132" height="49"/>
				<path style="fill:#E5E5E5;" d="M579,51v48H448V51H579 M580,50H447v50h133V50L580,50z"/>
			</g>
			<rect x="467" y="59" style="opacity:0;fill:#CB3333;" width="32" height="32"/>
			<g>
				<path style="fill:#444444;" d="M509.742,73.137H522.3v1.008h-6.72c-1.27,2.613-2.395,4.453-3.374,5.516
					c2.511-0.139,5.021-0.377,7.532-0.713c-0.504-0.896-1.064-1.82-1.681-2.771l0.812-0.504c1.27,1.902,2.263,3.588,2.981,5.053
					l-0.896,0.631c-0.243-0.523-0.485-1.018-0.729-1.484c-2.697,0.346-5.796,0.635-9.296,0.867l-0.266-1.021
					c0.056-0.018,0.135-0.051,0.238-0.098c0.905-0.682,2.09-2.506,3.556-5.475h-4.718V73.137z M511.086,69.23h9.968v0.98h-9.968
					V69.23z"/>
				<path style="fill:#444444;" d="M534.662,71.498h0.966v9.787h-0.966V80.5h-9.324v0.771h-0.966v-9.787h0.966v8.092h9.324V71.498z
					 M525.604,77.168c1.429-0.83,2.81-1.879,4.145-3.148v-2.395c1.391-0.691,2.445-1.266,3.164-1.723h-7.154v-0.951h8.666v0.951
					c-1.083,0.748-2.329,1.508-3.738,2.283v2.141c1.232,0.859,2.465,1.816,3.696,2.871l-0.588,0.881
					c-1.194-1.156-2.23-2.07-3.108-2.744v2.354c0,0.82-0.383,1.23-1.147,1.23h-1.274l-0.252-0.938
					c0.467,0.02,0.854,0.029,1.162,0.029c0.383,0,0.574-0.225,0.574-0.672v-2.172c-1.204,1.141-2.469,2.133-3.794,2.982
					L525.604,77.168z M526.85,71.934c0.878,0.811,1.535,1.492,1.975,2.043l-0.771,0.533c-0.438-0.598-1.087-1.303-1.945-2.115
					L526.85,71.934z M534.032,72.227c-0.551,0.887-1.214,1.666-1.988,2.338l-0.728-0.518c0.736-0.625,1.372-1.363,1.903-2.213
					L534.032,72.227z"/>
				<path style="fill:#444444;" d="M541.256,75.027l-0.28,0.77h2.912v0.854c-0.308,0.916-0.816,1.709-1.525,2.381
					c0.662,0.279,1.292,0.588,1.89,0.924l-0.546,0.812c-0.645-0.383-1.354-0.748-2.128-1.092c-0.943,0.643-2.109,1.162-3.5,1.553
					l-0.49-0.867c1.167-0.309,2.146-0.691,2.94-1.148l-1.946-0.783c0.392-0.645,0.709-1.219,0.952-1.723h-1.638v-0.91h2.058
					c0.233-0.652,0.341-0.947,0.322-0.883L541.256,75.027z M537.938,71.107h2.729v-2.674h0.938v2.674h2.548v0.881h-2.548v0.154
					c0.765,0.383,1.54,0.812,2.323,1.289l-0.518,0.783c-0.7-0.561-1.302-1.008-1.806-1.344v1.82h-0.938v-2.66
					c-0.457,1.092-1.293,2.049-2.506,2.869l-0.49-0.811c1.083-0.635,1.834-1.336,2.254-2.102h-1.987V71.107z M539.002,68.727
					c0.364,0.57,0.663,1.145,0.896,1.723l-0.784,0.363c-0.29-0.662-0.607-1.264-0.952-1.805L539.002,68.727z M542.936,76.707h-2.365
					c-0.233,0.477-0.485,0.92-0.756,1.33c0.56,0.195,1.087,0.393,1.582,0.588C542.096,78.057,542.609,77.416,542.936,76.707z
					 M544.028,69.021c-0.29,0.635-0.649,1.24-1.078,1.82l-0.756-0.406c0.447-0.635,0.793-1.236,1.036-1.807L544.028,69.021z
					 M545.54,73.781c-0.243,0.615-0.518,1.189-0.826,1.723l-0.63-0.771c0.831-1.576,1.386-3.691,1.666-6.342l0.98,0.168
					c-0.065,0.58-0.169,1.246-0.309,2.002h3.696v0.967h-0.91c-0.056,2.332-0.472,4.33-1.246,5.992c0.737,1.23,1.601,2.18,2.59,2.842
					l-0.574,0.854c-0.961-0.672-1.796-1.592-2.506-2.758c-0.681,1.119-1.549,2.059-2.604,2.814l-0.532-0.855
					c1.092-0.756,1.955-1.73,2.59-2.926C546.375,76.391,545.913,75.152,545.54,73.781z M546.212,71.527
					c-0.094,0.336-0.159,0.582-0.196,0.742c0.346,1.586,0.803,2.98,1.372,4.186c0.541-1.418,0.84-3.061,0.896-4.928H546.212z"/>
			</g>
			<g>
				<g id="XMLID_166_">
					<g>
						<path style="fill:#00A4FF;" d="M482.07,89c-7.213,0-13.061-5.82-13.061-13s5.848-13,13.061-13c6.528,0,11.922,4.772,12.89,11
							h2.03c-0.985-7.336-7.281-13-14.921-13C473.747,61,467,67.716,467,76s6.747,15,15.07,15c7.64,0,13.936-5.664,14.921-13h-2.03
							C493.992,84.228,488.598,89,482.07,89z"/>
					</g>
				</g>
				<g>
					<path id="XMLID_165_" style="fill:#00A4FF;" d="M474.991,78l5,3v2l-5-3V78z"/>
					<path id="XMLID_164_" style="fill:#00A4FF;" d="M474.991,74l5-3v-2l-5,3V74z"/>
					<path id="XMLID_163_" style="fill:#00A4FF;" d="M474.991,72h2v8h-2V72z"/>
				</g>
				<g>
					<path id="XMLID_162_" style="fill:#00A4FF;" d="M486.991,72h2v8h-2V72z"/>
					<path id="XMLID_161_" style="fill:#00A4FF;" d="M488.991,80l-5,3v-2l5-3V80z"/>
					<path id="XMLID_160_" style="fill:#00A4FF;" d="M488.991,72l-5-3v2l5,3V72z"/>
				</g>
				<polygon id="XMLID_159_" style="fill:#00A4FF;" points="481.991,79 479.991,79 481.991,73 483.991,73 				"/>
			</g>
		</g>
		<g>
			<g style="opacity:0.6;">
				<rect x="444" y="48" style="fill:#BBBBBB;" width="133" height="50"/>
			</g>
			<g>
				<rect x="442.5" y="46.5" style="fill:#FFFFFF;" width="132" height="49"/>
				<path style="fill:#E5E5E5;" d="M574,47v48H443V47H574 M575,46H442v50h133V46L575,46z"/>
			</g>
			<rect x="462" y="55" style="opacity:0;fill:#CB3333;" width="32" height="32"/>
			<g>
				<path style="fill:#444444;" d="M504.742,69.137H517.3v1.008h-6.72c-1.27,2.613-2.395,4.453-3.374,5.516
					c2.511-0.139,5.021-0.377,7.532-0.713c-0.504-0.896-1.064-1.82-1.681-2.771l0.812-0.504c1.27,1.902,2.263,3.588,2.981,5.053
					l-0.896,0.631c-0.243-0.523-0.485-1.018-0.729-1.484c-2.697,0.346-5.796,0.635-9.296,0.867l-0.266-1.021
					c0.056-0.018,0.135-0.051,0.238-0.098c0.905-0.682,2.09-2.506,3.556-5.475h-4.718V69.137z M506.086,65.23h9.968v0.98h-9.968
					V65.23z"/>
				<path style="fill:#444444;" d="M529.662,67.498h0.966v9.787h-0.966V76.5h-9.324v0.771h-0.966v-9.787h0.966v8.092h9.324V67.498z
					 M520.604,73.168c1.429-0.83,2.81-1.879,4.145-3.148v-2.395c1.391-0.691,2.445-1.266,3.164-1.723h-7.154v-0.951h8.666v0.951
					c-1.083,0.748-2.329,1.508-3.738,2.283v2.141c1.232,0.859,2.465,1.816,3.696,2.871l-0.588,0.881
					c-1.194-1.156-2.23-2.07-3.108-2.744v2.354c0,0.82-0.383,1.23-1.147,1.23h-1.274l-0.252-0.938
					c0.467,0.02,0.854,0.029,1.162,0.029c0.383,0,0.574-0.225,0.574-0.672v-2.172c-1.204,1.141-2.469,2.133-3.794,2.982
					L520.604,73.168z M521.85,67.934c0.878,0.811,1.535,1.492,1.975,2.043l-0.771,0.533c-0.438-0.598-1.087-1.303-1.945-2.115
					L521.85,67.934z M529.032,68.227c-0.551,0.887-1.214,1.666-1.988,2.338l-0.728-0.518c0.736-0.625,1.372-1.363,1.903-2.213
					L529.032,68.227z"/>
				<path style="fill:#444444;" d="M536.256,71.027l-0.28,0.77h2.912v0.854c-0.308,0.916-0.816,1.709-1.525,2.381
					c0.662,0.279,1.292,0.588,1.89,0.924l-0.546,0.812c-0.645-0.383-1.354-0.748-2.128-1.092c-0.943,0.643-2.109,1.162-3.5,1.553
					l-0.49-0.867c1.167-0.309,2.146-0.691,2.94-1.148l-1.946-0.783c0.392-0.645,0.709-1.219,0.952-1.723h-1.638v-0.91h2.058
					c0.233-0.652,0.341-0.947,0.322-0.883L536.256,71.027z M532.938,67.107h2.729v-2.674h0.938v2.674h2.548v0.881h-2.548v0.154
					c0.765,0.383,1.54,0.812,2.323,1.289l-0.518,0.783c-0.7-0.561-1.302-1.008-1.806-1.344v1.82h-0.938v-2.66
					c-0.457,1.092-1.293,2.049-2.506,2.869l-0.49-0.811c1.083-0.635,1.834-1.336,2.254-2.102h-1.987V67.107z M534.002,64.727
					c0.364,0.57,0.663,1.145,0.896,1.723l-0.784,0.363c-0.29-0.662-0.607-1.264-0.952-1.805L534.002,64.727z M537.936,72.707h-2.365
					c-0.233,0.477-0.485,0.92-0.756,1.33c0.56,0.195,1.087,0.393,1.582,0.588C537.096,74.057,537.609,73.416,537.936,72.707z
					 M539.028,65.021c-0.29,0.635-0.649,1.24-1.078,1.82l-0.756-0.406c0.447-0.635,0.793-1.236,1.036-1.807L539.028,65.021z
					 M540.54,69.781c-0.243,0.615-0.518,1.189-0.826,1.723l-0.63-0.771c0.831-1.576,1.386-3.691,1.666-6.342l0.98,0.168
					c-0.065,0.58-0.169,1.246-0.309,2.002h3.696v0.967h-0.91c-0.056,2.332-0.472,4.33-1.246,5.992c0.737,1.23,1.601,2.18,2.59,2.842
					l-0.574,0.854c-0.961-0.672-1.796-1.592-2.506-2.758c-0.681,1.119-1.549,2.059-2.604,2.814l-0.532-0.855
					c1.092-0.756,1.955-1.73,2.59-2.926C541.375,72.391,540.913,71.152,540.54,69.781z M541.212,67.527
					c-0.094,0.336-0.159,0.582-0.196,0.742c0.346,1.586,0.803,2.98,1.372,4.186c0.541-1.418,0.84-3.061,0.896-4.928H541.212z"/>
			</g>
			<g>
				<g id="XMLID_47_">
					<g>
						<path style="fill:#00A4FF;" d="M477.07,85c-7.213,0-13.061-5.82-13.061-13s5.848-13,13.061-13c6.528,0,11.922,4.772,12.89,11
							h2.03c-0.985-7.336-7.281-13-14.921-13C468.747,57,462,63.716,462,72s6.747,15,15.07,15c7.64,0,13.936-5.664,14.921-13h-2.03
							C488.992,80.228,483.598,85,477.07,85z"/>
					</g>
				</g>
				<g>
					<path id="XMLID_46_" style="fill:#00A4FF;" d="M469.991,74l5,3v2l-5-3V74z"/>
					<path id="XMLID_45_" style="fill:#00A4FF;" d="M469.991,70l5-3v-2l-5,3V70z"/>
					<path id="XMLID_44_" style="fill:#00A4FF;" d="M469.991,68h2v8h-2V68z"/>
				</g>
				<g>
					<path id="XMLID_43_" style="fill:#00A4FF;" d="M481.991,68h2v8h-2V68z"/>
					<path id="XMLID_42_" style="fill:#00A4FF;" d="M483.991,76l-5,3v-2l5-3V76z"/>
					<path id="XMLID_41_" style="fill:#00A4FF;" d="M483.991,68l-5-3v2l5,3V68z"/>
				</g>
				<polygon id="XMLID_40_" style="fill:#00A4FF;" points="476.991,75 474.991,75 476.991,69 478.991,69 				"/>
			</g>
		</g>
		<g>
			<g style="opacity:0.6;">
				<rect x="439" y="44" style="fill:#BBBBBB;" width="133" height="50"/>
			</g>
			<g>
				<rect x="437.5" y="42.5" style="fill:#FFFFFF;" width="132" height="49"/>
				<path style="fill:#E5E5E5;" d="M569,43v48H438V43H569 M570,42H437v50h133V42L570,42z"/>
			</g>
			<rect x="457" y="51" style="opacity:0;fill:#CB3333;" width="32" height="32"/>
			<g>
				<path style="fill:#444444;" d="M499.742,65.137H512.3v1.008h-6.72c-1.27,2.613-2.395,4.453-3.374,5.516
					c2.511-0.139,5.021-0.377,7.532-0.713c-0.504-0.896-1.064-1.82-1.681-2.771l0.812-0.504c1.27,1.902,2.263,3.588,2.981,5.053
					l-0.896,0.631c-0.243-0.523-0.485-1.018-0.729-1.484c-2.697,0.346-5.796,0.635-9.296,0.867l-0.266-1.021
					c0.056-0.018,0.135-0.051,0.238-0.098c0.905-0.682,2.09-2.506,3.556-5.475h-4.718V65.137z M501.086,61.23h9.968v0.98h-9.968
					V61.23z"/>
				<path style="fill:#444444;" d="M524.662,63.498h0.966v9.787h-0.966V72.5h-9.324v0.771h-0.966v-9.787h0.966v8.092h9.324V63.498z
					 M515.604,69.168c1.429-0.83,2.81-1.879,4.145-3.148v-2.395c1.391-0.691,2.445-1.266,3.164-1.723h-7.154v-0.951h8.666v0.951
					c-1.083,0.748-2.329,1.508-3.738,2.283v2.141c1.232,0.859,2.465,1.816,3.696,2.871l-0.588,0.881
					c-1.194-1.156-2.23-2.07-3.108-2.744v2.354c0,0.82-0.383,1.23-1.147,1.23h-1.274l-0.252-0.938
					c0.467,0.02,0.854,0.029,1.162,0.029c0.383,0,0.574-0.225,0.574-0.672v-2.172c-1.204,1.141-2.469,2.133-3.794,2.982
					L515.604,69.168z M516.85,63.934c0.878,0.811,1.535,1.492,1.975,2.043l-0.771,0.533c-0.438-0.598-1.087-1.303-1.945-2.115
					L516.85,63.934z M524.032,64.227c-0.551,0.887-1.214,1.666-1.988,2.338l-0.728-0.518c0.736-0.625,1.372-1.363,1.903-2.213
					L524.032,64.227z"/>
				<path style="fill:#444444;" d="M531.256,67.027l-0.28,0.77h2.912v0.854c-0.308,0.916-0.816,1.709-1.525,2.381
					c0.662,0.279,1.292,0.588,1.89,0.924l-0.546,0.812c-0.645-0.383-1.354-0.748-2.128-1.092c-0.943,0.643-2.109,1.162-3.5,1.553
					l-0.49-0.867c1.167-0.309,2.146-0.691,2.94-1.148l-1.946-0.783c0.392-0.645,0.709-1.219,0.952-1.723h-1.638v-0.91h2.058
					c0.233-0.652,0.341-0.947,0.322-0.883L531.256,67.027z M527.938,63.107h2.729v-2.674h0.938v2.674h2.548v0.881h-2.548v0.154
					c0.765,0.383,1.54,0.812,2.323,1.289l-0.518,0.783c-0.7-0.561-1.302-1.008-1.806-1.344v1.82h-0.938v-2.66
					c-0.457,1.092-1.293,2.049-2.506,2.869l-0.49-0.811c1.083-0.635,1.834-1.336,2.254-2.102h-1.987V63.107z M529.002,60.727
					c0.364,0.57,0.663,1.145,0.896,1.723l-0.784,0.363c-0.29-0.662-0.607-1.264-0.952-1.805L529.002,60.727z M532.936,68.707h-2.365
					c-0.233,0.477-0.485,0.92-0.756,1.33c0.56,0.195,1.087,0.393,1.582,0.588C532.096,70.057,532.609,69.416,532.936,68.707z
					 M534.028,61.021c-0.29,0.635-0.649,1.24-1.078,1.82l-0.756-0.406c0.447-0.635,0.793-1.236,1.036-1.807L534.028,61.021z
					 M535.54,65.781c-0.243,0.615-0.518,1.189-0.826,1.723l-0.63-0.771c0.831-1.576,1.386-3.691,1.666-6.342l0.98,0.168
					c-0.065,0.58-0.169,1.246-0.309,2.002h3.696v0.967h-0.91c-0.056,2.332-0.472,4.33-1.246,5.992c0.737,1.23,1.601,2.18,2.59,2.842
					l-0.574,0.854c-0.961-0.672-1.796-1.592-2.506-2.758c-0.681,1.119-1.549,2.059-2.604,2.814l-0.532-0.855
					c1.092-0.756,1.955-1.73,2.59-2.926C536.375,68.391,535.913,67.152,535.54,65.781z M536.212,63.527
					c-0.094,0.336-0.159,0.582-0.196,0.742c0.346,1.586,0.803,2.98,1.372,4.186c0.541-1.418,0.84-3.061,0.896-4.928H536.212z"/>
			</g>
			<g>
				<g id="XMLID_34_">
					<g>
						<path style="fill:#00A4FF;" d="M472.07,81c-7.213,0-13.061-5.82-13.061-13s5.848-13,13.061-13c6.528,0,11.922,4.772,12.89,11
							h2.03c-0.985-7.336-7.281-13-14.921-13C463.747,53,457,59.716,457,68s6.747,15,15.07,15c7.64,0,13.936-5.664,14.921-13h-2.03
							C483.992,76.228,478.598,81,472.07,81z"/>
					</g>
				</g>
				<g>
					<path id="XMLID_33_" style="fill:#00A4FF;" d="M464.991,70l5,3v2l-5-3V70z"/>
					<path id="XMLID_32_" style="fill:#00A4FF;" d="M464.991,66l5-3v-2l-5,3V66z"/>
					<path id="XMLID_31_" style="fill:#00A4FF;" d="M464.991,64h2v8h-2V64z"/>
				</g>
				<g>
					<path id="XMLID_30_" style="fill:#00A4FF;" d="M476.991,64h2v8h-2V64z"/>
					<path id="XMLID_29_" style="fill:#00A4FF;" d="M478.991,72l-5,3v-2l5-3V72z"/>
					<path id="XMLID_28_" style="fill:#00A4FF;" d="M478.991,64l-5-3v2l5,3V64z"/>
				</g>
				<polygon id="XMLID_27_" style="fill:#00A4FF;" points="471.991,71 469.991,71 471.991,65 473.991,65 				"/>
			</g>
		</g>
	</g>
	<g>
		<g style="opacity:0.6;">
			<rect x="635" y="48" style="fill:#BBBBBB;" width="133" height="50"/>
		</g>
		<g>
			<rect x="633.5" y="46.5" style="fill:#FFFFFF;" width="132" height="49"/>
			<path style="fill:#E5E5E5;" d="M765,47v48H634V47H765 M766,46H633v50h133V46L766,46z"/>
		</g>
		<rect x="653" y="55" style="opacity:0;fill:#CB3333;" width="32" height="32"/>
		<g>
			<path style="fill:#444444;" d="M695.742,69.137H708.3v1.008h-6.72c-1.27,2.613-2.395,4.453-3.374,5.516
				c2.511-0.139,5.021-0.377,7.532-0.713c-0.504-0.896-1.064-1.82-1.681-2.771l0.812-0.504c1.27,1.902,2.263,3.588,2.981,5.053
				l-0.896,0.631c-0.243-0.523-0.485-1.018-0.729-1.484c-2.697,0.346-5.796,0.635-9.296,0.867l-0.266-1.021
				c0.056-0.018,0.135-0.051,0.238-0.098c0.905-0.682,2.09-2.506,3.556-5.475h-4.718V69.137z M697.086,65.23h9.968v0.98h-9.968
				V65.23z"/>
			<path style="fill:#444444;" d="M713.256,71.027l-0.28,0.77h2.912v0.854c-0.308,0.916-0.816,1.709-1.525,2.381
				c0.662,0.279,1.292,0.588,1.89,0.924l-0.546,0.812c-0.645-0.383-1.354-0.748-2.128-1.092c-0.943,0.643-2.109,1.162-3.5,1.553
				l-0.49-0.867c1.167-0.309,2.146-0.691,2.94-1.148l-1.946-0.783c0.392-0.645,0.709-1.219,0.952-1.723h-1.638v-0.91h2.058
				c0.233-0.652,0.341-0.947,0.322-0.883L713.256,71.027z M709.938,67.107h2.729v-2.674h0.938v2.674h2.548v0.881h-2.548v0.154
				c0.765,0.383,1.54,0.812,2.323,1.289l-0.518,0.783c-0.7-0.561-1.302-1.008-1.806-1.344v1.82h-0.938v-2.66
				c-0.457,1.092-1.293,2.049-2.506,2.869l-0.49-0.811c1.083-0.635,1.834-1.336,2.254-2.102h-1.987V67.107z M711.002,64.727
				c0.364,0.57,0.663,1.145,0.896,1.723l-0.784,0.363c-0.29-0.662-0.607-1.264-0.952-1.805L711.002,64.727z M714.936,72.707h-2.365
				c-0.233,0.477-0.485,0.92-0.756,1.33c0.56,0.195,1.087,0.393,1.582,0.588C714.096,74.057,714.609,73.416,714.936,72.707z
				 M716.028,65.021c-0.29,0.635-0.649,1.24-1.078,1.82l-0.756-0.406c0.447-0.635,0.793-1.236,1.036-1.807L716.028,65.021z
				 M717.54,69.781c-0.243,0.615-0.518,1.189-0.826,1.723l-0.63-0.771c0.831-1.576,1.386-3.691,1.666-6.342l0.98,0.168
				c-0.065,0.58-0.169,1.246-0.309,2.002h3.696v0.967h-0.91c-0.056,2.332-0.472,4.33-1.246,5.992c0.737,1.23,1.601,2.18,2.59,2.842
				l-0.574,0.854c-0.961-0.672-1.796-1.592-2.506-2.758c-0.681,1.119-1.549,2.059-2.604,2.814l-0.532-0.855
				c1.092-0.756,1.955-1.73,2.59-2.926C718.375,72.391,717.913,71.152,717.54,69.781z M718.212,67.527
				c-0.094,0.336-0.159,0.582-0.196,0.742c0.346,1.586,0.803,2.98,1.372,4.186c0.541-1.418,0.84-3.061,0.896-4.928H718.212z"/>
			<path style="fill:#444444;" d="M724.106,77.131l-0.21-0.951c0.4,0.045,0.756,0.068,1.063,0.068c0.354,0,0.532-0.205,0.532-0.615
				v-3.416c-0.653,0.242-1.204,0.434-1.652,0.574l-0.252-0.98c0.635-0.148,1.27-0.34,1.904-0.574v-3.164h-1.681v-0.965h1.681v-2.646
				h0.979v2.646h1.345v0.965h-1.345v2.758c0.448-0.195,0.882-0.404,1.303-0.629v0.994c-0.29,0.148-0.724,0.354-1.303,0.615v4.074
				c0,0.83-0.392,1.246-1.176,1.246H724.106z M729.482,70.943c-0.168,2.389-0.715,4.494-1.639,6.314l-0.784-0.701
				c0.989-1.848,1.493-4.246,1.513-7.195v-4.383h7.378v3.402h-2.632v1.652h2.996v0.91h-2.996v1.721h2.352v4.594h-0.938V76.57h-3.794
				v0.688H730v-4.594h2.338v-1.721H729.482z M732.338,68.381h-2.786l-0.014,1.652h2.8V68.381z M734.97,65.916h-5.418v1.555h5.418
				V65.916z M730.938,75.676h3.794v-2.115h-3.794V75.676z"/>
			<path style="fill:#444444;" d="M744.476,64.307c0.262,0.42,0.5,0.873,0.715,1.357h5.04v0.98h-10.374v3.193
				c-0.057,3.117-0.528,5.59-1.414,7.42l-0.826-0.742c0.774-1.605,1.176-3.832,1.204-6.678v-4.174h5.264
				c-0.215-0.41-0.457-0.797-0.728-1.16L744.476,64.307z M744.532,67.262c-0.084,0.26-0.21,0.635-0.378,1.119h5.46v0.883h-5.811
				c-0.392,0.895-0.812,1.693-1.26,2.393h2.618v-1.693h1.008v1.693h3.122v0.91h-3.122v1.568h4.187v0.924h-4.187v2.213h-1.008v-2.213
				h-5.054v-0.924h5.054v-1.568h-3.668l-0.21-0.867c0.541-0.672,1.026-1.484,1.456-2.436h-2.114v-0.883h2.478
				c0.159-0.439,0.313-0.887,0.463-1.344L744.532,67.262z"/>
		</g>
		<g id="XMLID_172_">
			<g>
				<path style="fill:#00A4FF;" d="M664.16,75.978c0.331-0.318,0.685-0.612,1.073-0.861c0.094-0.388,0.22-0.762,0.368-1.125
					c-0.2,0.003-0.398,0.009-0.6,0.009c-5.523,0-10-1.343-10-3v-6.238C657.149,66.11,660.824,67,665,67c4.176,0,7.851-0.89,10-2.238
					v4.493c0.711,0.183,1.381,0.464,2,0.824V62c0-2.761-5.373-5-12-5s-12,2.239-12,5v18c0,2.51,4.445,4.582,10.231,4.94
					c-0.425-0.621-0.745-1.314-0.955-2.055C658.079,82.528,655,81.373,655,80v-6.239C657.003,75.018,660.336,75.866,664.16,75.978z
					 M665,59c5.523,0,10,1.343,10,3c0,1.657-4.477,3-10,3s-10-1.343-10-3C655,60.343,659.477,59,665,59z M677.986,77.137
					C677.987,77.091,678,77.047,678,77c0-2.762-2.238-5-5-5c-2.761,0-5,2.238-5,5c0,0.047,0.012,0.091,0.014,0.137
					C666.284,77.578,665,79.133,665,81c0,2.209,1.791,4,4,4h8c2.209,0,4-1.791,4-4C681,79.133,679.715,77.578,677.986,77.137z
					 M677,83h-8c-1.103,0-2-0.897-2-2c0-0.907,0.62-1.698,1.508-1.925l1.549-0.395l-0.044-1.598
					c-0.002-0.059-0.006-0.116-0.012-0.174C670.05,75.295,671.377,74,673,74c1.623,0,2.949,1.295,2.999,2.907
					c-0.006,0.058-0.01,0.116-0.012,0.175l-0.044,1.598l1.549,0.395C678.38,79.302,679,80.093,679,81C679,82.103,678.103,83,677,83z
					"/>
			</g>
		</g>
	</g>
	<g>
		<g style="opacity:0.6;">
			<rect x="68" y="48" style="fill:#BBBBBB;" width="133" height="50"/>
		</g>
		<g>
			<rect x="66.5" y="46.5" style="fill:#FFFFFF;" width="132" height="49"/>
			<path style="fill:#E5E5E5;" d="M198,47v48H67V47H198 M199,46H66v50h133V46L199,46z"/>
		</g>
		<rect x="86" y="55" style="opacity:0;fill:#CB3333;" width="32" height="32"/>
		<g>
			<path style="fill:#444444;" d="M129.666,68.045c0.793,0.859,1.61,1.814,2.45,2.869c0.522-1.26,0.83-2.631,0.924-4.115h-3.836
				v-0.98h4.746v0.742c-0.075,1.924-0.472,3.654-1.19,5.195c0.579,0.773,1.12,1.562,1.624,2.365l-0.728,0.729
				c-0.401-0.672-0.863-1.377-1.387-2.115c-0.765,1.336-1.796,2.539-3.094,3.613l-0.588-0.883c1.316-1.008,2.338-2.197,3.066-3.57
				c-0.756-1.018-1.644-2.09-2.66-3.219L129.666,68.045z M135.433,69.754c0.952,1.166,1.676,2.188,2.17,3.064l-0.798,0.561
				c-0.56-0.971-1.273-1.992-2.142-3.066L135.433,69.754z M134.677,67.135h4.061v-2.744h1.008v2.744h1.554v0.967h-1.554v7.699
				c0,0.943-0.48,1.414-1.442,1.414h-2.197l-0.21-0.994c0.812,0.047,1.497,0.07,2.058,0.07c0.522,0,0.784-0.248,0.784-0.742v-7.447
				h-4.061V67.135z"/>
			<path style="fill:#444444;" d="M144.309,67.666c-0.289,0.16-0.606,0.314-0.951,0.463l-0.631-0.77
				c1.876-0.775,3.402-1.783,4.578-3.025l1.051,0.238c-0.317,0.336-0.561,0.588-0.729,0.756h4.452V66
				c-0.43,0.449-0.878,0.846-1.344,1.191h3.653v3.121h-5.613c0.783,0.645,1.367,1.32,1.75,2.031
				c1.391-0.439,2.543-0.986,3.458-1.639l0.657,0.756c-0.672,0.447-1.414,0.84-2.226,1.176c0.588,1.205,1.614,2.268,3.08,3.191
				l-0.672,0.84c-1.54-1.129-2.628-2.365-3.263-3.709l-0.657,0.209c0.158,0.449,0.252,0.949,0.279,1.498
				c0,0.953-0.191,1.619-0.573,2.002c-0.364,0.318-0.98,0.52-1.849,0.604c-0.308,0.027-0.639,0.041-0.994,0.041l-0.308-0.924
				l1.19-0.014c0.447-0.027,0.816-0.15,1.105-0.363c0.271-0.225,0.406-0.672,0.406-1.346c0-0.213-0.023-0.438-0.07-0.672
				c-1.605,1.186-3.757,2.146-6.454,2.885l-0.504-0.867c2.912-0.756,5.147-1.727,6.706-2.912c-0.112-0.281-0.266-0.57-0.462-0.869
				c-1.372,1.008-3.243,1.834-5.614,2.479l-0.489-0.854c2.436-0.588,4.312-1.336,5.628-2.24c-0.252-0.281-0.519-0.533-0.799-0.756
				c-1.092,0.82-2.59,1.395-4.493,1.721l-0.393-0.84c1.736-0.279,3.094-0.756,4.074-1.428h-2.982V67.666z M149.448,67.191
				c0.401-0.262,0.854-0.617,1.357-1.064h-4.102c-0.43,0.346-0.943,0.699-1.54,1.064H149.448z M148.23,69.473
				c0.363-0.447,0.63-0.928,0.798-1.441h-3.725v1.441H148.23z M153.396,69.473v-1.441h-3.36c-0.159,0.551-0.369,1.031-0.63,1.441
				H153.396z"/>
			<path style="fill:#444444;" d="M157.078,65.848h3.808c0.205-0.551,0.369-1.047,0.49-1.484l1.022,0.125
				c-0.159,0.543-0.304,0.994-0.435,1.359h7.168v0.979h-7.546c-0.514,1.186-1.152,2.293-1.918,3.318v7.127h-0.979V71.35
				c-0.495,0.541-0.994,1.035-1.498,1.482l-0.631-0.797c1.699-1.494,3.006-3.229,3.921-5.209h-3.402V65.848z M160.759,72.357h4.061
				v-1.303c0.821-0.457,1.582-0.984,2.281-1.582h-5.264v-0.938h6.552v0.938c-0.774,0.719-1.629,1.387-2.562,2.002v0.883h3.5v0.965
				h-3.5v2.646c0,0.83-0.416,1.246-1.246,1.246h-1.75l-0.266-0.951c0.672,0.018,1.208,0.027,1.609,0.027
				c0.43,0,0.645-0.215,0.645-0.645v-2.324h-4.061V72.357z"/>
			<path style="fill:#444444;" d="M171.875,69.459c-0.317,0.531-0.667,1.051-1.05,1.555l-0.336-1.078
				c1.11-1.615,1.908-3.453,2.394-5.518l0.91,0.422c-0.243,0.904-0.556,1.811-0.938,2.715v9.717h-0.98V69.459z M173.416,68.773
				h2.534v5.936c0.308-0.326,0.69-0.76,1.147-1.303l0.238,0.994c-0.663,0.84-1.409,1.629-2.24,2.367l-0.405-0.924
				c0.195-0.168,0.294-0.352,0.294-0.547v-5.586h-1.568V68.773z M174.746,64.979c0.84,0.719,1.526,1.414,2.058,2.086l-0.742,0.742
				c-0.504-0.689-1.171-1.408-2.002-2.156L174.746,64.979z M177.517,66.057h1.681v-1.609h0.91v1.609h1.582v0.826
				c0.279-0.561,0.546-1.135,0.798-1.723l0.84,0.436c-0.458,1.139-1.008,2.188-1.652,3.148h1.61v0.924h-2.296
				c-0.411,0.496-0.826,0.934-1.246,1.316h2.855v6.244h-0.951v-0.588h-2.618v0.588h-0.938v-5.012
				c-0.224,0.131-0.56,0.309-1.008,0.531l-0.504-0.797c1.204-0.551,2.263-1.311,3.178-2.283h-2.548v-0.924h1.988v-1.805h-1.681
				V66.057z M181.648,73.379v-1.512h-2.618v1.512H181.648z M179.03,74.219v1.541h2.618v-1.541H179.03z M180.528,68.744
				c0.41-0.559,0.788-1.162,1.134-1.805h-1.554v1.805H180.528z"/>
		</g>
		<g id="XMLID_1_">
			<g>
				<path style="fill:#00A4FF;" d="M95,68v8l7,4l7-4v-8l-7-4L95,68z M101,77.125l-4-2.286v-3.697l4,2.286V77.125z M107,74.839
					l-4,2.286v-3.696l4-2.286V74.839z M102,71.697L97.281,69L102,66.303L106.719,69L102,71.697z M114,78.839l-12,6.857l-12-6.857
					V65.161l12-6.857l12,6.857v-0.018L116,64l-14-8l-14,8v16l14,8l14-8V68l-2,1.142V78.839z"/>
			</g>
		</g>
	</g>
	<g>
		
			<line style="fill-rule:evenodd;clip-rule:evenodd;fill:none;stroke:#878787;stroke-miterlimit:10;" x1="245" y1="72" x2="201" y2="72"/>
		<polygon style="fill-rule:evenodd;clip-rule:evenodd;fill:#878787;" points="243,76.5 248,72 243,67.5 		"/>
	</g>
	<g>
		
			<line style="fill-rule:evenodd;clip-rule:evenodd;fill:none;stroke:#878787;stroke-miterlimit:10;" x1="431" y1="72" x2="387" y2="72"/>
		<polygon style="fill-rule:evenodd;clip-rule:evenodd;fill:#878787;" points="429,76.5 434,72 429,67.5 		"/>
	</g>
	<g>
		
			<line style="fill-rule:evenodd;clip-rule:evenodd;fill:none;stroke:#878787;stroke-miterlimit:10;" x1="626" y1="72" x2="582" y2="72"/>
		<polygon style="fill-rule:evenodd;clip-rule:evenodd;fill:#878787;" points="624,76.5 629,72 624,67.5 		"/>
	</g>
	<g>
		<g>
			<path style="fill:#878787;" d="M95.244,118.662c-0.656,1.376-1.676,2.576-3.061,3.6l-0.203-0.636
				c1.247-0.96,2.14-2.036,2.676-3.228L95.244,118.662z M95.616,121.434c-0.296,0.664-0.677,1.309-1.141,1.933v6.048H93.84v-5.28
				c-0.504,0.536-1.024,1.013-1.56,1.428l-0.192-0.623c1.36-1.097,2.348-2.353,2.964-3.769L95.616,121.434z M99.048,118.446h0.636
				v1.368h2.761v0.611h-2.761v1.668h3.252v0.624H95.88v-0.624h3.168v-1.668H96.3v-0.611h2.748V118.446z M95.916,124.362h4.728
				v-0.937h0.648v0.937h1.488v0.611h-1.488v3.372c0,0.664-0.344,0.996-1.032,0.996h-1.728l-0.145-0.624
				c0.769,0.032,1.316,0.048,1.645,0.048c0.408,0,0.611-0.191,0.611-0.575v-3.217h-4.728V124.362z M97.056,125.61
				c0.712,0.664,1.28,1.279,1.704,1.848l-0.516,0.36c-0.393-0.553-0.956-1.185-1.692-1.896L97.056,125.61z"/>
			<path style="fill:#878787;" d="M108.552,119.046c-0.568,1.04-1.136,1.88-1.704,2.521c-0.664,0.735-1.472,1.428-2.424,2.075
				l-0.372-0.575c0.864-0.496,1.632-1.137,2.305-1.92c0.632-0.721,1.18-1.532,1.644-2.437L108.552,119.046z M105.768,123.93v-0.611
				h7.164c-0.031,1.464-0.104,2.651-0.216,3.563c-0.12,0.896-0.312,1.524-0.576,1.884c-0.264,0.353-0.691,0.54-1.283,0.564h-2.244
				l-0.168-0.624c0.991,0.016,1.691,0.024,2.1,0.024c0.664,0,1.104-0.293,1.32-0.877c0.208-0.6,0.348-1.907,0.42-3.924h-3.42
				c-0.288,1.376-0.688,2.456-1.2,3.24c-0.584,0.824-1.464,1.572-2.64,2.244l-0.408-0.516c1.071-0.593,1.888-1.256,2.448-1.992
				c0.527-0.744,0.911-1.736,1.151-2.977H105.768z M111.18,118.578c0.704,1.855,1.956,3.324,3.756,4.404l-0.443,0.504
				c-1.849-1.177-3.137-2.708-3.864-4.597L111.18,118.578z"/>
			<path style="fill:#878787;" d="M118.704,129.39h-0.648v-6.468c-0.439,1.368-1.023,2.568-1.752,3.601l-0.288-0.696
				c0.96-1.264,1.633-2.696,2.017-4.296h-1.788v-0.637h1.812v-2.424h0.648v2.424h1.704v0.637h-1.704v0.695
				c0.567,0.593,1.168,1.305,1.8,2.137l-0.36,0.527c-0.552-0.815-1.031-1.476-1.439-1.979V129.39z M126.504,119.13
				c-1.392,0.521-2.939,0.816-4.644,0.888v2.364h4.956v0.636h-1.872v6.385h-0.66v-6.385h-2.424v0.24
				c-0.072,2.536-0.672,4.561-1.801,6.072l-0.468-0.492c1.016-1.352,1.564-3.212,1.645-5.58v-3.792
				c1.84-0.048,3.487-0.355,4.943-0.924L126.504,119.13z"/>
			<path style="fill:#878787;" d="M128.328,120.582h5.063c-0.319-0.688-0.731-1.332-1.235-1.932l0.647-0.24
				c0.473,0.6,0.9,1.324,1.284,2.172h4.584v0.648h-1.908c-0.575,1.968-1.476,3.6-2.699,4.896c1.327,1.145,2.959,2.072,4.896,2.784
				l-0.36,0.552c-1.991-0.736-3.655-1.692-4.991-2.868c-1.368,1.312-3.101,2.269-5.196,2.868l-0.336-0.576
				c2.071-0.576,3.768-1.476,5.088-2.7c-1.44-1.399-2.432-3.052-2.976-4.955h-1.86V120.582z M130.824,121.23
				c0.536,1.735,1.468,3.235,2.796,4.5c1.144-1.225,1.972-2.725,2.483-4.5H130.824z"/>
			<path style="fill:#878787;" d="M143.364,118.698c-0.336,1-0.736,1.908-1.2,2.724v8.017h-0.636v-6.996
				c-0.433,0.616-0.904,1.195-1.416,1.739l-0.216-0.684c1.327-1.512,2.283-3.208,2.867-5.088L143.364,118.698z M145.404,119.238
				c-0.112,0.624-0.257,1.231-0.433,1.823h2.017v-2.567h0.647v2.567h2.845v0.648h-2.845v3.108h3.288v0.636h-3.288v3.924h-0.647
				v-3.924h-3.637v-0.636h3.637v-3.108h-2.232c-0.32,0.816-0.696,1.532-1.128,2.148l-0.408-0.528
				c0.752-1.136,1.269-2.524,1.548-4.164L145.404,119.238z"/>
			<path style="fill:#878787;" d="M152.412,119.79h3.36c0.199-0.52,0.348-0.968,0.443-1.344l0.66,0.071
				c-0.088,0.328-0.224,0.753-0.408,1.272h6.24v0.636h-6.492c-0.416,1-0.96,1.952-1.632,2.856v6.168h-0.648v-5.364
				c-0.496,0.568-1.004,1.08-1.523,1.536l-0.396-0.528c1.544-1.352,2.708-2.907,3.492-4.668h-3.096V119.79z M155.604,125.322h3.564
				v-1.212c0.76-0.433,1.448-0.916,2.064-1.452h-4.692v-0.612h5.532v0.612c-0.648,0.6-1.4,1.176-2.256,1.728v0.937h3.084v0.636
				h-3.084v2.496c0,0.624-0.316,0.936-0.948,0.936h-1.5l-0.168-0.611c0.576,0.016,1.048,0.023,1.416,0.023
				c0.367,0,0.552-0.184,0.552-0.552v-2.292h-3.564V125.322z"/>
			<path style="fill:#878787;" d="M165.216,122.394c-0.312,0.553-0.66,1.08-1.044,1.584l-0.204-0.672
				c0.977-1.439,1.681-3.052,2.112-4.836l0.588,0.276c-0.232,0.864-0.508,1.664-0.828,2.4v8.279h-0.624V122.394z M166.416,122.25
				h2.076v5.304c0.328-0.336,0.696-0.748,1.104-1.235l0.168,0.647c-0.575,0.72-1.199,1.372-1.872,1.956l-0.252-0.588
				c0.145-0.144,0.217-0.288,0.217-0.432v-5.028h-1.44V122.25z M167.46,119.01c0.712,0.601,1.312,1.188,1.8,1.765l-0.492,0.491
				c-0.456-0.607-1.04-1.216-1.752-1.823L167.46,119.01z M169.968,119.946h1.5v-1.452h0.612v1.452h1.416v0.563h-1.416v1.74h0.456
				c0.664-0.872,1.231-1.912,1.704-3.12l0.54,0.3c-0.425,1.049-0.924,1.988-1.5,2.82h1.571v0.6h-2.016
				c-0.36,0.456-0.764,0.881-1.212,1.272h2.592v5.268h-0.624v-0.527h-2.46v0.527h-0.624v-4.439c-0.296,0.191-0.636,0.38-1.02,0.563
				l-0.336-0.516c1.111-0.504,2.075-1.22,2.892-2.148h-2.388v-0.6h1.812v-1.74h-1.5V119.946z M173.592,126.198v-1.488h-2.46v1.488
				H173.592z M171.132,126.774v1.512h2.46v-1.512H171.132z"/>
		</g>
	</g>
	<g>
		<g>
			<path style="fill:#878787;" d="M281.96,118.794c-0.344,0.96-0.752,1.84-1.224,2.64v8.017h-0.648v-7.032
				c-0.448,0.592-0.92,1.145-1.416,1.656l-0.216-0.672c1.328-1.424,2.296-3.053,2.904-4.885L281.96,118.794z M288.848,119.466
				c-0.863,0.288-1.864,0.504-3,0.648v3.552h3.576v0.648h-3.576v3.876h2.977v0.647h-6.576v-0.647h2.952v-3.876h-3.552v-0.648h3.552
				v-3.48c-0.824,0.072-1.708,0.108-2.652,0.108l-0.216-0.6c2.504-0.008,4.567-0.269,6.192-0.78L288.848,119.466z"/>
			<path style="fill:#878787;" d="M294.908,118.53c-0.137,0.319-0.309,0.651-0.517,0.996h5.316v0.527
				c-0.8,0.929-1.784,1.712-2.952,2.353c1.393,0.624,2.96,1.032,4.704,1.224l-0.288,0.612c-1.912-0.224-3.62-0.716-5.124-1.477
				c-1.479,0.681-3.216,1.177-5.208,1.488l-0.3-0.6c1.84-0.256,3.448-0.676,4.824-1.261c-0.761-0.455-1.456-0.964-2.088-1.523
				c-0.488,0.456-1.028,0.856-1.62,1.2l-0.396-0.517c1.472-0.84,2.468-1.88,2.988-3.12L294.908,118.53z M296.048,123.726
				c0,0.496-0.044,0.984-0.132,1.465h4.272c-0.024,1.983-0.209,3.163-0.553,3.54c-0.352,0.392-0.96,0.588-1.824,0.588
				c-0.359,0-0.8-0.013-1.319-0.036l-0.168-0.601c0.72,0.032,1.168,0.049,1.344,0.049c0.8-0.017,1.3-0.177,1.5-0.48
				c0.2-0.32,0.324-1.144,0.372-2.472h-3.768c-0.129,0.384-0.269,0.712-0.421,0.983c-0.64,1.08-2.048,1.969-4.224,2.664
				l-0.432-0.516c1.968-0.584,3.288-1.336,3.96-2.256c0.151-0.248,0.292-0.54,0.42-0.876h-3.708v-0.588h3.888
				c0.104-0.496,0.156-0.984,0.156-1.465H296.048z M298.784,120.138h-4.836c-0.112,0.128-0.192,0.225-0.24,0.288
				c0.696,0.632,1.479,1.181,2.352,1.645C297.116,121.534,298.023,120.89,298.784,120.138z"/>
			<path style="fill:#878787;" d="M304.064,126.654c0.399,0.271,0.844,0.66,1.332,1.164c0.415,0.432,0.751,0.832,1.008,1.199
				l-0.469,0.396c-0.264-0.368-0.596-0.764-0.995-1.188c-0.473-0.495-0.904-0.888-1.297-1.176L304.064,126.654z"/>
			<path style="fill:#878787;" d="M316.916,124.05l0.624,0.072l-0.288,0.744h2.568v0.552c-0.288,0.84-0.769,1.56-1.44,2.16
				c0.592,0.248,1.192,0.544,1.8,0.888l-0.359,0.517c-0.561-0.328-1.212-0.656-1.956-0.984c-0.809,0.584-1.812,1.048-3.013,1.392
				l-0.323-0.552c1.056-0.288,1.947-0.668,2.676-1.14c-0.512-0.224-1.092-0.456-1.74-0.696c0.336-0.544,0.624-1.06,0.864-1.548
				h-1.524v-0.588h1.8L316.916,124.05z M314.84,120.834h2.376v-2.34h0.612v2.34h2.268v0.588h-2.268v0.145
				c0.744,0.407,1.432,0.832,2.063,1.271l-0.348,0.516c-0.656-0.535-1.229-0.968-1.716-1.296v1.729h-0.612v-2.364h-0.036
				c-0.384,0.968-1.124,1.809-2.22,2.521l-0.336-0.54c1.016-0.576,1.704-1.236,2.064-1.98h-1.849V120.834z M315.632,118.77
				c0.304,0.465,0.564,0.965,0.78,1.5l-0.516,0.229c-0.24-0.552-0.513-1.068-0.816-1.548L315.632,118.77z M319.196,125.454h-2.208
				c-0.2,0.424-0.44,0.852-0.721,1.284c0.505,0.168,0.996,0.359,1.477,0.576C318.392,126.778,318.876,126.158,319.196,125.454z
				 M319.94,118.914c-0.232,0.544-0.545,1.076-0.937,1.596l-0.492-0.252c0.385-0.56,0.68-1.092,0.889-1.596L319.94,118.914z
				 M321.32,122.742c-0.232,0.624-0.496,1.196-0.792,1.716l-0.408-0.504c0.728-1.36,1.224-3.2,1.488-5.521l0.647,0.12
				c-0.08,0.624-0.176,1.232-0.288,1.824h3.265v0.636h-0.853c-0.048,2.072-0.412,3.824-1.092,5.256
				c0.64,1.112,1.404,1.969,2.292,2.568l-0.372,0.552c-0.872-0.616-1.62-1.456-2.244-2.52c-0.608,1.04-1.372,1.888-2.292,2.544
				l-0.36-0.552c0.969-0.688,1.732-1.564,2.292-2.628C322.092,125.258,321.664,124.094,321.32,122.742z M321.824,121.014
				c-0.08,0.32-0.145,0.557-0.192,0.708c0.32,1.473,0.748,2.757,1.284,3.853c0.536-1.32,0.816-2.84,0.84-4.561H321.824z"/>
			<path style="fill:#878787;" d="M326.948,129.306l-0.132-0.611c0.415,0.031,0.724,0.048,0.924,0.048
				c0.328,0,0.492-0.188,0.492-0.564v-3.191c-0.473,0.176-0.98,0.348-1.524,0.516l-0.168-0.636c0.607-0.152,1.172-0.324,1.692-0.517
				v-2.867h-1.5v-0.637h1.5v-2.328h0.647v2.328h1.224v0.637h-1.224v2.615c0.408-0.184,0.804-0.376,1.188-0.575v0.636
				c-0.416,0.224-0.812,0.412-1.188,0.563v3.612c0,0.648-0.304,0.972-0.912,0.972H326.948z M331.436,123.954
				c-0.144,2.072-0.619,3.892-1.428,5.46l-0.504-0.444c0.88-1.624,1.328-3.728,1.344-6.312v-3.636h6.217v2.747h-2.316v1.572h2.64
				v0.612h-2.64v1.632h2.076v3.828h-0.601v-0.624h-3.588v0.624h-0.6v-3.828h2.063v-1.632H331.436z M334.1,121.77h-2.615
				l-0.013,1.572h2.628V121.77z M336.428,119.634h-4.943v1.548h4.943V119.634z M332.636,128.19h3.588v-2.005h-3.588V128.19z"/>
			<path style="fill:#878787;" d="M342.56,124.098c-0.456,0.248-0.956,0.5-1.5,0.756v3.576c0,0.592-0.296,0.889-0.888,0.889h-1.14
				l-0.145-0.624c0.48,0.031,0.832,0.048,1.057,0.048c0.319,0,0.479-0.16,0.479-0.48v-3.132c-0.616,0.24-1.168,0.44-1.656,0.601
				l-0.155-0.648c0.56-0.152,1.164-0.352,1.812-0.6v-3.108h-1.74v-0.612h1.74v-2.244h0.636v2.244h1.5v0.612h-1.5v2.844
				c0.576-0.271,1.076-0.527,1.5-0.768V124.098z M344.912,124.314c0.544,0.216,1.092,0.464,1.644,0.743v-2.399h-2.615v1.296
				c-0.072,2.312-0.616,4.148-1.633,5.508l-0.468-0.492c0.92-1.224,1.416-2.896,1.488-5.016v-4.44
				c1.983-0.04,3.775-0.344,5.376-0.912l0.312,0.564c-1.496,0.512-3.188,0.804-5.075,0.876v2.016h5.424v0.601h-2.16v2.735
				c0.68,0.36,1.408,0.809,2.184,1.345l-0.348,0.527c-0.632-0.464-1.244-0.855-1.836-1.176v3.36h-0.648v-3.72
				c-0.64-0.337-1.304-0.641-1.991-0.912L344.912,124.314z"/>
			<path style="fill:#878787;" d="M355.052,119.046c-0.568,1.04-1.136,1.88-1.704,2.521c-0.664,0.735-1.472,1.428-2.424,2.075
				l-0.372-0.575c0.864-0.496,1.632-1.137,2.305-1.92c0.632-0.721,1.18-1.532,1.644-2.437L355.052,119.046z M352.268,123.93v-0.611
				h7.164c-0.031,1.464-0.104,2.651-0.216,3.563c-0.12,0.896-0.312,1.524-0.576,1.884c-0.264,0.353-0.691,0.54-1.283,0.564h-2.244
				l-0.168-0.624c0.991,0.016,1.691,0.024,2.1,0.024c0.664,0,1.104-0.293,1.32-0.877c0.208-0.6,0.348-1.907,0.42-3.924h-3.42
				c-0.288,1.376-0.688,2.456-1.2,3.24c-0.584,0.824-1.464,1.572-2.64,2.244l-0.408-0.516c1.071-0.593,1.888-1.256,2.448-1.992
				c0.527-0.744,0.911-1.736,1.151-2.977H352.268z M357.68,118.578c0.704,1.855,1.956,3.324,3.756,4.404l-0.443,0.504
				c-1.849-1.177-3.137-2.708-3.864-4.597L357.68,118.578z"/>
		</g>
	</g>
	<g>
		<g>
			<path style="fill:#878787;" d="M470.764,125.094h-3.516c-0.152,0.769-0.353,1.42-0.6,1.956c-0.505,1.017-1.332,1.816-2.484,2.4
				l-0.384-0.601c1.111-0.56,1.896-1.327,2.352-2.304c0.185-0.408,0.332-0.892,0.444-1.452h-2.893v-0.636h3
				c0.064-0.528,0.104-1.128,0.12-1.8v-1.212h-2.628v-0.637h6.084c0.496-0.775,0.916-1.596,1.26-2.46l0.696,0.24
				c-0.359,0.832-0.764,1.572-1.212,2.22h2.856v0.637h-2.448v3.012h2.916v0.636h-2.916v4.272h-0.648V125.094z M466.504,118.35
				c0.464,0.673,0.864,1.349,1.2,2.028l-0.588,0.288c-0.384-0.76-0.784-1.436-1.2-2.028L466.504,118.35z M470.764,121.446h-3.312
				v1.212c-0.008,0.647-0.044,1.248-0.108,1.8h3.42V121.446z"/>
			<path style="fill:#878787;" d="M476.512,122.022l0.948-3.192l0.648,0.096l-0.757,2.484h2.353c0.256-0.968,0.46-1.984,0.612-3.048
				l0.659,0.071c-0.184,1.145-0.384,2.137-0.6,2.977h5.7v0.612h-5.868c-0.185,0.615-0.36,1.14-0.528,1.571h4.98v0.564
				c-0.336,1.063-1.032,2.036-2.088,2.916c1.016,0.64,2.26,1.216,3.731,1.728l-0.323,0.601c-1.616-0.593-2.929-1.232-3.937-1.92
				c-0.992,0.712-2.252,1.363-3.78,1.956l-0.336-0.601c1.424-0.52,2.612-1.104,3.564-1.752c-1.048-0.8-1.776-1.668-2.185-2.604
				c-0.896,1.991-2.044,3.563-3.443,4.716l-0.336-0.601c1.84-1.6,3.176-3.792,4.008-6.575H476.512z M479.824,124.194
				c0.408,0.92,1.14,1.756,2.195,2.508c0.969-0.769,1.628-1.604,1.98-2.508H479.824z M482.992,118.53
				c0.888,0.688,1.615,1.364,2.184,2.027l-0.468,0.469c-0.536-0.673-1.256-1.364-2.16-2.076L482.992,118.53z"/>
			<path style="fill:#878787;" d="M492.052,119.046c-0.568,1.04-1.136,1.88-1.704,2.521c-0.664,0.735-1.472,1.428-2.424,2.075
				l-0.372-0.575c0.864-0.496,1.632-1.137,2.305-1.92c0.632-0.721,1.18-1.532,1.644-2.437L492.052,119.046z M489.268,123.93v-0.611
				h7.164c-0.031,1.464-0.104,2.651-0.216,3.563c-0.12,0.896-0.312,1.524-0.576,1.884c-0.264,0.353-0.691,0.54-1.283,0.564h-2.244
				l-0.168-0.624c0.991,0.016,1.691,0.024,2.1,0.024c0.664,0,1.104-0.293,1.32-0.877c0.208-0.6,0.348-1.907,0.42-3.924h-3.42
				c-0.288,1.376-0.688,2.456-1.2,3.24c-0.584,0.824-1.464,1.572-2.64,2.244l-0.408-0.516c1.071-0.593,1.888-1.256,2.448-1.992
				c0.527-0.744,0.911-1.736,1.151-2.977H489.268z M494.68,118.578c0.704,1.855,1.956,3.324,3.756,4.404l-0.443,0.504
				c-1.849-1.177-3.137-2.708-3.864-4.597L494.68,118.578z"/>
			<path style="fill:#878787;" d="M502.204,129.39h-0.648v-6.468c-0.439,1.368-1.023,2.568-1.752,3.601l-0.288-0.696
				c0.96-1.264,1.633-2.696,2.017-4.296h-1.788v-0.637h1.812v-2.424h0.648v2.424h1.704v0.637h-1.704v0.695
				c0.567,0.593,1.168,1.305,1.8,2.137l-0.36,0.527c-0.552-0.815-1.031-1.476-1.439-1.979V129.39z M510.004,119.13
				c-1.392,0.521-2.939,0.816-4.644,0.888v2.364h4.956v0.636h-1.872v6.385h-0.66v-6.385h-2.424v0.24
				c-0.072,2.536-0.672,4.561-1.801,6.072l-0.468-0.492c1.016-1.352,1.564-3.212,1.645-5.58v-3.792
				c1.84-0.048,3.487-0.355,4.943-0.924L510.004,119.13z"/>
			<path style="fill:#878787;" d="M514.624,118.566c-0.12,0.647-0.252,1.26-0.396,1.836h2.725v0.575
				c-0.344,2.129-0.98,3.908-1.908,5.341c0.328,0.52,0.676,0.912,1.044,1.176c0.976,0.688,2.516,1.04,4.62,1.056
				c0.504,0,1.088-0.02,1.752-0.06l-0.132,0.684h-1.309c-2.432,0-4.199-0.4-5.304-1.2c-0.376-0.279-0.72-0.655-1.032-1.128
				c-0.752,1-1.64,1.812-2.664,2.437l-0.348-0.612c1.048-0.624,1.924-1.439,2.628-2.448c-0.448-0.855-0.824-1.872-1.128-3.048
				c-0.344,0.656-0.708,1.212-1.092,1.668l-0.444-0.54c1.168-1.447,1.956-3.399,2.364-5.855L514.624,118.566z M514.672,125.658
				c0.776-1.296,1.324-2.844,1.645-4.645h-2.269c-0.136,0.433-0.3,0.876-0.492,1.332C513.868,123.69,514.24,124.794,514.672,125.658
				z M518.788,118.53h0.647v3.06c0.977,0.704,1.988,1.544,3.036,2.521l-0.372,0.575c-1.016-1.016-1.903-1.823-2.664-2.424v5.256
				h-0.647V118.53z"/>
			<path style="fill:#878787;" d="M523.816,122.994h1.367v-3.048h-1.548v-0.624h3.732v0.624h-1.536v3.048h1.392v0.624h-1.392v2.939
				c0.52-0.184,1.04-0.388,1.56-0.611v0.624c-1.144,0.504-2.399,0.924-3.768,1.26l-0.156-0.612c0.521-0.104,1.092-0.252,1.716-0.443
				v-3.156h-1.367V122.994z M528.16,118.998h5.651v5.412h-2.495v1.644h2.735v0.624h-2.735v1.729h3.119v0.636h-6.888v-0.636h3.12
				v-1.729h-2.76v-0.624h2.76v-1.644h-2.508V118.998z M528.796,121.41h1.872v-1.824h-1.872V121.41z M530.668,123.822v-1.836h-1.872
				v1.836H530.668z M531.316,119.586v1.824h1.859v-1.824H531.316z M533.176,123.822v-1.836h-1.859v1.836H533.176z"/>
		</g>
	</g>
	<g>
		<g>
			<path style="fill:#878787;" d="M669.552,119.046c-0.568,1.04-1.136,1.88-1.704,2.521c-0.664,0.735-1.472,1.428-2.424,2.075
				l-0.372-0.575c0.864-0.496,1.632-1.137,2.305-1.92c0.632-0.721,1.18-1.532,1.644-2.437L669.552,119.046z M666.768,123.93v-0.611
				h7.164c-0.031,1.464-0.104,2.651-0.216,3.563c-0.12,0.896-0.312,1.524-0.576,1.884c-0.264,0.353-0.691,0.54-1.283,0.564h-2.244
				l-0.168-0.624c0.991,0.016,1.691,0.024,2.1,0.024c0.664,0,1.104-0.293,1.32-0.877c0.208-0.6,0.348-1.907,0.42-3.924h-3.42
				c-0.288,1.376-0.688,2.456-1.2,3.24c-0.584,0.824-1.464,1.572-2.64,2.244l-0.408-0.516c1.071-0.593,1.888-1.256,2.448-1.992
				c0.527-0.744,0.911-1.736,1.151-2.977H666.768z M672.18,118.578c0.704,1.855,1.956,3.324,3.756,4.404l-0.443,0.504
				c-1.849-1.177-3.137-2.708-3.864-4.597L672.18,118.578z"/>
			<path style="fill:#878787;" d="M679.704,129.39h-0.648v-6.468c-0.439,1.368-1.023,2.568-1.752,3.601l-0.288-0.696
				c0.96-1.264,1.633-2.696,2.017-4.296h-1.788v-0.637h1.812v-2.424h0.648v2.424h1.704v0.637h-1.704v0.695
				c0.567,0.593,1.168,1.305,1.8,2.137l-0.36,0.527c-0.552-0.815-1.031-1.476-1.439-1.979V129.39z M687.504,119.13
				c-1.392,0.521-2.939,0.816-4.644,0.888v2.364h4.956v0.636h-1.872v6.385h-0.66v-6.385h-2.424v0.24
				c-0.072,2.536-0.672,4.561-1.801,6.072l-0.468-0.492c1.016-1.352,1.564-3.212,1.645-5.58v-3.792
				c1.84-0.048,3.487-0.355,4.943-0.924L687.504,119.13z"/>
			<path style="fill:#878787;" d="M693.444,127.758c-1.232,0.456-2.62,0.828-4.164,1.116l-0.084-0.636
				c1.6-0.265,3.016-0.632,4.248-1.104V127.758z M691.968,118.698c-0.64,1.632-1.292,2.928-1.956,3.888
				c0.648-0.072,1.296-0.168,1.944-0.288l0.744-1.392l0.576,0.216c-1.16,2.16-2.12,3.66-2.88,4.5
				c0.991-0.184,1.959-0.44,2.903-0.769v0.601c-1.288,0.424-2.516,0.72-3.684,0.888l-0.181-0.611
				c0.12-0.049,0.217-0.108,0.288-0.181c0.536-0.536,1.164-1.416,1.885-2.64c-0.729,0.12-1.469,0.228-2.221,0.324l-0.155-0.601
				c0.104-0.048,0.195-0.132,0.275-0.252c0.696-1.104,1.312-2.412,1.849-3.924L691.968,118.698z M693.336,120.042h2.952v-1.536
				h0.647v1.536h2.94v0.624h-2.94v1.992h2.593v0.624h-5.796v-0.624h2.556v-1.992h-2.952V120.042z M699.108,124.686v4.692h-0.624
				v-0.636h-3.673v0.636h-0.636v-4.692H699.108z M694.812,128.118h3.673v-2.809h-3.673V128.118z"/>
			<path style="fill:#878787;" d="M702.576,119.01h7.788v4.477h-3.54v1.271h4.824v0.612h-4.152c0.84,1.168,2.312,2.208,4.416,3.12
				l-0.456,0.552c-2.16-1.104-3.66-2.328-4.5-3.672h-0.132v4.056h-0.648v-4.056h-0.132c-0.896,1.488-2.428,2.712-4.596,3.672
				l-0.36-0.588c2.064-0.8,3.54-1.828,4.428-3.084h-4.164v-0.612h4.824v-1.271h-3.6V119.01z M703.224,120.978h2.952v-1.38h-2.952
				V120.978z M706.176,122.922v-1.368h-2.952v1.368H706.176z M706.824,119.598v1.38h2.88v-1.38H706.824z M709.704,122.922v-1.368
				h-2.88v1.368H709.704z"/>
			<path style="fill:#878787;" d="M713.664,121.674c0.888,0.601,1.628,1.196,2.22,1.788l-0.468,0.456
				c-0.568-0.584-1.304-1.18-2.208-1.788L713.664,121.674z M715.86,125.394c-0.528,1.353-1.145,2.677-1.849,3.973l-0.66-0.288
				c0.729-1.264,1.368-2.572,1.921-3.924L715.86,125.394z M713.88,118.698c0.952,0.647,1.748,1.288,2.388,1.92l-0.468,0.468
				c-0.607-0.632-1.403-1.275-2.388-1.932L713.88,118.698z M717.852,128.358h5.929v0.659h-6.588v-9.983h6.479v0.647h-5.82V128.358z"
				/>
			<path style="fill:#878787;" d="M726.924,125.61c-0.32,1.279-0.756,2.368-1.308,3.264l-0.564-0.348
				c0.568-0.88,0.984-1.893,1.248-3.036L726.924,125.61z M726.804,120.654h4.572c0.528-0.736,0.972-1.5,1.332-2.292l0.612,0.216
				c-0.433,0.856-0.849,1.548-1.248,2.076h2.124v3.72h-7.393V120.654z M733.536,123.75v-2.472h-6.072v2.472H733.536z M728.1,118.398
				c0.433,0.512,0.868,1.115,1.309,1.812l-0.54,0.288c-0.424-0.696-0.868-1.304-1.332-1.824L728.1,118.398z M729.156,129.27
				c-0.696,0-1.044-0.363-1.044-1.092v-2.567h0.66v2.424c0,0.408,0.195,0.612,0.588,0.612h2.712c0.304,0,0.516-0.072,0.636-0.217
				c0.168-0.191,0.276-0.744,0.324-1.655l0.611,0.203c-0.071,1.072-0.228,1.736-0.468,1.992c-0.216,0.2-0.544,0.3-0.983,0.3H729.156
				z M730.62,124.974c0.479,0.664,0.884,1.349,1.212,2.053l-0.6,0.264c-0.345-0.776-0.744-1.484-1.2-2.124L730.62,124.974z
				 M734.4,125.262c0.583,0.969,1.071,1.96,1.464,2.977l-0.588,0.275c-0.456-1.144-0.956-2.16-1.5-3.048L734.4,125.262z"/>
		</g>
	</g>
</g>
</svg>
