<?xml version="1.0" encoding="utf-8"?>
<!-- Generator: Adobe Illustrator 17.0.0, SVG Export Plug-In . SVG Version: 6.00 Build 0)  -->
<!DOCTYPE svg PUBLIC "-//W3C//DTD SVG 1.1//EN" "http://www.w3.org/Graphics/SVG/1.1/DTD/svg11.dtd">
<svg version="1.1" id="图层_1" xmlns="http://www.w3.org/2000/svg" xmlns:xlink="http://www.w3.org/1999/xlink" x="0px" y="0px"
	 width="830px" height="242px" viewBox="0 0 830 242" style="enable-background:new 0 0 830 242;" xml:space="preserve">
<g>
	<g>
		<g style="opacity:0.6;">
			<rect x="38" y="109" style="fill:#BBBBBB;" width="117" height="50"/>
		</g>
		<g>
			<rect x="36.5" y="107.5" style="fill:#FFFFFF;" width="116" height="49"/>
			<path style="fill:#E5E5E5;" d="M152,108v48H37v-48H152 M153,107H36v50h117V107L153,107z"/>
		</g>
		<rect x="56" y="116" style="opacity:0;fill:#CB3333;" width="32" height="32"/>
		<g>
			<path style="fill:#444444;" d="M104.215,127.883c-0.233,0.363-0.448,0.672-0.644,0.924h5.166v0.812
				c-0.569,0.793-1.396,1.498-2.479,2.113c1.513,0.598,3.221,0.967,5.124,1.107l-0.224,0.908c-2.25-0.168-4.233-0.666-5.95-1.498
				c-1.634,0.748-3.72,1.34-6.258,1.779l-0.378-0.896c2.305-0.373,4.177-0.844,5.614-1.414c-0.71-0.42-1.368-0.896-1.975-1.428
				c-0.514,0.467-1.097,0.906-1.75,1.316l-0.644-0.785c1.381-0.793,2.52-1.842,3.416-3.148L104.215,127.883z M110.683,126.469v2.646
				h-1.021v-1.736h-9.324v1.736h-1.021v-2.646h5.124c-0.178-0.373-0.351-0.699-0.519-0.98l1.106-0.168
				c0.103,0.205,0.266,0.588,0.489,1.148H110.683z M109.116,133.916v4.383h-0.98v-0.602h-6.02v0.602h-0.98v-4.383H109.116z
				 M102.116,136.787h6.02v-1.961h-6.02V136.787z M107.534,129.66h-4.69l-0.042,0.043c0.719,0.598,1.526,1.119,2.422,1.568
				C106.175,130.805,106.946,130.268,107.534,129.66z"/>
			<path style="fill:#444444;" d="M115.192,131.846c-0.075,2.51-0.737,4.666-1.988,6.467l-0.742-0.672
				c1.129-1.559,1.708-3.598,1.736-6.117v-4.383h4.563c-0.261-0.615-0.531-1.162-0.812-1.637l1.078-0.17
				c0.252,0.533,0.504,1.135,0.756,1.807h4.424v4.705H115.192z M123.185,128.135h-7.993v2.73h7.993V128.135z"/>
		</g>
		<g>
			<g>
				<path style="fill:#878787;" d="M68,122c2.206,0,4,1.794,4,4s-1.794,4-4,4s-4-1.794-4-4S65.794,122,68,122 M68,120
					c-3.314,0-6,2.686-6,6s2.686,6,6,6s6-2.686,6-6S71.314,120,68,120L68,120z"/>
			</g>
			<g>
				<path style="fill:#878787;" d="M72.004,136c3.306,0,5.996,2.69,5.996,5.996V143H58v-1.004c0-3.306,2.69-5.996,5.996-5.996
					H72.004 M72.004,134h-8.007C59.58,134,56,137.58,56,141.996V145h24v-3.004C80,137.58,76.42,134,72.004,134L72.004,134z"/>
			</g>
			<path style="fill:#878787;" d="M80.998,134h-3.021c0.76,0.569,1.435,1.242,2.006,2h1.015c2.207,0,4.002,1.795,4.002,4.002V141
				h-3.05c0.033,0.328,0.05,0.66,0.05,0.996V143h5v-2.998C87,136.687,84.313,134,80.998,134z"/>
			<path style="fill:#878787;" d="M77,121c-0.845,0-1.628,0.229-2.326,0.599c0.365,0.552,0.659,1.153,0.88,1.789
				C75.984,123.148,76.473,123,77,123c1.654,0,3,1.346,3,3s-1.346,3-3,3c-0.527,0-1.016-0.148-1.447-0.388
				c-0.221,0.636-0.514,1.237-0.88,1.789C75.372,130.771,76.155,131,77,131c2.761,0,5-2.239,5-5S79.761,121,77,121z"/>
		</g>
	</g>
	<g>
		<rect x="210" y="40" style="fill:#EAEBEC;" width="341" height="160"/>
		<g>
			<path style="fill:#444444;" d="M224.003,52.004h1.009L229.016,62h-0.938l-1.162-2.982H222.1L220.938,62h-0.938L224.003,52.004z
				 M222.379,58.29h4.257l-2.101-5.362h-0.042L222.379,58.29z"/>
			<path style="fill:#444444;" d="M230.163,52.004h0.854V62h-0.854V52.004z"/>
			<path style="fill:#444444;" d="M237.023,57.212c-0.561,0.271-1.031,0.485-1.414,0.645v4.256c0,0.681-0.364,1.021-1.092,1.021
				h-1.303l-0.168-0.742c0.561,0.037,0.962,0.057,1.204,0.057c0.411,0,0.616-0.178,0.616-0.532V58.15
				c-0.616,0.224-1.246,0.434-1.89,0.63l-0.196-0.756c0.672-0.159,1.367-0.364,2.086-0.616v-3.444h-1.904v-0.742h1.904v-2.66h0.742
				v2.66h1.512v0.742h-1.512v3.15c0.504-0.225,0.975-0.448,1.414-0.672V57.212z M239.18,62.658v0.672h-0.742v-8.554
				c-0.374,0.597-0.794,1.185-1.26,1.764l-0.253-0.798c1.177-1.577,2.003-3.281,2.479-5.11l0.756,0.141
				c-0.224,0.812-0.504,1.596-0.84,2.352h5.908v0.728h-2.562v2.143h2.282v0.728h-2.282v2.143h2.282v0.728h-2.282v2.338h2.716v0.729
				H239.18z M241.923,53.852h-2.743v2.143h2.743V53.852z M239.18,56.722v2.143h2.743v-2.143H239.18z M239.18,59.592v2.338h2.743
				v-2.338H239.18z M242.021,50.604c0.326,0.775,0.583,1.508,0.77,2.198l-0.658,0.238c-0.261-0.821-0.546-1.568-0.854-2.24
				L242.021,50.604z"/>
			<path style="fill:#444444;" d="M247.117,55.868h1.596v-3.557h-1.806v-0.728h4.354v0.728h-1.792v3.557h1.624v0.728h-1.624v3.431
				c0.606-0.215,1.213-0.453,1.819-0.715v0.729c-1.335,0.588-2.8,1.078-4.396,1.47l-0.183-0.714
				c0.607-0.121,1.274-0.294,2.002-0.518v-3.683h-1.596V55.868z M252.186,51.206h6.594v6.313h-2.912v1.919h3.192v0.728h-3.192v2.016
				h3.64v0.742h-8.035v-0.742h3.64v-2.016h-3.22v-0.728h3.22V57.52h-2.926V51.206z M252.928,54.02h2.184v-2.128h-2.184V54.02z
				 M255.111,56.834v-2.142h-2.184v2.142H255.111z M255.867,51.892v2.128h2.17v-2.128H255.867z M258.037,56.834v-2.142h-2.17v2.142
				H258.037z"/>
			<path style="fill:#444444;" d="M262.587,58.5c-0.065,1.97-0.383,3.598-0.951,4.886l-0.589-0.518
				c0.569-1.325,0.859-2.986,0.868-4.984v-6.622h3.893v10.893c0,0.784-0.364,1.176-1.093,1.176h-1.119l-0.183-0.672
				c0.522,0.019,0.882,0.027,1.078,0.027c0.401,0,0.603-0.261,0.603-0.783V58.5H262.587z M265.094,54.552v-2.576h-2.492v2.576
				H265.094z M262.602,55.238v2.548h2.492v-2.548H262.602z M267.852,57.114v6.258h-0.714v-12.11h5.516
				c0,1.652-0.084,2.754-0.252,3.305c-0.149,0.56-0.672,0.84-1.568,0.84h-1.078l-0.21-0.658h0.938c0.364,0,0.635-0.028,0.812-0.084
				c0.178-0.056,0.312-0.196,0.406-0.42c0.121-0.383,0.187-1.144,0.196-2.282h-4.046v4.466h4.802v0.645
				c-0.299,1.521-0.793,2.795-1.484,3.821c0.672,0.673,1.475,1.27,2.408,1.792l-0.364,0.631c-0.989-0.569-1.811-1.186-2.464-1.849
				c-0.625,0.766-1.381,1.386-2.268,1.862l-0.393-0.603c0.868-0.494,1.587-1.092,2.156-1.792c-0.952-1.119-1.596-2.394-1.932-3.821
				H267.852z M268.972,57.114c0.308,1.204,0.872,2.286,1.693,3.248c0.598-0.924,1.031-2.007,1.302-3.248H268.972z"/>
			<path style="fill:#444444;" d="M279.892,50.66c-0.159,0.373-0.359,0.761-0.603,1.162h6.202v0.616
				c-0.934,1.082-2.081,1.997-3.444,2.743c1.624,0.729,3.453,1.204,5.488,1.429l-0.336,0.714c-2.23-0.262-4.224-0.835-5.978-1.723
				c-1.728,0.794-3.752,1.372-6.076,1.736l-0.351-0.7c2.146-0.298,4.023-0.788,5.628-1.47c-0.887-0.532-1.698-1.125-2.436-1.778
				c-0.569,0.532-1.199,0.999-1.89,1.4l-0.462-0.602c1.717-0.98,2.879-2.193,3.485-3.641L279.892,50.66z M281.222,56.722
				c0,0.579-0.052,1.148-0.154,1.708h4.984c-0.028,2.315-0.243,3.691-0.645,4.13c-0.411,0.458-1.12,0.687-2.128,0.687
				c-0.42,0-0.934-0.014-1.54-0.042l-0.196-0.7c0.84,0.037,1.363,0.056,1.568,0.056c0.934-0.019,1.517-0.205,1.75-0.56
				c0.233-0.373,0.378-1.335,0.434-2.884h-4.396c-0.149,0.448-0.312,0.831-0.49,1.147c-0.747,1.261-2.39,2.296-4.928,3.108
				l-0.504-0.603c2.296-0.681,3.836-1.559,4.62-2.632c0.177-0.289,0.34-0.63,0.489-1.021h-4.325V58.43h4.535
				c0.122-0.578,0.183-1.147,0.183-1.708H281.222z M284.413,52.536h-5.642c-0.131,0.149-0.225,0.262-0.28,0.336
				c0.812,0.737,1.727,1.377,2.744,1.918C282.467,54.165,283.526,53.413,284.413,52.536z"/>
		</g>
	</g>
	<g>
		<g style="opacity:0.6;">
			<rect x="221" y="109" style="fill:#BBBBBB;" width="133" height="50"/>
		</g>
		<g>
			<rect x="219.5" y="107.5" style="fill:#FFFFFF;" width="132" height="49"/>
			<path style="fill:#E5E5E5;" d="M351,108v48H220v-48H351 M352,107H219v50h133V107L352,107z"/>
		</g>
		<rect x="239" y="116" style="opacity:0;fill:#CB3333;" width="32" height="32"/>
		<g>
			<path style="fill:#444444;" d="M284.933,126.861h1.33l3.935,9.996h-1.246l-1.064-2.801h-4.592l-1.063,2.801H281L284.933,126.861z
				 M283.66,133.092h3.864l-1.891-4.998h-0.056L283.66,133.092z"/>
			<path style="fill:#444444;" d="M291.206,126.861h4.088c2.296,0,3.444,0.98,3.444,2.939c0,1.979-1.153,2.969-3.458,2.969h-2.926
				v4.088h-1.148V126.861z M292.354,127.855v3.92h2.87c0.793,0,1.391-0.164,1.792-0.49c0.382-0.326,0.573-0.822,0.573-1.484
				c0-0.682-0.195-1.166-0.588-1.455c-0.383-0.328-0.976-0.49-1.777-0.49H292.354z"/>
			<path style="fill:#444444;" d="M300.277,126.861h1.134v9.996h-1.134V126.861z"/>
			<path style="fill:#444444;" d="M312.429,138.174l-0.266-0.98l1.344,0.041c0.393,0,0.588-0.191,0.588-0.574v-9.701h-9.184v11.27
				h-0.994v-12.236h11.172v10.893c0,0.859-0.415,1.289-1.246,1.289H312.429z M309.097,135.078c-0.401-0.633-0.845-1.307-1.33-2.016
				c-0.494,1.363-1.105,2.539-1.834,3.529l-0.644-0.785c0.728-1.035,1.33-2.264,1.806-3.682c-0.644-0.859-1.302-1.676-1.974-2.449
				l0.63-0.604c0.56,0.588,1.115,1.252,1.666,1.988c0.271-1.008,0.49-2.062,0.658-3.164l0.924,0.168
				c-0.224,1.438-0.519,2.754-0.882,3.949c0.616,0.84,1.166,1.637,1.651,2.393L309.097,135.078z M313.2,135.723
				c-0.401-0.689-0.873-1.465-1.414-2.324c-0.561,1.373-1.218,2.549-1.975,3.529l-0.644-0.771c0.793-1.072,1.446-2.318,1.96-3.738
				c-0.69-1.016-1.33-1.885-1.918-2.604l0.63-0.602c0.569,0.645,1.12,1.35,1.652,2.113c0.289-0.971,0.536-2.1,0.742-3.387
				l0.951,0.168c-0.252,1.549-0.588,2.953-1.008,4.213c0.588,0.896,1.157,1.807,1.708,2.73L313.2,135.723z"/>
			<path style="fill:#444444;" d="M327.074,125.615c-0.336,1.018-0.756,1.922-1.261,2.715h2.885v0.98h-4.677v0.658
				c-0.027,0.775-0.093,1.424-0.195,1.945h5.684v0.98h-5.096c0.69,1.895,2.501,3.365,5.432,4.41l-0.588,0.938
				c-3.07-1.24-4.984-2.93-5.74-5.066c-0.271,0.811-0.625,1.512-1.063,2.1c-0.962,1.24-2.516,2.201-4.662,2.883l-0.546-0.881
				c2.146-0.691,3.64-1.596,4.479-2.717c0.346-0.514,0.611-1.068,0.798-1.666h-5.025v-0.98h5.278c0.13-0.615,0.2-1.264,0.21-1.945
				v-0.658h-4.69v-0.98h6.398c0.513-0.783,0.984-1.777,1.413-2.98L327.074,125.615z M320.843,125.475
				c0.579,0.756,1.11,1.549,1.596,2.381l-0.909,0.461c-0.514-0.914-1.051-1.713-1.61-2.393L320.843,125.475z"/>
		</g>
		<g id="图层_1_4_">
			<g>
				<path style="fill:#00A4FF;" d="M254.2,146c-7.2,0-13-5.8-13-13s5.8-13,13-13c6.5,0,11.9,4.8,12.8,11h2c-1-7.3-7.2-13-14.9-13
					c-8.3,0-15,6.7-15,15s6.7,15,15,15c7.6,0,13.9-5.7,14.9-13h-2C266.1,141.2,260.7,146,254.2,146z"/>
				<rect x="246.2" y="128" style="fill:#00A4FF;" width="16" height="2"/>
				<rect x="246.2" y="139" style="fill:#00A4FF;" width="16" height="2"/>
				<rect x="246.2" y="128" style="fill:#00A4FF;" width="2" height="3"/>
				<rect x="246.2" y="138" style="fill:#00A4FF;" width="2" height="3"/>
				<rect x="260.2" y="138" style="fill:#00A4FF;" width="2" height="3"/>
				<rect x="260.2" y="128" style="fill:#00A4FF;" width="2" height="3"/>
				<rect x="249.2" y="124" style="fill:#00A4FF;" width="2" height="4"/>
				<rect x="257.2" y="124" style="fill:#00A4FF;" width="2" height="4"/>
				<rect x="247.2" y="132" style="fill:#00A4FF;" width="2" height="5"/>
				<rect x="250.2" y="132" style="fill:#00A4FF;" width="2" height="5"/>
				<rect x="248.2" y="132" style="fill:#00A4FF;" width="3" height="1"/>
				<rect x="248.2" y="134" style="fill:#00A4FF;" width="3" height="1"/>
				<rect x="254.2" y="132" style="fill:#00A4FF;" width="4" height="1"/>
				<rect x="253.2" y="134" style="fill:#00A4FF;" width="4" height="1"/>
				<rect x="253.2" y="132" style="fill:#00A4FF;" width="2" height="5"/>
				<rect x="256.2" y="132" style="fill:#00A4FF;" width="2" height="3"/>
				<rect x="259.2" y="132" style="fill:#00A4FF;" width="2" height="5"/>
			</g>
		</g>
	</g>
	<g>
		
			<line style="fill-rule:evenodd;clip-rule:evenodd;fill:none;stroke:#878787;stroke-miterlimit:10;" x1="398" y1="134.5" x2="354" y2="134.5"/>
		<polygon style="fill-rule:evenodd;clip-rule:evenodd;fill:#878787;" points="396,139 401,134.5 396,130 		"/>
	</g>
	<g>
		
			<line style="fill-rule:evenodd;clip-rule:evenodd;fill:none;stroke:#878787;stroke-miterlimit:10;" x1="199" y1="134.5" x2="155" y2="134.5"/>
		<polygon style="fill-rule:evenodd;clip-rule:evenodd;fill:#878787;" points="197,139 202,134.5 197,130 		"/>
	</g>
	<g>
		
			<line style="fill-rule:evenodd;clip-rule:evenodd;fill:none;stroke:#878787;stroke-miterlimit:10;" x1="595" y1="134.5" x2="551" y2="134.5"/>
		<polygon style="fill-rule:evenodd;clip-rule:evenodd;fill:#878787;" points="593,139 598,134.5 593,130 		"/>
	</g>
	<g>
		<g>
			<rect x="405" y="81" style="fill:#CEE3FF;" width="135" height="104"/>
			<g>
				<g>
					<path style="fill:#00A4FF;" d="M436.741,97.28h12.558v1.008h-6.72c-1.27,2.613-2.394,4.452-3.374,5.516
						c2.511-0.14,5.021-0.378,7.532-0.714c-0.504-0.896-1.064-1.82-1.68-2.771l0.812-0.504c1.269,1.903,2.263,3.588,2.982,5.054
						l-0.896,0.63c-0.243-0.522-0.485-1.018-0.728-1.484c-2.697,0.346-5.796,0.635-9.296,0.868l-0.266-1.021
						c0.056-0.019,0.135-0.052,0.238-0.099c0.905-0.681,2.091-2.506,3.556-5.474h-4.718V97.28z M438.085,93.374h9.968v0.979h-9.968
						V93.374z"/>
					<path style="fill:#00A4FF;" d="M461.661,95.642h0.966v9.786h-0.966v-0.784h-9.324v0.771h-0.966v-9.786h0.966v8.092h9.324
						V95.642z M452.603,101.312c1.428-0.83,2.809-1.88,4.144-3.149v-2.395c1.391-0.69,2.445-1.265,3.164-1.722h-7.154v-0.952h8.666
						v0.952c-1.083,0.747-2.329,1.508-3.738,2.282v2.142c1.232,0.859,2.464,1.815,3.696,2.87l-0.588,0.882
						c-1.195-1.157-2.231-2.071-3.108-2.744v2.353c0,0.821-0.383,1.231-1.148,1.231h-1.274l-0.252-0.938
						c0.466,0.019,0.854,0.028,1.162,0.028c0.383,0,0.574-0.225,0.574-0.672V99.31c-1.204,1.14-2.469,2.133-3.794,2.982
						L452.603,101.312z M453.849,96.076c0.877,0.812,1.535,1.493,1.974,2.044l-0.77,0.532c-0.439-0.598-1.087-1.303-1.946-2.114
						L453.849,96.076z M461.031,96.37c-0.551,0.887-1.214,1.666-1.988,2.338l-0.728-0.518c0.737-0.626,1.372-1.363,1.904-2.213
						L461.031,96.37z"/>
					<path style="fill:#00A4FF;" d="M468.255,99.17l-0.28,0.771h2.912v0.854c-0.308,0.915-0.817,1.708-1.526,2.38
						c0.663,0.28,1.293,0.588,1.89,0.924l-0.546,0.812c-0.644-0.383-1.354-0.747-2.128-1.092c-0.943,0.644-2.109,1.162-3.5,1.554
						l-0.49-0.868c1.167-0.308,2.146-0.69,2.94-1.147l-1.946-0.784c0.392-0.645,0.709-1.219,0.952-1.723h-1.638V99.94h2.058
						c0.233-0.653,0.34-0.947,0.322-0.883L468.255,99.17z M464.937,95.25h2.73v-2.674h0.938v2.674h2.548v0.882h-2.548v0.154
						c0.765,0.383,1.54,0.812,2.324,1.288l-0.518,0.784c-0.7-0.561-1.302-1.009-1.806-1.345v1.82h-0.938v-2.66
						c-0.458,1.092-1.293,2.049-2.506,2.87l-0.49-0.812c1.083-0.635,1.834-1.335,2.254-2.101h-1.988V95.25z M466.001,92.87
						c0.364,0.569,0.663,1.144,0.896,1.722l-0.784,0.364c-0.289-0.663-0.606-1.265-0.952-1.806L466.001,92.87z M469.935,100.85
						h-2.366c-0.233,0.477-0.485,0.92-0.756,1.33c0.56,0.196,1.087,0.393,1.582,0.588
						C469.095,102.199,469.608,101.56,469.935,100.85z M471.027,93.164c-0.289,0.635-0.648,1.241-1.078,1.82l-0.756-0.406
						c0.448-0.635,0.793-1.236,1.036-1.806L471.027,93.164z M472.539,97.924c-0.243,0.616-0.518,1.19-0.826,1.723l-0.63-0.771
						c0.831-1.577,1.386-3.691,1.666-6.342l0.98,0.168c-0.065,0.579-0.168,1.246-0.308,2.002h3.696v0.966h-0.91
						c-0.056,2.333-0.471,4.331-1.246,5.992c0.737,1.231,1.601,2.18,2.59,2.842l-0.574,0.854c-0.961-0.673-1.797-1.592-2.506-2.759
						c-0.682,1.12-1.55,2.059-2.604,2.814l-0.532-0.854c1.092-0.756,1.955-1.73,2.59-2.926
						C473.374,100.533,472.912,99.296,472.539,97.924z M473.211,95.67c-0.093,0.336-0.159,0.583-0.196,0.742
						c0.345,1.587,0.802,2.981,1.372,4.186c0.541-1.418,0.84-3.061,0.896-4.928H473.211z"/>
				</g>
			</g>
			<g>
				<polygon style="fill:#00A4FF;" points="422,105 421,105 425,93 426,93 				"/>
				<polygon style="fill:#00A4FF;" points="419,102.3 417,101.2 417,96.8 419,95.7 419,94.6 416,96.2 416,101.8 419,103.4 				"/>
				<polygon style="fill:#00A4FF;" points="428,94.6 428,95.7 430,96.8 430,101.2 428,102.3 428,103.4 431,101.8 431,96.2 				"/>
			</g>
		</g>
		<g>
			<g style="opacity:0.6;">
				<rect x="418" y="121" style="fill:#BBBBBB;" width="113" height="50"/>
			</g>
			<g>
				<rect x="416.5" y="119.5" style="fill:#FFFFFF;" width="112" height="49"/>
				<path style="fill:#E5E5E5;" d="M528,120v48H417v-48H528 M529,119H416v50h113V119L529,119z"/>
			</g>
			<rect x="436" y="128" style="opacity:0;fill:#CB3333;" width="32" height="32"/>
			<g>
				<path style="fill:#444444;" d="M481.528,150.215h-0.952v-7.027c-0.42,1.324-0.976,2.543-1.666,3.654l-0.435-1.094
					c0.971-1.352,1.666-2.902,2.086-4.646h-1.75v-0.91h1.765v-2.773h0.952v2.773h1.372v0.91h-1.372v0.965
					c0.55,0.701,1.105,1.48,1.666,2.338l-0.532,0.785c-0.401-0.775-0.779-1.457-1.134-2.045V150.215z M483.837,140.877h6.552v4.34
					h-2.855c-0.037,0.477-0.075,0.836-0.112,1.078h3.935v0.924H487.8c0.793,0.934,2.002,1.693,3.626,2.281l-0.686,0.799
					c-1.699-0.719-2.936-1.619-3.71-2.701c-0.02,0.027-0.039,0.068-0.057,0.125c-0.504,1.037-1.651,1.891-3.443,2.562l-0.645-0.785
					c1.587-0.541,2.642-1.221,3.164-2.043l0.112-0.238h-3.36v-0.924h3.696c0.074-0.279,0.126-0.639,0.154-1.078h-2.814V140.877z
					 M482.942,138.609h2.071v-1.162h0.952v1.162h2.157v-1.162h0.952v1.162h2.17v0.896h-2.17v0.979h-0.952v-0.979h-2.157v0.979
					h-0.952v-0.979h-2.071V138.609z M484.748,142.668h4.733v-0.992h-4.733V142.668z M489.48,144.434v-1.008h-4.733v1.008H489.48z"/>
				<path style="fill:#444444;" d="M493.638,146.422h4.914v-1.219h1.008v1.219h4.816v0.924h-4.816v1.637h5.587v0.924h-12.293v-0.924
					h5.698v-1.637h-4.914V146.422z M493.302,138.049h6.58v0.896h-1.414v2.1h1.723v0.924h-1.723v3.08h-0.979v-3.08h-1.834
					c-0.149,1.438-0.687,2.52-1.61,3.248l-0.756-0.658c0.784-0.588,1.246-1.451,1.386-2.59h-1.735v-0.924h1.792v-2.1h-1.429V138.049
					z M495.696,138.945v2.1h1.792v-2.1H495.696z M501.016,138.371h0.967v4.816h-0.967V138.371z M501.52,145.176l-0.21-0.953
					c0.682,0.047,1.265,0.07,1.75,0.07c0.327,0,0.49-0.195,0.49-0.588v-6.104h0.966v6.342c0,0.82-0.373,1.232-1.119,1.232H501.52z"
					/>
			</g>
		</g>
		<g>
			<g>
				<path style="fill-rule:evenodd;clip-rule:evenodd;fill:#878787;" d="M437,131v25h30v-25H437z M465,154h-26v-15h26V154z M465,137
					h-26v-4h26V137z M444,134h-4v2h4V134z"/>
			</g>
		</g>
	</g>
	<g>
		<g>
			<rect x="606" y="40" style="fill:#EAEBEC;" width="188" height="160"/>
			<g>
				<path style="fill:#444444;" d="M620.003,52.004h1.009L625.016,62h-0.938l-1.162-2.982H618.1L616.938,62h-0.938L620.003,52.004z
					 M618.379,58.29h4.257l-2.101-5.362h-0.042L618.379,58.29z"/>
				<path style="fill:#444444;" d="M626.163,52.004h0.854V62h-0.854V52.004z"/>
				<path style="fill:#444444;" d="M628.823,54.958h2.87v6.272c0.504-0.467,0.971-0.929,1.4-1.387l0.195,0.798
					c-0.7,0.757-1.465,1.442-2.296,2.059l-0.294-0.672c0.187-0.168,0.28-0.351,0.28-0.546V55.7h-2.156V54.958z M630.321,50.744
					c0.952,0.728,1.769,1.47,2.45,2.226l-0.519,0.532c-0.644-0.728-1.47-1.475-2.478-2.24L630.321,50.744z M634.423,50.912h0.742
					v6.132c-0.027,2.903-0.677,5.04-1.945,6.412l-0.574-0.504c1.157-1.223,1.75-3.192,1.777-5.908V50.912z M637.224,51.57h0.741
					v10.878h-0.741V51.57z M640.163,50.87h0.742v12.516h-0.742V50.87z"/>
				<path style="fill:#444444;" d="M647.22,61.44c-1.279,0.531-2.726,0.966-4.341,1.302L642.768,62
					c1.708-0.336,3.191-0.77,4.452-1.302V61.44z M646.029,50.968c-0.7,1.886-1.414,3.365-2.142,4.438
					c0.644-0.084,1.302-0.196,1.974-0.336l0.784-1.61l0.7,0.252c-1.242,2.464-2.273,4.205-3.095,5.222
					c0.999-0.205,2.025-0.494,3.08-0.867v0.686c-1.362,0.504-2.697,0.854-4.004,1.05l-0.21-0.714
					c0.131-0.056,0.252-0.131,0.364-0.224c0.551-0.606,1.223-1.647,2.016-3.122c-0.756,0.158-1.535,0.312-2.338,0.462l-0.196-0.714
					c0.112-0.057,0.225-0.154,0.336-0.294c0.775-1.298,1.447-2.805,2.017-4.522L646.029,50.968z M649.642,63.246l-0.183-0.7
					l1.358,0.028c0.392,0,0.588-0.196,0.588-0.588v-3.878h-3.052l-0.168-0.658c0.354-0.606,0.69-1.293,1.008-2.059h-1.61v-0.699
					h1.876l0.588-1.736h-2.981v-0.714h3.191c0.243-0.905,0.388-1.466,0.435-1.681l0.742,0.141l-0.406,1.54h4.158v0.714h-4.368
					l-0.588,1.736h1.89v2.743h3.066v0.673h-3.066v4.102c0,0.69-0.359,1.036-1.078,1.036H649.642z M649.711,59.34
					c-0.531,1.363-1.139,2.529-1.819,3.5l-0.658-0.364c0.774-1.11,1.377-2.249,1.806-3.416L649.711,59.34z M649.963,55.392
					c-0.336,0.812-0.648,1.494-0.938,2.044h2.38v-2.044H649.963z M654.023,59.018c0.616,1.12,1.143,2.297,1.582,3.528l-0.645,0.294
					c-0.504-1.391-1.04-2.59-1.609-3.598L654.023,59.018z"/>
			</g>
		</g>
		<g>
			<g style="opacity:0.6;">
				<rect x="617" y="76" style="fill:#BBBBBB;" width="167" height="50"/>
			</g>
			<g>
				<rect x="615.5" y="74.5" style="fill:#FFFFFF;" width="166" height="49"/>
				<path style="fill:#E5E5E5;" d="M781,75v48H616V75H781 M782,74H615v50h167V74L782,74z"/>
			</g>
			<rect x="635" y="83" style="opacity:0;fill:#CB3333;" width="32" height="32"/>
			<g>
				<path style="fill:#444444;" d="M685.26,94.574c0.7,0.57,1.139,1.4,1.316,2.492h-1.148c-0.149-0.746-0.485-1.324-1.008-1.736
					c-0.541-0.428-1.255-0.643-2.142-0.643c-1.083,0-1.946,0.383-2.59,1.146c-0.636,0.748-0.952,1.77-0.952,3.066
					c0,1.26,0.308,2.254,0.924,2.982c0.662,0.775,1.643,1.162,2.939,1.162c0.504,0,1.027-0.074,1.568-0.225
					c0.467-0.131,0.887-0.316,1.26-0.559v-2.549h-3.136v-0.994h4.27v4.088c-0.457,0.373-1.04,0.678-1.75,0.91
					c-0.728,0.225-1.502,0.336-2.323,0.336c-1.587,0-2.814-0.504-3.683-1.512c-0.812-0.943-1.218-2.156-1.218-3.641
					c0-1.492,0.401-2.715,1.204-3.668c0.85-1.045,2.011-1.568,3.486-1.568C683.538,93.664,684.532,93.969,685.26,94.574z"/>
				<path style="fill:#444444;" d="M688.479,93.861h4.088c2.296,0,3.444,0.98,3.444,2.939c0,1.979-1.153,2.969-3.458,2.969h-2.926
					v4.088h-1.148V93.861z M689.628,94.855v3.92h2.87c0.793,0,1.391-0.164,1.792-0.49c0.382-0.326,0.573-0.822,0.573-1.484
					c0-0.682-0.195-1.166-0.588-1.455c-0.383-0.328-0.976-0.49-1.777-0.49H689.628z"/>
				<path style="fill:#444444;" d="M697.468,93.861h1.148v6.174c0,0.988,0.219,1.73,0.658,2.227
					c0.466,0.521,1.194,0.783,2.184,0.783c0.979,0,1.708-0.262,2.184-0.783c0.438-0.514,0.658-1.256,0.658-2.227v-6.174h1.148v6.16
					c0,1.297-0.332,2.291-0.994,2.982c-0.682,0.699-1.68,1.049-2.996,1.049s-2.31-0.346-2.982-1.035
					c-0.672-0.701-1.008-1.699-1.008-2.996V93.861z"/>
				<path style="fill:#444444;" d="M708.99,100.455c-0.084,1.951-0.416,3.561-0.994,4.83l-0.756-0.701
					c0.551-1.25,0.835-2.863,0.854-4.844v-6.719h4.088v10.906c0,0.857-0.392,1.287-1.176,1.287h-1.12l-0.237-0.896
					c0.522,0.037,0.882,0.057,1.077,0.057c0.355,0,0.532-0.258,0.532-0.77v-3.15H708.99z M711.258,96.297v-2.365h-2.254v2.365
					H711.258z M709.004,97.207v2.338h2.254v-2.338H709.004z M714.31,99.068v6.203h-0.951V93.008h5.67
					c0,1.734-0.084,2.883-0.252,3.443c-0.168,0.578-0.691,0.867-1.568,0.867h-1.134l-0.267-0.867l0.938,0.014
					c0.308,0,0.555-0.023,0.742-0.07c0.168-0.055,0.294-0.191,0.378-0.406c0.093-0.289,0.154-0.975,0.182-2.057h-3.738v4.242h4.761
					v0.854c-0.262,1.438-0.719,2.664-1.372,3.682c0.616,0.607,1.357,1.156,2.226,1.652l-0.504,0.854
					c-0.877-0.504-1.643-1.078-2.296-1.723c-0.616,0.719-1.34,1.299-2.17,1.736l-0.532-0.812c0.793-0.428,1.47-0.979,2.03-1.65
					c-0.896-1.092-1.498-2.324-1.806-3.697H714.31z M715.514,99.068c0.29,1.074,0.794,2.045,1.513,2.912
					c0.513-0.83,0.896-1.801,1.147-2.912H715.514z"/>
				<path style="fill:#444444;" d="M726.294,92.518c-0.14,0.336-0.317,0.689-0.532,1.062h6.104v0.812
					c-0.896,1.037-1.988,1.918-3.276,2.646c1.587,0.672,3.351,1.105,5.292,1.303l-0.462,0.938c-2.212-0.252-4.186-0.812-5.922-1.68
					c-1.718,0.793-3.71,1.361-5.978,1.707l-0.463-0.951c2.025-0.281,3.809-0.729,5.349-1.344c-0.766-0.449-1.493-0.977-2.185-1.582
					c-0.551,0.494-1.134,0.928-1.75,1.301l-0.615-0.812c1.698-0.969,2.837-2.15,3.416-3.541L726.294,92.518z M727.624,98.607
					c0,0.504-0.047,1.035-0.14,1.596h4.928c-0.028,2.371-0.243,3.785-0.645,4.242c-0.41,0.467-1.11,0.699-2.1,0.699
					c-0.233,0-0.779-0.018-1.638-0.055l-0.252-0.91l1.651,0.068c0.831-0.008,1.358-0.186,1.582-0.531
					c0.215-0.336,0.341-1.203,0.378-2.604h-4.144c-0.103,0.346-0.252,0.695-0.448,1.049c-0.719,1.27-2.361,2.311-4.928,3.123
					l-0.672-0.826c2.305-0.672,3.822-1.521,4.55-2.549c0.196-0.289,0.341-0.555,0.434-0.797h-4.172v-0.91h4.452
					c0.112-0.504,0.168-1.037,0.168-1.596H727.624z M730.424,94.533h-5.348l-0.182,0.225c0.774,0.68,1.638,1.268,2.59,1.764
					C728.595,95.971,729.574,95.309,730.424,94.533z"/>
				<path style="fill:#444444;" d="M735.282,97.754H740c0.252-0.346,0.467-0.725,0.645-1.135l0.966,0.098
					c-0.112,0.289-0.285,0.635-0.519,1.037h3.612c-0.205-0.365-0.415-0.682-0.63-0.953l0.854-0.279
					c0.289,0.383,0.546,0.793,0.771,1.232h1.932v0.895h-3.78c0.905,0.859,2.264,1.535,4.074,2.031l-0.406,0.854
					c-0.214-0.066-0.541-0.182-0.979-0.35v4.088h-0.896v-0.604h-2.617v0.604h-0.896v-4.41h3.682
					c-1.315-0.607-2.328-1.344-3.037-2.213h-2.353c-0.774,0.877-1.824,1.615-3.149,2.213h3.514v4.41h-0.896v-0.604h-2.394v0.604
					h-0.882v-4.131l-1.148,0.393l-0.462-0.826c1.773-0.531,3.154-1.219,4.145-2.059h-3.864V97.754z M736.416,92.951h4.271v3.402
					h-4.271V92.951z M739.762,95.498v-1.68h-2.436v1.68H739.762z M737.494,103.801h2.394v-2.1h-2.394V103.801z M742.24,92.951h4.354
					v3.402h-4.354V92.951z M743.024,103.801h2.617v-2.1h-2.617V103.801z M745.684,95.498v-1.68h-2.52v1.68H745.684z"/>
			</g>
			<g>
				<path id="XMLID_207_" style="fill-rule:evenodd;clip-rule:evenodd;fill:#00A4FF;" d="M662.979,102
					c-0.964,6.228-6.333,11-12.83,11c-7.18,0-13-5.82-13-13c0-7.18,5.82-13,13-13c6.498,0,11.866,4.772,12.83,11H665
					c-0.98-7.336-7.247-13-14.851-13c-8.284,0-15,6.716-15,15s6.716,15,15,15c7.604,0,13.871-5.664,14.851-13H662.979z"/>
				<path id="XMLID_206_" style="fill:#00A4FF;" d="M651.149,99v2h-2v-2H651.149 M653.149,97h-6v6h6V97L653.149,97z"/>
				<path id="XMLID_205_" style="fill:#00A4FF;" d="M654.149,96v8h-8v-8H654.149 M656.149,94h-12v12h12V94L656.149,94z"/>
				<rect id="XMLID_204_" x="646.149" y="92" style="fill:#00A4FF;" width="2" height="2"/>
				<rect id="XMLID_203_" x="649.149" y="92" style="fill:#00A4FF;" width="2" height="2"/>
				<rect id="XMLID_202_" x="652.151" y="92" style="fill:#00A4FF;" width="2" height="2"/>
				<rect id="XMLID_201_" x="646.149" y="106" style="fill:#00A4FF;" width="2" height="2"/>
				<rect id="XMLID_200_" x="649.149" y="106" style="fill:#00A4FF;" width="2" height="2"/>
				<rect id="XMLID_199_" x="652.149" y="106" style="fill:#00A4FF;" width="2" height="2"/>
				<rect id="XMLID_198_" x="642.149" y="102" style="fill:#00A4FF;" width="2" height="2"/>
				<rect id="XMLID_197_" x="642.149" y="99" style="fill:#00A4FF;" width="2" height="2"/>
				<rect id="XMLID_196_" x="642.149" y="96" style="fill:#00A4FF;" width="2" height="2"/>
				<rect id="XMLID_195_" x="656.149" y="102" style="fill:#00A4FF;" width="2" height="2"/>
				<rect id="XMLID_194_" x="656.149" y="99" style="fill:#00A4FF;" width="2" height="2"/>
				<rect id="XMLID_2_" x="656.149" y="96" style="fill:#00A4FF;" width="2" height="2"/>
			</g>
		</g>
		<g>
			<g style="opacity:0.6;">
				<rect x="617" y="139" style="fill:#BBBBBB;" width="167" height="50"/>
			</g>
			<g>
				<rect x="615.5" y="137.5" style="fill:#FFFFFF;" width="166" height="49"/>
				<path style="fill:#E5E5E5;" d="M781,138v48H616v-48H781 M782,137H615v50h167V137L782,137z"/>
			</g>
			<rect x="635" y="146" style="opacity:0;fill:#CB3333;" width="32" height="32"/>
			<g>
				<path style="fill:#444444;" d="M677.812,158.162h2.087v-2.729h1.008v2.729h1.735v0.967h-1.735v0.715
					c0.672,0.699,1.33,1.445,1.974,2.238l-0.588,0.869c-0.532-0.887-0.994-1.602-1.386-2.143v7.379h-1.008v-7.113
					c-0.477,1.363-1.116,2.633-1.918,3.809l-0.435-1.092c1.083-1.373,1.853-2.926,2.311-4.662h-2.045V158.162z M681.984,167.57
					c0.606-0.887,1.026-1.824,1.26-2.812c0.187-0.879,0.28-2.025,0.28-3.445v-5.305h4.521v10.568c0,0.262,0.107,0.393,0.322,0.393
					h0.476c0.168,0,0.299-0.027,0.393-0.084c0.111-0.084,0.182-0.219,0.21-0.406c0.064-0.326,0.098-1.133,0.098-2.422l0.924,0.295
					c0,0.904-0.032,1.67-0.098,2.295c-0.056,0.494-0.196,0.84-0.42,1.037c-0.233,0.158-0.569,0.238-1.008,0.238h-0.574
					c-0.896,0-1.344-0.416-1.344-1.246v-9.717h-2.492v4.354c0,1.541-0.126,2.828-0.378,3.865c-0.233,1.072-0.682,2.117-1.345,3.135
					L681.984,167.57z"/>
				<path style="fill:#444444;" d="M693.59,157.338c-0.336,0.512-0.714,0.961-1.134,1.344l-0.603-0.756
					c0.663-0.607,1.228-1.475,1.694-2.605l0.91,0.197c-0.121,0.336-0.247,0.643-0.378,0.924h4.004v0.896h-2.114
					c-0.027,0.494-0.069,0.947-0.126,1.357h2.632v0.924h-2.842c-0.065,0.215-0.103,0.346-0.111,0.393
					c1.063,0.531,1.96,1.078,2.688,1.637l-0.714,0.715c-0.579-0.523-1.344-1.064-2.296-1.625c-0.561,0.98-1.535,1.793-2.926,2.438
					l-0.673-0.826c1.447-0.645,2.403-1.443,2.87-2.395l0.141-0.336h-2.814v-0.924h3.066c0.074-0.365,0.126-0.816,0.153-1.357H693.59
					z M702.676,162.504v5.781h-1.021v-0.631h-6.931v0.631h-1.008v-5.781H702.676z M694.724,164.674h6.931v-1.275h-6.931V164.674z
					 M694.724,166.76h6.931v-1.205h-6.931V166.76z M699.064,156.371h4.605v5.123h-4.605V156.371z M702.69,160.6v-3.332h-2.646v3.332
					H702.69z"/>
				<path style="fill:#444444;" d="M705.812,158.162h2.087v-2.729h1.008v2.729h1.735v0.967h-1.735v0.715
					c0.672,0.699,1.33,1.445,1.974,2.238l-0.588,0.869c-0.532-0.887-0.994-1.602-1.386-2.143v7.379h-1.008v-7.113
					c-0.477,1.363-1.116,2.633-1.918,3.809l-0.435-1.092c1.083-1.373,1.853-2.926,2.311-4.662h-2.045V158.162z M709.984,167.57
					c0.606-0.887,1.026-1.824,1.26-2.812c0.187-0.879,0.28-2.025,0.28-3.445v-5.305h4.521v10.568c0,0.262,0.107,0.393,0.322,0.393
					h0.476c0.168,0,0.299-0.027,0.393-0.084c0.111-0.084,0.182-0.219,0.21-0.406c0.064-0.326,0.098-1.133,0.098-2.422l0.924,0.295
					c0,0.904-0.032,1.67-0.098,2.295c-0.056,0.494-0.196,0.84-0.42,1.037c-0.233,0.158-0.569,0.238-1.008,0.238h-0.574
					c-0.896,0-1.344-0.416-1.344-1.246v-9.717h-2.492v4.354c0,1.541-0.126,2.828-0.378,3.865c-0.233,1.072-0.682,2.117-1.345,3.135
					L709.984,167.57z"/>
				<path style="fill:#444444;" d="M719.826,160.754h4.718c0.252-0.346,0.467-0.725,0.645-1.135l0.966,0.098
					c-0.112,0.289-0.285,0.635-0.519,1.037h3.612c-0.205-0.365-0.415-0.682-0.63-0.953l0.854-0.279
					c0.289,0.383,0.546,0.793,0.771,1.232h1.932v0.895h-3.78c0.905,0.859,2.264,1.535,4.074,2.031l-0.406,0.854
					c-0.214-0.066-0.541-0.182-0.979-0.35v4.088h-0.896v-0.604h-2.617v0.604h-0.896v-4.41h3.682
					c-1.315-0.607-2.328-1.344-3.037-2.213h-2.353c-0.774,0.877-1.824,1.615-3.149,2.213h3.514v4.41h-0.896v-0.604h-2.394v0.604
					h-0.882v-4.131l-1.148,0.393l-0.462-0.826c1.773-0.531,3.154-1.219,4.145-2.059h-3.864V160.754z M720.96,155.951h4.271v3.402
					h-4.271V155.951z M724.306,158.498v-1.68h-2.436v1.68H724.306z M722.038,166.801h2.394v-2.1h-2.394V166.801z M726.784,155.951
					h4.354v3.402h-4.354V155.951z M727.568,166.801h2.617v-2.1h-2.617V166.801z M730.228,158.498v-1.68h-2.52v1.68H730.228z"/>
				<path style="fill:#444444;" d="M736.234,160.416h7.546v0.896c-0.952,0.607-1.983,1.182-3.095,1.723v0.713h5.334v0.953h-5.334
					v2.365c0,0.756-0.401,1.135-1.203,1.135h-1.765l-0.237-0.924c0.672,0.018,1.222,0.027,1.651,0.027
					c0.354,0,0.532-0.195,0.532-0.588v-2.016h-5.67v-0.953h5.67v-1.16c1.176-0.514,2.067-0.939,2.674-1.275h-6.104V160.416z
					 M745.908,158.262v3.135h-0.994v-2.17h-9.842v2.17h-0.98v-3.135h8.022c0.606-0.887,1.139-1.863,1.596-2.928l1.022,0.379
					c-0.485,0.998-0.994,1.848-1.526,2.549H745.908z M736.08,155.545c0.551,0.738,1.031,1.471,1.442,2.197l-0.868,0.436
					c-0.485-0.832-0.98-1.559-1.484-2.186L736.08,155.545z M739.468,155.279c0.485,0.729,0.929,1.498,1.33,2.311l-0.896,0.447
					c-0.42-0.869-0.868-1.639-1.345-2.311L739.468,155.279z"/>
				<path style="fill:#444444;" d="M756.226,162.895c-2.007,1.252-4.461,2.348-7.363,3.291l-0.406-0.924
					c2.912-0.896,5.418-1.988,7.518-3.277L756.226,162.895z M754.238,167.207c1.026,0.018,1.796,0.027,2.31,0.027
					c0.42,0,0.737-0.191,0.952-0.574c0.205-0.391,0.331-1.324,0.378-2.799c0.019-0.523,0.042-2.725,0.07-6.607h-9.143v-0.967h10.164
					c-0.074,4.703-0.135,7.457-0.182,8.26c-0.056,1.381-0.224,2.324-0.504,2.828c-0.262,0.504-0.771,0.756-1.526,0.756
					c-0.598,0-1.344,0.014-2.24,0.043L754.238,167.207z M750.402,158.639c1.147,0.859,2.128,1.736,2.939,2.633l-0.686,0.699
					c-0.729-0.84-1.713-1.727-2.954-2.66L750.402,158.639z"/>
			</g>
			<g id="XMLID_756_">
				<g>
					<path style="fill:#00A4FF;" d="M654.243,173.586c-0.781,0.781-0.781,2.047,0,2.828c0.781,0.781,2.047,0.781,2.828,0
						c0.781-0.781,0.781-2.047,0-2.828C656.29,172.805,655.024,172.805,654.243,173.586z M659.9,152.373
						c-5.467-5.468-14.332-5.468-19.799,0c-5.467,5.467-5.467,14.331,0,19.799c2.105,2.105,4.714,3.391,7.439,3.875l0.339-0.339
						l1.472-1.471l6.307-6.307c3.124-3.124,3.124-8.189,0-11.314s-8.19-3.124-11.314,0s-3.124,8.189,0,11.314
						c0.24,0.24,0.495,0.455,0.756,0.658l0.658-0.658l0.771-0.771l2.961-2.961c0.666,0.176,1.403,0.011,1.925-0.511
						c0.781-0.781,0.781-2.047,0-2.829c-0.781-0.781-2.047-0.781-2.828,0c-0.522,0.522-0.687,1.259-0.511,1.925l-2.961,2.961
						c-1.665-2.342-1.455-5.616,0.643-7.715c2.339-2.339,6.146-2.339,8.485,0c2.339,2.34,2.339,6.146,0,8.485l-3.733,3.733
						l-3.597,3.596c-1.978-0.52-3.85-1.539-5.398-3.087c-4.679-4.679-4.679-12.292,0-16.97c4.679-4.679,12.292-4.679,16.971,0
						c4.679,4.679,4.679,12.292,0,16.97l-0.707,0.707l1.414,1.414l0.707-0.707C665.367,166.704,665.367,157.84,659.9,152.373z"/>
				</g>
			</g>
		</g>
	</g>
</g>
</svg>
