<?xml version="1.0" encoding="utf-8"?>
<!-- Generator: Adobe Illustrator 21.0.2, SVG Export Plug-In . SVG Version: 6.00 Build 0)  -->
<svg version="1.1" id="图层_1" xmlns="http://www.w3.org/2000/svg" xmlns:xlink="http://www.w3.org/1999/xlink" x="0px" y="0px"
	 viewBox="0 0 840 355.9" style="enable-background:new 0 0 840 355.9;" xml:space="preserve">
<style type="text/css">
	.st0{opacity:0.6;}
	.st1{fill:#BBBBBB;}
	.st2{fill:#FFFFFF;}
	.st3{fill:#E5E5E5;}
	.st4{fill:#CEE3FF;}
	.st5{fill:#00A4FF;}
	.st6{fill:none;}
	.st7{fill:#878787;}
	.st8{fill:none;stroke:#878787;stroke-miterlimit:10;}
	.st9{fill:#444444;}
	.st10{fill:none;stroke:#00A4FF;stroke-width:2;stroke-miterlimit:10;}
</style>
<g>
	<g class="st0">
		<rect x="716.2" y="113.9" class="st1" width="114" height="50"/>
	</g>
	<g>
		<rect x="714.7" y="112.4" class="st2" width="113" height="49"/>
		<path class="st3" d="M827.2,112.9v48h-112v-48H827.2 M828.2,111.9h-114v50h114V111.9L828.2,111.9z"/>
	</g>
</g>
<g>
	<g class="st0">
		<rect x="716.2" y="205.7" class="st1" width="114" height="50"/>
	</g>
	<g>
		<rect x="714.7" y="204.2" class="st2" width="113" height="49"/>
		<path class="st3" d="M827.2,204.7v48h-112v-48H827.2 M828.2,203.7h-114v50h114V203.7L828.2,203.7z"/>
	</g>
</g>
<g>
	<g class="st0">
		<rect x="8.5" y="160.5" class="st1" width="114" height="50"/>
	</g>
	<g>
		<rect x="7" y="159" class="st2" width="113" height="49"/>
		<path class="st3" d="M119.5,159.5v48H7.5v-48H119.5 M120.5,158.5H6.5v50h114V158.5L120.5,158.5z"/>
	</g>
</g>
<g>
	<g class="st0">
		<rect x="181.9" y="160.5" class="st1" width="104" height="50"/>
	</g>
	<g>
		<rect x="180.4" y="159" class="st2" width="103" height="49"/>
		<path class="st3" d="M282.9,159.5v48h-102v-48H282.9 M283.9,158.5h-104v50h104V158.5L283.9,158.5z"/>
	</g>
</g>
<g id="图层_2">
</g>
<rect x="321" y="0.5" class="st4" width="194" height="355"/>
<g>
	<g class="st0">
		<rect x="345.2" y="159.5" class="st1" width="148" height="50"/>
	</g>
	<g>
		<rect x="343.7" y="158" class="st2" width="147" height="49"/>
		<path class="st3" d="M490.2,158.5v48h-146v-48H490.2 M491.2,157.5h-148v50h148V157.5L491.2,157.5z"/>
	</g>
</g>
<g>
	<g class="st0">
		<rect x="345.2" y="220.1" class="st1" width="148" height="50"/>
	</g>
	<g>
		<rect x="343.7" y="218.6" class="st2" width="147" height="49"/>
		<path class="st3" d="M490.2,219.1v48h-146v-48H490.2 M491.2,218.1h-148v50h148V218.1L491.2,218.1z"/>
	</g>
</g>
<g>
	<g class="st0">
		<rect x="345.2" y="281.4" class="st1" width="148" height="50"/>
	</g>
	<g>
		<rect x="343.7" y="279.9" class="st2" width="147" height="49"/>
		<path class="st3" d="M490.2,280.4v48h-146v-48H490.2 M491.2,279.4h-148v50h148V279.4L491.2,279.4z"/>
	</g>
</g>
<g>
	<g class="st0">
		<rect x="345.2" y="97.8" class="st1" width="148" height="50"/>
	</g>
	<g>
		<rect x="343.7" y="96.3" class="st2" width="147" height="49"/>
		<path class="st3" d="M490.2,96.8v48h-146v-48H490.2 M491.2,95.8h-148v50h148V95.8L491.2,95.8z"/>
	</g>
</g>
<g>
	<g class="st0">
		<rect x="345.2" y="37.5" class="st1" width="148" height="50"/>
	</g>
	<g>
		<rect x="343.7" y="36" class="st2" width="147" height="49"/>
		<path class="st3" d="M490.2,36.5v48h-146v-48H490.2 M491.2,35.5h-148v50h148V35.5L491.2,35.5z"/>
	</g>
</g>
<g>
	<g>
		<path class="st5" d="M339,13c0.7,0.5,1,1.3,1.1,2.4H339c-0.1-0.7-0.4-1.3-0.8-1.6c-0.4-0.4-1.1-0.5-1.9-0.5s-1.3,0.1-1.7,0.4
			c-0.5,0.3-0.7,0.7-0.7,1.3c0,0.5,0.3,0.9,0.9,1.2c0.2,0.1,0.9,0.4,1.8,0.6c1.3,0.4,2.2,0.7,2.6,1c0.8,0.5,1.2,1.2,1.2,2.1
			s-0.3,1.6-1,2.1s-1.7,0.7-2.8,0.7c-1.2,0-2.1-0.3-2.8-0.8c-0.8-0.6-1.2-1.5-1.3-2.7h1.1c0.1,0.9,0.4,1.5,0.9,1.9s1.2,0.6,2,0.6
			s1.5-0.2,2-0.5s0.8-0.7,0.8-1.3c0-0.6-0.3-1.1-1-1.5c-0.3-0.1-1-0.4-2.1-0.7c-1.2-0.4-1.9-0.6-2.3-0.8c-0.8-0.4-1.1-1.1-1.1-1.9
			c0-0.9,0.4-1.6,1.1-2s1.5-0.7,2.5-0.7C337.5,12.3,338.4,12.5,339,13z"/>
		<path class="st5" d="M349,13.1c0.8,0.6,1.2,1.4,1.3,2.4h-1.1c-0.1-0.7-0.5-1.3-1.1-1.7c-0.5-0.4-1.2-0.6-2-0.6
			c-1.2,0-2.1,0.4-2.7,1.2s-0.9,1.8-0.9,3c0,1.3,0.3,2.2,0.9,3s1.5,1.2,2.7,1.2c0.8,0,1.5-0.2,2-0.6c0.6-0.5,1-1.1,1.2-2h1.1
			c-0.2,1.2-0.7,2.1-1.6,2.7c-0.8,0.6-1.7,0.9-2.8,0.9c-1.5,0-2.7-0.5-3.6-1.5c-0.7-0.9-1.1-2.1-1.1-3.6s0.4-2.7,1.1-3.7
			c0.8-1.1,2-1.6,3.6-1.6C347.3,12.3,348.2,12.6,349,13.1z"/>
		<path class="st5" d="M352,12.5h6.7v1h-5.5v3.4h5.3v1h-5.3v4.6H352V12.5z"/>
	</g>
</g>
<path class="st6" d="M55,199.5H27c-1.1,0-2-0.9-2-2v-28c0-1.1,0.9-2,2-2h28c1.1,0,2,0.9,2,2v28C57,198.6,56.1,199.5,55,199.5z"/>
<g>
	<polygon class="st7" points="172,188.5 177,183.5 172,178.5 	"/>
	<line class="st8" x1="131" y1="183.5" x2="172" y2="183.5"/>
</g>
<g>
	<polygon class="st7" points="335,188.5 340,183.5 335,178.5 	"/>
	<line class="st8" x1="294" y1="183.5" x2="335" y2="183.5"/>
</g>
<g>
	<g>
		<path class="st9" d="M70.7,179.6c-0.2,0.4-0.4,0.7-0.6,0.9h5.2v0.8c-0.6,0.8-1.4,1.5-2.5,2.1c1.5,0.6,3.2,1,5.1,1.1l-0.2,0.9
			c-2.3-0.2-4.2-0.7-6-1.5c-1.6,0.7-3.7,1.3-6.3,1.8l-0.4-0.9c2.3-0.4,4.2-0.8,5.6-1.4c-0.7-0.4-1.4-0.9-2-1.4
			c-0.5,0.5-1.1,0.9-1.8,1.3l-0.6-0.8c1.4-0.8,2.5-1.8,3.4-3.1L70.7,179.6z M77.2,178.2v2.6h-1v-1.7h-9.3v1.7h-1v-2.6H71
			c-0.2-0.4-0.4-0.7-0.5-1l1.1-0.2c0.1,0.2,0.3,0.6,0.5,1.1h5.1V178.2z M75.6,185.6v4.4h-1v-0.6h-6v0.6h-1v-4.4H75.6z M68.6,188.5h6
			v-2h-6V188.5z M74,181.4h-4.7l0,0c0.7,0.6,1.5,1.1,2.4,1.6C72.7,182.5,73.4,182,74,181.4z"/>
		<path class="st9" d="M81.7,183.5c-0.1,2.5-0.7,4.7-2,6.5l-0.7-0.7c1.1-1.6,1.7-3.6,1.7-6.1v-4.4h4.6c-0.3-0.6-0.5-1.2-0.8-1.6
			l1.1-0.2c0.3,0.5,0.5,1.1,0.8,1.8h4.4v4.7H81.7z M89.7,179.8h-8v2.7h8V179.8z"/>
		<path class="st9" d="M97.5,187.8c-1.2,0.5-2.6,0.9-4.2,1.2l-0.3-1c0.8-0.1,1.6-0.3,2.4-0.5c0.3-2,0.6-4.2,0.7-6.5l0.9,0.1
			c-0.2,2.1-0.4,4.1-0.8,6.1c0.9-0.3,1.2-0.4,1.1-0.4v1H97.5z M93.1,179.5h1.8c-0.2-0.8-0.4-1.5-0.6-2l1-0.2
			c0.2,0.6,0.4,1.3,0.6,2.2h1.6v1h-4.4V179.5z M94.3,181.2c0.3,1.6,0.6,3.4,0.8,5.5l-0.8,0.2c-0.2-1.9-0.5-3.7-0.8-5.5L94.3,181.2z
			 M97.8,181.9h8v0.9h-3.7c-0.1,0.4-0.2,0.9-0.4,1.3h3.7v4.7c0,0.7-0.3,1-0.9,1h-0.6l-0.2-0.9h0.6c0.2,0,0.3-0.1,0.3-0.4v-3.4h-1.3
			v4.6h-0.9v-4.6h-1.1v4.6h-0.9v-4.6h-1.2v4.8h-0.9v-5.7h2.5c0.2-0.5,0.3-0.9,0.4-1.3h-3.3L97.8,181.9L97.8,181.9z M104.2,179.8
			v-2.1h1v3h-6.7v-3h1v2.1h1.9v-2.7h1v2.7H104.2z"/>
	</g>
	<path class="st5" d="M49.7,192H29.3c-1.7,0-3-1.3-3-3v-13.9c0-1.7,1.3-3,3-3h20.4c1.7,0,3,1.3,3,3V189
		C52.7,190.7,51.4,192,49.7,192z M29.3,174.1c-0.6,0-1,0.4-1,1V189c0,0.6,0.4,1,1,1h20.4c0.6,0,1-0.4,1-1v-13.9c0-0.6-0.4-1-1-1
		H29.3z"/>
	<path class="st5" d="M52.7,179.1H26.3v-4c0-1.7,1.3-3,3-3h20.4c1.7,0,3,1.3,3,3C52.7,175.1,52.7,179.1,52.7,179.1z M28.3,177.1
		h22.4v-2c0-0.6-0.4-1-1-1H29.3c-0.6,0-1,0.4-1,1V177.1z"/>
	<path class="st5" d="M44.3,196.9h-9.5v-6.8h9.5V196.9z M36.8,194.9h5.5v-2.8h-5.5V194.9z"/>
	<line class="st10" x1="31.5" y1="196" x2="47.5" y2="196"/>
	<rect x="29.4" y="174.8" class="st5" width="2" height="1.7"/>
	<rect x="32.4" y="174.8" class="st5" width="2" height="1.7"/>
</g>
<rect x="200" y="167.5" class="st6" width="32" height="32"/>
<g>
	<g>
		<path class="st9" d="M245.8,178.3c0.8,0.6,1.2,1.4,1.3,2.4H246c-0.1-0.7-0.5-1.3-1.1-1.7c-0.5-0.4-1.2-0.6-2-0.6
			c-1.2,0-2.1,0.4-2.7,1.2c-0.6,0.8-0.9,1.8-0.9,3c0,1.3,0.3,2.2,0.9,3c0.6,0.8,1.5,1.2,2.7,1.2c0.8,0,1.5-0.2,2-0.6
			c0.6-0.5,1-1.1,1.2-2h1.1c-0.2,1.2-0.7,2.1-1.6,2.7c-0.8,0.6-1.7,0.9-2.8,0.9c-1.5,0-2.7-0.5-3.6-1.5c-0.7-0.9-1.1-2.1-1.1-3.6
			s0.4-2.7,1.1-3.7c0.8-1.1,2-1.6,3.6-1.6C244.1,177.4,245.1,177.7,245.8,178.3z"/>
		<path class="st9" d="M256.8,178.9c0.8,1,1.2,2.2,1.2,3.7s-0.4,2.7-1.2,3.7c-0.9,1-2.1,1.5-3.6,1.5s-2.7-0.5-3.5-1.5
			c-0.8-0.9-1.2-2.2-1.2-3.7s0.4-2.8,1.2-3.7c0.9-1,2.1-1.5,3.6-1.5S256,177.9,256.8,178.9z M250.6,179.6c-0.6,0.8-0.9,1.8-0.9,3
			s0.3,2.2,0.9,3c0.6,0.8,1.5,1.2,2.7,1.2c1.1,0,2-0.4,2.7-1.1c0.6-0.8,0.9-1.8,0.9-3c0-1.3-0.3-2.3-0.9-3c-0.6-0.8-1.5-1.1-2.7-1.1
			C252.1,178.4,251.2,178.8,250.6,179.6z"/>
		<path class="st9" d="M265.7,178.2c0.7,0.5,1,1.3,1.1,2.4h-1.1c-0.1-0.7-0.4-1.3-0.8-1.6c-0.4-0.4-1.1-0.5-1.9-0.5
			s-1.3,0.1-1.7,0.4c-0.5,0.3-0.7,0.7-0.7,1.3c0,0.5,0.3,0.9,0.9,1.2c0.2,0.1,0.9,0.4,1.8,0.6c1.3,0.4,2.2,0.7,2.6,1
			c0.8,0.5,1.2,1.2,1.2,2.1c0,0.9-0.4,1.6-1.1,2.1s-1.7,0.7-2.8,0.7c-1.2,0-2.1-0.3-2.8-0.8c-0.8-0.6-1.2-1.5-1.3-2.7h1.1
			c0.1,0.9,0.4,1.5,0.9,1.9s1.2,0.6,2,0.6s1.5-0.2,2-0.5s0.8-0.7,0.8-1.3s-0.3-1.1-1-1.5c-0.3-0.1-1-0.4-2.1-0.7
			c-1.2-0.4-1.9-0.6-2.3-0.8c-0.8-0.4-1.1-1.1-1.1-1.9c0-0.9,0.4-1.6,1.1-2s1.5-0.7,2.5-0.7C264.1,177.4,265,177.7,265.7,178.2z"/>
	</g>
	<g id="XMLID_486_">
		<g>
			<path class="st5" d="M205.7,179.5v8l7,4l7-4v-8l-7-4L205.7,179.5z M211.7,188.6l-4-2.3v-3.7l4,2.3V188.6z M217.7,186.3l-4,2.3
				v-3.7l4-2.3V186.3z M212.7,183.2l-4.7-2.7l4.7-2.7l4.7,2.7L212.7,183.2z M224.7,190.3l-12,6.9l-12-6.9v-13.7l12-6.9l12,6.9l0,0
				l2-1.1l-14-8l-14,8v16l14,8l14-8v-12l-2,1.1V190.3z"/>
		</g>
	</g>
</g>
<g>
	<g class="st0">
		<rect x="555.9" y="160.5" class="st1" width="104" height="50"/>
	</g>
	<g>
		<rect x="554.4" y="159" class="st2" width="103" height="49"/>
		<path class="st3" d="M656.9,159.5v48h-102v-48H656.9 M657.9,158.5h-104v50h104V158.5L657.9,158.5z"/>
	</g>
</g>
<rect x="574" y="167.5" class="st6" width="32" height="32"/>
<g>
	<g>
		<path class="st9" d="M619.8,178.3c0.8,0.6,1.2,1.4,1.3,2.4H620c-0.1-0.7-0.5-1.3-1.1-1.7c-0.5-0.4-1.2-0.6-2-0.6
			c-1.2,0-2.1,0.4-2.7,1.2c-0.6,0.8-0.9,1.8-0.9,3c0,1.3,0.3,2.2,0.9,3c0.6,0.8,1.5,1.2,2.7,1.2c0.8,0,1.5-0.2,2-0.6
			c0.6-0.5,1-1.1,1.2-2h1.1c-0.2,1.2-0.7,2.1-1.6,2.7c-0.8,0.6-1.7,0.9-2.8,0.9c-1.5,0-2.7-0.5-3.6-1.5c-0.7-0.9-1.1-2.1-1.1-3.6
			s0.4-2.7,1.1-3.7c0.8-1.1,2-1.6,3.6-1.6C618.1,177.4,619.1,177.7,619.8,178.3z"/>
		<path class="st9" d="M630.8,178.9c0.8,1,1.2,2.2,1.2,3.7s-0.4,2.7-1.2,3.7c-0.9,1-2.1,1.5-3.6,1.5s-2.7-0.5-3.5-1.5
			c-0.8-0.9-1.2-2.2-1.2-3.7s0.4-2.8,1.2-3.7c0.9-1,2.1-1.5,3.6-1.5S630,177.9,630.8,178.9z M624.6,179.6c-0.6,0.8-0.9,1.8-0.9,3
			s0.3,2.2,0.9,3s1.5,1.2,2.7,1.2c1.1,0,2-0.4,2.7-1.1c0.6-0.8,0.9-1.8,0.9-3c0-1.3-0.3-2.3-0.9-3c-0.6-0.8-1.5-1.1-2.7-1.1
			C626.1,178.4,625.2,178.8,624.6,179.6z"/>
		<path class="st9" d="M639.7,178.2c0.7,0.5,1,1.3,1.1,2.4h-1.1c-0.1-0.7-0.4-1.3-0.8-1.6c-0.4-0.4-1.1-0.5-1.9-0.5
			s-1.3,0.1-1.7,0.4c-0.5,0.3-0.7,0.7-0.7,1.3c0,0.5,0.3,0.9,0.9,1.2c0.2,0.1,0.9,0.4,1.8,0.6c1.3,0.4,2.2,0.7,2.6,1
			c0.8,0.5,1.2,1.2,1.2,2.1c0,0.9-0.4,1.6-1.1,2.1s-1.7,0.7-2.8,0.7c-1.2,0-2.1-0.3-2.8-0.8c-0.8-0.6-1.2-1.5-1.3-2.7h1.1
			c0.1,0.9,0.4,1.5,0.9,1.9s1.2,0.6,2,0.6s1.5-0.2,2-0.5s0.8-0.7,0.8-1.3s-0.3-1.1-1-1.5c-0.3-0.1-1-0.4-2.1-0.7
			c-1.2-0.4-1.9-0.6-2.3-0.8c-0.8-0.4-1.1-1.1-1.1-1.9c0-0.9,0.4-1.6,1.1-2s1.5-0.7,2.5-0.7C638.1,177.4,639,177.7,639.7,178.2z"/>
	</g>
	<g id="XMLID_1_">
		<g>
			<path class="st5" d="M579.7,179.5v8l7,4l7-4v-8l-7-4L579.7,179.5z M585.7,188.6l-4-2.3v-3.7l4,2.3V188.6z M591.7,186.3l-4,2.3
				v-3.7l4-2.3V186.3z M586.7,183.2l-4.7-2.7l4.7-2.7l4.7,2.7L586.7,183.2z M598.7,190.3l-12,6.9l-12-6.9v-13.7l12-6.9l12,6.9l0,0
				l2-1.1l-14-8l-14,8v16l14,8l14-8v-12l-2,1.1V190.3z"/>
		</g>
	</g>
</g>
<g>
	<polygon class="st7" points="541,188.5 546,183.5 541,178.5 	"/>
	<line class="st8" x1="502" y1="183.5" x2="541" y2="183.5"/>
</g>
<g>
	<path class="st9" d="M409.4,55.9v10h-1.1v-8.6c-0.6,0.6-1.4,1.1-2.4,1.4v-1.1c0.4-0.1,0.9-0.3,1.4-0.6s0.9-0.6,1.2-1h0.9V55.9z"/>
	<path class="st9" d="M419.6,57.3c0.5,0.9,0.8,2.1,0.8,3.6s-0.3,2.7-0.8,3.6c-0.6,1.1-1.5,1.6-2.7,1.6s-2.1-0.5-2.7-1.6
		c-0.5-0.9-0.8-2.1-0.8-3.6s0.3-2.7,0.8-3.6c0.6-1.1,1.5-1.6,2.7-1.6S419,56.3,419.6,57.3z M415,58.1c-0.3,0.7-0.4,1.6-0.4,2.8
		s0.1,2.1,0.4,2.8c0.4,1,1,1.4,1.9,1.4s1.5-0.5,1.9-1.4c0.3-0.7,0.4-1.6,0.4-2.8s-0.1-2.1-0.4-2.8c-0.4-1-1-1.4-1.9-1.4
		C416,56.7,415.4,57.2,415,58.1z"/>
	<path class="st9" d="M427.8,56.5c0.5,0.5,0.8,1.1,0.8,1.8c0,0.5-0.1,1-0.4,1.3c-0.3,0.4-0.7,0.7-1.2,0.9l0,0c0.5,0.1,1,0.4,1.3,0.9
		c0.4,0.5,0.6,1,0.6,1.7c0,0.9-0.3,1.6-0.9,2.1c-0.7,0.6-1.5,0.8-2.7,0.8s-2.1-0.3-2.7-0.8s-0.9-1.2-0.9-2.1c0-0.6,0.2-1.2,0.6-1.7
		s0.8-0.7,1.3-0.9l0,0c-0.5-0.2-0.9-0.5-1.2-0.9c-0.3-0.4-0.4-0.8-0.4-1.3c0-0.7,0.3-1.3,0.8-1.8c0.6-0.5,1.4-0.8,2.5-0.8
		S427.2,56,427.8,56.5z M423.5,61.7c-0.4,0.4-0.6,0.8-0.6,1.5c0,0.6,0.2,1.1,0.6,1.4c0.4,0.4,1,0.6,1.9,0.6c0.8,0,1.4-0.2,1.9-0.6
		c0.4-0.4,0.6-0.8,0.6-1.4c0-0.6-0.2-1.1-0.6-1.5s-1.1-0.6-1.9-0.6C424.5,61.1,423.9,61.3,423.5,61.7z M423.6,57.2
		c-0.3,0.3-0.5,0.7-0.5,1.2s0.2,0.9,0.5,1.2c0.4,0.4,0.9,0.6,1.7,0.6c0.8,0,1.3-0.2,1.7-0.6c0.3-0.3,0.5-0.7,0.5-1.2
		s-0.2-0.9-0.5-1.2c-0.4-0.4-1-0.5-1.7-0.5S424,56.8,423.6,57.2z"/>
	<path class="st9" d="M436.4,57.3c0.5,0.9,0.8,2.1,0.8,3.6s-0.3,2.7-0.8,3.6c-0.6,1.1-1.5,1.6-2.7,1.6s-2.1-0.5-2.7-1.6
		c-0.5-0.9-0.8-2.1-0.8-3.6s0.3-2.7,0.8-3.6c0.6-1.1,1.5-1.6,2.7-1.6S435.8,56.3,436.4,57.3z M431.8,58.1c-0.3,0.7-0.4,1.6-0.4,2.8
		s0.1,2.1,0.4,2.8c0.4,1,1,1.4,1.9,1.4s1.5-0.5,1.9-1.4c0.3-0.7,0.4-1.6,0.4-2.8s-0.1-2.1-0.4-2.8c-0.4-1-1-1.4-1.9-1.4
		C432.8,56.7,432.2,57.2,431.8,58.1z"/>
	<path class="st9" d="M444.7,59.6c0.6,0.7,0.8,1.6,0.8,2.7c0,1.1-0.3,1.9-0.8,2.6c-0.6,0.8-1.4,1.1-2.4,1.1s-1.8-0.5-2.4-1.5v4.1
		h-1.1v-10h1v1.2c0.5-0.9,1.3-1.4,2.4-1.4C443.3,58.5,444.1,58.9,444.7,59.6z M440.4,60.3c-0.4,0.5-0.5,1.2-0.5,2v0.1
		c0,0.8,0.2,1.5,0.6,2s0.9,0.8,1.6,0.8c0.8,0,1.4-0.3,1.8-0.8s0.5-1.2,0.5-2.1c0-0.8-0.2-1.5-0.5-2c-0.4-0.6-1-0.9-1.8-0.9
		C441.4,59.4,440.8,59.7,440.4,60.3z"/>
	<path class="st9" d="M449.5,58.3h1v2.1h1.6v0.9h-1.6v2c0.6-0.1,1.2-0.3,1.9-0.4v1c-0.8,0.2-1.5,0.4-1.9,0.5v3h-1v-2.8
		c-0.9,0.2-1.8,0.3-2.7,0.4l-0.1-1c1-0.1,1.9-0.3,2.8-0.4v-2.1h-2.4l-0.2-0.9c0.4-0.8,0.8-1.9,1.1-3.2h-1.4v-1h1.7l0.4-1.9l1,0.1
		c-0.1,0.6-0.2,1.2-0.4,1.7h2.7v1h-2.9c-0.3,1.2-0.7,2.2-1.1,3.2h1.5V58.3z M452.6,56.3h2.2l0.3-1.9l1,0.1l-0.2,0.9
		c-0.1,0.4-0.1,0.7-0.2,0.9h3.4v1h-3.6l-0.4,1.6h4.3v1H455c-0.1,0.6-0.3,1.2-0.5,1.8h4.5v0.8c-0.5,1-1.2,1.9-2.2,2.9
		c0.6,0.4,1.2,0.7,1.6,1.1l-0.6,0.9c-1.5-1.1-3-2-4.5-2.7l0.5-0.8c0.7,0.3,1.3,0.6,2.1,1c0.8-0.7,1.5-1.5,2-2.3h-4.7
		c0.3-1,0.6-1.9,0.8-2.7h-1.8v-1h2l0.4-1.6h-2L452.6,56.3L452.6,56.3z"/>
	<path class="st9" d="M465.4,59.4v7.2h-0.9v-0.8H463v1.1h-1v-5.7c-0.3,0.5-0.6,1-0.9,1.5l-0.5-0.8c1.1-1.6,1.8-3.5,2.1-5.6H461v-1
		h4.8v1h-2.1c-0.2,1.2-0.5,2.2-0.8,3.1C462.9,59.4,465.4,59.4,465.4,59.4z M463,64.9h1.5v-4.6H463V64.9z M466.1,63.3h5.1v1h-5.1
		V63.3z M467.3,57l1,0.1l-0.6,3.5h3l0.7-4.6h-4.9v-1h6l-0.8,5.5h1.5c0,3.4-0.2,5.3-0.6,5.9c-0.4,0.5-1.2,0.8-2.4,0.8
		c-0.4,0-0.8,0-1.3,0l-0.3-1c0.6,0.1,1,0.1,1.3,0.1c1.1,0,1.7-0.2,1.9-0.7c0.2-0.5,0.3-1.8,0.3-4.1h-5.7L467.3,57z"/>
</g>
<rect x="364.8" y="45.5" class="st6" width="32" height="32"/>
<g id="XMLID_94_">
	<g id="XMLID_106_">
		<g>
			<path class="st5" d="M379.4,74.5c-7.2,0-13.1-5.8-13.1-13s5.8-13,13.1-13c6.5,0,11.9,4.8,12.9,11h2c-1-7.3-7.3-13-14.9-13
				c-8.3,0-15.1,6.7-15.1,15s6.7,15,15.1,15c7.6,0,13.9-5.7,14.9-13h-2C391.3,69.7,385.9,74.5,379.4,74.5z"/>
		</g>
	</g>
	<g id="XMLID_101_">
		<path id="XMLID_105_" class="st5" d="M372.3,63.5l5,3v2l-5-3V63.5z"/>
		<path id="XMLID_104_" class="st5" d="M372.3,59.5l5-3v-2l-5,3V59.5z"/>
		<path id="XMLID_103_" class="st5" d="M372.3,57.5h2v8h-2V57.5z"/>
	</g>
	<g id="XMLID_97_">
		<path id="XMLID_100_" class="st5" d="M384.3,57.5h2v8h-2V57.5z"/>
		<path id="XMLID_99_" class="st5" d="M386.3,65.5l-5,3v-2l5-3V65.5z"/>
		<path id="XMLID_98_" class="st5" d="M386.3,57.5l-5-3v2l5,3V57.5z"/>
	</g>
	<polygon id="XMLID_95_" class="st5" points="379.3,64.5 377.3,64.5 379.3,58.5 381.3,58.5 	"/>
</g>
<g>
	<path class="st9" d="M409.4,116.2h6.6v0.9l-3.7,9.1h-1.2l3.7-8.9h-5.4V116.2z"/>
	<path class="st9" d="M423.5,116.8c0.6,0.5,0.9,1.2,0.9,2.1s-0.3,1.6-1,2.4c-0.4,0.4-1.1,0.9-2.1,1.6c-1.3,0.8-2,1.6-2.2,2.3h5.3v1
		h-6.7c0-0.9,0.3-1.8,1-2.5c0.4-0.5,1.2-1.1,2.2-1.8c0.8-0.6,1.3-1,1.6-1.2c0.5-0.6,0.8-1.2,0.8-1.8c0-0.6-0.2-1.1-0.5-1.4
		s-0.9-0.5-1.5-0.5c-0.7,0-1.2,0.2-1.6,0.7s-0.6,1.1-0.6,2H418c0-1.1,0.3-2,0.9-2.7s1.4-1,2.5-1C422.2,116,422.9,116.3,423.5,116.8z
		"/>
	<path class="st9" d="M432.2,117.6c0.5,0.9,0.8,2.1,0.8,3.6s-0.3,2.7-0.8,3.6c-0.6,1.1-1.5,1.6-2.7,1.6s-2.1-0.5-2.7-1.6
		c-0.5-0.9-0.8-2.1-0.8-3.6s0.3-2.7,0.8-3.6c0.6-1.1,1.5-1.6,2.7-1.6S431.6,116.6,432.2,117.6z M427.6,118.4
		c-0.3,0.7-0.4,1.6-0.4,2.8c0,1.2,0.1,2.1,0.4,2.8c0.4,1,1,1.4,1.9,1.4s1.5-0.5,1.9-1.4c0.3-0.7,0.4-1.6,0.4-2.8
		c0-1.2-0.1-2.1-0.4-2.8c-0.4-1-1-1.4-1.9-1.4S428,117.5,427.6,118.4z"/>
	<path class="st9" d="M440.5,119.9c0.6,0.7,0.8,1.6,0.8,2.7s-0.3,1.9-0.8,2.6c-0.6,0.8-1.4,1.1-2.4,1.1s-1.8-0.5-2.4-1.5v4.1h-1.1
		v-10h1v1.2c0.5-0.9,1.3-1.4,2.4-1.4C439.1,118.8,439.9,119.2,440.5,119.9z M436.2,120.6c-0.4,0.5-0.5,1.2-0.5,2v0.1
		c0,0.8,0.2,1.5,0.6,2s0.9,0.8,1.6,0.8c0.8,0,1.4-0.3,1.8-0.8s0.5-1.2,0.5-2.1c0-0.8-0.2-1.5-0.5-2c-0.4-0.6-1-0.9-1.8-0.9
		C437.2,119.7,436.6,120,436.2,120.6z"/>
	<path class="st9" d="M445.3,118.6h1v2.1h1.6v0.9h-1.6v1.9c0.6-0.1,1.2-0.3,1.9-0.4v1c-0.8,0.2-1.5,0.4-1.9,0.5v3h-1v-2.8
		c-0.9,0.2-1.8,0.3-2.7,0.4l-0.1-1c1-0.1,1.9-0.3,2.8-0.4v-2.1H443l-0.2-0.9c0.4-0.8,0.8-1.9,1.1-3.2h-1.4v-1h1.7l0.4-1.9l1,0.1
		c-0.1,0.6-0.2,1.2-0.4,1.7h2.7v1H445c-0.3,1.2-0.7,2.2-1.1,3.2h1.5v-2.1H445.3z M448.4,116.6h2.2l0.3-1.9l1,0.1l-0.2,0.9
		c-0.1,0.4-0.1,0.7-0.2,0.9h3.4v1h-3.6l-0.4,1.6h4.3v1h-4.5c-0.1,0.6-0.3,1.2-0.5,1.8h4.5v0.8c-0.5,1-1.2,1.9-2.2,2.9
		c0.6,0.4,1.2,0.7,1.6,1.1l-0.6,0.9c-1.5-1.1-3-2-4.5-2.7l0.5-0.8c0.7,0.3,1.3,0.6,2.1,1c0.8-0.7,1.5-1.5,2-2.3H449
		c0.3-1,0.6-1.9,0.8-2.7H448v-1h2l0.4-1.6h-2V116.6z"/>
	<path class="st9" d="M461.2,119.7v7.2h-0.9v-0.8h-1.5v1.1h-0.9v-5.7c-0.3,0.5-0.6,1-0.9,1.5l-0.5-0.8c1.1-1.6,1.8-3.5,2.1-5.6h-1.7
		v-1h4.8v1h-2.1c-0.2,1.2-0.5,2.2-0.8,3.1H461.2z M458.8,125.2h1.5v-4.6h-1.5V125.2z M461.9,123.6h5.1v1h-5.1V123.6z M463.1,117.3
		l1,0.1l-0.6,3.5h3l0.7-4.6h-4.9v-1h6l-0.8,5.5h1.5c0,3.4-0.2,5.3-0.6,5.9c-0.4,0.5-1.2,0.8-2.4,0.8c-0.4,0-0.8,0-1.3,0l-0.3-1
		c0.6,0.1,1,0.1,1.3,0.1c1.1,0,1.7-0.2,1.9-0.7c0.2-0.5,0.3-1.8,0.3-4.1h-5.7L463.1,117.3z"/>
</g>
<rect x="364.8" y="105.8" class="st6" width="32" height="32"/>
<g id="XMLID_76_">
	<g id="XMLID_87_">
		<g>
			<path class="st5" d="M379.4,134.8c-7.2,0-13.1-5.8-13.1-13s5.8-13,13.1-13c6.5,0,11.9,4.8,12.9,11h2c-1-7.3-7.3-13-14.9-13
				c-8.3,0-15.1,6.7-15.1,15s6.7,15,15.1,15c7.6,0,13.9-5.7,14.9-13h-2C391.3,130,385.9,134.8,379.4,134.8z"/>
		</g>
	</g>
	<g id="XMLID_83_">
		<path id="XMLID_86_" class="st5" d="M372.3,123.8l5,3v2l-5-3V123.8z"/>
		<path id="XMLID_85_" class="st5" d="M372.3,119.8l5-3v-2l-5,3V119.8z"/>
		<path id="XMLID_84_" class="st5" d="M372.3,117.8h2v8h-2V117.8z"/>
	</g>
	<g id="XMLID_78_">
		<path id="XMLID_82_" class="st5" d="M384.3,117.8h2v8h-2V117.8z"/>
		<path id="XMLID_81_" class="st5" d="M386.3,125.8l-5,3v-2l5-3V125.8z"/>
		<path id="XMLID_79_" class="st5" d="M386.3,117.8l-5-3v2l5,3V117.8z"/>
	</g>
	<polygon id="XMLID_77_" class="st5" points="379.3,124.8 377.3,124.8 379.3,118.8 381.3,118.8 	"/>
</g>
<rect x="364.8" y="165.5" class="st6" width="32" height="32"/>
<g>
	<path class="st9" d="M413.9,175.6h1.1v6.8h1.6v0.9H415v2.3h-1.1v-2.3h-5v-1.1L413.9,175.6z M413.8,177.1l-4,5.3h4.1L413.8,177.1
		L413.8,177.1z"/>
	<path class="st9" d="M423.6,176.2c0.5,0.5,0.8,1.1,0.8,1.8c0,0.5-0.1,1-0.4,1.3c-0.3,0.4-0.7,0.7-1.2,0.9l0,0
		c0.5,0.1,1,0.4,1.3,0.9c0.4,0.5,0.6,1,0.6,1.7c0,0.9-0.3,1.6-0.9,2.1c-0.7,0.6-1.5,0.8-2.7,0.8s-2.1-0.3-2.7-0.8s-0.9-1.2-0.9-2.1
		c0-0.6,0.2-1.2,0.6-1.7s0.8-0.7,1.3-0.9l0,0c-0.5-0.2-0.9-0.5-1.2-0.9c-0.3-0.4-0.4-0.8-0.4-1.3c0-0.7,0.3-1.3,0.8-1.8
		c0.6-0.5,1.4-0.8,2.5-0.8S423,175.7,423.6,176.2z M419.3,181.4c-0.4,0.4-0.6,0.8-0.6,1.5c0,0.6,0.2,1.1,0.6,1.4
		c0.4,0.4,1,0.6,1.9,0.6c0.8,0,1.4-0.2,1.9-0.6c0.4-0.4,0.6-0.8,0.6-1.4c0-0.6-0.2-1.1-0.6-1.5s-1.1-0.6-1.9-0.6
		C420.3,180.8,419.7,181,419.3,181.4z M419.4,176.9c-0.3,0.3-0.5,0.7-0.5,1.2s0.2,0.9,0.5,1.2c0.4,0.4,0.9,0.6,1.7,0.6
		c0.8,0,1.3-0.2,1.7-0.6c0.3-0.3,0.5-0.7,0.5-1.2s-0.2-0.9-0.5-1.2c-0.4-0.4-1-0.5-1.7-0.5S419.8,176.5,419.4,176.9z"/>
	<path class="st9" d="M432.2,177c0.5,0.9,0.8,2.1,0.8,3.6s-0.3,2.7-0.8,3.6c-0.6,1.1-1.5,1.6-2.7,1.6s-2.1-0.5-2.7-1.6
		c-0.5-0.9-0.8-2.1-0.8-3.6s0.3-2.7,0.8-3.6c0.6-1.1,1.5-1.6,2.7-1.6S431.6,176,432.2,177z M427.6,177.8c-0.3,0.7-0.4,1.6-0.4,2.8
		s0.1,2.1,0.4,2.8c0.4,1,1,1.4,1.9,1.4s1.5-0.5,1.9-1.4c0.3-0.7,0.4-1.6,0.4-2.8s-0.1-2.1-0.4-2.8c-0.4-1-1-1.4-1.9-1.4
		C428.6,176.4,428,176.9,427.6,177.8z"/>
	<path class="st9" d="M440.5,179.3c0.6,0.7,0.8,1.6,0.8,2.7c0,1.1-0.3,1.9-0.8,2.6c-0.6,0.8-1.4,1.1-2.4,1.1s-1.8-0.5-2.4-1.5v4.1
		h-1.1v-10h1v1.2c0.5-0.9,1.3-1.4,2.4-1.4C439.1,178.2,439.9,178.6,440.5,179.3z M436.2,180c-0.4,0.5-0.5,1.2-0.5,2v0.1
		c0,0.8,0.2,1.5,0.6,2s0.9,0.8,1.6,0.8c0.8,0,1.4-0.3,1.8-0.8s0.5-1.2,0.5-2.1c0-0.8-0.2-1.5-0.5-2c-0.4-0.6-1-0.9-1.8-0.9
		C437.2,179.1,436.6,179.4,436.2,180z"/>
	<path class="st9" d="M445.3,178h1v2.1h1.6v0.9h-1.6v1.9c0.6-0.1,1.2-0.3,1.9-0.4v1c-0.8,0.2-1.5,0.4-1.9,0.5v3h-1v-2.8
		c-0.9,0.2-1.8,0.3-2.7,0.4l-0.1-1c1-0.1,1.9-0.3,2.8-0.4v-2.1H443l-0.2-0.9c0.4-0.8,0.8-1.9,1.1-3.2h-1.4v-1h1.7l0.4-1.9l1,0.1
		c-0.1,0.6-0.2,1.2-0.4,1.7h2.7v1H445c-0.3,1.2-0.7,2.2-1.1,3.2h1.5V178H445.3z M448.4,176h2.2l0.3-1.9l1,0.1l-0.2,0.9
		c-0.1,0.4-0.1,0.7-0.2,0.9h3.4v1h-3.6l-0.4,1.6h4.3v1h-4.5c-0.1,0.6-0.3,1.2-0.5,1.8h4.5v0.8c-0.5,1-1.2,1.9-2.2,2.9
		c0.6,0.4,1.2,0.7,1.6,1.1l-0.6,0.9c-1.5-1.1-3-2-4.5-2.7l0.5-0.8c0.7,0.3,1.3,0.6,2.1,1c0.8-0.7,1.5-1.5,2-2.3H449
		c0.3-1,0.6-1.9,0.8-2.7H448v-1h2l0.4-1.6h-2V176z"/>
	<path class="st9" d="M461.2,179.1v7.2h-0.9v-0.8h-1.5v1.1h-0.9v-5.7c-0.3,0.5-0.6,1-0.9,1.5l-0.5-0.8c1.1-1.6,1.8-3.5,2.1-5.6h-1.7
		v-1h4.8v1h-2.1c-0.2,1.2-0.5,2.2-0.8,3.1H461.2z M458.8,184.6h1.5V180h-1.5V184.6z M461.9,183h5.1v1h-5.1V183z M463.1,176.7l1,0.1
		l-0.6,3.5h3l0.7-4.6h-4.9v-1h6l-0.8,5.5h1.5c0,3.4-0.2,5.3-0.6,5.9c-0.4,0.5-1.2,0.8-2.4,0.8c-0.4,0-0.8,0-1.3,0l-0.3-1
		c0.6,0.1,1,0.1,1.3,0.1c1.1,0,1.7-0.2,1.9-0.7c0.2-0.5,0.3-1.8,0.3-4.1h-5.7L463.1,176.7z"/>
</g>
<g id="XMLID_57_">
	<g id="XMLID_69_">
		<g>
			<path class="st5" d="M379.4,194.5c-7.2,0-13.1-5.8-13.1-13s5.8-13,13.1-13c6.5,0,11.9,4.8,12.9,11h2c-1-7.3-7.3-13-14.9-13
				c-8.3,0-15.1,6.7-15.1,15s6.7,15,15.1,15c7.6,0,13.9-5.7,14.9-13h-2C391.3,189.7,385.9,194.5,379.4,194.5z"/>
		</g>
	</g>
	<g id="XMLID_65_">
		<path id="XMLID_68_" class="st5" d="M372.3,183.5l5,3v2l-5-3V183.5z"/>
		<path id="XMLID_67_" class="st5" d="M372.3,179.5l5-3v-2l-5,3V179.5z"/>
		<path id="XMLID_66_" class="st5" d="M372.3,177.5h2v8h-2V177.5z"/>
	</g>
	<g id="XMLID_59_">
		<path id="XMLID_63_" class="st5" d="M384.3,177.5h2v8h-2V177.5z"/>
		<path id="XMLID_61_" class="st5" d="M386.3,185.5l-5,3v-2l5-3V185.5z"/>
		<path id="XMLID_60_" class="st5" d="M386.3,177.5l-5-3v2l5,3V177.5z"/>
	</g>
	<polygon id="XMLID_58_" class="st5" points="379.3,184.5 377.3,184.5 379.3,178.5 381.3,178.5 	"/>
</g>
<g>
	<path class="st9" d="M412.7,239.1h5.1c-0.2-0.5-0.4-1-0.7-1.3l1.1-0.2c0.2,0.4,0.4,0.9,0.6,1.5h4.9v0.9h-2.2
		c-0.2,0.8-0.5,1.5-0.9,2.2h3.7v0.9H412v-0.9h3.6c-0.2-0.7-0.5-1.5-0.8-2.2h-2.2v-0.9H412.7z M422.6,244.4v6.2h-1V250H415v0.6h-1
		v-6.2H422.6z M414.9,246.8h6.6v-1.5h-6.6V246.8z M414.9,249.1h6.6v-1.5h-6.6V249.1z M415.9,240.1c0.2,0.6,0.5,1.4,0.7,2.2h3
		c0.4-0.7,0.7-1.5,0.8-2.2H415.9z"/>
	<path class="st9" d="M428.7,237.8h1v1.7h1.9v1h-1.9v1.6h2.1v1h-5.9v-1h0.8V239h1v3.1h1.1v-4.3H428.7z M427.9,244.6
		c-0.3,1.3-0.8,2.3-1.3,3l-0.7-0.6c0.5-0.7,0.9-1.6,1.1-2.7L427.9,244.6z M431.9,244.4c-0.6,3.1-2.4,5.2-5.4,6.2l-0.6-0.9
		c2.8-0.9,4.5-2.7,5.1-5.4L431.9,244.4z M428.7,243.5h1v3.7h-1V243.5z M434.7,242.6h1v2.5c0,1.5-0.3,2.7-0.9,3.6
		c-0.6,0.8-1.5,1.5-2.8,1.9l-0.6-0.9c1.3-0.4,2.1-1,2.6-1.7c0.5-0.8,0.7-1.7,0.7-2.9L434.7,242.6L434.7,242.6z M432,238.3h6.6v1
		h-2.8c0,0.5-0.1,1-0.2,1.5h2.5v6.6h-1v-5.7h-3.6v5.7h-1v-6.6h2.1c0.1-0.5,0.1-1,0.2-1.5H432V238.3z M436.3,247.6
		c1,0.8,1.8,1.6,2.4,2.4l-0.7,0.7c-0.6-0.8-1.4-1.6-2.4-2.5L436.3,247.6z"/>
	<path class="st9" d="M442.6,241.6h1v2.1h1.6v0.9h-1.6v1.9c0.6-0.1,1.2-0.3,1.9-0.4v1c-0.8,0.2-1.5,0.4-1.9,0.5v3h-1v-2.8
		c-0.9,0.2-1.8,0.3-2.7,0.4l-0.1-1c1-0.1,1.9-0.3,2.8-0.4v-2.1h-2.4l-0.2-0.9c0.4-0.8,0.8-1.9,1.1-3.2h-1.4v-1h1.7l0.4-1.9l1,0.1
		c-0.1,0.6-0.2,1.2-0.4,1.7h2.7v1h-2.9c-0.3,1.2-0.7,2.2-1.1,3.2h1.5V241.6z M445.7,239.6h2.2l0.3-1.9l1,0.1l-0.2,0.9
		c-0.1,0.4-0.1,0.7-0.2,0.9h3.4v1h-3.6l-0.4,1.6h4.3v1H448c-0.1,0.6-0.3,1.2-0.5,1.8h4.5v0.8c-0.5,1-1.2,1.9-2.2,2.9
		c0.6,0.4,1.2,0.7,1.6,1.1l-0.6,0.9c-1.5-1.1-3-2-4.5-2.7l0.5-0.8c0.7,0.3,1.3,0.6,2.1,1c0.8-0.7,1.5-1.5,2-2.3h-4.7
		c0.3-1,0.6-1.9,0.8-2.7h-1.8v-1h2l0.4-1.6h-2v-1H445.7z"/>
	<path class="st9" d="M458.5,242.7v7.2h-0.9v-0.8h-1.5v1.1h-0.9v-5.7c-0.3,0.5-0.6,1-0.9,1.5l-0.5-0.8c1.1-1.6,1.8-3.5,2.1-5.6h-1.7
		v-1h4.8v1h-2.1c-0.2,1.2-0.5,2.2-0.8,3.1H458.5z M456.1,248.2h1.5v-4.6h-1.5V248.2z M459.2,246.6h5.1v1h-5.1V246.6z M460.4,240.3
		l1,0.1l-0.6,3.5h3l0.7-4.6h-4.9v-1h6l-0.8,5.5h1.5c0,3.4-0.2,5.3-0.6,5.9c-0.4,0.5-1.2,0.8-2.4,0.8c-0.4,0-0.8,0-1.3,0l-0.3-1
		c0.6,0.1,1,0.1,1.3,0.1c1.1,0,1.7-0.2,1.9-0.7c0.2-0.5,0.3-1.8,0.3-4.1h-5.7L460.4,240.3z"/>
</g>
<rect x="364.8" y="228.1" class="st6" width="32" height="32"/>
<g id="XMLID_38_">
	<g id="XMLID_50_">
		<g>
			<path class="st5" d="M379.4,257.1c-7.2,0-13.1-5.8-13.1-13s5.8-13,13.1-13c6.5,0,11.9,4.8,12.9,11h2c-1-7.3-7.3-13-14.9-13
				c-8.3,0-15.1,6.7-15.1,15s6.7,15,15.1,15c7.6,0,13.9-5.7,14.9-13h-2C391.3,252.3,385.9,257.1,379.4,257.1z"/>
		</g>
	</g>
	<g id="XMLID_45_">
		<path id="XMLID_49_" class="st5" d="M372.3,246.1l5,3v2l-5-3V246.1z"/>
		<path id="XMLID_48_" class="st5" d="M372.3,242.1l5-3v-2l-5,3V242.1z"/>
		<path id="XMLID_46_" class="st5" d="M372.3,240.1h2v8h-2V240.1z"/>
	</g>
	<g id="XMLID_41_">
		<path id="XMLID_44_" class="st5" d="M384.3,240.1h2v8h-2V240.1z"/>
		<path id="XMLID_43_" class="st5" d="M386.3,248.1l-5,3v-2l5-3V248.1z"/>
		<path id="XMLID_42_" class="st5" d="M386.3,240.1l-5-3v2l5,3V240.1z"/>
	</g>
	<polygon id="XMLID_40_" class="st5" points="379.3,247.1 377.3,247.1 379.3,241.1 381.3,241.1 	"/>
</g>
<g>
	<path class="st9" d="M412.3,300.9h2.4v-1.7h1v1.7h2.4v1h-2.4v1.8h2.6v1H412v-1h2.7v-1.9h-2.4L412.3,300.9L412.3,300.9z
		 M412.2,306.7h2.5v-1.6h1v1.6h2.4v1h-2.4v2.3c1-0.1,1.9-0.3,2.7-0.5v1c-1.9,0.4-4,0.7-6.3,0.9l-0.1-1.1c0.8-0.1,1.7-0.2,2.7-0.3
		v-2.4h-2.5L412.2,306.7L412.2,306.7z M418.4,301.8h3.8v-2.9h1v2.9h1.2v1h-1.2v7.5c0,0.9-0.5,1.4-1.5,1.4H420l-0.2-1
		c0.7,0,1.3,0.1,1.6,0.1c0.6,0,0.8-0.2,0.8-0.7v-7.3h-3.8V301.8z M419.7,304.3c0.6,1,1.2,2.1,1.7,3.3l-0.8,0.4
		c-0.5-1.2-1.1-2.3-1.7-3.3L419.7,304.3z"/>
	<path class="st9" d="M426,299.5h12.5v1h-5.6c-0.1,0.6-0.3,1.2-0.5,1.8h5.4v9.5h-1v-0.7h-9v0.7h-1v-9.5h4.5c0.2-0.6,0.4-1.2,0.5-1.8
		H426V299.5z M427.7,310.2h1.9v-7h-1.9V310.2z M430.6,305h3.2v-1.7h-3.2V305z M430.6,307.6h3.2v-1.7h-3.2V307.6z M430.6,310.2h3.2
		v-1.8h-3.2V310.2z M434.7,310.2h2v-7h-2V310.2z"/>
	<path class="st9" d="M441.2,306.5c-0.3,0.3-0.5,0.7-0.8,1l-0.6-0.7c0.9-0.8,1.6-1.9,2.1-3.2l0.8,0.2c-0.1,0.3-0.3,0.6-0.5,1.1h2
		c-0.1-0.3-0.3-0.7-0.4-1l1-0.2c0.1,0.3,0.3,0.7,0.4,1.2h2.2v0.8H445v1h2v0.7h-2v1h2v0.7h-2v1h2.2v0.6c0.6-0.5,1.2-1.1,1.7-1.8
		c-0.2-0.7-0.4-1.4-0.6-2.2c-0.2-0.9-0.3-2-0.4-3.3H440v-0.9h3.5v-1.3h-2.8v-0.9h2.8v-1.1h1v1.1h2.5v0.9h-2.5v1.3h3.3
		c0-0.9-0.1-2-0.1-3.3h1c0,1.2,0,2.4,0.1,3.3h3.6v0.9h-3.6c0.1,1.3,0.2,2.3,0.3,3.1c0.1,0.4,0.2,0.9,0.3,1.4
		c0.5-1.1,0.9-2.4,1.2-3.8l0.9,0.4c-0.4,1.9-1,3.4-1.7,4.7c0.1,0.1,0.1,0.3,0.3,0.6c0.4,0.7,0.6,1,0.8,1c0.2,0,0.4-0.7,0.6-2.1
		l0.9,0.5c-0.3,1.8-0.7,2.8-1.3,2.8c-0.5,0-1-0.4-1.5-1.3c-0.1-0.2-0.2-0.4-0.3-0.6c-0.6,0.8-1.2,1.4-2,1.8l-0.5-0.8l0.1-0.1h-4.8
		v0.7h-0.9L441.2,306.5L441.2,306.5z M444.1,306.6v-1h-2v1H444.1z M444.1,308.3v-1h-2v1H444.1z M442.1,310h2v-1h-2V310z
		 M450.1,299.2c0.7,0.8,1.2,1.4,1.5,2l-0.7,0.5c-0.4-0.6-0.9-1.3-1.5-2.1L450.1,299.2z"/>
	<path class="st9" d="M465.9,299.6v12.2h-1v-0.6h-9.5v0.6h-1v-12.2H465.9z M455.5,310.3h9.5v-9.9h-9.5V310.3z M459.8,300.9
		c-0.1,0.3-0.3,0.6-0.4,0.8h3.7v0.7c-0.4,0.8-1,1.4-1.8,2c1,0.5,2,0.8,3.2,1.1l-0.5,0.8c-1.4-0.4-2.5-0.8-3.5-1.4
		c-1.1,0.6-2.4,1-4,1.4l-0.4-0.8c1.4-0.3,2.7-0.6,3.6-1.1c-0.6-0.4-1-0.8-1.4-1.2c-0.4,0.4-0.9,0.8-1.4,1.1l-0.6-0.7
		c1.3-0.8,2.1-1.7,2.6-2.7L459.8,300.9z M457.7,307.7c1.8,0.3,3.6,0.8,5.4,1.5l-0.3,0.8c-1.7-0.7-3.5-1.2-5.4-1.6L457.7,307.7z
		 M459.2,305.7c1.1,0.4,2.1,0.8,3,1.3l-0.5,0.7c-0.9-0.6-1.9-1-3-1.4L459.2,305.7z M462.1,302.4h-3.2c-0.1,0.1-0.1,0.1-0.1,0.2
		c0.5,0.5,1.1,0.9,1.7,1.3C461.2,303.5,461.7,303,462.1,302.4z"/>
</g>
<rect x="364.8" y="289.4" class="st6" width="32" height="32"/>
<g id="XMLID_20_">
	<g id="XMLID_31_">
		<g>
			<path class="st5" d="M379.4,318.4c-7.2,0-13.1-5.8-13.1-13s5.8-13,13.1-13c6.5,0,11.9,4.8,12.9,11h2c-1-7.3-7.3-13-14.9-13
				c-8.3,0-15.1,6.7-15.1,15s6.7,15,15.1,15c7.6,0,13.9-5.7,14.9-13h-2C391.3,313.6,385.9,318.4,379.4,318.4z"/>
		</g>
	</g>
	<g id="XMLID_27_">
		<path id="XMLID_30_" class="st5" d="M372.3,307.4l5,3v2l-5-3V307.4z"/>
		<path id="XMLID_29_" class="st5" d="M372.3,303.4l5-3v-2l-5,3V303.4z"/>
		<path id="XMLID_28_" class="st5" d="M372.3,301.4h2v8h-2V301.4z"/>
	</g>
	<g id="XMLID_22_">
		<path id="XMLID_25_" class="st5" d="M384.3,301.4h2v8h-2V301.4z"/>
		<path id="XMLID_24_" class="st5" d="M386.3,309.4l-5,3v-2l5-3V309.4z"/>
		<path id="XMLID_23_" class="st5" d="M386.3,301.4l-5-3v2l5,3V301.4z"/>
	</g>
	<polygon id="XMLID_21_" class="st5" points="379.3,308.4 377.3,308.4 379.3,302.4 381.3,302.4 	"/>
</g>
<rect x="729" y="121.9" class="st6" width="32" height="32"/>
<g>
	<g>
		<path class="st9" d="M776.2,133.9c-0.2,0.4-0.4,0.7-0.6,0.9h5.2v0.8c-0.6,0.8-1.4,1.5-2.5,2.1c1.5,0.6,3.2,1,5.1,1.1l-0.2,0.9
			c-2.3-0.2-4.2-0.7-6-1.5c-1.6,0.7-3.7,1.3-6.3,1.8l-0.4-0.9c2.3-0.4,4.2-0.8,5.6-1.4c-0.7-0.4-1.4-0.9-2-1.4
			c-0.5,0.5-1.1,0.9-1.8,1.3l-0.6-0.8c1.4-0.8,2.5-1.8,3.4-3.1L776.2,133.9z M782.7,132.5v2.6h-1v-1.7h-9.3v1.7h-1v-2.6h5.1
			c-0.2-0.4-0.4-0.7-0.5-1l1.1-0.2c0.1,0.2,0.3,0.6,0.5,1.1L782.7,132.5L782.7,132.5z M781.1,140v4.4h-1v-0.6h-6v0.6h-1V140
			L781.1,140L781.1,140z M774.1,142.8h6v-2h-6V142.8z M779.5,135.7h-4.7l0,0c0.7,0.6,1.5,1.1,2.4,1.6
			C778.2,136.9,778.9,136.3,779.5,135.7z"/>
		<path class="st9" d="M787.2,137.9c-0.1,2.5-0.7,4.7-2,6.5l-0.7-0.7c1.1-1.6,1.7-3.6,1.7-6.1v-4.4h4.6c-0.3-0.6-0.5-1.2-0.8-1.6
			l1.1-0.2c0.3,0.5,0.5,1.1,0.8,1.8h4.4v4.7H787.2z M795.2,134.2h-8v2.7h8V134.2z"/>
		<path class="st9" d="M803,142.2c-1.2,0.5-2.6,0.9-4.2,1.2l-0.3-1c0.8-0.1,1.6-0.3,2.4-0.5c0.3-2,0.6-4.2,0.7-6.5l0.9,0.1
			c-0.2,2.1-0.4,4.1-0.8,6.1c0.9-0.3,1.2-0.4,1.1-0.4v1H803z M798.6,133.8h1.8c-0.2-0.8-0.4-1.5-0.6-2l1-0.2
			c0.2,0.6,0.4,1.3,0.6,2.2h1.6v1h-4.4L798.6,133.8L798.6,133.8z M799.7,135.6c0.3,1.6,0.6,3.4,0.8,5.5l-0.8,0.2
			c-0.2-1.9-0.5-3.7-0.8-5.5L799.7,135.6z M803.3,136.3h8v0.9h-3.7c-0.1,0.4-0.2,0.9-0.4,1.3h3.7v4.7c0,0.7-0.3,1-0.9,1h-0.6
			l-0.2-0.9h0.6c0.2,0,0.3-0.1,0.3-0.4v-3.6h-1.3v4.6h-0.9v-4.6h-1.1v4.6h-0.9v-4.6h-1.2v4.8h-0.9v-5.7h2.5c0.2-0.5,0.3-0.9,0.4-1.3
			h-3.3L803.3,136.3L803.3,136.3z M809.6,134.2v-2.1h1v3h-6.7v-3h1v2.1h1.9v-2.7h1v2.7H809.6z"/>
	</g>
	<g>
		<g>
			<path class="st5" d="M743,149.9h4v-2h-4V149.9z M734,122.9v30h22v-30H734z M754,150.9h-18v-26h18V150.9z M754,144.9h-18v2h18
				V144.9z"/>
		</g>
	</g>
</g>
<g>
	<path class="st9" d="M776.2,225.7c-0.2,0.4-0.4,0.7-0.6,0.9h5.2v0.8c-0.6,0.8-1.4,1.5-2.5,2.1c1.5,0.6,3.2,1,5.1,1.1l-0.2,0.9
		c-2.3-0.2-4.2-0.7-6-1.5c-1.6,0.7-3.7,1.3-6.3,1.8l-0.4-0.9c2.3-0.4,4.2-0.8,5.6-1.4c-0.7-0.4-1.4-0.9-2-1.4
		c-0.5,0.5-1.1,0.9-1.8,1.3l-0.6-0.8c1.4-0.8,2.5-1.8,3.4-3.1L776.2,225.7z M782.7,224.3v2.6h-1v-1.7h-9.3v1.7h-1v-2.6h5.1
		c-0.2-0.4-0.4-0.7-0.5-1l1.1-0.2c0.1,0.2,0.3,0.6,0.5,1.1L782.7,224.3L782.7,224.3z M781.1,231.8v4.4h-1v-0.6h-6v0.6h-1v-4.4
		L781.1,231.8L781.1,231.8z M774.1,234.6h6v-2h-6V234.6z M779.5,227.5h-4.7l0,0c0.7,0.6,1.5,1.1,2.4,1.6
		C778.2,228.7,778.9,228.1,779.5,227.5z"/>
	<path class="st9" d="M787.2,229.7c-0.1,2.5-0.7,4.7-2,6.5l-0.7-0.7c1.1-1.6,1.7-3.6,1.7-6.1V225h4.6c-0.3-0.6-0.5-1.2-0.8-1.6
		l1.1-0.2c0.3,0.5,0.5,1.1,0.8,1.8h4.4v4.7H787.2z M795.2,226h-8v2.7h8V226z"/>
	<path class="st9" d="M803,234c-1.2,0.5-2.6,0.9-4.2,1.2l-0.3-1c0.8-0.1,1.6-0.3,2.4-0.5c0.3-2,0.6-4.2,0.7-6.5l0.9,0.1
		c-0.2,2.1-0.4,4.1-0.8,6.1c0.9-0.3,1.2-0.4,1.1-0.4v1H803z M798.6,225.6h1.8c-0.2-0.8-0.4-1.5-0.6-2l1-0.2c0.2,0.6,0.4,1.3,0.6,2.2
		h1.6v1h-4.4L798.6,225.6L798.6,225.6z M799.7,227.4c0.3,1.6,0.6,3.4,0.8,5.5l-0.8,0.2c-0.2-1.9-0.5-3.7-0.8-5.5L799.7,227.4z
		 M803.3,228.1h8v0.9h-3.7c-0.1,0.4-0.2,0.9-0.4,1.3h3.7v4.7c0,0.7-0.3,1-0.9,1h-0.6l-0.2-0.9h0.6c0.2,0,0.3-0.1,0.3-0.4v-3.6h-1.3
		v4.6h-0.9v-4.6h-1.1v4.6h-0.9v-4.6h-1.2v4.8h-0.9v-5.7h2.5c0.2-0.5,0.3-0.9,0.4-1.3h-3.3L803.3,228.1L803.3,228.1z M809.6,226v-2.1
		h1v3h-6.7v-3h1v2.1h1.9v-2.7h1v2.7H809.6z"/>
</g>
<rect x="729" y="213.7" class="st6" width="32" height="32"/>
<g>
	<g>
		<path class="st5" d="M743,241.7h4v-2h-4V241.7z M734,214.7v30h22v-30H734z M754,242.7h-18v-26h18V242.7z M754,236.7h-18v2h18
			V236.7z"/>
	</g>
</g>
<polygon class="st7" points="701,234.5 706,229.5 701,224.5 "/>
<polygon class="st7" points="701,142.5 706,137.5 701,132.5 "/>
<polyline class="st8" points="660,183.5 681,183.5 681,137.5 702,137.5 "/>
<line class="st8" x1="681" y1="183.5" x2="681" y2="202.5"/>
<polyline class="st8" points="660,183.5 681,183.5 681,229.5 702,229.5 "/>
</svg>
