<?xml version="1.0" encoding="UTF-8"?>
<svg width="760px" height="490px" viewBox="0 0 760 490" version="1.1" xmlns="http://www.w3.org/2000/svg" xmlns:xlink="http://www.w3.org/1999/xlink">
    <!-- Generator: Sketch 54.1 (76490) - https://sketchapp.com -->
    <title>人工智能场景190708</title>
    <desc>Created with Sketch.</desc>
    <g id="函数服务" stroke="none" stroke-width="1" fill="none" fill-rule="evenodd">
        <g id="人工智能场景190708">
            <g id="scene-arch-img_4" transform="translate(15.000000, 34.000000)">
                <g id="Group-38" transform="translate(323.000000, 95.000000)">
                    <g id="一个-copy-58" transform="translate(0.000000, 12.000000)" fill-rule="nonzero">
                        <polygon id="Rectangle-6" fill="#F6F6F7" points="22 0.9 102 11.6 80 32.7 0 22.5"></polygon>
                        <polygon id="Rectangle-6_1_" fill="#EDEDED" points="0 40.1 80 51 80 32.1 0 21.9"></polygon>
                        <polygon id="Line" fill="#CDCDCD" points="1 39.9 1 22.4 0 22.4 0 40.8 80 51 80 31.4 79 31.4 79 49.9"></polygon>
                        <path d="M22.4,1.9 L2.2,21.6 L79.7,31.3 L99.9,12.1 L22.4,1.9 Z M22,0.9 L102,11.4 L80,32.4 L0,22.4 L22,0.9 Z" id="Rectangle-6_2_" fill="#CDCDCD"></path>
                        <path d="M94.2,10.4 L102,11.4 L97.5,15.7 L96.3,15.5 L99.9,12.1 L93.3,11.2 L94.2,10.4 Z M29,1.8 L22,0.9 L17.7,5.1 L19,5.3 L22.4,2 L28.1,2.7 L29,1.8 Z M72.4,31.4 L80,32.3 L84.5,28 L83.2,27.8 L79.7,31.2 L73.4,30.4 L72.4,31.4 Z M6.8,23.2 L0,22.4 L4.9,17.6 L6.2,17.8 L2.2,21.7 L7.7,22.4 L6.8,23.2 Z" id="Combined-Shape" fill="#999999"></path>
                        <polygon id="Rectangle-6_3_" fill="#DDDDDD" points="102 29.4 102 11.4 80 32.4 80 50.7"></polygon>
                        <polygon id="Path-13" fill="#CDCDCD" points="80 49.4 80 50.9 102 29.4 102 11.4 101 12.4 101 29"></polygon>
                    </g>
                    <g id="Group-Copy-10" transform="translate(30.000000, 0.000000)">
                        <path d="M34.1,13.2 C33.8,13.2 33,2.2 22.8,1 C12.7,-0.2 11.8,10.6 11.5,10.5 C7.4,10 4,13.1 4,17.5 C4,21.9 7.3,25.8 11.5,26.2 L34.2,28.9 C38.3,29.4 41.7,26.3 41.7,21.9 C41.7,17.5 38.1,13.6 34.1,13.2 Z" id="Fill-1-Copy" stroke="#999999" stroke-width="0.9623" fill="#DDDDDD" fill-rule="nonzero"></path>
                        <path d="M30.1,16.2 C29.8,16.2 29,5.2 18.8,4 C8.7,2.8 7.8,13.6 7.5,13.5 C3.4,13 0,16.1 0,20.5 C0,24.9 3.3,28.8 7.5,29.2 L30.2,31.9 C34.3,32.4 37.7,29.3 37.7,24.9 C37.7,20.5 34.1,16.6 30.1,16.2 Z" id="Fill-1" stroke="#333333" stroke-width="0.9623" fill="#FFFFFF" fill-rule="nonzero"></path>
                        <path d="M21.2,24.9 L21.2,30.1 L16.1,29.6 L16.1,24.9 L14.2,24.9 C13.9,24.9 13.6,24.6 13.6,24.3 C13.6,24.1 13.7,24 13.7,23.9 L18.8,17.6 L19.2,18.1 L23.9,23.9 C24.1,24.1 24.1,24.5 23.9,24.7 C23.8,24.8 23.6,24.9 23.5,24.9 L21.2,24.9 Z" id="Combined-Shape_1_" stroke="#E41F2B" stroke-width="1.0692" stroke-linejoin="round"></path>
                    </g>
                    <path d="M32.9,42.9 C34.1,43.1 35.1,43.6 35.8,44.5 C36.5,45.4 36.8,46.4 36.8,47.7 C36.8,48.9 36.5,49.9 35.8,50.6 C35.1,51.3 34.1,51.6 32.9,51.4 C31.7,51.2 30.7,50.7 30,49.8 C29.3,48.9 29,47.9 29,46.7 C29,45.5 29.3,44.5 30,43.8 C30.7,43 31.7,42.8 32.9,42.9 Z M32.9,43.8 C32,43.7 31.2,43.9 30.7,44.5 C30.2,45 29.9,45.8 29.9,46.8 C29.9,47.8 30.2,48.6 30.7,49.3 C31.2,50 32,50.4 32.9,50.6 C33.8,50.7 34.6,50.5 35.1,50 C35.6,49.5 35.9,48.7 35.9,47.7 C35.9,46.7 35.6,45.8 35.1,45.1 C34.6,44.3 33.8,43.9 32.9,43.8 Z M38.1,43.8 L41.7,44.3 C42.5,44.4 43.1,44.7 43.5,45.1 C43.9,45.5 44.1,46.1 44.1,46.7 C44.1,47.2 44,47.5 43.7,47.8 C43.4,48.1 43.1,48.2 42.7,48.3 C43.2,48.5 43.6,48.8 43.9,49.1 C44.2,49.4 44.4,49.9 44.4,50.5 C44.4,51.3 44.1,51.8 43.6,52.2 C43.1,52.5 42.5,52.5 41.6,52.4 L38,51.9 L38,43.8 L38.1,43.8 Z M39,44.8 L39,47.6 L41.5,48 C42.1,48.1 42.5,48 42.8,47.8 C43.1,47.6 43.3,47.3 43.3,46.8 C43.3,46.3 43.2,46 42.9,45.7 C42.6,45.4 42.2,45.3 41.6,45.2 L39,44.8 Z M39,48.3 L39,51.3 L41.6,51.7 C42.2,51.8 42.6,51.7 43,51.6 C43.4,51.4 43.6,51 43.6,50.5 C43.6,50 43.4,49.6 43.1,49.3 C42.8,49 42.3,48.8 41.7,48.7 L39,48.3 Z M48.5,45.2 C47.7,45.1 47,45.2 46.4,45.4 C45.8,45.7 45.5,46.2 45.5,46.9 C45.5,47.6 45.8,48.2 46.4,48.6 C46.7,48.8 47.3,49.1 48.3,49.5 C49.2,49.9 49.8,50.2 50,50.3 C50.5,50.7 50.8,51.1 50.8,51.6 C50.8,52 50.6,52.3 50.2,52.5 C49.8,52.7 49.2,52.7 48.6,52.6 C47.9,52.5 47.3,52.3 46.9,51.9 C46.5,51.5 46.2,50.9 46.2,50.2 L45.3,50.1 C45.4,51.1 45.7,51.9 46.4,52.5 C46.9,53 47.7,53.3 48.7,53.4 C49.7,53.5 50.4,53.4 51,53.1 C51.6,52.8 51.9,52.2 51.9,51.5 C51.9,50.8 51.6,50.1 50.9,49.6 C50.6,49.3 49.9,49 48.8,48.5 C48,48.2 47.5,47.9 47.3,47.8 C46.8,47.5 46.6,47.1 46.6,46.7 C46.6,46.2 46.8,45.9 47.2,45.7 C47.5,45.5 48,45.5 48.6,45.6 C49.3,45.7 49.8,45.9 50.1,46.3 C50.5,46.6 50.7,47.1 50.8,47.7 L51.7,47.8 C51.6,46.9 51.3,46.2 50.8,45.7 C50.2,45.6 49.5,45.3 48.5,45.2 Z" id="OBS" fill="#000000" fill-rule="nonzero"></path>
                </g>
                <g id="RDS_1_" transform="translate(0.000000, 314.000000)">
                    <g id="底座_2_" transform="translate(0.000000, 20.180828)" fill-rule="nonzero">
                        <polygon id="Rectangle-6_48_" fill="#F6F6F7" points="21.8 0.1 101 10.6 79.2 31.3 0 21.3"></polygon>
                        <polygon id="Rectangle-6_49_" fill="#EDEDED" points="0 38.6 79.2 49.3 79.2 30.8 0 20.7"></polygon>
                        <path d="M28.8,28.5 L32.4,28.9 C33.2,29 33.9,29.3 34.4,29.7 C35,30.1 35.1,30.8 35.1,31.5 C35.1,31.9 35,32.3 34.7,32.8 C34.4,33.1 34,33.4 33.6,33.4 C34.4,33.7 34.9,34.2 35,35.1 L35.1,36.4 C35.1,37 35.2,37.4 35.5,37.7 L34.4,37.6 C34.3,37.3 34.1,36.9 34.1,36.5 L34,35.4 C34,34.8 33.7,34.6 33.4,34.3 C33.1,34 32.7,33.9 32.1,33.9 L29.6,33.6 L29.6,37.2 L28.6,37.1 L28.6,28.7 L28.8,28.7 L28.8,28.5 Z M29.8,29.5 L29.8,32.6 L32.3,32.9 C32.9,33 33.4,32.9 33.7,32.6 C34,32.3 34.1,32 34.1,31.5 C34.1,30.9 34,30.5 33.7,30.2 C33.4,29.9 32.9,29.8 32.3,29.6 L29.8,29.5 Z M36.5,29.5 L39.6,29.9 C41,30 42,30.6 42.7,31.4 C43.4,32.2 43.7,33.2 43.7,34.6 C43.7,35.9 43.4,36.8 42.7,37.5 C42,38.2 41,38.5 39.6,38.3 L36.7,37.9 L36.7,29.4 L36.5,29.4 L36.5,29.5 Z M37.4,30.5 L37.4,37.2 L39.2,37.5 C40.3,37.6 41.2,37.5 41.7,36.9 C42.3,36.3 42.5,35.6 42.5,34.5 C42.5,33.4 42.2,32.6 41.8,31.9 C41.2,31.2 40.4,30.9 39.3,30.8 L37.4,30.5 Z M47.5,30.6 C46.7,30.5 46,30.6 45.4,30.9 C44.7,31.2 44.4,31.7 44.4,32.4 C44.4,33.1 44.7,33.7 45.4,34.2 C45.7,34.3 46.4,34.8 47.4,35.2 C48.4,35.6 48.9,35.9 49.2,36 C49.8,36.4 50,36.8 50,37.4 C50,37.8 49.7,38.2 49.3,38.4 C48.9,38.5 48.3,38.7 47.6,38.5 C46.9,38.4 46.2,38.2 45.9,37.8 C45.5,37.4 45.2,36.8 45.1,36.1 L44.1,36 C44.2,37 44.5,37.8 45.2,38.5 C45.8,39.1 46.6,39.3 47.6,39.5 C48.6,39.6 49.4,39.5 50,39.2 C50.6,38.8 50.8,38.4 50.8,37.5 C50.8,36.8 50.4,36.1 49.7,35.6 C49.3,35.3 48.6,35 47.5,34.5 C46.7,34.2 46.1,33.9 46,33.8 C45.6,33.5 45.3,33.1 45.3,32.7 C45.3,32.3 45.4,31.9 45.9,31.7 C46.3,31.6 46.7,31.6 47.4,31.6 C48.1,31.7 48.7,31.9 48.9,32.3 C49.3,32.6 49.5,33.1 49.6,33.7 L50.6,33.8 C50.5,33 50.2,32.1 49.6,31.7 C49.2,31 48.3,30.8 47.5,30.6 Z" id="RDS主节点_1_" fill="#333333"></path>
                        <polygon id="Line_12_" fill="#CDCDCD" points="1 38.4 1 21.2 0 21.2 0 39.3 79.2 49.3 79.2 30.1 78.2 30.1 78.2 48.2"></polygon>
                        <path d="M22.2,1.1 L2.2,20.5 L78.9,30 L98.9,11.2 L22.2,1.1 Z M21.8,0.1 L101,10.4 L79.2,31 L0,21.2 L21.8,0.1 Z" id="Rectangle-6_50_" fill="#CDCDCD"></path>
                        <path d="M93.3,9.5 L101.1,10.5 L96.6,14.7 L95.3,14.6 L98.8,11.3 L92.2,10.5 L93.3,9.5 Z M28.6,1 L21.8,0.2 L17.6,4.2 L18.9,4.3 L22.3,1.1 L27.9,1.8 L28.6,1 Z M71.7,30.1 L79.2,31.1 L83.7,26.9 L82.4,26.8 L78.9,30.1 L72.6,29.3 L71.7,30.1 Z M6.7,22 L0,21.2 L4.9,16.5 L6.2,16.6 L2.3,20.5 L7.7,21.2 L6.7,22 Z" id="Combined-Shape_19_" fill="#999999"></path>
                        <polygon id="Rectangle-6_51_" fill="#DDDDDD" points="101 28 101 10.4 79.2 31 79.2 48.9"></polygon>
                        <polygon id="Path-13_12_" fill="#CDCDCD" points="79.2 47.6 79.2 49.1 101 28 101 10.4 100 11.4 100 27.7"></polygon>
                    </g>
                    <g id="RDS-icon_1_" transform="translate(27.741967, 0.000000)" stroke-width="0.9856">
                        <g id="Group-36_1_" transform="translate(5.296551, 0.203712)" fill="#DDDDDD" fill-rule="nonzero" stroke="#999999">
                            <path d="M9.8,3.8 L16.9,0.6 C17.5,0.3 18,0.5 18.6,0.9 L25.7,5.9 C26.3,6.3 26.5,6.9 26.5,7.4 L26.5,15.6 C26.5,16.2 26.8,16.9 27.3,17.1 L34.4,22.1 C35,22.5 35.2,23.1 35.2,23.6 L35.2,31.8 C35.2,32.4 34.9,32.9 34.4,33.2 L27.3,36.4 C26.7,36.7 26.2,36.5 25.6,36.1 L18.5,31.1 C17.9,30.7 17.4,30.7 16.8,30.8 L9.7,34 C9.1,34.3 8.6,34.1 8,33.7 L0.9,28.7 C0.3,28.3 0.1,27.7 0.1,27.2 L0.1,19 C0.1,18.4 0.4,17.9 0.9,17.6 L8,14.4 C8.6,14.1 8.8,13.7 8.8,13 L8.8,4.8 C8.9,4.5 9.2,3.9 9.8,3.8 Z" id="Combined-Shape_20_"></path>
                        </g>
                        <path d="M10.2,9.6 L17.3,6.5 C17.9,6.2 18.4,6.4 19,6.8 L26.1,12 C26.7,12.4 26.9,13 26.9,13.5 L26.9,21.7 C26.9,22.3 27.2,23 27.7,23.2 L34.8,28.4 C35.4,28.8 35.6,29.4 35.6,29.9 L35.6,38.1 C35.6,38.7 35.3,39.2 34.8,39.5 L27.7,42.6 C27.1,42.9 26.6,42.7 26,42.3 L18.9,37.1 C18.3,36.7 17.8,36.7 17.2,36.8 L10.1,39.9 C9.5,40.2 9,40 8.4,39.6 L1.3,34.6 C0.7,34.2 0.5,33.6 0.5,33.1 L0.5,24.9 C0.5,24.3 0.8,23.8 1.3,23.5 L8.4,20.4 C9,20.1 9.2,19.7 9.2,19 L9.2,10.8 C9.4,10.3 9.8,9.9 10.2,9.6 Z" id="Combined-Shape_21_" stroke="#333333" fill="#FFFFFF" fill-rule="nonzero"></path>
                        <path d="M18,26.3 L18,36.5" id="Path-23_1_" stroke="#FF0000"></path>
                        <polyline id="Path-17_1_" stroke="#FF0000" points="9.1 20.1 17.9 26.5 27 22.7"></polyline>
                    </g>
                </g>
                <g id="Group-2" transform="translate(88.000000, 185.000000)">
                    <path d="M392.5,47.2 L43.5,0.9 L0,46.3 L0,75.3 L343.5,123.8 L392.5,77.3 L392.5,47.2 Z" id="Combined-Shape_2_" stroke="#999999" stroke-width="0.9315" fill-opacity="0.05" fill="#666666" fill-rule="nonzero" opacity="0.5822" stroke-dasharray="1.863"></path>
                    <g id="Group-Copy" transform="translate(10.000000, 28.000000)">
                        <g id="Rectangle-29-Copy-4" transform="translate(322.000000, 43.000000)">
                            <polygon id="path-1" fill="#DDDDDD" fill-rule="nonzero" points="0.3 21.8 0.3 39.9 1.3 40.6 24.2 17.3 24.2 0.5 22.5 0.5"></polygon>
                            <polygon id="Shape" stroke="#CDCDCD" stroke-width="0.9315" points="0.8 22 0.8 39.7 1.2 40 23.7 17.2 23.7 1 22.6 1"></polygon>
                        </g>
                        <g id="Rectangle-29-Copy-4_1_" transform="translate(0.000000, 21.000000)">
                            <polygon id="path-2" fill="#EDEDED" fill-rule="nonzero" points="0.3 1.5 0.3 18.5 323.3 62.6 323.3 43.5 1.1 0.7"></polygon>
                            <polygon id="Shape" stroke="#CDCDCD" stroke-width="0.9315" points="0.8 1.7 0.8 18.1 322.9 62.1 322.9 43.9 1.3 1.2"></polygon>
                        </g>
                        <g id="Rectangle-29-Copy-4_2_">
                            <polygon id="path-3" fill="#F6F6F7" fill-rule="nonzero" points="22.3 0.5 346.3 43.5 323.3 65.5 0.3 22.5"></polygon>
                            <polygon id="Shape" stroke="#CDCDCD" stroke-width="0.9315" points="22.5 1 1.3 22.2 323.1 65 345.2 43.8"></polygon>
                        </g>
                        <g id="Group-5" transform="translate(1.000000, 0.000000)" stroke-width="0.9">
                            <polyline id="Path-4" stroke="#999999" points="315.6 64.1 322.1 65 326.6 60.7"></polyline>
                            <polyline id="Path-9" stroke="#979797" points="4 18.3 0.3 22.2 5.7 22.8"></polyline>
                            <polyline id="Path-12" stroke="#979797" points="18.2 4.1 21.5 0.9 26.7 1.6"></polyline>
                            <polyline id="Path-6" stroke="#999999" points="336.2 42.7 344.3 43.8 338.6 49.2"></polyline>
                        </g>
                        <path d="M37.1,37.9 L36.9,37.2 C37.9,36.7 38.9,36.1 39.9,35.3 L39.9,33.6 C40.9,33.2 41.7,32.9 42.2,32.7 L37,32 L37,31.3 L43.2,32.1 L43.2,32.8 C42.4,33.2 41.5,33.7 40.5,34.1 L40.5,35.6 C41.4,36.3 42.2,37.1 43.1,38 L42.7,38.6 C41.8,37.6 41.1,36.9 40.5,36.4 L40.5,38.1 C40.5,38.7 40.2,38.9 39.7,38.9 L38.8,38.8 L38.6,38.1 C38.8,38.1 39.1,38.2 39.4,38.2 C39.7,38.2 39.8,38.1 39.8,37.8 L39.8,36.2 C39,36.9 38.1,37.5 37.1,37.9 Z M43.3,34 L44,34.1 L44,41.1 L43.3,41 L43.3,40.4 L36.6,39.5 L36.6,40.1 L36,40 L36,33 L36.7,33.1 L36.7,38.9 L43.4,39.8 L43.4,34 L43.3,34 Z M37.8,33.6 C38.4,34.2 38.9,34.8 39.2,35.2 L38.6,35.5 C38.3,35 37.8,34.4 37.2,33.8 L37.8,33.6 Z M42.3,34.1 L42.9,34.5 C42.5,35.1 42,35.6 41.5,36 L41,35.6 C41.5,35.1 41.9,34.7 42.3,34.1 Z M51.6,35.1 L51.5,35.6 C51.7,36.8 52.1,37.9 52.5,38.7 C52.9,37.7 53.1,36.6 53.1,35.2 L51.6,35.1 Z M52.1,39.4 C51.7,38.6 51.4,37.7 51.1,36.6 C50.9,37 50.7,37.4 50.5,37.8 L50.1,37.2 C50.7,36.2 51.1,34.7 51.3,32.8 L52,33 C51.9,33.5 51.9,34 51.8,34.4 L54.4,34.7 L54.4,35.4 L53.8,35.3 C53.7,37 53.4,38.4 52.9,39.5 C53.4,40.5 54,41.2 54.7,41.8 L54.3,42.3 C53.6,41.7 53,41 52.5,40 C52,40.7 51.4,41.3 50.7,41.8 L50.3,41.2 C51,40.8 51.6,40.2 52.1,39.4 Z M47.4,37 L48.1,37.2 C48,37.4 48,37.6 47.9,37.7 L50,38 L50,38.6 C49.8,39.2 49.4,39.8 48.9,40.2 C49.4,40.5 49.8,40.8 50.3,41.1 L49.9,41.6 C49.5,41.3 48.9,40.9 48.4,40.6 C47.7,41 46.9,41.2 45.9,41.4 L45.6,40.8 C46.4,40.7 47.1,40.5 47.7,40.3 C47.3,40.1 46.8,39.8 46.3,39.6 C46.6,39.2 46.8,38.8 47,38.4 L45.8,38.2 L45.8,37.6 L47.3,37.8 C47.2,37.4 47.3,37.2 47.4,37 Z M48.1,39.7 C48.6,39.4 49,38.9 49.2,38.5 L47.5,38.3 C47.3,38.6 47.2,38.9 47,39.2 C47.4,39.3 47.8,39.5 48.1,39.7 Z M46.4,32.4 C46.6,32.8 46.8,33.3 47,33.7 L46.5,33.9 C46.3,33.4 46.1,32.9 45.8,32.5 L46.4,32.4 Z M49.5,32.8 L50,33.1 C49.8,33.5 49.6,33.9 49.2,34.3 L48.7,34 C49,33.6 49.3,33.2 49.5,32.8 Z M45.7,34 L47.6,34.3 L47.6,32.4 L48.3,32.5 L48.3,34.4 L50.1,34.6 L50.1,35.2 L48.3,35 L48.3,35.1 C48.8,35.4 49.4,35.8 50,36.2 L49.6,36.7 C49.1,36.2 48.7,35.9 48.3,35.6 L48.3,36.9 L47.6,36.8 L47.6,34.9 C47.3,35.6 46.7,36.2 45.8,36.7 L45.4,36.1 C46.2,35.8 46.7,35.3 47,34.8 L45.6,34.6 L45.6,34 L45.7,34 Z M57.3,34.7 C57.1,34.9 56.8,35.1 56.4,35.3 C56.1,35.5 55.7,35.6 55.4,35.6 L55.4,36.4 C56.1,36.3 56.6,36 57.1,35.6 L57.1,41.7 L57.9,41.8 L57.9,34.7 L57.3,34.7 Z" id="函数1" fill="#333333" fill-rule="nonzero"></path>
                        <path d="M111.1,47.9 L110.9,47.2 C111.9,46.7 112.9,46.1 113.9,45.3 L113.9,43.6 C114.9,43.2 115.7,42.9 116.2,42.6 L111,42 L111,41.3 L117.2,42 L117.2,42.7 C116.4,43.2 115.5,43.6 114.5,44 L114.5,45.5 C115.4,46.2 116.2,47 117.1,47.9 L116.7,48.5 C115.8,47.6 115.1,46.8 114.5,46.3 L114.5,48 C114.5,48.6 114.2,48.8 113.7,48.8 L112.8,48.7 L112.6,48 C112.8,48 113.1,48.1 113.4,48.1 C113.7,48.1 113.8,48 113.8,47.7 L113.8,46.2 C113,46.8 112.1,47.4 111.1,47.9 Z M117.3,43.9 L118,44 L118,51 L117.3,50.9 L117.3,50.3 L110.6,49.5 L110.6,50.1 L110,50 L110,43 L110.7,43.1 L110.7,48.9 L117.4,49.7 L117.4,43.9 L117.3,43.9 Z M111.8,43.5 C112.4,44.1 112.9,44.7 113.2,45.1 L112.6,45.4 C112.3,44.9 111.8,44.3 111.2,43.7 L111.8,43.5 Z M116.3,44 L116.9,44.3 C116.5,44.9 116,45.4 115.5,45.8 L115,45.4 C115.5,45 115.9,44.6 116.3,44 Z M125.6,44.9 L125.5,45.4 C125.7,46.6 126.1,47.6 126.5,48.5 C126.9,47.5 127.1,46.4 127.1,45 L125.6,44.9 Z M126.1,49.2 C125.7,48.4 125.4,47.5 125.1,46.4 C124.9,46.8 124.7,47.2 124.5,47.6 L124,47 C124.6,45.9 125,44.5 125.2,42.6 L125.9,42.8 C125.8,43.3 125.8,43.8 125.7,44.2 L128.3,44.5 L128.3,45.2 L127.7,45.1 C127.6,46.8 127.3,48.2 126.8,49.3 C127.3,50.3 127.9,51 128.6,51.6 L128.2,52.1 C127.5,51.5 126.9,50.8 126.4,49.9 C125.9,50.6 125.3,51.2 124.6,51.7 L124.2,51.1 C125,50.6 125.6,50 126.1,49.2 Z M121.4,46.8 L122.1,47 C122,47.2 122,47.4 121.9,47.5 L124,47.7 L124,48.3 C123.8,48.9 123.4,49.5 122.9,49.9 C123.4,50.2 123.8,50.4 124.3,50.7 L123.9,51.2 C123.5,50.9 122.9,50.6 122.4,50.2 C121.7,50.6 120.9,50.9 119.9,51 L119.6,50.4 C120.4,50.3 121.1,50.1 121.7,49.8 C121.3,49.6 120.8,49.3 120.3,49.1 C120.6,48.7 120.8,48.3 121,47.9 L119.8,47.8 L119.8,47.2 L121.3,47.4 C121.2,47.2 121.3,47 121.4,46.8 Z M122.1,49.5 C122.6,49.2 123,48.7 123.2,48.2 L121.5,48 C121.3,48.3 121.2,48.6 121,48.9 C121.4,49.2 121.8,49.3 122.1,49.5 Z M120.4,42.2 C120.6,42.6 120.8,43.1 121,43.5 L120.5,43.7 C120.3,43.2 120.1,42.7 119.8,42.3 L120.4,42.2 Z M123.5,42.6 L124,42.9 C123.8,43.3 123.6,43.7 123.2,44.1 L122.7,43.8 C123,43.3 123.3,42.9 123.5,42.6 Z M119.7,43.9 L121.6,44.1 L121.6,42.2 L122.3,42.3 L122.3,44.2 L124.1,44.4 L124.1,45 L122.3,44.8 L122.3,44.9 C122.8,45.2 123.4,45.6 124,46 L123.6,46.5 C123.1,46 122.7,45.7 122.3,45.4 L122.3,46.7 L121.6,46.6 L121.6,44.7 C121.3,45.5 120.7,46.1 119.8,46.5 L119.5,45.9 C120.3,45.5 120.8,45.1 121.1,44.6 L119.7,44.4 L119.7,43.9 L119.7,43.9 Z M132.1,44.3 C131.4,44.2 130.8,44.4 130.3,44.8 C129.9,45.2 129.6,45.8 129.6,46.6 L130.4,46.7 C130.4,46.1 130.6,45.6 130.8,45.3 C131.1,45 131.4,44.9 131.9,44.9 C132.4,45 132.7,45.1 133,45.4 C133.3,45.7 133.4,46 133.4,46.5 C133.4,47 133.2,47.4 132.8,47.7 C132.6,47.9 132.2,48.1 131.7,48.5 C130.9,48.9 130.4,49.3 130.1,49.6 C129.6,50.1 129.4,50.6 129.4,51.3 L134.2,51.8 L134.2,51.1 L130.4,50.7 C130.5,50.2 131,49.7 132,49.2 C132.7,48.8 133.2,48.5 133.5,48.2 C134,47.8 134.2,47.2 134.2,46.6 C134.2,46 134,45.4 133.6,45 C133.3,44.6 132.8,44.4 132.1,44.3 Z" id="函数2" fill="#333333" fill-rule="nonzero"></path>
                        <path d="M187.1,58 L186.9,57.3 C187.9,56.9 188.9,56.3 189.9,55.5 L189.9,53.8 C190.9,53.5 191.7,53.2 192.2,52.9 L187.1,52.1 L187.1,51.4 L193.3,52.4 L193.3,53.1 C192.5,53.5 191.6,53.9 190.6,54.3 L190.6,55.8 C191.5,56.5 192.3,57.3 193.2,58.3 L192.8,58.9 C191.9,57.9 191.2,57.2 190.6,56.6 L190.6,58.3 C190.6,58.9 190.3,59.1 189.8,59.1 L188.9,59 L188.7,58.3 C188.9,58.3 189.2,58.4 189.5,58.4 C189.8,58.4 189.9,58.3 189.9,58 L189.9,56.4 C189,57 188.1,57.5 187.1,58 Z M193.3,54.2 L194,54.3 L194,61.3 L193.3,61.2 L193.3,60.6 L186.6,59.6 L186.6,60.2 L185.9,60.1 L185.9,53.1 L186.6,53.2 L186.6,59 L193.3,60 L193.3,54.2 Z M187.8,53.7 C188.4,54.4 188.9,54.9 189.2,55.4 L188.6,55.7 C188.3,55.2 187.8,54.6 187.2,54 L187.8,53.7 Z M192.3,54.3 L192.9,54.7 C192.5,55.3 192,55.8 191.5,56.2 L191,55.8 C191.5,55.3 191.9,54.8 192.3,54.3 Z M201.6,55.5 L201.5,56 C201.7,57.2 202.1,58.3 202.5,59.2 C202.9,58.3 203.1,57.1 203.1,55.8 L201.6,55.5 Z M202.1,59.8 C201.7,59 201.4,58 201.1,57 C200.9,57.4 200.7,57.8 200.5,58.1 L200,57.5 C200.6,56.5 201,55 201.2,53.2 L201.9,53.4 C201.8,53.9 201.8,54.4 201.7,54.8 L204.3,55.2 L204.3,55.9 L203.7,55.8 C203.6,57.5 203.3,58.8 202.8,59.9 C203.3,60.9 203.9,61.7 204.7,62.3 L204.3,62.8 C203.6,62.2 203,61.4 202.5,60.5 C202,61.2 201.4,61.8 200.6,62.2 L200.2,61.5 C201,61.2 201.6,60.6 202.1,59.8 Z M197.4,57.3 L198.1,57.5 C198,57.7 198,57.8 197.9,58 L200,58.3 L200,58.9 C199.8,59.5 199.4,60 198.9,60.4 C199.4,60.7 199.8,61 200.3,61.3 L199.9,61.8 C199.5,61.5 199,61.1 198.4,60.8 C197.7,61.2 196.9,61.4 195.9,61.5 L195.6,60.8 C196.4,60.7 197.1,60.5 197.7,60.3 C197.3,60 196.8,59.8 196.3,59.5 C196.6,59.1 196.8,58.7 197,58.4 L195.8,58.2 L195.8,57.6 L197.3,57.8 C197.2,57.7 197.3,57.5 197.4,57.3 Z M198.1,60 C198.6,59.7 199,59.3 199.2,58.8 L197.5,58.5 C197.3,58.8 197.2,59.1 197,59.4 C197.4,59.6 197.8,59.8 198.1,60 Z M196.4,52.7 C196.6,53.1 196.8,53.6 197,54 L196.5,54.2 C196.3,53.7 196.1,53.2 195.8,52.8 L196.4,52.7 Z M199.5,53.1 L200,53.4 C199.8,53.8 199.5,54.2 199.2,54.6 L198.7,54.3 C199,53.9 199.3,53.5 199.5,53.1 Z M195.7,54.3 L197.7,54.6 L197.7,52.7 L198.4,52.8 L198.4,54.7 L200.2,55 L200.2,55.6 L198.4,55.3 L198.4,55.4 C198.9,55.8 199.5,56.1 200.1,56.6 L199.7,57.1 C199.2,56.6 198.8,56.2 198.4,55.9 L198.4,57.2 L197.7,57.1 L197.7,55.2 C197.4,55.9 196.8,56.5 195.9,57 L195.5,56.4 C196.3,56.1 196.8,55.7 197.1,55.1 L195.7,54.9 L195.7,54.3 L195.7,54.3 Z M208.1,55.2 C207.4,55.1 206.9,55.2 206.4,55.5 C206,55.8 205.7,56.3 205.6,57 L206.4,57.1 C206.5,56.6 206.6,56.3 206.9,56.1 C207.2,55.9 207.5,55.8 208,55.9 C208.5,56 208.8,56.1 209.1,56.4 C209.3,56.7 209.5,57 209.5,57.4 C209.5,57.8 209.4,58.1 209.1,58.3 C208.9,58.5 208.5,58.5 208,58.5 L207.5,58.4 L207.5,59 L208.1,59.1 C208.6,59.2 209,59.3 209.3,59.6 C209.6,59.9 209.7,60.2 209.7,60.7 C209.7,61.1 209.6,61.4 209.3,61.7 C209,61.9 208.6,62 208.1,62 C207.6,61.9 207.3,61.7 207,61.5 C206.6,61.2 206.5,60.7 206.4,60.1 L205.6,60 C205.7,60.8 205.9,61.5 206.4,62 C206.8,62.4 207.4,62.7 208.1,62.8 C208.8,62.9 209.4,62.8 209.9,62.4 C210.4,62.1 210.6,61.6 210.6,60.9 C210.6,60.5 210.5,60.1 210.2,59.8 C210,59.5 209.7,59.2 209.2,59 C210,58.9 210.4,58.4 210.4,57.6 C210.4,57 210.2,56.5 209.8,56.1 C209.3,55.5 208.8,55.3 208.1,55.2 Z" id="函数3" fill="#333333" fill-rule="nonzero"></path>
                        <path d="M262.1,68 L261.9,67.3 C262.9,66.9 263.9,66.3 264.9,65.5 L264.9,63.8 C265.9,63.5 266.7,63.2 267.2,62.9 L262.1,62.1 L262.1,61.4 L268.3,62.4 L268.3,63.1 C267.5,63.5 266.6,63.9 265.6,64.3 L265.6,65.8 C266.5,66.5 267.3,67.3 268.2,68.3 L267.8,68.9 C266.9,67.9 266.2,67.2 265.6,66.6 L265.6,68.3 C265.6,68.9 265.3,69.1 264.8,69.1 L263.9,69 L263.7,68.3 C263.9,68.3 264.2,68.4 264.5,68.4 C264.8,68.4 264.9,68.3 264.9,68 L264.9,66.4 C264,67 263.1,67.5 262.1,68 Z M268.3,64.2 L269,64.3 L269,71.3 L268.3,71.2 L268.3,70.6 L261.6,69.6 L261.6,70.1 L260.9,70 L260.9,63 L261.6,63.1 L261.6,68.9 L268.3,69.9 L268.3,64.2 Z M262.8,63.7 C263.4,64.4 263.9,64.9 264.2,65.4 L263.6,65.7 C263.3,65.2 262.8,64.6 262.2,64 L262.8,63.7 Z M267.3,64.3 L267.9,64.7 C267.5,65.3 267,65.8 266.5,66.2 L266,65.8 C266.5,65.3 266.9,64.8 267.3,64.3 Z M276.6,65.5 L276.5,66 C276.7,67.2 277.1,68.3 277.5,69.2 C277.9,68.3 278.1,67.1 278.1,65.8 L276.6,65.5 Z M277.1,69.8 C276.7,69 276.4,68 276.1,67 C275.9,67.4 275.7,67.8 275.5,68.1 L275,67.5 C275.6,66.5 276,65 276.2,63.2 L276.9,63.4 C276.8,63.9 276.8,64.4 276.7,64.8 L279.3,65.2 L279.3,65.9 L278.7,65.8 C278.7,67.5 278.3,68.8 277.8,69.9 C278.3,70.9 278.9,71.7 279.7,72.3 L279.3,72.8 C278.6,72.2 278,71.4 277.5,70.5 C277,71.2 276.4,71.8 275.6,72.2 L275.2,71.5 C276,71.2 276.6,70.6 277.1,69.8 Z M272.4,67.3 L273.1,67.5 C273,67.7 273,67.8 272.9,68 L275,68.3 L275,68.9 C274.8,69.5 274.4,70 273.9,70.4 C274.4,70.7 274.8,71 275.3,71.3 L274.9,71.8 C274.5,71.5 273.9,71.1 273.4,70.8 C272.7,71.2 271.9,71.4 270.9,71.5 L270.6,70.8 C271.4,70.7 272.1,70.5 272.7,70.3 C272.3,70 271.8,69.8 271.3,69.5 C271.6,69.1 271.8,68.7 272,68.4 L270.8,68.2 L270.8,67.6 L272.3,67.8 C272.2,67.7 272.3,67.5 272.4,67.3 Z M273.1,70 C273.6,69.7 274,69.3 274.2,68.8 L272.5,68.5 C272.3,68.8 272.2,69.1 272,69.4 C272.4,69.6 272.8,69.8 273.1,70 Z M271.4,62.7 C271.6,63.1 271.8,63.6 272,64 L271.5,64.2 C271.3,63.7 271.1,63.2 270.8,62.8 L271.4,62.7 Z M274.5,63.1 L275,63.4 C274.8,63.8 274.5,64.2 274.2,64.6 L273.7,64.3 C274,63.9 274.3,63.5 274.5,63.1 Z M270.7,64.3 L272.6,64.6 L272.6,62.7 L273.3,62.8 L273.3,64.7 L275.1,65 L275.1,65.6 L273.3,65.3 L273.3,65.4 C273.8,65.8 274.4,66.1 275,66.6 L274.6,67.1 C274.1,66.6 273.7,66.2 273.3,65.9 L273.3,67.2 L272.6,67.1 L272.6,65.2 C272.3,65.9 271.7,66.5 270.8,67 L270.5,66.4 C271.3,66.1 271.8,65.7 272.1,65.1 L270.7,64.9 L270.7,64.3 Z M283.8,65.4 L284.6,65.5 L284.6,70.3 L285.8,70.5 L285.8,71.2 L284.6,71 L284.6,72.6 L283.8,72.5 L283.8,70.9 L280.2,70.3 L280.2,69.5 L283.8,65.4 Z M283.8,66.5 L280.9,69.8 L283.8,70.2 L283.8,66.5 L283.8,66.5 Z" id="函数4" fill="#333333" fill-rule="nonzero"></path>
                    </g>
                    <g id="函数" transform="translate(267.000000, 39.000000)">
                        <g id="Stroke-1" transform="translate(5.000000, 0.000000)">
                            <polygon id="path-4" fill="#DDDDDD" fill-rule="nonzero" points="0 35.8 42.9 41.8 43 6.2 0 0"></polygon>
                            <polygon id="Shape" stroke="#999999" stroke-width="0.8" points="0.4 35.5 42.5 41.4 42.6 6.5 0.4 0.4 0.4 35.5"></polygon>
                        </g>
                        <g id="Stroke-1_1_" transform="translate(0.000000, 3.000000)">
                            <polygon id="path-5" fill="#FFFFFF" fill-rule="nonzero" points="0 35.8 42.9 41.8 43 6.2 0 0"></polygon>
                            <polygon id="Shape" stroke="#333333" stroke-width="0.8" points="0.4 35.5 42.5 41.4 42.6 6.5 0.4 0.4 0.4 35.5"></polygon>
                        </g>
                        <path d="M0.5,9.4 L42.4,15.2" id="Stroke-13" stroke="#333333" stroke-width="0.8"></path>
                        <path d="M3.1,6.8 L5,7.1" id="Stroke-17" stroke="#333333"></path>
                        <path d="M7.1,7.4 L9,7.7" id="Stroke-17_1_" stroke="#333333"></path>
                        <path d="M11.1,7.9 L13,8.2" id="Stroke-17_2_" stroke="#333333"></path>
                        <g id="Group-8" transform="translate(14.138031, 27.014795) rotate(-2.000000) translate(-14.138031, -27.014795) translate(8.638031, 18.514795)" fill-rule="nonzero">
                            <path d="M2.6,3.5 C3.2,3.6 3.6,3.2 3.6,2.6 C3.6,2 3.2,1.5 2.6,1.5 C2,1.4 1.6,1.8 1.6,2.4 C1.6,2.9 2.1,3.4 2.6,3.5 Z M2.6,4.5 C1.5,4.3 0.6,3.3 0.6,2.2 C0.6,1.1 1.5,0.3 2.6,0.5 C3.7,0.7 4.6,1.7 4.6,2.8 C4.6,3.9 3.8,4.6 2.6,4.5 Z" id="Oval-5" fill="#E41F2B"></path>
                            <path d="M6.6,15 C7.2,15.1 7.6,14.7 7.6,14.1 C7.6,13.5 7.2,13 6.6,13 C6,12.9 5.6,13.3 5.6,13.9 C5.6,14.5 6.1,15 6.6,15 Z M6.6,16 C5.5,15.8 4.6,14.8 4.6,13.7 C4.6,12.6 5.5,11.8 6.6,12 C7.7,12.2 8.6,13.2 8.6,14.3 C8.6,15.4 7.8,16.2 6.6,16 Z" id="Oval-5-Copy" fill="#E41F2B"></path>
                            <path d="M4,3.2 C8.3,3.3 10.9,11.4 7.9,12.8 L8.4,13.7 C12.3,11.9 9.2,2.2 3.9,2.2 L4,3.2 Z" id="Path-10" fill="#E73843"></path>
                        </g>
                        <g id="Group-8_1_" transform="translate(25.521482, 25.844926) scale(-1, 1) rotate(10.000000) translate(-25.521482, -25.844926) translate(20.021482, 17.344926)" fill-rule="nonzero">
                            <path d="M2.8,3.8 C3.4,3.9 3.8,3.5 3.8,2.9 C3.8,2.3 3.4,1.8 2.8,1.8 C2.2,1.7 1.8,2.1 1.8,2.7 C1.8,3.2 2.2,3.7 2.8,3.8 Z M2.8,4.8 C1.7,4.6 0.8,3.6 0.8,2.5 C0.8,1.4 1.7,0.6 2.8,0.8 C3.9,1 4.8,2 4.8,3.1 C4.8,4.2 3.9,5 2.8,4.8 Z" id="Oval-5_1_" fill="#E41F2B"></path>
                            <path d="M6.8,15.4 C7.4,15.5 7.8,15.1 7.8,14.5 C7.8,13.9 7.4,13.4 6.8,13.4 C6.2,13.4 5.8,13.7 5.8,14.3 C5.8,14.8 6.2,15.3 6.8,15.4 Z M6.8,16.4 C5.7,16.2 4.8,15.2 4.8,14.1 C4.8,13 5.7,12.2 6.8,12.4 C7.9,12.6 8.8,13.6 8.8,14.7 C8.8,15.8 7.9,16.5 6.8,16.4 Z" id="Oval-5-Copy_1_" fill="#E41F2B"></path>
                            <path d="M4.1,3.5 C8.4,3.6 11,11.7 8,13.1 L8.5,14 C12.4,12.2 9.3,2.5 4,2.5 L4.1,3.5 Z" id="Path-10_1_" fill="#E73843"></path>
                        </g>
                    </g>
                    <g id="函数_1_" transform="translate(192.000000, 29.000000)">
                        <g id="Stroke-1_2_" transform="translate(5.000000, 0.000000)">
                            <polygon id="path-6" fill="#DDDDDD" fill-rule="nonzero" points="0 35.8 42.9 41.8 43 6.2 0 0"></polygon>
                            <polygon id="Shape" stroke="#999999" stroke-width="0.8" points="0.4 35.5 42.5 41.4 42.6 6.5 0.4 0.4 0.4 35.5"></polygon>
                        </g>
                        <g id="Stroke-1_3_" transform="translate(0.000000, 3.000000)">
                            <polygon id="path-7" fill="#FFFFFF" fill-rule="nonzero" points="0 35.8 42.9 41.8 43 6.2 0 0"></polygon>
                            <polygon id="Shape" stroke="#333333" stroke-width="0.8" points="0.4 35.5 42.5 41.4 42.6 6.5 0.4 0.4 0.4 35.5"></polygon>
                        </g>
                        <path d="M0.5,9.4 L42.4,15.2" id="Stroke-13_1_" stroke="#333333" stroke-width="0.8"></path>
                        <path d="M3.1,6.8 L5,7.1" id="Stroke-17_3_" stroke="#333333"></path>
                        <path d="M7.1,7.4 L9,7.7" id="Stroke-17_4_" stroke="#333333"></path>
                        <path d="M11.1,7.9 L13,8.2" id="Stroke-17_5_" stroke="#333333"></path>
                        <g id="Group-8_2_" transform="translate(14.138031, 27.014795) rotate(-2.000000) translate(-14.138031, -27.014795) translate(8.638031, 18.514795)" fill-rule="nonzero">
                            <path d="M2.6,3.5 C3.2,3.6 3.6,3.2 3.6,2.6 C3.6,2 3.2,1.5 2.6,1.5 C2,1.4 1.6,1.8 1.6,2.4 C1.6,2.9 2.1,3.4 2.6,3.5 Z M2.6,4.5 C1.5,4.3 0.6,3.3 0.6,2.2 C0.6,1.1 1.5,0.3 2.6,0.5 C3.7,0.7 4.6,1.7 4.6,2.8 C4.6,3.9 3.8,4.6 2.6,4.5 Z" id="Oval-5_2_" fill="#E41F2B"></path>
                            <path d="M6.6,15 C7.2,15.1 7.6,14.7 7.6,14.1 C7.6,13.5 7.2,13 6.6,13 C6,12.9 5.6,13.3 5.6,13.9 C5.6,14.5 6.1,15 6.6,15 Z M6.6,16 C5.5,15.8 4.6,14.8 4.6,13.7 C4.6,12.6 5.5,11.8 6.6,12 C7.7,12.2 8.6,13.2 8.6,14.3 C8.6,15.4 7.8,16.2 6.6,16 Z" id="Oval-5-Copy_2_" fill="#E41F2B"></path>
                            <path d="M4,3.2 C8.3,3.3 10.9,11.4 7.9,12.8 L8.4,13.7 C12.3,11.9 9.2,2.2 3.9,2.2 L4,3.2 Z" id="Path-10_2_" fill="#E73843"></path>
                        </g>
                        <g id="Group-8_3_" transform="translate(25.521482, 25.844926) scale(-1, 1) rotate(10.000000) translate(-25.521482, -25.844926) translate(20.021482, 17.344926)" fill-rule="nonzero">
                            <path d="M2.8,3.8 C3.4,3.9 3.8,3.5 3.8,2.9 C3.8,2.3 3.4,1.8 2.8,1.8 C2.2,1.7 1.8,2.1 1.8,2.7 C1.8,3.2 2.2,3.7 2.8,3.8 Z M2.8,4.8 C1.7,4.6 0.8,3.6 0.8,2.5 C0.8,1.4 1.7,0.6 2.8,0.8 C3.9,1 4.8,2 4.8,3.1 C4.8,4.2 3.9,5 2.8,4.8 Z" id="Oval-5_3_" fill="#E41F2B"></path>
                            <path d="M6.8,15.4 C7.4,15.5 7.8,15.1 7.8,14.5 C7.8,13.9 7.4,13.4 6.8,13.4 C6.2,13.4 5.8,13.7 5.8,14.3 C5.8,14.8 6.2,15.3 6.8,15.4 Z M6.8,16.4 C5.7,16.2 4.8,15.2 4.8,14.1 C4.8,13 5.7,12.2 6.8,12.4 C7.9,12.6 8.8,13.6 8.8,14.7 C8.8,15.8 7.9,16.5 6.8,16.4 Z" id="Oval-5-Copy_3_" fill="#E41F2B"></path>
                            <path d="M4.1,3.5 C8.4,3.6 11,11.7 8,13.1 L8.5,14 C12.4,12.2 9.3,2.5 4,2.5 L4.1,3.5 Z" id="Path-10_3_" fill="#E73843"></path>
                        </g>
                    </g>
                    <g id="函数_2_" transform="translate(117.000000, 19.000000)">
                        <g id="Stroke-1_4_" transform="translate(5.000000, 0.000000)">
                            <polygon id="path-8" fill="#DDDDDD" fill-rule="nonzero" points="0 35.8 42.9 41.8 43 6.2 0 0"></polygon>
                            <polygon id="Shape" stroke="#999999" stroke-width="0.8" points="0.4 35.5 42.5 41.4 42.6 6.5 0.4 0.4 0.4 35.5"></polygon>
                        </g>
                        <g id="Stroke-1_5_" transform="translate(0.000000, 3.000000)">
                            <polygon id="path-9" fill="#FFFFFF" fill-rule="nonzero" points="0 35.8 42.9 41.8 43 6.2 0 0"></polygon>
                            <polygon id="Shape" stroke="#333333" stroke-width="0.8" points="0.4 35.5 42.5 41.4 42.6 6.5 0.4 0.4 0.4 35.5"></polygon>
                        </g>
                        <path d="M0.5,9.4 L42.4,15.2" id="Stroke-13_2_" stroke="#333333" stroke-width="0.8"></path>
                        <path d="M3.1,6.8 L5,7.1" id="Stroke-17_6_" stroke="#333333"></path>
                        <path d="M7.1,7.4 L9,7.7" id="Stroke-17_7_" stroke="#333333"></path>
                        <path d="M11.1,7.9 L13,8.2" id="Stroke-17_8_" stroke="#333333"></path>
                        <g id="Group-8_4_" transform="translate(14.138031, 27.014795) rotate(-2.000000) translate(-14.138031, -27.014795) translate(8.638031, 18.514795)" fill-rule="nonzero">
                            <path d="M2.6,3.5 C3.2,3.6 3.6,3.2 3.6,2.6 C3.6,2 3.2,1.5 2.6,1.5 C2,1.4 1.6,1.8 1.6,2.4 C1.6,2.9 2.1,3.4 2.6,3.5 Z M2.6,4.5 C1.5,4.3 0.6,3.3 0.6,2.2 C0.6,1.1 1.5,0.3 2.6,0.5 C3.7,0.7 4.6,1.7 4.6,2.8 C4.6,3.9 3.8,4.6 2.6,4.5 Z" id="Oval-5_4_" fill="#E41F2B"></path>
                            <path d="M6.6,15 C7.2,15.1 7.6,14.7 7.6,14.1 C7.6,13.5 7.2,13 6.6,13 C6,12.9 5.6,13.3 5.6,13.9 C5.6,14.5 6.1,15 6.6,15 Z M6.6,16 C5.5,15.8 4.6,14.8 4.6,13.7 C4.6,12.6 5.5,11.8 6.6,12 C7.7,12.2 8.6,13.2 8.6,14.3 C8.6,15.4 7.8,16.2 6.6,16 Z" id="Oval-5-Copy_4_" fill="#E41F2B"></path>
                            <path d="M4,3.2 C8.3,3.3 10.9,11.4 7.9,12.8 L8.4,13.7 C12.3,11.9 9.2,2.2 3.9,2.2 L4,3.2 Z" id="Path-10_4_" fill="#E73843"></path>
                        </g>
                        <g id="Group-8_5_" transform="translate(25.521482, 25.844926) scale(-1, 1) rotate(10.000000) translate(-25.521482, -25.844926) translate(20.021482, 17.344926)" fill-rule="nonzero">
                            <path d="M2.8,3.8 C3.4,3.9 3.8,3.5 3.8,2.9 C3.8,2.3 3.4,1.8 2.8,1.8 C2.2,1.7 1.8,2.1 1.8,2.7 C1.8,3.2 2.2,3.7 2.8,3.8 Z M2.8,4.8 C1.7,4.6 0.8,3.6 0.8,2.5 C0.8,1.4 1.7,0.6 2.8,0.8 C3.9,1 4.8,2 4.8,3.1 C4.8,4.2 3.9,5 2.8,4.8 Z" id="Oval-5_5_" fill="#E41F2B"></path>
                            <path d="M6.8,15.4 C7.4,15.5 7.8,15.1 7.8,14.5 C7.8,13.9 7.4,13.4 6.8,13.4 C6.2,13.4 5.8,13.7 5.8,14.3 C5.8,14.8 6.2,15.3 6.8,15.4 Z M6.8,16.4 C5.7,16.2 4.8,15.2 4.8,14.1 C4.8,13 5.7,12.2 6.8,12.4 C7.9,12.6 8.8,13.6 8.8,14.7 C8.8,15.8 7.9,16.5 6.8,16.4 Z" id="Oval-5-Copy_5_" fill="#E41F2B"></path>
                            <path d="M4.1,3.5 C8.4,3.6 11,11.7 8,13.1 L8.5,14 C12.4,12.2 9.3,2.5 4,2.5 L4.1,3.5 Z" id="Path-10_5_" fill="#E73843"></path>
                        </g>
                    </g>
                    <g id="函数_3_" transform="translate(42.000000, 9.000000)">
                        <g id="Stroke-1_6_" transform="translate(5.000000, 0.000000)">
                            <polygon id="path-10" fill="#DDDDDD" fill-rule="nonzero" points="0 35.8 42.9 41.8 43 6.2 0 0"></polygon>
                            <polygon id="Shape" stroke="#999999" stroke-width="0.8" points="0.4 35.5 42.5 41.4 42.6 6.5 0.4 0.4 0.4 35.5"></polygon>
                        </g>
                        <g id="Stroke-1_7_" transform="translate(0.000000, 3.000000)">
                            <polygon id="path-11" fill="#FFFFFF" fill-rule="nonzero" points="0 35.8 42.9 41.8 43 6.2 0 0"></polygon>
                            <polygon id="Shape" stroke="#333333" stroke-width="0.8" points="0.4 35.5 42.5 41.4 42.6 6.5 0.4 0.4 0.4 35.5"></polygon>
                        </g>
                        <path d="M0.5,9.4 L42.4,15.2" id="Stroke-13_3_" stroke="#333333" stroke-width="0.8"></path>
                        <path d="M3.1,6.8 L5,7.1" id="Stroke-17_9_" stroke="#333333"></path>
                        <path d="M7.1,7.4 L9,7.7" id="Stroke-17_10_" stroke="#333333"></path>
                        <path d="M11.1,7.9 L13,8.2" id="Stroke-17_11_" stroke="#333333"></path>
                        <g id="Group-8_6_" transform="translate(14.138031, 27.014795) rotate(-2.000000) translate(-14.138031, -27.014795) translate(8.638031, 18.514795)" fill-rule="nonzero">
                            <path d="M2.6,3.5 C3.2,3.6 3.6,3.2 3.6,2.6 C3.6,2 3.2,1.5 2.6,1.5 C2,1.4 1.6,1.8 1.6,2.4 C1.6,2.9 2.1,3.4 2.6,3.5 Z M2.6,4.5 C1.5,4.3 0.6,3.3 0.6,2.2 C0.6,1.1 1.5,0.3 2.6,0.5 C3.7,0.7 4.6,1.7 4.6,2.8 C4.6,3.9 3.8,4.6 2.6,4.5 Z" id="Oval-5_6_" fill="#E41F2B"></path>
                            <path d="M6.6,15 C7.2,15.1 7.6,14.7 7.6,14.1 C7.6,13.5 7.2,13 6.6,13 C6,12.9 5.6,13.3 5.6,13.9 C5.6,14.5 6.1,15 6.6,15 Z M6.6,16 C5.5,15.8 4.6,14.8 4.6,13.7 C4.6,12.6 5.5,11.8 6.6,12 C7.7,12.2 8.6,13.2 8.6,14.3 C8.6,15.4 7.8,16.2 6.6,16 Z" id="Oval-5-Copy_6_" fill="#E41F2B"></path>
                            <path d="M4,3.2 C8.3,3.3 10.9,11.4 7.9,12.8 L8.4,13.7 C12.3,11.9 9.2,2.2 3.9,2.2 L4,3.2 Z" id="Path-10_6_" fill="#E73843"></path>
                        </g>
                        <g id="Group-8_7_" transform="translate(25.521482, 25.844926) scale(-1, 1) rotate(10.000000) translate(-25.521482, -25.844926) translate(20.021482, 17.344926)" fill-rule="nonzero">
                            <path d="M2.8,3.8 C3.4,3.9 3.8,3.5 3.8,2.9 C3.8,2.3 3.4,1.8 2.8,1.8 C2.2,1.7 1.8,2.1 1.8,2.7 C1.8,3.2 2.2,3.7 2.8,3.8 Z M2.8,4.8 C1.7,4.6 0.8,3.6 0.8,2.5 C0.8,1.4 1.7,0.6 2.8,0.8 C3.9,1 4.8,2 4.8,3.1 C4.8,4.2 3.9,5 2.8,4.8 Z" id="Oval-5_7_" fill="#E41F2B"></path>
                            <path d="M6.8,15.4 C7.4,15.5 7.8,15.1 7.8,14.5 C7.8,13.9 7.4,13.4 6.8,13.4 C6.2,13.4 5.8,13.7 5.8,14.3 C5.8,14.8 6.2,15.3 6.8,15.4 Z M6.8,16.4 C5.7,16.2 4.8,15.2 4.8,14.1 C4.8,13 5.7,12.2 6.8,12.4 C7.9,12.6 8.8,13.6 8.8,14.7 C8.8,15.8 7.9,16.5 6.8,16.4 Z" id="Oval-5-Copy_7_" fill="#E41F2B"></path>
                            <path d="M4.1,3.5 C8.4,3.6 11,11.7 8,13.1 L8.5,14 C12.4,12.2 9.3,2.5 4,2.5 L4.1,3.5 Z" id="Path-10_7_" fill="#E73843"></path>
                        </g>
                    </g>
                </g>
                <g id="Group-2_1_" transform="translate(423.000000, 236.000000)">
                    <polyline id="Path-6_1_" stroke="#333333" points="36.5 126.4 0 121.6 123.3 0.9 161 5.9"></polyline>
                    <polygon id="Path-3-Copy" fill="#333333" fill-rule="nonzero" points="155 8.9 161 2.9 167 6.9"></polygon>
                    <polygon id="Path-3-Copy_1_" fill="#333333" fill-rule="nonzero" points="31 128.9 37 122.9 43 126.9"></polygon>
                    <path d="M13.6,49.3 L66.5,56.5" id="Path-7" stroke="#333333"></path>
                    <polygon id="Path-3-Copy-2" fill="#333333" fill-rule="nonzero" points="19 46.9 15 50.9 11 48.2"></polygon>
                </g>
                <path d="M567,272 L567,286.7 L676.5,300.8 L730.5,248.3 L730.5,232.3 L621.3,218.9 L567,272 Z" id="Path-2" stroke="#999999" stroke-width="0.5663" fill-opacity="0.05" fill="#666666" fill-rule="nonzero" opacity="0.5822" stroke-dasharray="1.1327"></path>
                <polygon id="Rectangle-4" fill="#333333" fill-rule="nonzero" points="621 197.9 703.5 206 703.5 228.4 621 219.3"></polygon>
                <path d="M633,205 L632.1,204.9 C632.1,205.4 632.1,206 632.1,206.8 C632,210.2 630.3,212.8 627,214.5 L627.5,215.3 C630.2,213.9 631.9,211.9 632.6,209.4 C633.5,212.2 635.1,214.5 637.6,216.4 L638.2,215.7 C635.4,213.7 633.7,211 633,207.7 C633,206.9 633,206 633,205 Z M644.1,207.9 L644.1,215.5 L639.2,215 L639.2,215.8 L649.9,217 L649.9,216.2 L645,215.7 L645,208 L649.1,208.5 L649.1,207.7 L640,206.7 L640,207.5 L644.1,207.9 Z M652.8,208.8 C652.5,209.2 652.2,209.6 651.8,209.8 L651.3,209.1 C651.9,208.6 652.4,207.9 652.8,207 L653.6,207.3 C653.5,207.6 653.4,207.8 653.3,208.1 L656.7,208.5 L656.7,209.3 L654.9,209.1 C654.9,209.5 654.8,209.9 654.8,210.3 L657.1,210.5 L657.1,211.3 L654.7,211 C654.7,211.1 654.6,211.2 654.6,211.3 C655.5,211.9 656.3,212.4 656.9,213 L656.3,213.5 C655.8,213 655.1,212.5 654.3,211.9 C653.8,212.7 653,213.3 651.8,213.7 L651.2,212.9 C652.4,212.5 653.3,211.9 653.7,211.1 L653.8,210.8 L651.4,210.5 L651.4,209.7 L654,210 C654.1,209.6 654.1,209.3 654.1,208.9 L652.8,208.8 Z M657.5,208.4 L661.4,208.8 L661.4,213.2 L657.5,212.8 L657.5,208.4 Z M660.6,212.4 L660.6,209.5 L658.3,209.3 L658.3,212.2 L660.6,212.4 Z M660.6,214 L660.6,219 L659.7,218.9 L659.7,218.4 L653.8,217.8 L653.8,218.3 L652.9,218.2 L652.9,213.2 L660.6,214 Z M653.8,216.9 L659.7,217.5 L659.7,216.5 L653.8,215.9 L653.8,216.9 Z M653.8,215.2 L659.7,215.8 L659.7,214.7 L653.8,214.1 L653.8,215.2 Z M664.7,215.3 L664.7,216.4 L667.5,216.7 L667.5,215.6 L664.7,215.3 Z M667.5,214.9 L667.5,213.7 L664.7,213.4 L664.7,214.6 L667.5,214.9 Z M664.7,217.2 L664.7,219.5 L663.9,219.4 L663.9,212.6 L668.3,213.1 L668.3,218.7 C668.3,219.4 668,219.7 667.3,219.6 L666.3,219.5 L666.1,218.7 L667,218.8 C667.3,218.8 667.5,218.7 667.5,218.4 L667.5,217.4 L664.7,217.2 Z M672.5,214.5 C672.9,214.5 673.2,214.5 673.4,214.3 C673.6,214.1 673.8,213.5 673.9,212.5 L673.1,212.2 C673.1,212.9 673,213.4 672.9,213.5 C672.8,213.6 672.6,213.7 672.4,213.6 L670.8,213.4 C670.5,213.4 670.3,213.2 670.3,212.8 L670.3,211.3 C671.6,211.3 672.8,211.2 673.8,211 L673.5,210.2 C672.7,210.3 671.6,210.4 670.3,210.5 L670.3,208.9 L669.4,208.8 L669.4,212.8 C669.4,213.6 669.8,214 670.5,214.1 L672.5,214.5 Z M670.3,217 C671.5,217 672.7,217 673.8,216.8 L673.5,216 C672.6,216.2 671.5,216.3 670.3,216.3 L670.3,214.8 L669.4,214.7 L669.4,218.9 C669.4,219.5 669.7,219.9 670.5,220 L672.5,220.2 C672.9,220.2 673.2,220.2 673.4,220 C673.6,219.8 673.8,219.2 673.9,218.3 L673.1,218 C673.1,218.7 673,219.2 672.8,219.3 C672.7,219.4 672.5,219.4 672.3,219.4 L670.7,219.2 C670.4,219.2 670.2,219 670.2,218.8 L670.2,217 L670.3,217 Z M667.5,209.6 L666.8,209.9 C667.1,210.3 667.4,210.8 667.6,211.2 C666.5,211.2 665.4,211.2 664.4,211.2 C665.1,210.7 665.7,209.9 666.2,208.9 L665.4,208.6 C664.9,209.5 664.3,210.3 663.6,211 C663.5,211.1 663.4,211.2 663.2,211.2 L663.4,211.9 C665.2,212 666.7,212 668,212 C668.2,212.3 668.3,212.6 668.4,212.8 L669.1,212.4 C668.7,211.5 668.2,210.6 667.5,209.6 Z M676.8,213.8 L676.8,215.8 L678.7,216 L678.7,214 L676.8,213.8 Z M678.7,213.3 L678.7,211.3 L676.8,211.1 L676.8,213.1 L678.7,213.3 Z M676.8,216.6 C676.7,218.3 676.4,219.6 675.9,220.6 L675.3,219.9 C675.8,218.9 676,217.5 676,215.8 L676,210 L679.5,210.4 L679.5,219.8 C679.5,220.5 679.2,220.9 678.5,220.8 L677.5,220.7 L677.3,219.9 C677.6,220 677.9,220 678.2,220 C678.5,220 678.7,219.8 678.7,219.4 L678.7,216.7 L676.8,216.6 Z M681.3,215.9 L681.3,221.2 L680.5,221.1 L680.5,210.6 L685.4,211.1 C685.4,212.6 685.3,213.6 685.2,214 C685.1,214.5 684.6,214.7 683.9,214.6 L682.9,214.5 L682.7,213.7 C682.9,213.7 683.2,213.8 683.5,213.8 C683.8,213.8 684,213.8 684.1,213.8 C684.2,213.8 684.4,213.7 684.4,213.5 C684.5,213.2 684.5,212.7 684.6,211.8 L681.4,211.5 L681.4,215.1 L685.5,215.5 L685.5,216.2 C685.3,217.4 684.9,218.4 684.3,219.2 C684.8,219.8 685.5,220.3 686.2,220.8 L685.8,221.5 C685,221 684.4,220.4 683.8,219.8 C683.3,220.4 682.7,220.8 681.9,221.1 L681.4,220.4 C682.1,220.1 682.7,219.7 683.1,219.2 C682.3,218.2 681.8,217.1 681.6,215.9 L681.3,215.9 Z M682.3,216 C682.6,217 683,217.8 683.6,218.6 C684,217.9 684.4,217.1 684.6,216.2 L682.3,216 Z M690.7,211.2 L691.6,211.4 C691.5,211.7 691.3,212 691.1,212.3 L696.3,212.9 L696.3,213.6 C695.5,214.4 694.6,215.1 693.5,215.6 C694.9,216.3 696.4,216.9 698,217.2 L697.6,218 C695.7,217.6 694,216.9 692.5,216 C691,216.5 689.3,216.8 687.4,216.9 L687,216 C688.7,215.9 690.3,215.7 691.6,215.3 C690.9,214.8 690.3,214.3 689.7,213.7 C689.2,214.1 688.8,214.4 688.2,214.7 L687.7,213.9 C689.2,213.3 690.2,212.4 690.7,211.2 Z M692.6,215 C693.6,214.6 694.4,214.1 695.1,213.6 L690.5,213.1 L690.3,213.3 C691.1,213.9 691.8,214.5 692.6,215 Z M691.9,216.7 L692.8,216.8 C692.8,217.3 692.8,217.7 692.7,218.2 L696.9,218.7 C696.9,220.7 696.7,221.9 696.3,222.3 C695.9,222.7 695.4,222.8 694.5,222.7 C694.1,222.7 693.6,222.6 693.1,222.5 L692.9,221.7 L694.3,221.9 C695,222 695.5,221.9 695.7,221.6 C695.9,221.3 696,220.6 696,219.4 L692.4,219 C692.3,219.3 692.2,219.6 692,219.9 C691.4,220.9 690,221.7 687.8,222.1 L687.2,221.3 C689.2,220.9 690.5,220.3 691.1,219.5 C691.2,219.3 691.4,219.1 691.5,218.9 L687.9,218.5 L687.9,217.7 L691.7,218.1 C691.8,217.6 691.9,217.2 691.9,216.7 Z" id="人工智能服务" fill="#FFFFFF" fill-rule="nonzero"></path>
                <g id="Group-13-Copy" transform="translate(54.000000, 268.000000)">
                    <g id="Group-7" transform="translate(139.500000, 23.500000) rotate(180.000000) translate(-139.500000, -23.500000) translate(127.000000, 11.000000)" stroke="#333333">
                        <path d="M24.8,0.7 L0,24.6" id="Path-2-Copy"></path>
                    </g>
                    <g id="Group-7-Copy-2" transform="translate(220.500000, 34.500000) rotate(180.000000) translate(-220.500000, -34.500000) translate(208.000000, 22.000000)" stroke="#333333">
                        <path d="M24.8,0.7 L0,24.6" id="Path-2-Copy_1_"></path>
                    </g>
                    <g id="Group-7-Copy-3" transform="translate(292.500000, 44.500000) rotate(180.000000) translate(-292.500000, -44.500000) translate(280.000000, 32.000000)" stroke="#333333">
                        <path d="M24.8,0.7 L0,24.6" id="Path-2-Copy_2_"></path>
                    </g>
                    <g id="Group-7-Copy" transform="translate(71.500000, 14.500000) rotate(180.000000) translate(-71.500000, -14.500000) translate(59.000000, 2.000000)" stroke="#333333">
                        <path d="M24.8,0.7 L0,24.6" id="Path-2-Copy_3_"></path>
                    </g>
                    <circle id="Oval-2" fill="#333333" fill-rule="nonzero" cx="151.6" cy="11.5" r="1.6"></circle>
                    <circle id="Oval-2-Copy-2" fill="#333333" fill-rule="nonzero" cx="232.6" cy="22.5" r="1.6"></circle>
                    <circle id="Oval-2-Copy-3" fill="#333333" fill-rule="nonzero" cx="304.6" cy="32" r="1.6"></circle>
                    <circle id="Oval-2-Copy" fill="#333333" fill-rule="nonzero" cx="83.6" cy="2.5" r="1.6"></circle>
                    <g id="Group-11" transform="translate(17.000000, 26.000000)">
                        <polyline id="Path-7_1_" stroke="#333333" points="3.5 38.4 41.5 0.9 264 30 224.5 68.4"></polyline>
                        <polygon id="Path-8-Copy" fill="#333333" fill-rule="nonzero" points="0 36.9 9 38 0 41.9"></polygon>
                        <polygon id="Path-8-Copy-2" fill="#333333" fill-rule="nonzero" points="222 65.9 231 67 222 70.9"></polygon>
                    </g>
                    <polygon id="Rectangle-4_1_" fill="#333333" fill-rule="nonzero" points="229 53.9 290.5 60.9 290.5 83.3 229 75.3"></polygon>
                    <path d="M237.8,60.9 L238.6,61.4 C238,62.3 237.5,63.1 236.9,63.7 C236.3,64.3 235.5,64.9 234.5,65.5 L234,64.7 C234.8,64.3 235.6,63.8 236.2,63.1 C236.8,62.5 237.3,61.8 237.8,60.9 Z M238.2,66.3 L235.8,66.1 L235.8,65.3 L243,66 C243,67.5 242.9,68.7 242.8,69.6 C242.7,70.5 242.5,71.1 242.2,71.5 C241.9,71.8 241.5,72 240.9,71.9 L238.7,71.7 L238.5,70.8 C239.2,70.9 239.9,71 240.5,71 C241.1,71.1 241.6,70.8 241.8,70.3 C242,69.7 242.1,68.5 242.2,66.7 L239.2,66.4 C238.9,67.7 238.5,68.7 238,69.4 C237.4,70.2 236.5,70.9 235.2,71.4 L234.6,70.6 C235.7,70.1 236.5,69.5 237.1,68.9 C237.6,68.3 237.9,67.4 238.2,66.3 Z M241.2,61.1 C241.9,63 243.1,64.6 244.9,65.9 L244.3,66.5 C242.4,65.1 241.1,63.4 240.4,61.5 L241.2,61.1 Z M248.8,66.5 L248.8,72.7 L247.9,72.6 L247.9,66.5 C247.5,67.7 247,68.7 246.3,69.7 L245.9,68.7 C246.8,67.6 247.5,66.3 247.8,64.9 L246.1,64.7 L246.1,63.9 L247.9,64.1 L247.9,61.7 L248.8,61.8 L248.8,64.2 L250.4,64.4 L250.4,65.2 L248.8,65 L248.8,65.6 C249.4,66.2 249.9,67 250.5,67.8 L250,68.4 C249.6,67.6 249.1,67 248.8,66.5 Z M256.1,62.6 L256.5,63.4 C255.1,63.8 253.6,63.9 251.9,63.8 L251.9,66 L256.8,66.5 L256.8,67.3 L255,67.1 L255,73.4 L254.1,73.3 L254.1,67 L251.9,66.8 L251.9,66.9 C251.8,69.4 251.2,71.4 250.1,72.8 L249.5,72.1 C250.5,70.9 251,69.1 251.1,66.8 L251.1,62.9 C253,63.1 254.6,63 256.1,62.6 Z M262.4,71.8 C261.2,72.1 259.8,72.3 258.1,72.4 L258.2,73.3 C259.8,73.2 261.1,73 262.4,72.6 L262.4,71.8 Z M260.2,62.9 L261,63.3 C260.4,64.8 259.8,66 259.1,66.9 C259.7,66.9 260.2,66.9 260.8,66.8 C261,66.4 261.3,66 261.5,65.5 L262.3,65.9 C261.2,67.8 260.3,69.2 259.6,70 C260.5,69.9 261.4,69.8 262.3,69.6 L262.3,70.4 C261,70.7 259.8,70.9 258.6,70.9 L258.4,70.1 C258.6,70 258.7,70 258.8,69.9 C259.3,69.5 259.8,68.7 260.5,67.7 C259.8,67.7 259.1,67.8 258.4,67.8 L258.2,67 C258.3,67 258.5,66.9 258.6,66.7 C259.1,65.5 259.7,64.3 260.2,62.9 Z M262.3,64.6 L265.2,64.9 L265.2,63.4 L266.1,63.5 L266.1,65 L269,65.3 L269,66.1 L266.1,65.8 L266.1,67.6 L268.6,67.9 L268.6,68.7 L262.7,68.1 L262.7,67.3 L265.2,67.6 L265.2,65.8 L262.3,65.5 L262.3,64.6 Z M268.2,69.9 L268.2,74.7 L267.4,74.6 L267.4,74 L264,73.6 L264,74.2 L263.1,74.1 L263.1,69.3 L268.2,69.9 Z M263.9,72.9 L267.3,73.3 L267.3,70.7 L263.9,70.3 L263.9,72.9 Z M271.4,64.6 L279.4,65.4 L279.4,70 L275.9,69.6 L275.9,70.7 L280.7,71.2 L280.7,72 L276.7,71.6 C277.6,72.8 279,73.9 281,74.9 L280.4,75.6 C278.3,74.3 276.8,72.9 276,71.5 L275.9,71.5 L275.9,75.5 L275,75.4 L275,71.4 L275,71.4 C274.1,72.8 272.6,73.8 270.5,74.6 L270,73.8 C272,73.3 273.4,72.5 274.2,71.4 L270.2,71 L270.2,70.2 L275,70.7 L275,69.6 L271.4,69.2 L271.4,64.6 Z M278.6,69.2 L278.6,68 L275.9,67.7 L275.9,68.9 L278.6,69.2 Z M275,68.8 L275,67.6 L272.3,67.3 L272.3,68.5 L275,68.8 Z M272.3,66.6 L275,66.9 L275,65.7 L272.3,65.4 L272.3,66.6 Z M275.9,65.8 L275.9,67 L278.6,67.3 L278.6,66.1 L275.9,65.8 Z" id="分析结果" fill="#FFFFFF" fill-rule="nonzero"></path>
                    <g id="Group-9" transform="translate(0.000000, 23.000000)" fill="#333333" fill-rule="nonzero">
                        <polygon id="Rectangle-4_2_" points="0 0.9 84 11.4 84 33.8 0 22.3"></polygon>
                    </g>
                    <path d="M6.8,30.9 L6.2,31.4 C7.1,32.2 7.7,32.9 8.2,33.5 L8.8,33 C8.3,32.3 7.6,31.6 6.8,30.9 Z M13.8,42.2 C13.2,42.1 12.4,42 11.7,42 C10.9,41.9 10.3,41.8 9.8,41.6 C9.3,41.4 8.9,41.1 8.5,40.6 C8.3,40.4 8.2,40.3 8,40.3 C7.7,40.3 7.2,40.8 6.6,41.8 L6,41.1 C6.6,40.2 7.2,39.6 7.7,39.4 L7.7,35.8 L6,35.6 L6,34.8 L8.5,35.1 L8.5,39.6 C8.6,39.7 8.7,39.8 8.8,39.9 C9.1,40.3 9.4,40.6 9.7,40.8 C10.1,41 10.6,41.2 11.3,41.3 C11.9,41.4 12.7,41.5 13.6,41.6 C14.2,41.7 14.7,41.7 15.3,41.8 C15.9,41.8 16.3,41.9 16.6,41.9 L16.4,42.7 L13.8,42.2 Z M9.4,32.3 L12.2,32.6 L12.2,31.2 L13,31.3 L13,32.7 L16,33 L16,33.8 L13,33.5 L13,34.7 L15.6,35 L15.6,35.8 L13,35.5 L13,36.7 L16.1,37 C16.1,38.3 16,39.1 15.8,39.4 C15.6,39.9 15.1,40.1 14.3,40 C14.2,40 14,40 13.8,39.9 L13.5,39.1 C13.8,39.2 14,39.2 14.2,39.2 C14.7,39.2 15,39.1 15.1,38.8 C15.2,38.6 15.2,38.2 15.2,37.6 L13,37.4 L13,40.7 L12.2,40.6 L12.2,37.3 L9.3,37 L9.3,36.2 L12.2,36.5 L12.2,35.3 L9.8,35 L9.8,34.2 L12.2,34.5 L12.2,33.3 L9.4,33 L9.4,32.3 Z M18.1,33.6 L19.8,33.8 L19.8,32.2 L20.7,32.3 L20.7,33.9 L22.3,34.1 L22.3,34.9 L20.7,34.7 L20.7,36.7 L22.5,36.9 L22.5,37.7 L20.7,37.5 C20.7,37.8 20.6,38.1 20.6,38.4 C21.3,39.1 22,39.9 22.7,40.8 L22.2,41.5 C21.5,40.5 21,39.7 20.5,39.2 C20.2,40.9 19.5,42.1 18.5,42.9 L17.9,42.3 C19.1,41.3 19.7,39.7 19.9,37.4 L18.1,37.2 L18.1,36.4 L20,36.6 L20,34.6 L18.3,34.4 L18.3,33.6 L18.1,33.6 Z M27.9,33.4 L27.9,40 L27.1,39.9 L27.1,34.1 L23.9,33.8 L23.9,39.6 L23.1,39.5 L23.1,32.9 L27.9,33.4 Z M27.5,43.7 L26.5,43.6 C25.9,43.5 25.6,43.2 25.6,42.5 L25.6,39.8 L26.4,39.9 L26.4,42.4 C26.4,42.7 26.5,42.8 26.8,42.8 L27.4,42.9 C27.6,42.9 27.7,42.9 27.8,42.8 C27.9,42.7 28,42.2 28,41.5 L28.7,41.8 C28.6,42.8 28.5,43.4 28.3,43.6 C28.2,43.7 27.9,43.8 27.5,43.7 Z M25,34.9 L25.8,35 L25.8,37.1 C25.8,38.9 25.5,40.3 24.8,41.3 C24.2,42.2 23.2,42.9 21.9,43.3 L21.4,42.5 C22.7,42.1 23.6,41.5 24.2,40.6 C24.7,39.7 25,38.5 25,37 L25,34.9 L25,34.9 Z M34.4,34.4 L34.4,35.3 L40.1,35.9 L40.1,35 L34.4,34.4 Z M34,37.4 L34,38.3 L37.8,38.7 L37.8,43.7 C37.8,44 37.6,44.1 37.2,44.1 C36.7,44 36.1,44 35.6,43.9 L35.8,44.8 L37.6,45 C38.4,45.1 38.8,44.8 38.8,44.1 L38.8,38.9 L40.7,39.1 L40.7,38.2 L34,37.4 Z M32.5,33.5 L33.3,33.9 C32.6,35.2 31.5,36.2 30.1,37.1 L29.8,36.2 C31,35.5 31.9,34.6 32.5,33.5 Z M33,36.3 L33.8,36.7 C33.5,37.3 33,37.9 32.5,38.5 L32.5,44.4 L31.6,44.3 L31.6,39.3 C31.1,39.7 30.6,40 30,40.4 L29.7,39.5 C31.3,38.6 32.4,37.6 33,36.3 Z M43.5,34.9 C44.2,35.7 44.7,36.4 45.1,37 L44.4,37.4 C44,36.8 43.4,36.1 42.8,35.3 L43.5,34.9 Z M47.7,40.4 C48.6,41.4 49.2,42.3 49.7,43.1 L48.9,43.5 C48.4,42.7 47.8,41.7 47,40.7 L47.7,40.4 Z M46.2,34.9 L47.1,35 L47.1,36.4 C47.1,36.9 47.1,37.4 47,37.9 L51.9,38.4 C51.9,41.8 51.7,44 51.4,44.9 C51.1,45.8 50.5,46.2 49.7,46.1 C49.1,46 48.6,46 48.2,45.9 L48,45 C48.6,45.1 49.2,45.2 49.7,45.2 C50.4,45.2 50.8,44.6 50.9,43.3 C51,42 51,40.6 51,39 L46.8,38.6 C46.6,40.1 46.3,41.3 45.8,42.3 C45.1,43.7 43.9,44.6 42.3,45.3 L41.8,44.5 C43.4,43.9 44.5,42.9 45.2,41.6 C45.6,40.8 45.8,39.7 46,38.6 L42.3,38.2 L42.3,37.4 L46.1,37.8 C46.1,37.3 46.2,36.8 46.2,36.3 L46.2,34.9 L46.2,34.9 Z M64.9,44.5 L64,44.1 C63.9,45.1 63.9,45.7 63.7,46 C63.6,46.3 63.3,46.4 62.8,46.4 L60.2,46.1 C59.8,46 59.6,45.8 59.6,45.4 L59.6,41.3 L63.9,41.8 L63.9,37.3 L58.2,36.7 L58.2,37.5 L63,38 L63,40.8 L58.7,40.3 L58.7,45.5 C58.7,46.3 59.1,46.7 59.8,46.8 L62.9,47.1 C63.6,47.2 64,47 64.3,46.7 C64.6,46.5 64.8,45.7 64.9,44.5 Z M55.2,35.9 L54.6,36.4 C55.5,37.1 56.2,37.8 56.7,38.5 L57.3,38 C56.7,37.3 56,36.6 55.2,35.9 Z M53.8,39.3 L53.8,40.1 L55.6,40.3 L55.6,45.1 C55.6,45.3 55.5,45.5 55.3,45.6 L55.6,46.4 C56.5,45.9 57.3,45.4 58.1,44.8 L57.9,43.9 C57.4,44.3 56.9,44.7 56.4,45 L56.4,39.6 L53.8,39.3 Z M67.3,37.6 L74.2,38.3 L74.2,42.2 L76.4,42.4 L76.4,43.2 L71.6,42.7 L71.6,44.1 C71.9,44.5 72.2,44.8 72.5,45.1 C73.4,44.7 74.1,44.1 74.7,43.3 L75.4,43.9 C74.7,44.7 74,45.3 73.1,45.6 C74,46.4 75.1,47.2 76.4,47.9 L76,48.6 C74.2,47.5 72.7,46.3 71.6,45 L71.6,47.5 C71.6,48.2 71.3,48.5 70.7,48.5 L69.3,48.4 L69.1,47.6 C69.5,47.7 70,47.8 70.4,47.8 C70.6,47.8 70.8,47.7 70.8,47.3 L70.8,45 C69.6,46 68.1,46.8 66.4,47.6 L66.1,46.8 C67.9,46.1 69.5,45.2 70.9,44.2 L70.9,42.7 L66.3,42.2 L66.3,41.4 L73.5,42.2 L73.5,41 L67.9,40.4 L67.9,39.6 L73.5,40.2 L73.5,39 L67.5,38.4 L67.5,37.6 L67.3,37.6 Z M67.4,42.7 C68.1,43.3 68.7,43.9 69.2,44.4 L68.6,44.9 C68.1,44.4 67.5,43.8 66.7,43.2 L67.4,42.7 Z" id="违规行为记录" fill="#FFFFFF" fill-rule="nonzero"></path>
                </g>
                <g id="Group-13-Copy_1_" transform="translate(182.000000, 158.000000)">
                    <g id="Group-7_1_" transform="translate(159.500000, 14.500000) rotate(180.000000) translate(-159.500000, -14.500000) translate(147.000000, 2.000000)" stroke="#333333">
                        <path d="M24.8,0.7 L0,24.6" id="Path-2-Copy_4_"></path>
                    </g>
                    <circle id="Oval-2_1_" fill="#333333" fill-rule="nonzero" cx="171.6" cy="2.5" r="1.6"></circle>
                    <g id="Group-11_1_" transform="translate(0.000000, 10.000000)">
                        <polyline id="Path-7_2_" stroke="#333333" points="3 31 33.5 0.9 255.8 29.9 223.3 61.7"></polyline>
                        <path d="M83.1,42.3 L114.5,11.4" id="Path-19" stroke="#333333" stroke-width="0.9315" opacity="0.8937"></path>
                        <path d="M158.3,52.3 L189.5,21.4" id="Path-19-Copy" stroke="#333333" stroke-width="0.9315" opacity="0.8937"></path>
                        <polygon id="Path-8" fill="#333333" fill-rule="nonzero" points="155 50.9 163.5 52 155 55.9"></polygon>
                        <polygon id="Path-8-Copy_1_" fill="#333333" fill-rule="nonzero" points="79 40.9 87.5 42 79 45.9"></polygon>
                        <polygon id="Path-8-Copy-2_1_" fill="#333333" fill-rule="nonzero" points="221 58.9 229.5 60 221 63.9"></polygon>
                        <polygon id="Path-8_1_" fill="#333333" fill-rule="nonzero" points="0 28.9 8.5 30 0 33.9"></polygon>
                    </g>
                </g>
                <g id="elb-copy-2" transform="translate(416.000000, 0.000000)">
                    <g id="di-duan" transform="translate(0.496327, 14.712031)">
                        <g id="di">
                            <polyline id="Rectangle-29-Copy-4_3_" fill="#DDDDDD" fill-rule="nonzero" points="80.3 31.5 80.3 48.5 101.8 27 101.8 11"></polyline>
                            <polyline id="Rectangle-29-Copy-4_4_" fill="#EDEDED" fill-rule="nonzero" points="0.3 22.5 0.3 39.5 80.3 49.5 80.3 31.5"></polyline>
                            <polygon id="Path" fill="#CDCDCD" fill-rule="nonzero" points="79.4 49.3 0.3 39.5 0.3 22.5 1.2 22.6 1.2 38.6 79.4 48.4"></polygon>
                            <polygon id="Path_1_" fill="#CDCDCD" fill-rule="nonzero" points="69.5 47.2 70.5 48.2 79.5 49.4 80.3 49.5 80.3 31.5 79.4 31.5 79.4 48.4"></polygon>
                            <polygon id="Rectangle-29-Copy-4_5_" fill="#CDCDCD" fill-rule="nonzero" points="101.4 11.2 102.3 10.5 102.3 27.5 80.2 49.5 80.2 48.5 80 48.5 101.4 27.1 101.4 11.5"></polygon>
                            <g id="Rectangle-29-Copy-4_6_">
                                <g id="path-4-link" fill="#F6F6F7" fill-rule="nonzero">
                                    <polygon id="path-4_1_" points="23.3 0.5 102.3 10.5 79.3 32.5 0.3 22.5"></polygon>
                                </g>
                                <polygon id="Shape" stroke="#CDCDCD" stroke-width="0.9315" points="23.5 0.9 1.3 22.1 79.1 32 101.3 10.8"></polygon>
                            </g>
                            <path d="M23.4,0.5 L19.8,3.9 L20.4,4.6 L23.6,1.5 L28.9,2.2 L29,1.3 L23.4,0.5 Z M94,10.4 L100.3,11.2 L96.3,15 L96.9,15.7 L102.3,10.5 L94,9.5 L94,10.4 Z M0.4,22.5 L8.3,23.5 L8.4,22.6 L2.4,21.8 L6.1,18.3 L5.5,17.6 L0.4,22.5 Z M79.1,31.5 L73.4,30.8 L73.3,31.7 L79.5,32.5 L82.8,29.3 L82.2,28.6 L79.1,31.5 Z" id="Page-1" fill="#999999" fill-rule="nonzero"></path>
                        </g>
                    </g>
                    <path d="M32.8,50.7 L32.8,54.1 L32,54 L32,53.5 L27.3,52.9 L27.3,53.4 L26.5,53.3 L26.5,50 L32.8,50.7 Z M27.3,52.3 L32,52.9 L32,51.4 L27.3,50.8 L27.3,52.3 Z M28.2,45.3 L29,45.6 C28.8,45.8 28.7,46.1 28.5,46.3 L32.6,46.8 L32.6,47.4 C32.1,48 31.5,48.4 30.7,48.8 C31.9,49.4 33.2,49.9 34.7,50.2 L34.5,50.9 C32.7,50.6 31.2,50 29.8,49.2 C28.5,49.6 26.9,49.9 24.9,50 L24.6,49.3 C26.4,49.2 27.8,49 29,48.7 C28.4,48.3 27.9,47.9 27.4,47.4 C27,47.7 26.5,48 26,48.3 L25.5,47.6 C26.6,46.9 27.5,46.2 28.2,45.3 Z M29.7,48.3 C30.5,48 31.1,47.7 31.5,47.3 L27.8,46.9 L27.8,46.9 C28.4,47.4 29,47.9 29.7,48.3 Z M34,45 L34,47.1 L33.2,47 L33.2,45.6 L25.9,44.7 L25.9,46.1 L25.1,46 L25.1,44 L29.1,44.5 C29,44.2 28.8,43.9 28.7,43.7 L29.6,43.7 C29.7,44 29.9,44.3 30,44.6 L34,45 Z M43.8,47.5 L37.5,46.7 L37.5,48.8 L43.8,49.6 L43.8,47.5 Z M37.6,49.7 C37.5,51.7 37,53.3 36,54.6 L35.4,54 C36.3,52.9 36.7,51.3 36.8,49.4 L36.8,46 L40.4,46.4 C40.2,45.9 40,45.5 39.8,45 L40.6,45 C40.8,45.4 41,45.9 41.2,46.5 L44.7,46.9 L44.7,50.6 L37.6,49.7 Z M46.5,47.6 L46.5,48.3 L50,48.7 L50,48 L48.7,47.8 C48.5,47.1 48.4,46.6 48.2,46 L47.4,46 C47.6,46.5 47.8,47 47.9,47.6 L46.5,47.6 Z M47.4,49.1 C47.6,50.4 47.8,51.9 48,53.5 L47.4,53.6 C47.2,52.1 47,50.6 46.8,49.2 L47.4,49.1 Z M50,53.8 L50,54.6 C49,54.9 47.9,55.1 46.7,55.2 L46.5,54.4 C47.1,54.4 47.8,54.3 48.4,54.2 C48.7,52.6 48.9,51 49,49.2 L49.7,49.4 C49.6,51.1 49.4,52.7 49.1,54.1 C49.4,54 49.7,53.9 50,53.8 Z M55.2,48.9 L53.7,48.7 L53.7,46.6 L52.9,46.5 L52.9,48.6 L51.4,48.4 L51.4,46.7 L50.6,46.6 L50.6,49 L55.8,49.6 L55.8,47.2 L55.1,47.1 L55.1,48.9 L55.2,48.9 Z M50.2,49.9 L50.2,50.6 L52.8,50.9 C52.7,51.3 52.6,51.6 52.5,51.9 L50.5,51.7 L50.5,56.2 L51.2,56.3 L51.2,52.5 L52.2,52.6 L52.2,56.2 L52.9,56.3 L52.9,52.7 L53.8,52.8 L53.8,56.4 L54.5,56.5 L54.5,52.9 L55.5,53 L55.5,55.8 C55.5,56 55.4,56.1 55.3,56.1 L54.8,56 L55,56.7 L55.5,56.8 C56,56.9 56.2,56.6 56.2,56.1 L56.2,52.4 L53.3,52 C53.4,51.7 53.5,51.3 53.6,51 L56.5,51.4 L56.5,50.7 L50.2,49.9 Z" id="客户端分服1" fill="#333333" fill-rule="nonzero"></path>
                    <g id="云桌面WORK-SPACE" transform="translate(30.000000, 0.000000)">
                        <polygon id="Path-15" stroke="#999999" stroke-width="0.72" fill="#DDDDDD" fill-rule="nonzero" points="6.8 31.9 35.3 35.4 33.2 37.6 4.5 34.1"></polygon>
                        <path d="M38.6,4.7 L7.2,0.8 C5.6,0.6 4.3,1.7 4.3,3.3 L4.3,23.4 C4.3,25 5.6,26.4 7.2,26.6 L38.6,30.5 C40.2,30.7 41.5,29.6 41.5,28 L41.5,7.9 C41.5,6.3 40.2,4.9 38.6,4.7 Z" id="Path_2_" stroke="#666666" stroke-width="0.72" fill="#DDDDDD" fill-rule="nonzero"></path>
                        <path d="M34.6,7.7 L3.2,3.8 C1.6,3.6 0.3,4.7 0.3,6.3 L0.3,26.4 C0.3,28 1.6,29.4 3.2,29.6 L34.6,33.5 C36.2,33.7 37.5,32.6 37.5,31 L37.5,10.9 C37.5,9.3 36.2,7.9 34.6,7.7 Z" id="Path_3_" stroke="#000000" stroke-width="0.72" fill="#FFFFFF" fill-rule="nonzero"></path>
                        <polygon id="Rectangle-13" stroke="#000000" stroke-width="0.72" fill="#F6F6F6" fill-rule="nonzero" points="16.4 31.3 21.4 32 21.4 36.2 16.4 35.6"></polygon>
                        <path d="M3.9,34.1 L33.4,37.6" id="Path-15_1_" stroke="#000000" stroke-width="0.72" fill="#F6F6F6" fill-rule="nonzero"></path>
                        <path d="M1,23.6 L37,27.9" id="Path-22" stroke="#E41F2B" stroke-width="0.9"></path>
                    </g>
                </g>
                <g id="Group-6-Copy-3" transform="translate(396.000000, 58.000000)">
                    <path d="M52.5,2.4 L2.5,52.4" id="Path-19-Copy-5" stroke="#333333" stroke-width="0.9315" opacity="0.8937"></path>
                    <polygon id="Path-8_2_" fill="#333333" fill-rule="nonzero" points="0.4 50.9 8.9 51.9 0.4 55.9"></polygon>
                    <circle id="Oval-2_2_" fill="#333333" fill-rule="nonzero" cx="52.6" cy="2.5" r="1.6"></circle>
                </g>
                <g id="Group-9_2_" transform="translate(394.000000, 64.000000)" fill-rule="nonzero">
                    <polygon id="Rectangle-4_4_" fill="#333333" points="0 0.9 61 7.4 61 29.8 0 22.3"></polygon>
                    <path d="M9.3,6.9 L9.3,16.6 L5,16 L5,16.8 L15.7,18.1 L15.7,17.3 L10.2,16.6 L10.2,11.5 L14.7,12.1 L14.7,11.3 L10.2,10.7 L10.2,7 L9.3,6.9 Z M18.3,12.3 C17.9,12.8 17.5,13.2 17,13.7 L16.7,12.7 C18,11.4 18.9,9.9 19.5,8.1 L20.3,8.6 C20,9.5 19.6,10.3 19.1,11.1 L19.1,19.1 L18.2,19 L18.2,12.3 L18.3,12.3 Z M20.5,9.8 L22.8,10.1 L23.2,8.6 L24,8.8 C23.9,9.3 23.8,9.8 23.7,10.2 L27.3,10.7 L27.3,11.5 L23.5,11 C23.4,11.5 23.2,11.9 23.1,12.3 L27.8,12.9 L27.8,13.7 L22.8,13.1 C22.6,13.6 22.4,14.1 22.2,14.6 L27.1,15.2 L27.1,15.9 C26.6,16.7 25.8,17.4 24.7,18.1 C25.3,18.5 25.8,18.9 26.3,19.3 L25.8,20 C24.3,18.8 22.8,17.8 21.3,17.1 L21.8,16.5 C22.5,16.9 23.3,17.3 24,17.7 C24.9,17.2 25.7,16.6 26.2,15.9 L21.1,15.3 C21.4,14.6 21.7,13.9 22,13.1 L20,12.8 L20,12 L22.3,12.3 C22.4,11.9 22.6,11.4 22.7,11 L20.6,10.7 L20.6,9.8 L20.5,9.8 Z M29.1,11.4 L34.1,12 C33.8,11.3 33.4,10.7 32.9,10.1 L33.8,9.9 C34.3,10.5 34.7,11.3 35,12.2 L39.6,12.8 L39.6,13.7 L37.7,13.5 C37.1,15.3 36.2,16.8 35,17.9 C36.3,19.1 37.9,20.2 39.8,21.2 L39.3,21.9 C37.3,20.9 35.7,19.8 34.4,18.5 C33,19.6 31.3,20.3 29.3,20.6 L28.8,19.8 C30.8,19.5 32.5,18.9 33.8,17.9 C32.4,16.4 31.4,14.6 30.9,12.7 L29.1,12.5 L29.1,11.4 L29.1,11.4 Z M31.8,12.6 C32.3,14.3 33.2,15.8 34.4,17.2 C35.5,16.2 36.2,14.9 36.8,13.3 L31.8,12.6 Z M43.5,11.1 L44.3,11.6 C44,12.5 43.6,13.4 43.1,14.2 L43.1,22.2 L42.2,22.1 L42.2,15.4 C41.8,15.9 41.4,16.3 40.9,16.8 L40.6,15.8 C42,14.4 42.9,12.9 43.5,11.1 Z M45.5,12.1 L46.4,12.3 C46.3,12.9 46.2,13.4 46,14 L47.8,14.2 L47.8,11.7 L48.7,11.8 L48.7,14.3 L51.5,14.6 L51.5,15.4 L48.7,15.1 L48.7,18 L51.9,18.4 L51.9,19.2 L48.7,18.8 L48.7,22.7 L47.8,22.6 L47.8,18.7 L44.3,18.3 L44.3,17.5 L47.8,17.9 L47.8,15 L45.8,14.7 C45.5,15.5 45.1,16.1 44.7,16.7 L44,16 C44.7,15 45.2,13.7 45.5,12.1 Z" id="上传文件" fill="#FFFFFF"></path>
                </g>
                <g id="obs-copy-2" transform="translate(215.000000, 343.000000)">
                    <g id="一个-copy-19" transform="translate(0.000000, 17.000000)" fill-rule="nonzero">
                        <polygon id="Rectangle-6_4_" fill="#F6F6F7" points="22 0.9 102 11.6 80 32.7 0 22.5"></polygon>
                        <polygon id="Rectangle-6_5_" fill="#EDEDED" points="0 40.1 80 51 80 32.1 0 21.9"></polygon>
                        <polygon id="Line_1_" fill="#CDCDCD" points="1 39.9 1 22.4 0 22.4 0 40.8 80 51 80 31.4 79 31.4 79 49.9"></polygon>
                        <path d="M22.4,1.9 L2.2,21.6 L79.7,31.3 L99.9,12.1 L22.4,1.9 Z M22,0.9 L102,11.4 L80,32.4 L0,22.4 L22,0.9 Z" id="Rectangle-6_6_" fill="#CDCDCD"></path>
                        <path d="M94.2,10.4 L102,11.4 L97.5,15.7 L96.3,15.5 L99.9,12.1 L93.3,11.2 L94.2,10.4 Z M29,1.8 L22,0.9 L17.7,5.1 L19,5.3 L22.4,2 L28.1,2.7 L29,1.8 Z M72.4,31.4 L80,32.3 L84.5,28 L83.2,27.8 L79.7,31.2 L73.4,30.4 L72.4,31.4 Z M6.8,23.2 L0,22.4 L4.9,17.6 L6.2,17.8 L2.2,21.7 L7.7,22.4 L6.8,23.2 Z" id="Combined-Shape_3_" fill="#999999"></path>
                        <polygon id="Rectangle-6_7_" fill="#DDDDDD" points="102 29.4 102 11.4 80 32.4 80 50.7"></polygon>
                        <polygon id="Path-13_1_" fill="#CDCDCD" points="80 49.4 80 50.9 102 29.4 102 11.4 101 12.4 101 29"></polygon>
                    </g>
                    <path d="M31.1,47.9 C30.3,47.8 29.6,47.9 29.1,48.2 C28.5,48.5 28.2,49 28.2,49.7 C28.2,50.4 28.5,50.9 29.1,51.3 C29.4,51.5 30,51.8 30.9,52.2 C31.8,52.6 32.3,52.8 32.6,53 C33.1,53.3 33.4,53.8 33.4,54.3 C33.4,54.7 33.2,55 32.8,55.2 C32.4,55.4 31.9,55.4 31.2,55.4 C30.5,55.3 30,55.1 29.6,54.7 C29.2,54.3 29,53.8 28.9,53.1 L28,53 C28.1,54 28.4,54.7 29,55.3 C29.5,55.8 30.3,56.1 31.2,56.2 C32.1,56.3 32.9,56.2 33.4,55.9 C33.9,55.6 34.2,55.1 34.2,54.4 C34.2,53.7 33.9,53.1 33.2,52.6 C32.9,52.4 32.2,52 31.2,51.6 C30.4,51.3 30,51 29.8,50.9 C29.3,50.6 29.1,50.2 29.1,49.9 C29.1,49.4 29.3,49.1 29.7,49 C30,48.8 30.5,48.8 31.1,48.9 C31.7,49 32.2,49.2 32.6,49.5 C32.9,49.8 33.2,50.3 33.3,50.9 L34.2,51 C34.1,50.2 33.8,49.5 33.3,49 C32.7,48.3 32,48.1 31.1,47.9 Z M35.4,48.7 L35.4,56.6 L36.3,56.7 L36.3,50.5 L36.3,50.5 L39,57.1 L39.8,57.2 L42.5,51.3 L42.5,51.3 L42.5,57.5 L43.4,57.6 L43.4,49.7 L42.3,49.5 L39.4,55.8 L39.4,55.8 L36.5,48.7 L35.4,48.7 Z M45.1,50 L45.1,57.9 L46,58 L46,51.5 L46,51.5 L50.5,58.6 L51.4,58.7 L51.4,50.8 L50.5,50.7 L50.5,57.1 L50.5,57.1 L46.1,50.1 L45.1,50 Z" id="SMN" fill="#333333" fill-rule="nonzero"></path>
                    <g id="Group-3" transform="translate(31.000000, 0.000000)">
                        <g id="服务图标3.0_消息通知服务" transform="translate(4.479167, 0.000000)">
                            <g id="Shape-path">
                                <path d="M3,0.3 C1.3,0.1 0,1.3 0,3 L0,25 C0,26.7 1.7,28.5 3.3,28.7 L12.5,30 C13.3,30.1 14.6,30.8 15,31.5 L17.1,34.7 C17.6,35.5 18.4,36 19.1,36.1 C19.9,36.2 20.6,35.9 21.1,35.3 L23.3,32.7 C23.8,32.1 24.9,31.8 25.7,31.9 L35,33.2 C36.7,33.4 38.3,32.1 38.3,30.4 L38.3,8.4 C38.3,6.7 36.9,5.1 35.3,4.8 L3,0.3 Z" id="path-12" fill="#DDDDDD" fill-rule="nonzero"></path>
                                <path d="M3,0.8 C1.6,0.6 0.5,1.6 0.5,3.1 L0.5,25.1 C0.5,26.6 2,28.2 3.4,28.4 L12.6,29.7 C13.6,29.8 14.9,30.6 15.5,31.4 L17.6,34.6 C18,35.3 18.7,35.7 19.3,35.8 C19.9,35.9 20.5,35.7 20.9,35.1 L23.1,32.5 C23.7,31.8 25,31.4 26,31.5 L35.3,32.8 C36.7,33 38.1,31.9 38.1,30.4 L38.1,8.4 C38.1,6.9 36.9,5.5 35.4,5.3 L3,0.8 Z" id="Shape" stroke="#999999" stroke-width="0.9"></path>
                            </g>
                            <path d="M7.7,17.3 C7.4,17.3 7.2,17.4 7.2,17.7 C7.2,18 7.4,18.2 7.7,18.2 L30.9,21.5 C31.2,21.5 31.4,21.4 31.4,21.1 C31.4,20.8 31.2,20.6 30.9,20.6 L7.7,17.3 Z" id="Shape-path_1_" fill="#E41F2B" fill-rule="nonzero"></path>
                            <path d="M7.7,11 C7.4,11 7.2,11.1 7.2,11.4 C7.2,11.7 7.4,11.9 7.7,11.9 L30.9,15.2 C31.2,15.2 31.4,15.1 31.4,14.8 C31.4,14.5 31.2,14.3 30.9,14.3 L7.7,11 Z" id="Shape-path_2_" fill="#E41F2B" fill-rule="nonzero"></path>
                        </g>
                        <g id="服务图标3.0_消息通知服务_1_" transform="translate(0.000000, 2.727273)">
                            <g id="Shape-path_3_">
                                <path d="M3,0.3 C1.3,0.1 0,1.3 0,3 L0,25 C0,26.7 1.7,28.5 3.3,28.7 L12.5,30 C13.3,30.1 14.6,30.8 15,31.5 L17.1,34.7 C17.6,35.5 18.4,36 19.1,36.1 C19.9,36.2 20.6,35.9 21.1,35.3 L23.3,32.7 C23.8,32.1 24.9,31.8 25.7,31.9 L35,33.2 C36.7,33.4 38.3,32.1 38.3,30.4 L38.3,8.4 C38.3,6.7 36.9,5.1 35.3,4.8 L3,0.3 Z" id="path-13" fill="#FFFFFF" fill-rule="nonzero"></path>
                                <path d="M3,0.8 C1.6,0.6 0.5,1.6 0.5,3.1 L0.5,25.1 C0.5,26.6 2,28.2 3.4,28.4 L12.6,29.7 C13.6,29.8 14.9,30.6 15.5,31.4 L17.6,34.6 C18,35.3 18.7,35.7 19.3,35.8 C19.9,35.9 20.5,35.7 20.9,35.1 L23.1,32.5 C23.7,31.8 25,31.4 26,31.5 L35.3,32.8 C36.7,33 38.1,31.9 38.1,30.4 L38.1,8.4 C38.1,6.9 36.9,5.5 35.4,5.3 L3,0.8 Z" id="Shape" stroke="#333333" stroke-width="0.9"></path>
                            </g>
                            <path d="M7.7,17.3 C7.4,17.3 7.2,17.4 7.2,17.7 C7.2,18 7.4,18.2 7.7,18.2 L30.9,21.5 C31.2,21.5 31.4,21.4 31.4,21.1 C31.4,20.8 31.2,20.6 30.9,20.6 L7.7,17.3 Z" id="Shape-path_4_" fill="#E41F2B" fill-rule="nonzero"></path>
                            <path d="M7.7,11 C7.4,11 7.2,11.1 7.2,11.4 C7.2,11.7 7.4,11.9 7.7,11.9 L30.9,15.2 C31.2,15.2 31.4,15.1 31.4,14.8 C31.4,14.5 31.2,14.3 30.9,14.3 L7.7,11 Z" id="Shape-path_5_" fill="#E41F2B" fill-rule="nonzero"></path>
                        </g>
                    </g>
                </g>
                <g id="全文检索" transform="translate(586.000000, 219.000000)">
                    <g id="底座" transform="translate(0.000000, 19.000000)" fill-rule="nonzero">
                        <polygon id="Rectangle-6_8_" fill="#F6F6F7" points="22 0.9 102 11.6 80 32.7 0 22.5"></polygon>
                        <polygon id="Rectangle-6_9_" fill="#EDEDED" points="0 40.1 80 51 80 32.1 0 21.9"></polygon>
                        <path d="M21,33.6 C22.1,34.9 23.1,36.1 23.7,37.2 L24.3,36.6 C23.4,35.4 22.4,34.1 21.2,32.8 C21.3,32.4 21.4,32 21.4,31.5 L24.8,31.9 L24.8,38.6 C24.8,39 24.6,39.2 24.2,39.1 L22.4,38.8 L22.6,39.7 L24.5,39.9 C25.3,40 25.7,39.6 25.7,38.8 L25.7,31.1 L21.5,30.6 C21.5,30 21.6,29.3 21.6,28.6 L20.7,28.5 C20.7,29.2 20.7,29.9 20.6,30.5 L16.2,30 L16.2,39.1 L17.1,39.2 L17.1,31 L20.5,31.4 C20.4,31.9 20.3,32.4 20.2,32.9 C19.8,34.2 18.9,35.2 17.5,35.9 L18.1,36.7 C19.5,35.9 20.5,34.9 21,33.6 Z M33.1,29.9 C33.2,30.2 33.4,30.6 33.5,31 L37.9,31.5 L37.9,33.6 L37.1,33.5 L37.1,32.2 L29,31.3 L29,32.7 L28.2,32.6 L28.2,30.4 L32.8,30.9 C32.7,30.5 32.5,30.2 32.4,29.9 L33.1,29.9 Z M32.7,33.7 L33.4,33.8 C34.4,35.1 36.1,36.4 38.4,37.5 L37.9,38.2 C37.4,38 37,37.7 36.6,37.5 L36.6,41.4 L35.8,41.3 L35.8,40.8 L30.4,40.2 L30.4,40.7 L29.6,40.6 L29.6,36.6 C29.1,36.8 28.6,36.9 28.1,37.1 L27.6,36.3 C29.8,35.8 31.5,34.9 32.7,33.7 Z M30.4,39.4 L35.8,40 L35.8,38.1 L30.4,37.5 L30.4,39.4 Z M29.6,36.6 L36.5,37.4 C35,36.5 33.9,35.6 33.1,34.5 C32.1,35.4 30.9,36.1 29.6,36.6 Z M34.4,32.4 C35.8,33.3 37.1,34.2 38,35 L37.4,35.5 C36.5,34.7 35.3,33.8 33.8,32.8 L34.4,32.4 Z M31.6,32.1 L32.2,32.7 C31.2,33.5 29.9,34.1 28.4,34.6 L27.9,33.9 C29.3,33.4 30.6,32.8 31.6,32.1 Z M39.7,33.1 L41.2,33.3 L41.2,31 L42.1,31.1 L42.1,33.4 L43.3,33.5 L43.3,34.3 L42.1,34.2 L42.1,34.8 C42.6,35.4 43.1,36 43.6,36.8 L43.1,37.5 C42.7,36.8 42.4,36.2 42.1,35.7 L42.1,42 L41.2,41.9 L41.2,36 C40.8,37.2 40.3,38.2 39.7,39.1 L39.3,38.1 C40.1,37 40.8,35.6 41.1,34.1 L39.6,33.9 L39.6,33.1 L39.7,33.1 Z M45.1,34.8 C44.6,35.2 44.2,35.6 43.7,35.9 L43.2,35.1 C44.6,34.2 45.7,33 46.5,31.5 L47.3,31.6 C47.9,33.2 49.1,34.6 50.6,35.9 L50.1,36.6 C49.6,36.2 49.1,35.7 48.7,35.3 L48.7,36 L45.1,35.6 L45.1,34.8 L45.1,34.8 Z M48.7,35.2 C47.9,34.3 47.3,33.4 46.9,32.4 C46.4,33.4 45.8,34.2 45.1,34.8 L48.7,35.2 Z M43.5,40.9 L47.7,41.4 C48.2,40.2 48.6,38.6 49,36.8 L49.8,37.1 C49.5,38.8 49,40.2 48.5,41.5 L50.4,41.7 L50.4,42.5 L43.5,41.7 L43.5,40.9 Z M44.8,36.7 C45.1,37.7 45.4,38.9 45.7,40.3 L44.9,40.4 C44.7,39.2 44.4,38 44,36.9 L44.8,36.7 Z M46.6,36.4 C46.9,37.4 47.2,38.6 47.4,39.8 L46.6,39.9 C46.4,38.7 46.1,37.6 45.8,36.5 L46.6,36.4 Z M52.3,32.3 C53,32.9 53.5,33.5 54,34.1 L53.4,34.6 C53,34.1 52.4,33.4 51.7,32.8 L52.3,32.3 Z M52.1,35.3 L51.5,35.8 C52.2,36.5 52.8,37.1 53.2,37.7 L53.8,37.2 C53.3,36.6 52.8,35.9 52.1,35.3 Z M53.2,38.6 L53.9,39 C53.4,40.4 52.9,41.7 52.4,43 L51.6,42.6 C52.2,41.3 52.7,40 53.2,38.6 Z M58.5,33.4 L58.5,40.7 L57.7,40.6 L57.7,34 L55.2,33.7 L55.2,40.3 L54.4,40.2 L54.4,32.8 L58.5,33.4 Z M57.2,41.1 C57.9,41.8 58.5,42.6 59,43.3 L58.4,43.8 C58,43.1 57.4,42.4 56.6,41.6 L57.2,41.1 Z M56.1,34.7 L56.8,34.8 L56.8,38.6 C56.8,40 56.6,41 56.2,41.8 C55.8,42.5 55.2,43 54.3,43.4 L53.8,42.6 C54.7,42.3 55.3,41.8 55.6,41.2 C55.9,40.5 56.1,39.7 56.1,38.5 L56.1,34.7 Z M61.1,44 L59.8,43.9 L59.6,43.1 C60,43.2 60.4,43.3 60.8,43.3 C61.1,43.3 61.2,43.2 61.2,42.9 L61.2,33.3 L62,33.4 L62,43.2 C62,43.7 61.7,44 61.1,44 Z M59.4,33.9 L60.2,34 L60.2,41.5 L59.4,41.4 L59.4,33.9 Z" id="内容检测" fill="#333333"></path>
                        <polygon id="Line_2_" fill="#CDCDCD" points="1 39.9 1 22.4 0 22.4 0 40.8 80 51 80 31.4 79 31.4 79 49.9"></polygon>
                        <path d="M22.4,1.9 L2.2,21.6 L79.7,31.3 L99.9,12.1 L22.4,1.9 Z M22,0.9 L102,11.4 L80,32.4 L0,22.4 L22,0.9 Z" id="Rectangle-6_10_" fill="#CDCDCD"></path>
                        <path d="M94.2,10.4 L102,11.4 L97.5,15.7 L96.3,15.5 L99.9,12.1 L93.3,11.2 L94.2,10.4 Z M29,1.8 L22,0.9 L17.7,5.1 L19,5.3 L22.4,2 L28.1,2.7 L29,1.8 Z M72.4,31.4 L80,32.3 L84.5,28 L83.2,27.8 L79.7,31.2 L73.4,30.4 L72.4,31.4 Z M6.8,23.2 L0,22.4 L4.9,17.6 L6.2,17.8 L2.2,21.7 L7.7,22.4 L6.8,23.2 Z" id="Combined-Shape_4_" fill="#999999"></path>
                        <polygon id="Rectangle-6_11_" fill="#DDDDDD" points="102 29.4 102 11.4 80 32.4 80 50.7"></polygon>
                        <polygon id="Path-13_2_" fill="#CDCDCD" points="80 49.4 80 50.9 102 29.4 102 11.4 101 12.4 101 29"></polygon>
                    </g>
                    <g id="Group-31-Copy" transform="translate(47.585998, 22.120405) rotate(-1.000000) translate(-47.585998, -22.120405) translate(32.085998, 0.620405)">
                        <path d="M6.7,7.9 L22.7,10.3" id="Stroke-1_8_" stroke="#77787C" stroke-width="0.96"></path>
                        <path d="M6.7,17.9 L14,19" id="Stroke-2" stroke="#77787C" stroke-width="0.96"></path>
                        <path d="M6.7,28 L14,29.1" id="Stroke-3" stroke="#77787C" stroke-width="0.96"></path>
                        <path d="M15.2,23.6 C14.5,19.7 17,16.4 20.8,16.2 C24.6,16 28.3,19.1 29,23 C29.7,26.9 27.2,30.2 23.4,30.4 C19.6,30.5 15.9,27.5 15.2,23.6 Z" id="Stroke-4" stroke="#77787C" stroke-width="0.96"></path>
                        <path d="M31,34 L31,38.1 C31,39.1 30.2,39.7 29.3,39.6 L22.7,38.6 L6.6,36.2 C5.6,36.1 4.9,35.2 4.9,34.2 L4.9,1.7 C4.9,0.7 5.7,0.1 6.6,0.2 L29.3,3.6 C30.3,3.7 31,4.6 31,5.6 L31,27.5" id="Stroke-8" stroke="#999999" fill="#DDDDDD" fill-rule="nonzero" stroke-linecap="round"></path>
                        <path d="M26.1,36.8 L26.1,40.9 C26.1,41.9 25.3,42.5 24.4,42.4 L17.8,41.4 L1.7,39 C0.7,38.9 0,38 0,37 L0,4.5 C0,3.5 0.8,2.9 1.7,3 L24.4,6.4 C25.4,6.5 26.1,7.4 26.1,8.4 L26.1,30.3" id="Stroke-8_1_" stroke="#333333" fill="#FFFFFF" fill-rule="nonzero" stroke-linecap="round"></path>
                        <g id="code" transform="translate(4.000000, 22.000000)" stroke="#E41F2B">
                            <path d="M8.4,12.3 C10.9,12.6 12.9,10.9 12.9,8.4 C12.9,5.9 10.9,3.7 8.4,3.4 C5.9,3.1 3.9,4.8 3.9,7.3 C3.9,9.7 5.9,11.9 8.4,12.3 Z" id="椭圆_4_拷贝"></path>
                            <path d="M8.4,15.2 C12.5,15.7 15.9,12.8 15.9,8.7 C15.9,4.6 12.5,0.8 8.4,0.3 C4.3,-0.2 0.9,2.7 0.9,6.8 C0.9,10.9 4.3,14.7 8.4,15.2 Z" id="椭圆_4"></path>
                            <path d="M0.9,7.3 L15.9,9.3" id="矩形_12"></path>
                            <path d="M8.1,15.2 L8.1,0.2" id="矩形_12_拷贝"></path>
                            <path d="M15.9,8.7 C15.9,10.8 15.2,12.2 14.1,13.3 L7.9,8.3 L13.7,3.3 C15.1,4.8 16,6.7 15.9,8.7 Z" id="椭圆_4_拷贝_3"></path>
                        </g>
                        <path d="M4.8,10.8 L20.8,13.2" id="Stroke-1_9_" stroke="#333333" stroke-width="0.96"></path>
                        <path d="M4.9,15.3 L12.2,16.4" id="Stroke-2_1_" stroke="#333333" stroke-width="0.96"></path>
                    </g>
                </g>
                <path d="M442,394 L442,408.7 L551.5,422.8 L605.5,370.3 L605.5,354.3 L496.3,340.9 L442,394 Z" id="Path-2_1_" stroke="#999999" stroke-width="0.5663" fill-opacity="0.05" fill="#666666" fill-rule="nonzero" opacity="0.5822" stroke-dasharray="1.1327"></path>
                <polygon id="Rectangle-4_5_" fill="#333333" fill-rule="nonzero" points="496 319.9 578.5 328 578.5 350.4 496 341.3"></polygon>
                <path d="M508,327 L507.1,326.9 C507.1,327.4 507.1,328 507.1,328.8 C507,332.2 505.3,334.8 502,336.5 L502.5,337.3 C505.2,335.9 506.9,333.9 507.6,331.4 C508.5,334.2 510.1,336.5 512.6,338.4 L513.2,337.7 C510.4,335.7 508.7,333 508,329.7 C508,328.9 508,328 508,327 Z M519.1,329.9 L519.1,337.5 L514.2,337 L514.2,337.8 L524.9,339 L524.9,338.2 L520,337.7 L520,330 L524.1,330.5 L524.1,329.7 L515,328.7 L515,329.5 L519.1,329.9 Z M527.8,330.8 C527.5,331.2 527.2,331.6 526.8,331.8 L526.3,331.1 C526.9,330.6 527.4,329.9 527.8,329 L528.6,329.3 C528.5,329.6 528.4,329.8 528.3,330.1 L531.7,330.5 L531.7,331.3 L529.9,331.1 C529.9,331.5 529.8,331.9 529.8,332.3 L532.1,332.5 L532.1,333.3 L529.7,333 C529.7,333.1 529.6,333.2 529.6,333.3 C530.5,333.9 531.3,334.4 531.9,335 L531.3,335.5 C530.8,335 530.1,334.5 529.3,333.9 C528.8,334.7 528,335.3 526.8,335.7 L526.2,334.9 C527.4,334.5 528.3,333.9 528.7,333.1 L528.8,332.8 L526.4,332.5 L526.4,331.7 L529,332 C529.1,331.6 529.1,331.3 529.1,330.9 L527.8,330.8 Z M532.5,330.4 L536.4,330.8 L536.4,335.2 L532.5,334.8 L532.5,330.4 Z M535.6,334.4 L535.6,331.5 L533.3,331.3 L533.3,334.2 L535.6,334.4 Z M535.6,336 L535.6,341 L534.7,340.9 L534.7,340.4 L528.8,339.8 L528.8,340.3 L527.9,340.2 L527.9,335.2 L535.6,336 Z M528.8,338.9 L534.7,339.5 L534.7,338.5 L528.8,337.9 L528.8,338.9 Z M528.8,337.2 L534.7,337.8 L534.7,336.7 L528.8,336.1 L528.8,337.2 Z M539.7,337.3 L539.7,338.4 L542.5,338.7 L542.5,337.6 L539.7,337.3 Z M542.5,336.9 L542.5,335.7 L539.7,335.4 L539.7,336.6 L542.5,336.9 Z M539.7,339.2 L539.7,341.5 L538.9,341.4 L538.9,334.6 L543.3,335.1 L543.3,340.7 C543.3,341.4 543,341.7 542.3,341.6 L541.3,341.5 L541.1,340.7 L542,340.8 C542.3,340.8 542.5,340.7 542.5,340.4 L542.5,339.4 L539.7,339.2 Z M547.5,336.5 C547.9,336.5 548.2,336.5 548.4,336.3 C548.6,336.1 548.8,335.5 548.9,334.5 L548.1,334.2 C548.1,334.9 548,335.4 547.9,335.5 C547.8,335.6 547.6,335.7 547.4,335.6 L545.8,335.4 C545.5,335.4 545.3,335.2 545.3,334.8 L545.3,333.3 C546.6,333.3 547.8,333.2 548.8,333 L548.5,332.2 C547.7,332.3 546.6,332.4 545.3,332.5 L545.3,330.9 L544.4,330.8 L544.4,334.8 C544.4,335.6 544.8,336 545.5,336.1 L547.5,336.5 Z M545.3,339 C546.5,339 547.7,339 548.8,338.8 L548.5,338 C547.6,338.2 546.5,338.3 545.3,338.3 L545.3,336.8 L544.4,336.7 L544.4,340.9 C544.4,341.5 544.7,341.9 545.5,342 L547.5,342.2 C547.9,342.2 548.2,342.2 548.4,342 C548.6,341.8 548.8,341.2 548.9,340.3 L548.1,340 C548.1,340.7 548,341.2 547.8,341.3 C547.7,341.4 547.5,341.4 547.3,341.4 L545.7,341.2 C545.4,341.2 545.2,341 545.2,340.8 L545.2,339 L545.3,339 Z M542.5,331.6 L541.8,331.9 C542.1,332.3 542.4,332.8 542.6,333.2 C541.5,333.2 540.4,333.2 539.4,333.2 C540.1,332.7 540.7,331.9 541.2,330.9 L540.4,330.6 C539.9,331.5 539.3,332.3 538.6,333 C538.5,333.1 538.4,333.2 538.2,333.2 L538.4,333.9 C540.2,334 541.7,334 543,334 C543.2,334.3 543.3,334.6 543.4,334.8 L544.1,334.4 C543.7,333.5 543.2,332.6 542.5,331.6 Z M551.8,335.8 L551.8,337.8 L553.7,338 L553.7,336 L551.8,335.8 Z M553.7,335.3 L553.7,333.3 L551.8,333.1 L551.8,335.1 L553.7,335.3 Z M551.8,338.6 C551.7,340.3 551.4,341.6 550.9,342.6 L550.3,341.9 C550.8,340.9 551,339.5 551,337.8 L551,332 L554.5,332.4 L554.5,341.8 C554.5,342.5 554.2,342.9 553.5,342.8 L552.5,342.7 L552.3,341.9 C552.6,342 552.9,342 553.2,342 C553.5,342 553.7,341.8 553.7,341.4 L553.7,338.7 L551.8,338.6 Z M556.3,337.9 L556.3,343.2 L555.5,343.1 L555.5,332.6 L560.4,333.1 C560.4,334.6 560.3,335.6 560.2,336 C560.1,336.5 559.6,336.7 558.9,336.6 L557.9,336.5 L557.7,335.7 C557.9,335.7 558.2,335.8 558.5,335.8 C558.8,335.8 559,335.8 559.1,335.8 C559.2,335.8 559.4,335.7 559.4,335.5 C559.5,335.2 559.5,334.7 559.6,333.8 L556.4,333.5 L556.4,337.1 L560.5,337.5 L560.5,338.2 C560.3,339.4 559.9,340.4 559.3,341.2 C559.8,341.8 560.5,342.3 561.2,342.8 L560.8,343.5 C560,343 559.4,342.4 558.8,341.8 C558.3,342.4 557.7,342.8 556.9,343.1 L556.4,342.4 C557.1,342.1 557.7,341.7 558.1,341.2 C557.3,340.2 556.8,339.1 556.6,337.9 L556.3,337.9 Z M557.3,338 C557.6,339 558,339.8 558.6,340.6 C559,339.9 559.4,339.1 559.6,338.2 L557.3,338 Z M565.7,333.2 L566.6,333.4 C566.5,333.7 566.3,334 566.1,334.3 L571.3,334.9 L571.3,335.6 C570.5,336.4 569.6,337.1 568.5,337.6 C569.9,338.3 571.4,338.9 573,339.2 L572.6,340 C570.7,339.6 569,338.9 567.5,338 C566,338.5 564.3,338.8 562.4,338.9 L562,338 C563.7,337.9 565.3,337.7 566.6,337.3 C565.9,336.8 565.3,336.3 564.7,335.7 C564.2,336.1 563.8,336.4 563.2,336.7 L562.7,335.9 C564.2,335.3 565.2,334.4 565.7,333.2 Z M567.6,337 C568.6,336.6 569.4,336.1 570.1,335.6 L565.5,335.1 L565.3,335.3 C566.1,335.9 566.8,336.5 567.6,337 Z M566.9,338.7 L567.8,338.8 C567.8,339.3 567.8,339.7 567.7,340.2 L571.9,340.7 C571.9,342.7 571.7,343.9 571.3,344.3 C570.9,344.7 570.4,344.8 569.5,344.7 C569.1,344.7 568.6,344.6 568.1,344.5 L567.9,343.7 L569.3,343.9 C570,344 570.5,343.9 570.7,343.6 C570.9,343.3 571,342.6 571,341.4 L567.4,341 C567.3,341.3 567.2,341.6 567,341.9 C566.4,342.9 565,343.7 562.8,344.1 L562.2,343.3 C564.2,342.9 565.5,342.3 566.1,341.5 C566.2,341.3 566.4,341.1 566.5,340.9 L562.9,340.5 L562.9,339.7 L566.7,340.1 C566.8,339.6 566.9,339.2 566.9,338.7 Z" id="人工智能服务_1_" fill="#FFFFFF" fill-rule="nonzero"></path>
                <g id="HPC" transform="translate(462.000000, 340.000000)" fill-rule="nonzero">
                    <g id="一个-copy-3" transform="translate(0.000000, 19.000000)">
                        <polygon id="Rectangle-6_12_" fill="#F6F6F7" points="22 0.9 102 11.6 80 32.7 0 22.5"></polygon>
                        <polygon id="Rectangle-6_13_" fill="#EDEDED" points="0 40.1 80 51 80 32.1 0 21.9"></polygon>
                        <path d="M16.8,29.2 L21.8,29.8 C21.5,29.1 21.1,28.5 20.6,27.8 L21.5,27.6 C22,28.2 22.4,29 22.7,29.9 L27.3,30.5 L27.3,31.4 L25.4,31.2 C24.8,33 23.9,34.5 22.7,35.6 C24,36.8 25.6,37.9 27.5,38.9 L27,39.6 C25,38.6 23.4,37.5 22.1,36.2 C20.7,37.3 19,38 17,38.3 L16.5,37.5 C18.5,37.2 20.2,36.6 21.5,35.6 C20.1,34.1 19.1,32.3 18.6,30.4 L16.8,30.2 L16.8,29.2 L16.8,29.2 Z M19.5,30.4 C20,32.1 20.9,33.6 22.1,35 C23.2,34 23.9,32.7 24.5,31.1 L19.5,30.4 Z M39.1,31.3 L39.1,34 L38.2,33.9 L38.2,32 L29.8,30.9 L29.8,32.7 L28.9,32.6 L28.9,30 L33.6,30.6 C33.4,30.1 33.3,29.7 33.1,29.4 L34.1,29.4 C34.3,29.8 34.4,30.3 34.6,30.8 L39.1,31.3 Z M30.8,32.3 L37.2,33.1 L37.2,33.9 C36.4,34.4 35.5,34.8 34.6,35.2 L34.6,36 L39.3,36.6 L39.3,37.4 L34.6,36.8 L34.6,39.3 C34.6,40 34.3,40.3 33.6,40.2 L32.1,40 L31.9,39.2 C32.3,39.3 32.8,39.3 33.3,39.4 C33.6,39.4 33.8,39.3 33.8,38.9 L33.8,36.7 L28.8,36.1 L28.8,35.3 L33.8,35.9 L33.8,34.7 C34.8,34.3 35.5,34 36,33.7 L30.9,33 L30.9,32.3 L30.8,32.3 Z M45.2,31.5 L50.7,32.2 L50.7,37.8 L45.2,37.1 L45.2,31.5 L45.2,31.5 Z M49.9,36.9 L49.9,33 L46.1,32.5 L46.1,36.4 L49.9,36.9 Z M42,30.5 L41.4,31 C42.3,31.8 42.9,32.5 43.4,33.1 L44,32.6 C43.4,31.9 42.8,31.2 42,30.5 Z M40.5,33.9 L43.1,34.2 L43.1,39.5 C43.5,39.2 43.9,38.9 44.3,38.5 L44.5,39.4 C43.8,40 43.1,40.5 42.3,41 L42,40.2 C42.2,40.1 42.3,39.9 42.3,39.7 L42.3,34.9 L40.6,34.7 L40.6,33.9 L40.5,33.9 Z M46.5,38 L47.3,38.5 C46.7,39.8 46,40.9 45.2,41.9 L44.4,41.3 C45.2,40.4 45.9,39.3 46.5,38 Z M49.4,38.4 L48.7,38.8 C49.6,40.2 50.3,41.5 50.8,42.6 L51.5,42.2 C51.1,41.1 50.3,39.8 49.4,38.4 Z M55.1,36.4 L53.2,36.2 L53.2,32.4 L58.3,33.1 L58.3,36.9 L55.9,36.6 C55.9,37.1 55.8,37.6 55.8,38.1 L58.4,38.4 C58.4,40.5 58.3,41.8 58.2,42.3 C58.1,43.1 57.5,43.4 56.5,43.3 C56.3,43.3 56.1,43.2 55.7,43.2 L55.5,42.4 C55.8,42.5 56.1,42.5 56.4,42.6 C57,42.7 57.4,42.5 57.5,42 C57.6,41.7 57.6,40.8 57.6,39.3 L55.8,39.1 C55.7,39.8 55.5,40.4 55.3,40.8 C54.9,41.8 54.1,42.5 53.1,43.1 L52.5,42.3 C53.4,41.8 54.1,41.1 54.5,40.3 C54.7,39.9 54.8,39.5 54.9,38.9 L52.8,38.6 L52.8,37.8 L55,38.1 C55,37.4 55,36.9 55.1,36.4 Z M59.6,33.7 L60.4,33.8 L60.4,41.3 L59.6,41.2 L59.6,33.7 Z M61.9,43.8 L60.2,43.6 L60,42.7 C60.6,42.8 61.1,42.9 61.6,43 C62,43 62.2,42.9 62.2,42.4 L62.2,33 L63.1,33.1 L63.1,42.8 C63,43.6 62.6,43.9 61.9,43.8 Z M57.4,35.9 L57.4,33.7 L54,33.3 L54,35.5 L57.4,35.9 Z" id="文字识别" fill="#333333"></path>
                        <polygon id="Line_3_" fill="#CDCDCD" points="1 39.9 1 22.4 0 22.4 0 40.8 80 51 80 31.4 79 31.4 79 49.9"></polygon>
                        <path d="M22.4,1.9 L2.2,21.6 L79.7,31.3 L99.9,12.1 L22.4,1.9 Z M22,0.9 L102,11.4 L80,32.4 L0,22.4 L22,0.9 Z" id="Rectangle-6_14_" fill="#CDCDCD"></path>
                        <path d="M94.2,10.4 L102,11.4 L97.5,15.7 L96.3,15.5 L99.9,12.1 L93.3,11.2 L94.2,10.4 Z M29,1.8 L22,0.9 L17.7,5.1 L19,5.3 L22.4,2 L28.1,2.7 L29,1.8 Z M72.4,31.4 L80,32.3 L84.5,28 L83.2,27.8 L79.7,31.2 L73.4,30.4 L72.4,31.4 Z M6.8,23.2 L0,22.4 L4.9,17.6 L6.2,17.8 L2.2,21.7 L7.7,22.4 L6.8,23.2 Z" id="Combined-Shape_5_" fill="#999999"></path>
                        <polygon id="Rectangle-6_15_" fill="#DDDDDD" points="102 29.4 102 11.4 80 32.4 80 50.7"></polygon>
                        <polygon id="Path-13_3_" fill="#CDCDCD" points="80 49.4 80 50.9 102 29.4 102 11.4 101 12.4 101 29"></polygon>
                    </g>
                    <g id="高性能-copy" transform="translate(29.000000, 0.000000)">
                        <path d="M9.1,1 L40.5,4.4 C42.3,4.6 43.8,6.2 43.8,8.1 L43.8,33.1 C43.8,34.9 42.3,36.3 40.5,36.1 L9.1,32.7 C7.3,32.5 5.8,30.9 5.8,29 L5.8,4 C5.8,2.2 7.3,0.8 9.1,1 Z" id="Rectangle-5" stroke="#999999" fill="#DDDDDD"></path>
                        <polygon id="Path_4_" fill="#FFFFFF" points="4.1 5.5 33.8 8.7 33.8 40.4 4.1 37.2"></polygon>
                        <path d="M31.4,8.4 L34.6,8.7 C36.4,8.9 37.9,10.5 37.9,12.4 L37.9,37.4 C37.9,39.2 36.4,40.6 34.6,40.4 L31.7,40.1 M7.2,37.5 L3.3,37.1 C1.5,36.9 0,35.3 0,33.4 L0,8.4 C0,6.6 1.5,5.2 3.3,5.4 L7.1,5.8" id="Rectangle-2" stroke="#333333" fill="#FFFFFF"></path>
                    </g>
                </g>
            </g>
            <g id="Group-9" transform="translate(145.000000, 198.000000)">
                <polygon id="Rectangle-4" fill="#333333" points="0 0 80.2441406 10.8240967 80.2441406 32.9486389 0 22.0315915"></polygon>
                <path d="M6.94890628,8.20945313 L11.8782813,8.88164063 L11.8782813,9.61382813 L7.79453128,9.05695313 L7.79453128,11.5319531 L11.6617188,12.0592969 L11.6617188,12.7914844 L7.79453128,12.2641406 L7.79453128,15.6878906 L6.94890628,15.5725781 L6.94890628,8.20945313 Z M12.6242188,11.0149219 L13.4492188,11.1274219 L13.4492188,14.3861719 C13.4492188,14.8914844 13.5523438,15.2871094 13.7689063,15.5641406 C13.9854688,15.8411719 14.3360938,16.0230469 14.8207813,16.0891406 C15.1714063,16.1369531 15.4910938,16.0361719 15.7695313,15.8060156 C16.0582813,15.5566406 16.2335938,15.2092969 16.2954688,14.7639844 L16.2954688,11.5155469 L17.1204688,11.6280469 L17.1204688,16.9596094 L16.2954688,16.8471094 L16.2954688,16.0221094 C15.8623438,16.6024219 15.2848438,16.8536719 14.5629688,16.7552344 C13.2635938,16.5780469 12.6242188,15.7586719 12.6242188,14.3149219 L12.6242188,11.0149219 Z M20.7229688,11.9749219 C22.0429688,12.1549219 22.7132813,12.9785156 22.7132813,14.4428906 L22.7132813,17.7222656 L21.8882813,17.6097656 L21.8882813,14.3922656 C21.8882813,13.3507031 21.4139063,12.7703906 20.4857813,12.6438281 C20.1145313,12.5932031 19.7948438,12.6836719 19.5267188,12.9152344 C19.2379688,13.1646094 19.0832813,13.5250781 19.0523438,14.0055469 L19.0523438,17.2230469 L18.2273438,17.1105469 L18.2273438,11.7789844 L19.0523438,11.8914844 L19.0523438,12.6752344 C19.2379688,12.4014844 19.4751563,12.2069531 19.7639063,12.0916406 C20.0526563,11.9660156 20.3723438,11.9271094 20.7229688,11.9749219 Z M26.1198438,12.7108594 C26.7798438,12.8008594 27.3057813,13.0272656 27.7079688,13.3914844 C28.1204688,13.7674219 28.3679688,14.2858594 28.4607813,14.9482031 L27.6460938,14.8371094 C27.5739063,14.4147656 27.4089063,14.0828906 27.1510938,13.8414844 C26.8829688,13.5986719 26.5426563,13.4594531 26.1198438,13.4017969 C25.6042188,13.3314844 25.1917188,13.4711719 24.8926563,13.8222656 C24.6039063,14.1644531 24.4595313,14.6603906 24.4595313,15.3100781 C24.4595313,15.9597656 24.5935938,16.4936719 24.8823438,16.9042969 C25.1607813,17.3135156 25.5732813,17.5657031 26.1095313,17.6388281 C27.0170313,17.7625781 27.5429688,17.3702344 27.6667188,16.4692969 L28.4917188,16.5817969 C28.3679688,17.2455469 28.1101563,17.7363281 27.6976563,18.0307031 C27.2954688,18.3161719 26.7695313,18.4197656 26.1095313,18.3297656 C25.3051563,18.2200781 24.6864063,17.8675781 24.2429688,17.2708594 C23.8201563,16.7078906 23.6139063,16.0197656 23.6139063,15.2050781 C23.6139063,14.3903906 23.8201563,13.7585156 24.2429688,13.3005469 C24.6967188,12.7952344 25.3257813,12.6025781 26.1198438,12.7108594 Z M30.7123438,11.7592969 L30.7123438,13.4814844 L32.0323438,13.6614844 L32.0323438,14.3524219 L30.7123438,14.1724219 L30.7123438,17.5652344 C30.7123438,17.7611719 30.7432813,17.9097656 30.8257813,18.0035156 C30.8979688,18.0958594 31.0320313,18.1657031 31.2176563,18.1910156 L31.8982813,18.2838281 L31.8982813,18.9747656 L31.0939063,18.8650781 C30.6607813,18.8060156 30.3410938,18.6489844 30.1554688,18.3967969 C29.9801563,18.1666406 29.8976563,17.8563281 29.8976563,17.4541406 L29.8976563,14.0613281 L28.8251563,13.9150781 L28.8251563,13.2241406 L29.8976563,13.3703906 L29.8976563,11.9885156 L30.7123438,11.7592969 Z M33.4589063,11.8450781 C33.6342188,11.8689844 33.7785938,11.9402344 33.9023438,12.0808594 C34.0260938,12.2008594 34.0879688,12.3536719 34.0879688,12.5392969 C34.0879688,12.7146094 34.0260938,12.8505469 33.9023438,12.9574219 C33.7785938,13.0539844 33.6342188,13.0961719 33.4589063,13.0722656 C33.2835938,13.0483594 33.1392188,12.9667969 33.0154688,12.8364844 C32.8917188,12.6958594 32.8401563,12.5444531 32.8401563,12.3691406 C32.8401563,12.1835156 32.8917188,12.0461719 33.0154688,11.9599219 C33.1392188,11.8530469 33.2835938,11.8211719 33.4589063,11.8450781 Z M33.0464063,13.7997656 L33.8714063,13.9122656 L33.8714063,19.2438281 L33.0464063,19.1313281 L33.0464063,13.7997656 Z M37.6285938,14.2802344 C38.4226563,14.3885156 39.0620313,14.7438281 39.5364063,15.3653906 C39.9901563,15.9532031 40.2170313,16.6441406 40.2170313,17.4485156 C40.2170313,18.2425781 39.9901563,18.8716406 39.5467188,19.3267969 C39.0620313,19.8175781 38.4226563,20.0088281 37.6285938,19.9005469 C36.8242188,19.7908594 36.1951563,19.4266406 35.7207813,18.8050781 C35.2670313,18.2275781 35.0401563,17.5366406 35.0401563,16.7425781 C35.0401563,15.9382031 35.2670313,15.3091406 35.7207813,14.8450781 C36.1951563,14.3528906 36.8242188,14.1705469 37.6285938,14.2802344 Z M37.6285938,14.9711719 C37.0614063,14.8938281 36.6179688,15.0499219 36.3085938,15.4408594 C36.0198438,15.7933594 35.8857813,16.2597656 35.8857813,16.8578906 C35.8857813,17.4457031 36.0198438,17.9486719 36.3085938,18.3799219 C36.6179688,18.8552344 37.0614063,19.1322656 37.6285938,19.2096094 C38.1854688,19.2855469 38.6289063,19.1294531 38.9589063,18.7413281 C39.2373438,18.3874219 39.3817188,17.9121094 39.3817188,17.3346094 C39.3817188,16.7364844 39.2373438,16.2321094 38.9589063,15.8022656 C38.6289063,15.3241406 38.1854688,15.0471094 37.6285938,14.9711719 Z M43.6132812,15.0963281 C44.9332812,15.2763281 45.6035937,16.0999219 45.6035937,17.5642969 L45.6035937,20.8436719 L44.7785937,20.7311719 L44.7785937,17.5136719 C44.7785937,16.4721094 44.3042187,15.8917969 43.3760937,15.7652344 C43.0048437,15.7146094 42.6851562,15.8050781 42.4170312,16.0366406 C42.1282812,16.2860156 41.9735937,16.6464844 41.9426562,17.1269531 L41.9426562,20.3444531 L41.1176562,20.2319531 L41.1176562,14.9003906 L41.9426562,15.0128906 L41.9426562,15.7966406 C42.1282812,15.5228906 42.3654687,15.3283594 42.6542187,15.2130469 C42.9429687,15.0874219 43.2626562,15.0485156 43.6132812,15.0963281 Z M49.9589062,13.9300781 C50.8767187,14.0552344 51.6089062,14.3716406 52.1554687,14.8999219 C52.6710937,15.3930469 52.9907812,16.0450781 53.1248437,16.8677344 L52.2792187,16.7524219 C52.1657812,16.1800781 51.9182812,15.7235156 51.5367187,15.3724219 C51.1345312,14.9978906 50.6085937,14.7714844 49.9589062,14.6828906 C49.1545312,14.5732031 48.5254687,14.7658594 48.0510937,15.2683594 C47.5767187,15.7605469 47.3498437,16.4824219 47.3498437,17.4311719 C47.3498437,18.3592969 47.5767187,19.1224219 48.0304687,19.7205469 C48.5151562,20.3538281 49.2370312,20.7410156 50.1960937,20.8717969 C50.5982812,20.9266406 50.9798437,20.9167969 51.3510937,20.8642969 C51.7120312,20.8103906 52.0214062,20.7082031 52.2792187,20.5783594 L52.2792187,18.7014844 L49.9692187,18.3864844 L49.9692187,17.6542969 L53.1145312,18.0832031 L53.1145312,21.0944531 C52.7639062,21.3353906 52.3307812,21.4928906 51.8254687,21.5889844 C51.2892187,21.6808594 50.7220312,21.6860156 50.1135937,21.6030469 C48.9482812,21.4441406 48.0407812,20.9491406 47.4014062,20.1194531 C46.8032812,19.3469531 46.5042187,18.4089844 46.5042187,17.3158594 C46.5042187,16.2227344 46.7929687,15.3649219 47.3910937,14.7349219 C48.0201562,14.0472656 48.8760937,13.7824219 49.9589062,13.9300781 Z M56.5932812,16.8663281 C56.8820312,16.9057031 57.1295312,16.9807031 57.3254687,17.0899219 L57.3254687,17.9149219 C57.0573437,17.7958594 56.7892187,17.7283594 56.5314062,17.6932031 C56.1189062,17.6369531 55.7682812,17.7644531 55.4898437,18.0977344 C55.2010937,18.4089844 55.0670312,18.8135156 55.0670312,19.3085156 L55.0670312,22.1341406 L54.2523437,22.0230469 L54.2523437,16.6914844 L55.0670312,16.8025781 L55.0670312,17.7307031 C55.2114062,17.4410156 55.3970312,17.2188281 55.6239062,17.0744531 C55.9023437,16.8855469 56.2220312,16.8157031 56.5932812,16.8663281 Z M60.1648437,17.3533594 C60.9279687,17.4574219 61.4848437,17.7292969 61.8560937,18.1821094 C62.1654687,18.5749219 62.3304687,19.0821094 62.3304687,19.7008594 L62.3304687,23.1246094 L61.5570312,23.0191406 L61.5570312,22.1219531 C61.3507812,22.3825781 61.0723437,22.5817969 60.7423437,22.7224219 C60.3504687,22.8855469 59.9070312,22.9385156 59.4120312,22.8710156 C58.8757812,22.7978906 58.4529687,22.6061719 58.1332812,22.2944531 C57.8032812,21.9710156 57.6382812,21.5875781 57.6382812,21.1544531 C57.6382812,20.5460156 57.8754687,20.1246094 58.3704687,19.8827344 C58.8035937,19.6530469 59.4223437,19.5827344 60.2267187,19.6821094 L61.5054687,19.8358594 L61.5054687,19.5574219 C61.5054687,18.6602344 61.0414062,18.1535156 60.1132812,18.0269531 C59.7214062,17.9735156 59.4017187,18.0021094 59.1542187,18.1333594 C58.8757812,18.2603906 58.7004687,18.4942969 58.6179687,18.8233594 L57.8032812,18.6503906 C57.9167187,18.1089844 58.1951562,17.7241406 58.6282812,17.5150781 C59.0201562,17.3210156 59.5254687,17.2661719 60.1648437,17.3533594 Z M61.5054687,20.4546094 L60.2782812,20.3078906 C59.0820312,20.1653906 58.4839062,20.4757031 58.4839062,21.2491406 C58.4839062,21.4966406 58.5767187,21.7052344 58.7829687,21.8983594 C58.9892187,22.0811719 59.2573437,22.2002344 59.5873437,22.2452344 C60.0926562,22.3141406 60.5360937,22.2096094 60.9279687,21.9330469 C61.3095312,21.6653906 61.5054687,21.3208594 61.5054687,20.9083594 L61.5054687,20.4546094 Z M65.9845312,18.1469531 C66.7476562,18.2510156 67.3560937,18.6124219 67.7995312,19.2503906 C68.2017187,19.8208594 68.4079687,20.4986719 68.4079687,21.3030469 C68.4079687,22.0867969 68.2017187,22.7083594 67.8098437,23.1705469 C67.3767187,23.6683594 66.7889062,23.8769531 66.0257812,23.7728906 C65.2626562,23.6688281 64.6748437,23.2174219 64.2623437,22.4186719 L64.2623437,25.4299219 L63.4373437,25.3174219 L63.4373437,17.9439844 L64.2107812,18.0494531 L64.2107812,18.9260156 C64.5923437,18.2974219 65.1801562,18.0372656 65.9845312,18.1469531 Z M65.8814062,18.8135156 C65.3451562,18.7403906 64.9223437,18.8889844 64.6335937,19.2724219 C64.3654687,19.6071094 64.2314062,20.0838281 64.2314062,20.6819531 L64.2314062,20.7850781 C64.2314062,21.4038281 64.3757812,21.9185156 64.6851562,22.3422656 C64.9739062,22.7528906 65.3554687,23.0008594 65.8504687,23.0683594 C66.4279687,23.1471094 66.8610937,22.9999219 67.1601562,22.6488281 C67.4282812,22.3141406 67.5623437,21.8271094 67.5623437,21.1877344 C67.5623437,20.5586719 67.4282812,20.0350781 67.1807812,19.6300781 C66.8817187,19.1561719 66.4485937,18.8908594 65.8814062,18.8135156 Z M69.3085937,16.5686719 L70.1335937,16.6811719 L70.1335937,19.7336719 C70.3192187,19.4186719 70.5667187,19.1946094 70.8760937,19.0614844 C71.1648437,18.9358594 71.4845312,18.8969531 71.8454687,18.9461719 C72.4642187,19.0305469 72.9489062,19.2719531 73.2789062,19.6882031 C73.6089062,20.0941406 73.7739062,20.6425781 73.7739062,21.3232031 L73.7739062,24.6850781 L72.9489062,24.5725781 L72.9489062,21.3344531 C72.9489062,20.8394531 72.8251562,20.4410156 72.5982812,20.1419531 C72.3507812,19.8400781 72.0104687,19.6596094 71.5670312,19.5991406 C71.1545312,19.5428906 70.8142187,19.6614844 70.5460937,19.9549219 C70.2676562,20.2469531 70.1335937,20.6514844 70.1335937,21.1464844 L70.1335937,24.1886719 L69.3085937,24.0761719 L69.3085937,16.5686719 Z" id="FunctionGraph" fill="#FFFFFF"></path>
            </g>
            <path d="M516.8,388.888889 L531.784028,391" id="路径" stroke="#E41F2B" stroke-linecap="round"></path>
            <path d="M524.35,389.944444 L524.35,406.4" id="路径-2" stroke="#E41F2B" stroke-linecap="round"></path>
        </g>
    </g>
</svg>